;TYPE=PLATED
;Layer: PTH_Through
;EasyEDA Pro v2.2.40.8, 2025-09-21 19:38:58
;Gerber Generator version 0.3
M48
METRIC,LZ,0000.00000
;Hole size 1 = 0.30480 METRIC
T01C0.30480
;Hole size 2 = 0.30500 METRIC
T02C0.30500
;Hole size 3 = 0.60000 METRIC
T03C0.60000
;Hole size 4 = 0.91440 METRIC
T04C0.91440
;Hole size 5 = 0.95000 METRIC
T05C0.95000
;Hole size 6 = 1.00000 METRIC
T06C1.00000
;Hole size 7 = 1.00000 METRIC
T07C1.00000
;Hole size 8 = 1.10002 METRIC
T08C1.10002
;Hole size 9 = 1.30002 METRIC
T09C1.30002
;Hole size 10 = 2.10002 METRIC
T10C2.10002
;Hole size 11 = 3.00000 METRIC
T11C3.00000
%
G05
G90
T01
X114.7572Y24.638
X116.7384Y24.638
X115.42179Y24.03218
X115.42179Y24.64178
X115.42179Y25.25138
X116.07361Y24.03218
X116.07361Y24.64178
X116.07361Y25.25138
X127.0Y62.738
X54.356Y48.26
X50.038Y43.053
X40.8432Y46.3296
X39.0144Y44.5008
X43.688Y34.8615
X42.2275Y35.56
X35.8775Y40.64
X36.83Y39.6875
X47.498Y62.865
X21.844Y46.101
X27.0764Y44.1452
X45.59347Y27.11403
X46.482Y29.0195
X52.07Y36.83
X52.07Y35.56
X53.34Y37.7825
X45.76608Y36.01081
X46.99Y37.465
X33.2232Y54.5592
X36.7538Y57.15
X36.5125Y58.1025
X45.085Y48.5775
X45.4025Y47.625
X33.528Y48.133
X36.62083Y49.6157
X41.5925Y52.705
X38.1Y55.18352
X38.35006Y57.56579
X42.2275Y53.34
X53.0225Y45.085
X35.8775Y54.2925
X53.34Y41.656
X48.6442Y51.15289
X47.98336Y52.13394
X48.514Y44.45
X33.3756Y60.1218
X33.51815Y38.6588
X106.68Y90.424
X124.587Y75.946
X124.333Y75.057
X39.9288Y21.6408
X46.0248Y32.004
X45.1104Y21.6408
X40.92994Y21.65115
X33.274Y24.13
X45.974Y52.324
X45.974Y53.594
X37.084Y60.706
X41.91Y61.976
X42.164Y43.434
X23.876Y85.852
X16.002Y72.136
X14.4272Y28.0416
X50.292Y40.5225
X14.6304Y68.12033
X16.129Y64.67087
X14.478Y64.06127
X13.1318Y64.67087
X13.2588Y67.61727
X16.1544Y67.33787
X12.6746Y66.11867
X16.5862Y66.11867
X4.2672Y26.56593
X5.7658Y23.11647
X4.1148Y22.50687
X2.7686Y23.11647
X2.7686Y25.93587
X5.7912Y25.91047
X2.3114Y24.56427
X6.223Y24.56427
X14.6304Y25.49913
X16.129Y22.17667
X14.478Y21.44007
X13.1318Y22.17667
X13.1318Y24.86907
X16.1544Y24.84367
X12.6746Y23.49747
X16.5862Y23.49747
X24.7904Y42.6466
X6.604Y51.562
X2.032Y46.482
X8.89Y40.894
X9.652Y36.195
X12.192Y42.926
X41.4528Y26.8224
X43.5864Y21.6408
X56.9976Y50.292
X9.398Y28.0416
X15.367Y16.383
X1.778Y52.832
X2.032Y41.402
X28.067Y89.408
X46.482Y75.946
X38.11687Y68.89171
X33.782Y75.946
X37.592Y72.898
X45.466Y69.85
X37.338Y63.754
X6.4008Y57.0992
X42.926Y32.004
X36.83Y7.874
X124.58136Y5.90619
X126.10536Y6.51579
X126.68956Y7.96359
X126.10536Y9.35812
X124.73376Y9.96525
X123.23516Y9.20819
X122.77796Y7.96359
X123.23516Y6.51579
X124.73376Y84.96536
X123.36216Y84.33529
X122.77796Y82.96369
X123.36216Y81.51589
X124.70836Y80.90629
X126.10536Y81.51589
X126.68956Y82.96369
X126.1618Y84.4042
X30.48Y1.016
X4.826Y69.85
X56.007Y19.177
X46.736Y54.102
X43.434Y89.408
X26.416Y50.292
X38.1Y42.672
X43.688Y45.212
X45.466Y43.434
X19.558Y28.448
X22.606Y9.652
X13.208Y30.48
X43.18Y50.546
X0.762Y57.658
X52.07Y74.93
X40.64Y68.834
X39.878Y63.5
X54.864Y72.644
X49.784Y76.835
X2.54Y67.818
X7.366Y71.12
X10.16Y71.628
X12.954Y72.644
X20.32Y79.756
X2.286Y22.098
X4.318Y20.066
X6.858Y18.796
X10.414Y18.288
X18.796Y12.954
X20.32Y10.16
X21.59Y6.604
X24.892Y2.794
X23.0505Y4.60387
X27.686Y1.524
X17.526Y76.2
X36.322Y84.328
X27.686Y59.69
X125.222Y52.324
X124.968Y48.768
X121.666Y40.64
X121.666Y39.37
X121.666Y38.1
X121.666Y36.83
X121.666Y35.56
X121.666Y34.29
X121.666Y33.274
X121.666Y32.004
X121.666Y30.734
X121.666Y29.464
X121.666Y28.194
X122.682Y40.64
X122.682Y39.37
X122.682Y38.1
X121.666Y27.178
X122.682Y27.178
X121.666Y26.162
X120.65Y26.162
X120.65Y27.178
X122.682Y26.162
X122.682Y28.194
X122.682Y29.464
X122.682Y30.734
X122.682Y32.004
X122.682Y33.274
X122.682Y34.29
X122.682Y35.56
X122.682Y36.83
X119.634Y26.162
X119.634Y27.178
X119.634Y25.146
X120.65Y25.146
X121.666Y18.796
X123.19Y18.796
X123.952Y21.082
X124.714Y25.146
X121.666Y25.146
X122.682Y25.146
X123.698Y27.178
X123.698Y26.162
X123.698Y25.146
X108.458Y27.178
X108.458Y28.194
X108.458Y29.21
X108.458Y30.226
X108.458Y31.242
X108.458Y32.258
X107.442Y28.194
X107.442Y30.226
X107.442Y32.258
X98.298Y6.35
X100.33Y8.382
X100.33Y6.35
X99.314Y7.366
X102.362Y8.382
X102.362Y6.35
X104.394Y8.382
X104.394Y6.35
X103.378Y7.366
X106.426Y8.382
X106.426Y6.35
X105.41Y7.366
X108.458Y8.382
X108.458Y6.35
X107.442Y7.366
X110.49Y8.382
X110.49Y6.35
X109.474Y7.366
X107.442Y5.588
X111.506Y5.588
X109.474Y5.588
X113.538Y5.588
X116.586Y8.382
X116.586Y6.35
X115.57Y5.588
X118.618Y8.382
X118.618Y6.35
X117.602Y7.366
X126.238Y23.114
X105.664Y1.27
X109.474Y33.274
X110.49Y33.274
X111.506Y33.274
X108.458Y33.274
X112.522Y33.274
X112.903Y36.322
X112.903Y35.306
X112.903Y34.29
X129.794Y36.83
X129.54Y15.875
X54.356Y42.926
X56.642Y43.688
X41.148Y40.132
X48.514Y38.862
X101.346Y7.366
X118.364Y53.848
X120.142Y62.484
X119.888Y59.309
X116.332Y53.34
X119.888Y53.34
X119.761Y57.023
X117.602Y57.658
X122.936Y51.39323
X113.03Y74.91801
X129.032Y38.862
X125.73Y35.56
X125.73Y28.956
X116.332Y71.628
X117.094Y71.628
X102.108Y34.798
X102.108Y30.734
X102.108Y28.702
X102.108Y26.67
X101.092Y25.146
X99.568Y23.622
X96.774Y20.828
X94.996Y16.764
X105.664Y21.59
X103.632Y23.876
X101.346Y21.59
X98.552Y18.796
X107.442Y34.29
X104.648Y67.945
X105.664Y67.945
X104.648Y66.675
X105.664Y66.675
X104.648Y65.405
X105.664Y65.405
X104.648Y63.119
X105.664Y63.119
X104.648Y61.849
X105.664Y61.849
X105.664Y60.579
X104.648Y60.579
X104.648Y59.309
X105.664Y59.309
X104.648Y56.769
X105.664Y56.769
X104.648Y55.499
X105.664Y55.499
X104.648Y54.229
X105.664Y54.229
X104.648Y52.959
X105.664Y52.959
X106.934Y76.454
X112.014Y80.264
X103.124Y83.058
X102.362Y83.058
X101.346Y83.058
X100.584Y83.058
X100.584Y82.296
X101.346Y82.296
X102.362Y82.296
X103.124Y82.296
X103.124Y81.534
X102.362Y81.534
X101.346Y81.534
X100.584Y81.534
X103.378Y88.19539
X102.235Y77.6192
X102.9494Y78.359
X105.283Y78.359
X108.20401Y88.10548
X122.555Y74.549
X121.412Y74.803
X113.157Y87.884
X114.681Y87.884
X116.205Y87.884
X117.729Y87.884
X111.506Y87.884
X118.872Y87.376
X119.253Y86.106
X112.903Y72.517
X113.792Y72.517
X114.681Y72.517
X112.903Y71.628
X113.792Y71.628
X114.681Y71.628
X104.648Y51.562
X105.664Y51.562
X104.648Y50.292
X61.341Y54.61
X60.706Y56.134
X60.071Y55.372
X59.436Y51.943
X58.166Y52.578
X58.801Y53.213
X57.531Y53.975
X64.262Y60.706
X64.135Y67.564
X76.327Y60.452
X75.311Y60.96
X74.295Y64.77
X74.422Y67.31
X91.821Y48.641
X90.932Y48.641
X92.71Y48.641
X67.183Y63.627
X62.611Y55.88
X122.682Y43.053
X122.682Y41.783
X121.666Y43.053
X121.666Y41.783
X120.65Y43.053
X120.65Y41.783
X119.634Y43.053
X119.634Y41.783
X118.618Y43.053
X118.618Y41.783
X117.602Y43.053
X117.602Y41.783
X116.586Y43.053
X116.586Y41.783
X115.57Y42.672
X115.57Y41.402
X83.82Y43.434
X83.82Y41.91
X81.534Y40.386
X83.82Y40.386
X81.534Y41.402
X78.74Y42.164
X63.119Y78.994
X45.339Y11.684
X42.291Y11.557
X122.936Y47.879
X102.616Y43.434
X70.993Y61.849
X115.824Y46.482
X124.46Y15.621
X126.873Y18.796
X129.794Y14.478
X88.011Y50.165
X81.534Y43.434
X77.47Y38.608
X128.524Y72.644
X76.97397Y30.52874
X74.041Y30.48
X70.739Y30.48
X63.373Y30.48
X67.056Y30.48
X59.182Y30.48
X57.658Y32.131
X60.579Y35.052
X61.595Y32.131
X76.962Y33.401
X74.041Y33.401
X72.517Y33.401
X66.929Y33.401
X63.373Y37.465
X55.626Y46.863
X76.454Y37.592
X76.96798Y28.47237
X74.03502Y28.42363
X70.73302Y28.42363
X67.05002Y28.42363
X63.36702Y28.42363
X59.17602Y28.42363
X85.598Y31.496
X89.027Y34.798
X125.857Y38.1
X125.857Y41.529
X127.0Y43.561
X124.46Y44.196
X114.554Y41.402
X85.598Y19.304
X85.598Y22.606
X85.598Y25.908
X88.2396Y16.1893
X88.2396Y19.4405
X88.2396Y22.6917
X88.2396Y25.9429
X88.2396Y29.1941
X91.4908Y12.9381
X91.4908Y16.1893
X91.4908Y19.4405
X91.4908Y22.6917
X91.4908Y25.9429
X91.4908Y29.1941
X91.4908Y32.4453
X94.742Y19.4405
X94.742Y22.6917
X94.742Y25.9429
X94.742Y29.1941
X94.742Y32.4453
X98.044Y22.352
X97.9932Y25.9429
X97.9932Y29.1941
X97.9932Y32.4453
X85.598Y14.224
X87.249Y12.827
X87.249Y9.906
X85.598Y11.43
X85.598Y6.096
X87.249Y4.318
X89.281Y1.524
X91.44Y1.524
X85.979Y8.382
X89.027Y5.842
X91.44Y3.429
X85.598Y1.524
X87.249Y1.524
X98.044Y34.798
X94.742Y34.798
X91.821Y34.798
X93.726Y1.524
X96.139Y1.524
X116.205Y44.45
X114.554Y42.672
X106.68Y67.945
X107.696Y67.945
X108.712Y67.945
X119.126Y70.485
X119.95658Y74.676
X76.581Y63.881
X120.27312Y50.05764
X44.958Y53.848
X35.179Y59.563
X41.3498Y59.90992
X97.663Y88.138
X95.631Y88.138
X93.599Y88.138
X91.313Y88.138
X58.928Y78.867
X98.90524Y51.435
X94.02844Y51.435
X100.203Y51.435
X95.24764Y51.435
X101.854Y51.435
X91.59004Y51.435
X97.68604Y51.435
X90.37084Y51.435
X89.154Y50.165
X103.378Y50.292
X101.854Y50.292
X100.203Y50.292
X92.80924Y50.2158
X96.46684Y50.2158
X94.02844Y50.2158
X95.24764Y50.2158
X98.90524Y50.2158
X91.59004Y50.2158
X97.68604Y50.2158
X90.37084Y50.2158
X89.154Y51.435
X88.011Y51.435
X103.378Y51.562
X92.80924Y51.435
X96.46684Y51.435
X85.9536Y52.4256
X98.933Y56.007
X101.854Y56.007
X98.9584Y53.1114
X101.8286Y53.1114
X101.3968Y42.164
X99.7712Y42.164
X98.1456Y42.164
X96.52Y42.164
X94.8944Y42.164
X101.3714Y38.608
X99.7458Y38.608
X98.1202Y38.608
X96.4946Y38.608
X94.869Y38.608
X76.81289Y80.11489
X73.56169Y80.11489
X70.31049Y80.11489
X67.05929Y80.11489
X63.80809Y80.11489
X76.835Y77.724
X73.5838Y77.724
X70.3326Y77.724
X67.0814Y77.724
X63.8302Y77.724
X76.581Y8.509
X73.3298Y8.509
X70.0786Y8.509
X66.8274Y8.509
X63.5762Y8.509
X76.581Y10.541
X73.2536Y10.541
X70.0024Y10.541
X66.7512Y10.541
X63.5Y10.541
X60.2869Y10.541
X60.325Y8.509
X76.581Y12.7
X73.3298Y12.7
X70.0786Y12.7
X66.8274Y12.7
X63.5762Y12.7
X60.325Y12.7
X76.708Y19.304
X73.4568Y19.304
X70.2056Y19.304
X66.9544Y19.304
X63.7032Y19.304
X60.452Y19.304
X52.578Y24.13
X10.16Y67.056
X97.663Y85.852
X25.4Y47.752
X44.577Y46.736
X69.85Y63.627
X67.28296Y65.786
X43.688Y14.605
X40.005Y16.002
X43.561Y5.588
X52.90383Y5.8406
X37.465Y89.408
X48.4124Y89.408
X61.849Y0.762
X35.687Y32.766
X56.261Y58.801
X50.8Y60.325
X22.352Y18.288
X20.32Y15.367
X20.32Y20.193
X8.23479Y58.94821
X10.16Y62.865
X7.493Y64.135
X9.271Y69.469
X58.293Y82.042
X76.708Y17.272
X73.4568Y17.272
X70.2056Y17.272
X66.9544Y17.272
X63.7032Y17.272
X60.452Y17.272
X76.581Y67.31
X53.213Y10.541
X85.852Y35.306
X90.297Y37.338
X92.71Y38.608
X86.995Y39.37
X87.884Y43.434
X87.884Y40.386
X87.884Y41.402
X87.884Y42.418
X88.9Y42.418
X88.9Y41.402
X103.26875Y45.72003
X100.01755Y44.95803
X96.76635Y44.95803
X93.51515Y44.95803
X63.119Y48.006
X73.4568Y23.58902
X66.93896Y23.58902
X36.195Y17.907
X39.751Y75.946
X73.533Y73.279
X67.056Y73.279
X119.253Y84.328
X119.253Y82.55
X43.688Y38.862
X60.452Y53.721
X64.008Y52.197
X96.52Y53.086
X124.714Y26.162
X124.714Y27.178
X106.94629Y74.91801
X95.25Y84.074
X95.25Y79.883
X97.409Y81.915
X93.091Y81.915
X93.726Y83.439
X96.901Y83.312
X96.901Y80.518
X93.726Y80.518
X92.202Y78.994
X92.202Y83.947
X86.614Y82.296
X89.662Y82.042
X89.662Y78.994
X85.852Y78.232
X85.852Y75.692
X85.852Y73.152
X85.852Y70.60827
X63.80809Y82.38235
X67.05929Y82.38235
X70.31049Y82.38235
X73.56169Y82.38235
X76.81289Y82.38235
X88.9Y43.434
X80.264Y40.386
X78.486Y39.624
X83.1215Y49.96434
X83.82Y86.614
X81.788Y88.646
X79.756Y86.614
X81.788Y84.582
X83.185Y88.011
X80.391Y88.011
X80.391Y85.217
X83.185Y85.217
X81.788Y5.7404
X83.312Y5.1054
X83.82Y3.7084
X83.312Y2.3114
X81.788Y1.6764
X80.264Y2.3114
X79.756Y3.7084
X80.264Y5.1054
X81.6864Y48.4632
X81.9912Y53.6448
X81.9912Y56.9976
X83.82Y59.7408
X83.82Y62.7888
X83.82Y70.7136
X83.82Y73.152
X79.8576Y63.7032
X78.9432Y60.3504
X83.5152Y45.1104
X82.4992Y39.4716
X83.5152Y35.3568
X83.5152Y30.7848
X81.6864Y35.3568
X79.8576Y30.7848
X83.5152Y28.3464
X79.8576Y28.3464
X83.5152Y25.908
X83.82Y19.2024
X83.61534Y10.52033
X83.5152Y8.2296
X83.5152Y0.9144
X78.9432Y0.9144
X78.9432Y8.2296
X83.82Y89.916
X78.9432Y89.916
X78.9432Y83.2104
X83.82Y83.2104
X85.6488Y28.3464
X83.5152Y16.4592
X85.852Y67.818
X85.852Y64.77
X85.852Y61.722
X85.852Y58.166
X85.852Y54.864
X43.11312Y57.4084
X75.184Y52.832
X73.66Y50.546
X73.66Y43.942
X73.66Y41.148
X16.764Y30.48
X2.54Y56.388
X113.792Y45.72
X105.156Y45.72
X107.696Y46.99
X105.156Y46.99
X104.648Y44.45
X81.534Y42.418
X80.264Y37.084
X80.264Y35.814
X82.54399Y44.41099
X78.74Y44.196
X108.458Y4.572
X110.49Y4.572
X112.522Y4.572
X114.554Y4.572
X116.586Y4.572
X106.426Y4.572
X118.618Y5.334
X102.108Y32.766
X28.84996Y57.46763
X120.5385Y18.288
X119.80872Y18.288
X112.522Y45.72
X124.206Y34.544
X112.776Y76.2
X106.299Y50.292
X103.632Y75.946
X104.648Y64.262
X105.75Y64.28907
X98.552Y17.272
X103.632Y17.272
X106.68Y17.272
X109.474Y17.272
X108.204Y19.304
X102.87Y68.621
X102.87Y59.436
X100.076Y75.819
X98.806Y78.74
X96.012Y75.438
X97.02667Y75.438
X99.822Y72.39
X92.0115Y76.344
X100.076Y59.309
X100.076Y61.79887
X100.076Y64.18866
X100.8487Y67.056
X101.092Y74.676
X98.806Y76.962
X92.48597Y66.3575
X90.99228Y66.3575
X89.48639Y66.3575
X93.95555Y66.3575
X95.30001Y66.3575
X95.30001Y65.0875
X95.30001Y67.70471
X95.30001Y63.86359
X95.30001Y62.61958
X95.30001Y61.40832
X95.30001Y60.12311
X95.25Y68.87599
X95.25Y70.1612
X95.25Y71.37246
X95.25Y72.61647
X93.92858Y59.69
X92.459Y59.69
X90.96531Y59.69
X89.45942Y59.69
X93.92858Y72.898
X92.459Y72.898
X90.96531Y72.898
X89.45942Y72.898
X93.92858Y71.12
X92.459Y71.12
X90.96531Y71.12
X89.45942Y71.12
X93.92858Y69.596
X92.459Y69.596
X90.96531Y69.596
X89.45942Y69.596
X93.92858Y68.072
X92.459Y68.072
X90.96531Y68.072
X89.45942Y68.072
X93.92858Y61.468
X92.459Y61.468
X90.96531Y61.468
X89.45942Y61.468
X93.92858Y62.992
X92.459Y62.992
X90.96531Y62.992
X89.45942Y62.992
X93.92858Y64.516
X92.459Y64.516
X90.96531Y64.516
X89.45942Y64.516
X87.884Y52.578
X87.884Y53.848
X87.884Y55.118
X93.5482Y47.117
X96.7994Y47.117
X100.0506Y47.117
X103.3018Y47.117
X87.884Y49.022
X89.154Y49.022
X87.884Y47.752
X89.154Y47.752
X87.884Y46.482
X89.154Y46.482
X93.218Y54.61
X107.442Y24.892
X108.458Y24.892
X109.474Y24.892
X109.474Y25.908
X108.458Y25.908
X107.442Y25.908
X110.49Y25.908
X110.49Y24.892
X111.506Y24.892
X111.506Y25.908
X112.522Y25.908
X112.522Y24.892
X20.574Y40.005
X29.337Y35.433
X21.209Y35.433
X31.115Y32.766
X28.321Y32.766
X16.50285Y40.13201
X9.89155Y30.48
X95.885Y4.699
X118.745Y59.182
X126.492Y34.29
X120.269Y68.834
X101.58278Y76.962
X105.9402Y81.661
X118.999Y55.372
X41.529Y31.242
X39.624Y20.193
X125.476Y39.751
X129.0542Y39.7501
X120.65Y89.73779
X21.082Y42.672
X18.034Y37.846
X9.652Y43.942
X11.938Y45.72
X33.782Y69.088
X35.306Y72.898
X52.07Y68.072
X32.39995Y37.32755
X16.764Y45.466
X2.794Y66.294
X5.842Y66.294
X5.842Y63.5
X2.794Y63.5
X4.318Y62.96418
X6.35Y65.024
X2.286Y65.024
X4.318Y67.056
X51.19521Y51.20792
X33.274Y63.754
X35.56Y60.706
X29.464Y53.086
X30.226Y49.53
X29.718Y86.37397
X32.3596Y32.40615
X31.75Y16.002
X32.92109Y28.9623
X34.5662Y37.084
X36.576Y16.51
X35.3986Y6.858
X33.02Y1.016
X35.56Y3.81
X41.91Y7.874
X31.496Y40.386
X30.226Y48.006
X-5.6388Y26.56593
X-4.1148Y25.91047
X-3.683Y24.56427
X-4.1402Y23.11647
X-5.7912Y22.50687
X-7.1374Y23.11647
X-7.5946Y24.56427
X-7.1374Y25.93587
X-5.588Y67.05353
X-4.064Y66.39807
X-3.6322Y65.05187
X-4.0894Y63.60407
X-5.7404Y62.99447
X-7.0866Y63.60407
X-7.5438Y65.05187
X-7.0866Y66.42347
X31.496Y53.594
X34.544Y55.372
X22.352Y72.39
X25.146Y76.2
X23.622Y70.612
X19.812Y62.992
X24.638Y57.404
X53.594Y53.848
X51.816Y52.07
X46.228Y2.032
X49.53Y0.762
X26.67Y5.08
X29.972Y6.096
X61.595Y49.022
X69.342Y40.894
X60.38849Y40.52172
X34.9218Y46.482
X33.02Y42.418
X23.876Y45.212
X23.876Y47.498
X19.24096Y50.19051
X32.512Y89.408
X40.894Y87.376
X28.956Y47.752
X67.6942Y42.418
X66.59348Y42.0939
X64.262Y47.752
X66.96899Y48.38447
X60.0141Y42.94756
X59.182Y46.3582
X56.2102Y45.7422
X69.04858Y48.388
X69.469Y47.244
X60.4552Y44.4722
X32.82625Y30.84079
X23.368Y32.766
X122.936Y55.5141
X123.56889Y52.70711
X51.816Y56.134
X67.31Y60.198
X47.244Y68.834
X-17.56079Y25.25904
X-17.68615Y53.52137
X-17.68615Y81.6718
X-14.732Y43.76532
X-12.192Y64.262
X-12.192Y79.756
X-11.65837Y46.88205
X-8.128Y57.404
X-12.192Y40.386
X-12.954Y12.446
X-10.89957Y48.1899
X6.35Y41.402
X2.032Y38.862
X6.35Y36.322
X2.032Y33.782
X2.032Y43.942
X6.43768Y46.482
X2.032Y49.022
X2.032Y36.36745
X2.032Y31.496
X85.598Y41.402
X85.598Y43.434
X85.598Y42.418
X85.598Y40.386
X21.036Y68.55399
X19.05Y68.58
X19.05Y65.278
X18.542Y59.182
X11.938Y59.182
X17.272Y60.96
X37.338Y85.852
X44.958Y84.074
X37.81574Y87.63
X30.48Y87.376
X57.388Y3.81
X45.72Y8.366
X52.324Y8.89
X36.703Y20.955
X37.846Y10.922
X34.9218Y47.4758
X40.01056Y47.63056
X35.052Y42.418
X55.118Y7.874
X54.61Y86.614
X49.784Y87.63
X51.324Y86.48598
X58.404Y87.122
X35.91658Y47.41045
X37.5063Y49.53
X37.338Y51.816
X43.434Y53.086
X48.1743Y54.6957
X46.736Y56.896
X48.1743Y82.042
X49.022Y69.342
X49.022Y73.152
X50.038Y82.042
X46.736Y82.042
X44.704Y80.772
X109.455Y74.168
X108.712Y74.168
X111.252Y74.168
X110.49Y73.533
X109.474Y74.803
X110.49Y74.803
X109.474Y73.533
X110.49Y74.168
T02
X125.73Y62.74994
X125.73Y64.25006
X121.92Y65.90005
X122.174Y60.30011
T03
X123.37415Y59.18002G85X124.47415Y59.18002
X123.37397Y67.81998G85X124.47397Y67.81998
X127.70406Y67.81998G85X128.50406Y67.81998
X127.70406Y59.18002G85X128.50406Y59.18002
T04
X73.152Y54.864
X70.612Y54.864
X68.072Y54.864
X65.532Y54.864
X65.786Y35.56
X68.326Y35.56
X70.866Y35.56
X73.406Y35.56
X21.844Y70.504
X21.844Y57.004
T05
X56.642Y38.86199
X59.182Y38.86199
X56.642Y36.322
X59.182Y36.322
X56.642Y33.78201
X59.182Y33.78201
T06
X24.9936Y26.45679
X24.9936Y18.85681
X79.121Y48.28794
X79.121Y51.78806
X14.224Y49.27599
X14.224Y46.736
X14.224Y44.196
X14.224Y41.65601
X21.59Y75.92601
X24.09Y73.42602
X19.09001Y73.42602
T07
X-2.286Y6.461G85X-2.286Y4.461
X9.652Y6.461G85X9.652Y4.461
X9.779Y84.09G85X9.779Y86.09
X-2.159Y84.09G85X-2.159Y86.09
T08
X39.60595Y7.13005
X41.402Y5.334
X43.19805Y3.53795
X39.60595Y83.03995
X41.402Y84.836
X43.19805Y86.63205
X-5.588Y51.562
X-5.588Y49.022
X-5.588Y46.482
X-5.588Y43.942
X-5.588Y41.402
X-5.588Y38.862
X-5.588Y36.322
X-5.588Y33.782
X-5.588Y31.242
T09
X4.953Y12.954
X7.493Y12.954
X7.62Y77.597
X5.08Y77.597
X2.54Y77.597
X0.0Y77.597
X-0.08989Y12.954
X2.45011Y12.954
T10
X95.25Y81.96997
X95.25Y9.47014
T11
X4.318Y65.024
X14.6304Y23.4696
X4.2672Y24.5364
X14.6304Y66.0908
X124.73376Y7.93572
X81.788Y86.614
X81.788Y3.7084
X124.73376Y82.93583
X-5.588Y65.024
X-5.6388Y24.5364
M30