;TYPE=NON_PLATED
;Layer: NPTH_Through
;EasyEDA Pro v2.2.40.8, 2025-09-21 19:38:58
;Gerber Generator version 0.3
M48
METRIC,LZ,0000.00000
;Hole size 1 = 0.64999 METRIC
T01C0.64999
;Hole size 2 = 1.01600 METRIC
T02C1.01600
;Hole size 3 = 2.50000 METRIC
T03C2.50000
;Hole size 4 = 3.00000 METRIC
T04C3.00000
;Hole size 5 = 5.08000 METRIC
T05C5.08000
%
G05
G90
T01
X124.42406Y66.39001
X124.42406Y60.60999
T02
X4.318Y31.242
X4.318Y33.782
X4.318Y36.322
X4.318Y38.862
X4.318Y41.402
X4.318Y43.942
X4.318Y46.482
X4.318Y49.022
X4.318Y51.562
T03
X56.976Y67.344
X56.976Y76.344
X81.962Y67.344
X81.962Y76.344
X81.962Y23.08
X81.962Y14.08
X56.976Y23.08
X56.976Y14.08
T04
X109.22Y53.085
X109.22Y37.085
X25.4Y37.085
X25.4Y53.085
T05
X3.7846Y5.3848
X3.77299Y85.12233
M30