G04 Layer: TopPasteMaskLayer*
G04 EasyEDA Pro v2.2.40.8, 2025-09-21 19:38:57*
G04 Gerber Generator version 0.3*
G04 Scale: 100 percent, Rotated: No, Reflected: No*
G04 Dimensions in millimeters*
G04 Leading zeros omitted, absolute positions, 4 integers and 5 decimals*
G04 Generated by one-click*
%FSLAX45Y45*%
%MOMM*%
%AMOval*1,1,$1,$2,$3*1,1,$1,$4,$5*20,1,$1,$2,$3,$4,$5,0*%
%AMRect*21,1,$1,$2,0,0,$3*%
%AMPolygonMacro1*4,1,29,-2.485,0.146,-2.485,0.376,-1.62102,0.38001,-1.61799,0.565,-1.52201,0.56599,-1.52102,1.016,1.52599,1.016,1.523,0.57099,1.62099,0.57099,1.62399,0.381,2.485,0.381,2.485,0.14699,1.62099,0.14699,1.62399,-0.13701,2.485,-0.13701,2.485,-0.37099,1.62099,-0.37099,1.62399,-0.56101,1.52599,-0.56101,1.52599,-1.01399,-1.52201,-1.016,-1.52201,-0.567,-1.62,-0.567,-1.61901,-0.37399,-2.48101,-0.37399,-2.47999,-0.143,-1.61799,-0.14399,-1.61901,0.14501,-1.62102,0.143,-2.485,0.146,0*%
%AMPolygonMacro2*4,1,29,2.485,-0.146,2.485,-0.376,1.62102,-0.38001,1.61799,-0.565,1.52201,-0.56599,1.52102,-1.016,-1.52599,-1.016,-1.523,-0.57099,-1.62099,-0.57099,-1.62399,-0.381,-2.485,-0.381,-2.485,-0.14699,-1.62099,-0.14699,-1.62399,0.13701,-2.485,0.13701,-2.485,0.37099,-1.62099,0.37099,-1.62399,0.56101,-1.52599,0.56101,-1.52599,1.01399,1.52201,1.016,1.52201,0.567,1.62,0.567,1.61901,0.37399,2.48101,0.37399,2.47999,0.143,1.61799,0.14399,1.61901,-0.14501,1.62102,-0.143,2.485,-0.146,0*%
%ADD10R,1.25001X0.7*%
%ADD11Oval,0.28001X-0.46669X0.46669X0.46669X-0.46669*%
%ADD12Oval,0.28001X-0.46669X-0.46669X0.46669X0.46669*%
%ADD13Rect,1.6X0.65001X44.97*%
%ADD14Rect,1.6X0.5X44.97*%
%ADD15R,1.0X1.39954*%
%ADD16R,1.2X0.5*%
%ADD17R,0.4006X1.25001*%
%ADD18R,0.4X1.25001*%
%ADD19R,2.2X2.4*%
%ADD20R,1.25001X1.0*%
%ADD21R,0.6X1.1*%
%ADD22R,0.9X2.2*%
%ADD23R,1.3589X1.5*%
%ADD24R,1.4X1.2*%
%ADD25R,1.55001X1.0*%
%ADD26R,0.24384X0.7*%
%ADD27R,0.7X0.24384*%
%ADD28PolygonMacro1*%
%ADD29PolygonMacro2*%
%ADD30R,2.4X4.39999*%
%ADD31R,4.39999X2.4*%
%ADD32R,0.9X0.8*%
%ADD33R,0.8X0.9*%
%ADD34R,3.49999X1.2*%
%ADD35R,1.2X3.49999*%
%ADD36R,2.0X2.0*%
%ADD37R,0.75001X1.0*%
%ADD38R,0.7X1.25001*%
%ADD39R,1.39954X1.0*%
%ADD40R,1.0X1.55001*%
%ADD41R,1.6X1.6*%
%ADD42R,1.1999X1.5*%
%ADD43R,1.1X0.6*%
%ADD44R,1.443X1.1*%
G75*


G04 PolygonModel Start*
G36*
G01X4157802Y6236200D02*
G01X4157802Y6108202D01*
G01X4152801Y6103201D01*
G01X4037800Y6103201D01*
G01X4032801Y6108202D01*
G01X4032298Y6149205D01*
G01X4077299Y6149205D01*
G01X4077299Y6194204D01*
G01X4033299Y6194204D01*
G01X4032801Y6236200D01*
G01X4037800Y6241202D01*
G01X4152801Y6241202D01*
G01X4157802Y6236200D01*
G37*
G36*
G01X3942801Y6236200D02*
G01X3942799Y6194204D01*
G01X3898301Y6194204D01*
G01X3898301Y6149205D01*
G01X3942298Y6149205D01*
G01X3942801Y6108202D01*
G01X3937800Y6103201D01*
G01X3822802Y6103201D01*
G01X3817800Y6108202D01*
G01X3817800Y6236200D01*
G01X3822802Y6241202D01*
G01X3937800Y6241202D01*
G01X3942801Y6236200D01*
G37*
G36*
G01X3264400Y8084998D02*
G01X3136402Y8084998D01*
G01X3131401Y8089999D01*
G01X3131401Y8205000D01*
G01X3136402Y8209999D01*
G01X3177405Y8210502D01*
G01X3177405Y8165501D01*
G01X3222404Y8165501D01*
G01X3222404Y8209501D01*
G01X3264400Y8209999D01*
G01X3269402Y8205000D01*
G01X3269402Y8089999D01*
G01X3264400Y8084998D01*
G37*
G36*
G01X3264400Y8299999D02*
G01X3222404Y8300001D01*
G01X3222404Y8344499D01*
G01X3177405Y8344499D01*
G01X3177405Y8300502D01*
G01X3136402Y8299999D01*
G01X3131401Y8305000D01*
G01X3131401Y8419998D01*
G01X3136402Y8425000D01*
G01X3264400Y8425000D01*
G01X3269402Y8419998D01*
G01X3269402Y8305000D01*
G01X3264400Y8299999D01*
G37*
G36*
G01X2801798Y2958600D02*
G01X2801798Y3086598D01*
G01X2806799Y3091599D01*
G01X2921800Y3091599D01*
G01X2926799Y3086598D01*
G01X2927302Y3045595D01*
G01X2882301Y3045595D01*
G01X2882301Y3000596D01*
G01X2926301Y3000596D01*
G01X2926799Y2958600D01*
G01X2921800Y2953598D01*
G01X2806799Y2953598D01*
G01X2801798Y2958600D01*
G37*
G36*
G01X3016799Y2958600D02*
G01X3016801Y3000596D01*
G01X3061299Y3000596D01*
G01X3061299Y3045595D01*
G01X3017302Y3045595D01*
G01X3016799Y3086598D01*
G01X3021800Y3091599D01*
G01X3136798Y3091599D01*
G01X3141800Y3086598D01*
G01X3141800Y2958600D01*
G01X3136798Y2953598D01*
G01X3021800Y2953598D01*
G01X3016799Y2958600D01*
G37*
G36*
G01X5721715Y4846295D02*
G01X5631206Y4755787D01*
G01X5624134Y4755787D01*
G01X5542816Y4837105D01*
G01X5542817Y4844176D01*
G01X5571455Y4873525D01*
G01X5603276Y4841705D01*
G01X5635095Y4873524D01*
G01X5603982Y4904637D01*
G01X5633326Y4934684D01*
G01X5640397Y4934686D01*
G01X5721715Y4853368D01*
G01X5721715Y4846295D01*
G37*
G36*
G01X5569686Y4998324D02*
G01X5539989Y4968630D01*
G01X5508524Y5000095D01*
G01X5476705Y4968276D01*
G01X5507816Y4937165D01*
G01X5479178Y4907816D01*
G01X5472105Y4907816D01*
G01X5390789Y4989132D01*
G01X5390789Y4996205D01*
G01X5481297Y5086713D01*
G01X5488370Y5086713D01*
G01X5569686Y5005397D01*
G01X5569686Y4998324D01*
G37*
G36*
G01X12479198Y5651000D02*
G01X12479198Y5778998D01*
G01X12484199Y5783999D01*
G01X12599200Y5783999D01*
G01X12604199Y5778998D01*
G01X12604702Y5737995D01*
G01X12559701Y5737995D01*
G01X12559701Y5692996D01*
G01X12603701Y5692996D01*
G01X12604199Y5651000D01*
G01X12599200Y5645998D01*
G01X12484199Y5645998D01*
G01X12479198Y5651000D01*
G37*
G36*
G01X12694199Y5651000D02*
G01X12694201Y5692996D01*
G01X12738699Y5692996D01*
G01X12738699Y5737995D01*
G01X12694702Y5737995D01*
G01X12694199Y5778998D01*
G01X12699200Y5783999D01*
G01X12814198Y5783999D01*
G01X12819200Y5778998D01*
G01X12819200Y5651000D01*
G01X12814198Y5645998D01*
G01X12699200Y5645998D01*
G01X12694199Y5651000D01*
G37*
G36*
G01X12806502Y7080750D02*
G01X12806502Y6952752D01*
G01X12801501Y6947751D01*
G01X12686500Y6947751D01*
G01X12681501Y6952752D01*
G01X12680998Y6993755D01*
G01X12725999Y6993755D01*
G01X12725999Y7038754D01*
G01X12681999Y7038754D01*
G01X12681501Y7080750D01*
G01X12686500Y7085752D01*
G01X12801501Y7085752D01*
G01X12806502Y7080750D01*
G37*
G36*
G01X12591501Y7080750D02*
G01X12591499Y7038754D01*
G01X12547001Y7038754D01*
G01X12547001Y6993755D01*
G01X12590998Y6993755D01*
G01X12591501Y6952752D01*
G01X12586500Y6947751D01*
G01X12471502Y6947751D01*
G01X12466500Y6952752D01*
G01X12466500Y7080750D01*
G01X12471502Y7085752D01*
G01X12586500Y7085752D01*
G01X12591501Y7080750D01*
G37*
G36*
G01X11851503Y2093996D02*
G01X11851503Y1965998D01*
G01X11846502Y1960997D01*
G01X11731501Y1960997D01*
G01X11726502Y1965998D01*
G01X11725999Y2007001D01*
G01X11771000Y2007001D01*
G01X11771000Y2052000D01*
G01X11727000Y2052000D01*
G01X11726502Y2093996D01*
G01X11731501Y2098998D01*
G01X11846502Y2098998D01*
G01X11851503Y2093996D01*
G37*
G36*
G01X11636502Y2093996D02*
G01X11636499Y2052000D01*
G01X11592001Y2052000D01*
G01X11592001Y2007001D01*
G01X11635999Y2007001D01*
G01X11636502Y1965998D01*
G01X11631501Y1960997D01*
G01X11516502Y1960997D01*
G01X11511501Y1965998D01*
G01X11511501Y2093996D01*
G01X11516502Y2098998D01*
G01X11631501Y2098998D01*
G01X11636502Y2093996D01*
G37*
G36*
G01X4147320Y2049602D02*
G01X4275318Y2049602D01*
G01X4280319Y2044601D01*
G01X4280319Y1929600D01*
G01X4275318Y1924601D01*
G01X4234315Y1924098D01*
G01X4234315Y1969099D01*
G01X4189316Y1969099D01*
G01X4189316Y1925099D01*
G01X4147320Y1924601D01*
G01X4142318Y1929600D01*
G01X4142318Y2044601D01*
G01X4147320Y2049602D01*
G37*
G36*
G01X4147320Y1834601D02*
G01X4189316Y1834599D01*
G01X4189316Y1790101D01*
G01X4234315Y1790101D01*
G01X4234315Y1834098D01*
G01X4275318Y1834601D01*
G01X4280319Y1829600D01*
G01X4280319Y1714602D01*
G01X4275318Y1709600D01*
G01X4147320Y1709600D01*
G01X4142318Y1714602D01*
G01X4142318Y1829600D01*
G01X4147320Y1834601D01*
G37*
G36*
G01X4431800Y2049602D02*
G01X4559798Y2049602D01*
G01X4564799Y2044601D01*
G01X4564799Y1929600D01*
G01X4559798Y1924601D01*
G01X4518795Y1924098D01*
G01X4518795Y1969099D01*
G01X4473796Y1969099D01*
G01X4473796Y1925099D01*
G01X4431800Y1924601D01*
G01X4426798Y1929600D01*
G01X4426798Y2044601D01*
G01X4431800Y2049602D01*
G37*
G36*
G01X4431800Y1834601D02*
G01X4473796Y1834599D01*
G01X4473796Y1790101D01*
G01X4518795Y1790101D01*
G01X4518795Y1834098D01*
G01X4559798Y1834601D01*
G01X4564799Y1829600D01*
G01X4564799Y1714602D01*
G01X4559798Y1709600D01*
G01X4431800Y1709600D01*
G01X4426798Y1714602D01*
G01X4426798Y1829600D01*
G01X4431800Y1834601D01*
G37*
G36*
G01X6215202Y5093200D02*
G01X6215202Y4965202D01*
G01X6210201Y4960201D01*
G01X6095200Y4960201D01*
G01X6090201Y4965202D01*
G01X6089698Y5006205D01*
G01X6134699Y5006205D01*
G01X6134699Y5051204D01*
G01X6090699Y5051204D01*
G01X6090201Y5093200D01*
G01X6095200Y5098202D01*
G01X6210201Y5098202D01*
G01X6215202Y5093200D01*
G37*
G36*
G01X6000201Y5093200D02*
G01X6000199Y5051204D01*
G01X5955701Y5051204D01*
G01X5955701Y5006205D01*
G01X5999698Y5006205D01*
G01X6000201Y4965202D01*
G01X5995200Y4960201D01*
G01X5880202Y4960201D01*
G01X5875200Y4965202D01*
G01X5875200Y5093200D01*
G01X5880202Y5098202D01*
G01X5995200Y5098202D01*
G01X6000201Y5093200D01*
G37*
G36*
G01X4863600Y3370402D02*
G01X4991598Y3370402D01*
G01X4996599Y3365401D01*
G01X4996599Y3250400D01*
G01X4991598Y3245401D01*
G01X4950595Y3244898D01*
G01X4950595Y3289899D01*
G01X4905596Y3289899D01*
G01X4905596Y3245899D01*
G01X4863600Y3245401D01*
G01X4858598Y3250400D01*
G01X4858598Y3365401D01*
G01X4863600Y3370402D01*
G37*
G36*
G01X4863600Y3155401D02*
G01X4905596Y3155399D01*
G01X4905596Y3110901D01*
G01X4950595Y3110901D01*
G01X4950595Y3154898D01*
G01X4991598Y3155401D01*
G01X4996599Y3150400D01*
G01X4996599Y3035402D01*
G01X4991598Y3030400D01*
G01X4863600Y3030400D01*
G01X4858598Y3035402D01*
G01X4858598Y3150400D01*
G01X4863600Y3155401D01*
G37*
G36*
G01X6212703Y4837196D02*
G01X6212703Y4709198D01*
G01X6207702Y4704197D01*
G01X6092701Y4704197D01*
G01X6087702Y4709198D01*
G01X6087199Y4750201D01*
G01X6132200Y4750201D01*
G01X6132200Y4795200D01*
G01X6088200Y4795200D01*
G01X6087702Y4837196D01*
G01X6092701Y4842198D01*
G01X6207702Y4842198D01*
G01X6212703Y4837196D01*
G37*
G36*
G01X5997702Y4837196D02*
G01X5997699Y4795200D01*
G01X5953201Y4795200D01*
G01X5953201Y4750201D01*
G01X5997199Y4750201D01*
G01X5997702Y4709198D01*
G01X5992701Y4704197D01*
G01X5877702Y4704197D01*
G01X5872701Y4709198D01*
G01X5872701Y4837196D01*
G01X5877702Y4842198D01*
G01X5992701Y4842198D01*
G01X5997702Y4837196D01*
G37*
G36*
G01X6746103Y5040396D02*
G01X6746103Y4912398D01*
G01X6741102Y4907397D01*
G01X6626101Y4907397D01*
G01X6621102Y4912398D01*
G01X6620599Y4953401D01*
G01X6665600Y4953401D01*
G01X6665600Y4998400D01*
G01X6621600Y4998400D01*
G01X6621102Y5040396D01*
G01X6626101Y5045398D01*
G01X6741102Y5045398D01*
G01X6746103Y5040396D01*
G37*
G36*
G01X6531102Y5040396D02*
G01X6531099Y4998400D01*
G01X6486601Y4998400D01*
G01X6486601Y4953401D01*
G01X6530599Y4953401D01*
G01X6531102Y4912398D01*
G01X6526101Y4907397D01*
G01X6411102Y4907397D01*
G01X6406101Y4912398D01*
G01X6406101Y5040396D01*
G01X6411102Y5045398D01*
G01X6526101Y5045398D01*
G01X6531102Y5040396D01*
G37*
G36*
G01X7024604Y4739503D02*
G01X7152602Y4739503D01*
G01X7157603Y4734502D01*
G01X7157603Y4619501D01*
G01X7152602Y4614502D01*
G01X7111599Y4613999D01*
G01X7111599Y4659000D01*
G01X7066600Y4659000D01*
G01X7066600Y4615000D01*
G01X7024604Y4614502D01*
G01X7019602Y4619501D01*
G01X7019602Y4734502D01*
G01X7024604Y4739503D01*
G37*
G36*
G01X7024604Y4524502D02*
G01X7066600Y4524499D01*
G01X7066600Y4480001D01*
G01X7111599Y4480001D01*
G01X7111599Y4523999D01*
G01X7152602Y4524502D01*
G01X7157603Y4519501D01*
G01X7157603Y4404502D01*
G01X7152602Y4399501D01*
G01X7024604Y4399501D01*
G01X7019602Y4404502D01*
G01X7019602Y4519501D01*
G01X7024604Y4524502D01*
G37*
G36*
G01X6512697Y4027404D02*
G01X6512697Y4155402D01*
G01X6517698Y4160403D01*
G01X6632699Y4160403D01*
G01X6637698Y4155402D01*
G01X6638201Y4114399D01*
G01X6593200Y4114399D01*
G01X6593200Y4069400D01*
G01X6637200Y4069400D01*
G01X6637698Y4027404D01*
G01X6632699Y4022402D01*
G01X6517698Y4022402D01*
G01X6512697Y4027404D01*
G37*
G36*
G01X6727698Y4027404D02*
G01X6727701Y4069400D01*
G01X6772199Y4069400D01*
G01X6772199Y4114399D01*
G01X6728201Y4114399D01*
G01X6727698Y4155402D01*
G01X6732699Y4160403D01*
G01X6847698Y4160403D01*
G01X6852699Y4155402D01*
G01X6852699Y4027404D01*
G01X6847698Y4022402D01*
G01X6732699Y4022402D01*
G01X6727698Y4027404D01*
G37*
G36*
G01X6792360Y4312515D02*
G02X6764359Y4312515I-14000J0D01*
G01X6764359Y4364514D01*
G02X6792360Y4364514I14000J0D01*
G01X6792360Y4312515D01*
G37*
G36*
G01X6742373Y4312515D02*
G02X6714372Y4312515I-14000J0D01*
G01X6714372Y4364514D01*
G02X6742373Y4364514I14000J0D01*
G01X6742373Y4312515D01*
G37*
G36*
G01X6692360Y4312515D02*
G02X6664359Y4312515I-14000J0D01*
G01X6664359Y4364514D01*
G02X6692360Y4364514I14000J0D01*
G01X6692360Y4312515D01*
G37*
G36*
G01X6642373Y4312515D02*
G02X6614372Y4312515I-14000J0D01*
G01X6614372Y4364514D01*
G02X6642373Y4364514I14000J0D01*
G01X6642373Y4312515D01*
G37*
G36*
G01X6592360Y4312515D02*
G02X6564359Y4312515I-14000J0D01*
G01X6564359Y4364514D01*
G02X6592360Y4364514I14000J0D01*
G01X6592360Y4312515D01*
G37*
G36*
G01X6542373Y4312515D02*
G02X6514372Y4312515I-14000J0D01*
G01X6514372Y4364514D01*
G02X6542373Y4364514I14000J0D01*
G01X6542373Y4312515D01*
G37*
G36*
G01X6427367Y4400307D02*
G02X6427367Y4428308I0J14000D01*
G01X6479366Y4428308D01*
G02X6479366Y4400307I0J-14000D01*
G01X6427367Y4400307D01*
G37*
G36*
G01X6427367Y4449507D02*
G02X6427367Y4477508I0J14000D01*
G01X6479366Y4477508D01*
G02X6479366Y4449507I0J-14000D01*
G01X6427367Y4449507D01*
G37*
G36*
G01X6427367Y4499520D02*
G02X6427367Y4527521I0J14000D01*
G01X6479366Y4527521D01*
G02X6479366Y4499520I0J-14000D01*
G01X6427367Y4499520D01*
G37*
G36*
G01X6427367Y4549507D02*
G02X6427367Y4577508I0J14000D01*
G01X6479366Y4577508D01*
G02X6479366Y4549507I0J-14000D01*
G01X6427367Y4549507D01*
G37*
G36*
G01X6427367Y4599520D02*
G02X6427367Y4627521I0J14000D01*
G01X6479366Y4627521D01*
G02X6479366Y4599520I0J-14000D01*
G01X6427367Y4599520D01*
G37*
G36*
G01X6427367Y4649507D02*
G02X6427367Y4677508I0J14000D01*
G01X6479366Y4677508D01*
G02X6479366Y4649507I0J-14000D01*
G01X6427367Y4649507D01*
G37*
G36*
G01X6542373Y4712514D02*
G02X6514372Y4712514I-14000J0D01*
G01X6514372Y4764513D01*
G02X6542373Y4764513I14000J0D01*
G01X6542373Y4712514D01*
G37*
G36*
G01X6592360Y4712514D02*
G02X6564359Y4712514I-14000J0D01*
G01X6564359Y4764513D01*
G02X6592360Y4764513I14000J0D01*
G01X6592360Y4712514D01*
G37*
G36*
G01X6642373Y4712514D02*
G02X6614372Y4712514I-14000J0D01*
G01X6614372Y4764513D01*
G02X6642373Y4764513I14000J0D01*
G01X6642373Y4712514D01*
G37*
G36*
G01X6692360Y4712514D02*
G02X6664359Y4712514I-14000J0D01*
G01X6664359Y4764513D01*
G02X6692360Y4764513I14000J0D01*
G01X6692360Y4712514D01*
G37*
G36*
G01X6742373Y4712514D02*
G02X6714372Y4712514I-14000J0D01*
G01X6714372Y4764513D01*
G02X6742373Y4764513I14000J0D01*
G01X6742373Y4712514D01*
G37*
G36*
G01X6792360Y4712514D02*
G02X6764359Y4712514I-14000J0D01*
G01X6764359Y4764513D01*
G02X6792360Y4764513I14000J0D01*
G01X6792360Y4712514D01*
G37*
G36*
G01X6827366Y4649507D02*
G02X6827366Y4677508I0J14000D01*
G01X6879365Y4677508D01*
G02X6879365Y4649507I0J-14000D01*
G01X6827366Y4649507D01*
G37*
G36*
G01X6827366Y4599520D02*
G02X6827366Y4627521I0J14000D01*
G01X6879365Y4627521D01*
G02X6879365Y4599520I0J-14000D01*
G01X6827366Y4599520D01*
G37*
G36*
G01X6827366Y4549507D02*
G02X6827366Y4577508I0J14000D01*
G01X6879365Y4577508D01*
G02X6879365Y4549507I0J-14000D01*
G01X6827366Y4549507D01*
G37*
G36*
G01X6827366Y4499520D02*
G02X6827366Y4527521I0J14000D01*
G01X6879365Y4527521D01*
G02X6879365Y4499520I0J-14000D01*
G01X6827366Y4499520D01*
G37*
G36*
G01X6827366Y4449507D02*
G02X6827366Y4477508I0J14000D01*
G01X6879365Y4477508D01*
G02X6879365Y4449507I0J-14000D01*
G01X6827366Y4449507D01*
G37*
G36*
G01X6827366Y4399520D02*
G02X6827366Y4427521I0J14000D01*
G01X6879365Y4427521D01*
G02X6879365Y4399520I0J-14000D01*
G01X6827366Y4399520D01*
G37*
G36*
G01X6545365Y4431758D02*
G01X6545365Y4647759D01*
G01X6761367Y4647759D01*
G01X6761367Y4431758D01*
G01X6545365Y4431758D01*
G37*
G36*
G01X6789598Y5117600D02*
G01X6789598Y5245598D01*
G01X6794599Y5250599D01*
G01X6909600Y5250599D01*
G01X6914599Y5245598D01*
G01X6915102Y5204595D01*
G01X6870101Y5204595D01*
G01X6870101Y5159596D01*
G01X6914101Y5159596D01*
G01X6914599Y5117600D01*
G01X6909600Y5112598D01*
G01X6794599Y5112598D01*
G01X6789598Y5117600D01*
G37*
G36*
G01X7004599Y5117600D02*
G01X7004601Y5159596D01*
G01X7049099Y5159596D01*
G01X7049099Y5204595D01*
G01X7005102Y5204595D01*
G01X7004599Y5245598D01*
G01X7009600Y5250599D01*
G01X7124598Y5250599D01*
G01X7129600Y5245598D01*
G01X7129600Y5117600D01*
G01X7124598Y5112598D01*
G01X7009600Y5112598D01*
G01X7004599Y5117600D01*
G37*
G36*
G01X6840398Y3796800D02*
G01X6840398Y3924798D01*
G01X6845399Y3929799D01*
G01X6960400Y3929799D01*
G01X6965399Y3924798D01*
G01X6965902Y3883795D01*
G01X6920901Y3883795D01*
G01X6920901Y3838796D01*
G01X6964901Y3838796D01*
G01X6965399Y3796800D01*
G01X6960400Y3791798D01*
G01X6845399Y3791798D01*
G01X6840398Y3796800D01*
G37*
G36*
G01X7055399Y3796800D02*
G01X7055401Y3838796D01*
G01X7099899Y3838796D01*
G01X7099899Y3883795D01*
G01X7055902Y3883795D01*
G01X7055399Y3924798D01*
G01X7060400Y3929799D01*
G01X7175398Y3929799D01*
G01X7180400Y3924798D01*
G01X7180400Y3796800D01*
G01X7175398Y3791798D01*
G01X7060400Y3791798D01*
G01X7055399Y3796800D01*
G37*
G36*
G01X4564202Y6236200D02*
G01X4564202Y6108202D01*
G01X4559201Y6103201D01*
G01X4444200Y6103201D01*
G01X4439201Y6108202D01*
G01X4438698Y6149205D01*
G01X4483699Y6149205D01*
G01X4483699Y6194204D01*
G01X4439699Y6194204D01*
G01X4439201Y6236200D01*
G01X4444200Y6241202D01*
G01X4559201Y6241202D01*
G01X4564202Y6236200D01*
G37*
G36*
G01X4349201Y6236200D02*
G01X4349199Y6194204D01*
G01X4304701Y6194204D01*
G01X4304701Y6149205D01*
G01X4348698Y6149205D01*
G01X4349201Y6108202D01*
G01X4344200Y6103201D01*
G01X4229202Y6103201D01*
G01X4224200Y6108202D01*
G01X4224200Y6236200D01*
G01X4229202Y6241202D01*
G01X4344200Y6241202D01*
G01X4349201Y6236200D01*
G37*
G36*
G01X5311003Y6335796D02*
G01X5311003Y6207798D01*
G01X5306002Y6202797D01*
G01X5191001Y6202797D01*
G01X5186002Y6207798D01*
G01X5185499Y6248801D01*
G01X5230500Y6248801D01*
G01X5230500Y6293800D01*
G01X5186500Y6293800D01*
G01X5186002Y6335796D01*
G01X5191001Y6340798D01*
G01X5306002Y6340798D01*
G01X5311003Y6335796D01*
G37*
G36*
G01X5096002Y6335796D02*
G01X5095999Y6293800D01*
G01X5051501Y6293800D01*
G01X5051501Y6248801D01*
G01X5095499Y6248801D01*
G01X5096002Y6207798D01*
G01X5091001Y6202797D01*
G01X4976002Y6202797D01*
G01X4971001Y6207798D01*
G01X4971001Y6335796D01*
G01X4976002Y6340798D01*
G01X5091001Y6340798D01*
G01X5096002Y6335796D01*
G37*
G36*
G01X3113004Y6441303D02*
G01X3241002Y6441303D01*
G01X3246003Y6436302D01*
G01X3246003Y6321301D01*
G01X3241002Y6316302D01*
G01X3199999Y6315799D01*
G01X3199999Y6360800D01*
G01X3155000Y6360800D01*
G01X3155000Y6316800D01*
G01X3113004Y6316302D01*
G01X3108002Y6321301D01*
G01X3108002Y6436302D01*
G01X3113004Y6441303D01*
G37*
G36*
G01X3113004Y6226302D02*
G01X3155000Y6226299D01*
G01X3155000Y6181801D01*
G01X3199999Y6181801D01*
G01X3199999Y6225799D01*
G01X3241002Y6226302D01*
G01X3246003Y6221301D01*
G01X3246003Y6106302D01*
G01X3241002Y6101301D01*
G01X3113004Y6101301D01*
G01X3108002Y6106302D01*
G01X3108002Y6221301D01*
G01X3113004Y6226302D01*
G37*
G36*
G01X12479198Y4558800D02*
G01X12479198Y4686798D01*
G01X12484199Y4691799D01*
G01X12599200Y4691799D01*
G01X12604199Y4686798D01*
G01X12604702Y4645795D01*
G01X12559701Y4645795D01*
G01X12559701Y4600796D01*
G01X12603701Y4600796D01*
G01X12604199Y4558800D01*
G01X12599200Y4553798D01*
G01X12484199Y4553798D01*
G01X12479198Y4558800D01*
G37*
G36*
G01X12694199Y4558800D02*
G01X12694201Y4600796D01*
G01X12738699Y4600796D01*
G01X12738699Y4645795D01*
G01X12694702Y4645795D01*
G01X12694199Y4686798D01*
G01X12699200Y4691799D01*
G01X12814198Y4691799D01*
G01X12819200Y4686798D01*
G01X12819200Y4558800D01*
G01X12814198Y4553798D01*
G01X12699200Y4553798D01*
G01X12694199Y4558800D01*
G37*
G36*
G01X12479198Y5397000D02*
G01X12479198Y5524998D01*
G01X12484199Y5529999D01*
G01X12599200Y5529999D01*
G01X12604199Y5524998D01*
G01X12604702Y5483995D01*
G01X12559701Y5483995D01*
G01X12559701Y5438996D01*
G01X12603701Y5438996D01*
G01X12604199Y5397000D01*
G01X12599200Y5391998D01*
G01X12484199Y5391998D01*
G01X12479198Y5397000D01*
G37*
G36*
G01X12694199Y5397000D02*
G01X12694201Y5438996D01*
G01X12738699Y5438996D01*
G01X12738699Y5483995D01*
G01X12694702Y5483995D01*
G01X12694199Y5524998D01*
G01X12699200Y5529999D01*
G01X12814198Y5529999D01*
G01X12819200Y5524998D01*
G01X12819200Y5397000D01*
G01X12814198Y5391998D01*
G01X12699200Y5391998D01*
G01X12694199Y5397000D01*
G37*
G36*
G01X12296003Y2093996D02*
G01X12296003Y1965998D01*
G01X12291002Y1960997D01*
G01X12176001Y1960997D01*
G01X12171002Y1965998D01*
G01X12170499Y2007001D01*
G01X12215500Y2007001D01*
G01X12215500Y2052000D01*
G01X12171500Y2052000D01*
G01X12171002Y2093996D01*
G01X12176001Y2098998D01*
G01X12291002Y2098998D01*
G01X12296003Y2093996D01*
G37*
G36*
G01X12081002Y2093996D02*
G01X12080999Y2052000D01*
G01X12036501Y2052000D01*
G01X12036501Y2007001D01*
G01X12080499Y2007001D01*
G01X12081002Y1965998D01*
G01X12076001Y1960997D01*
G01X11961002Y1960997D01*
G01X11956001Y1965998D01*
G01X11956001Y2093996D01*
G01X11961002Y2098998D01*
G01X12076001Y2098998D01*
G01X12081002Y2093996D01*
G37*
G36*
G01X12013212Y5104407D02*
G01X12013212Y4852408D01*
G01X11761211Y4852408D01*
G01X11761211Y5104407D01*
G01X12013212Y5104407D01*
G37*
G36*
G01X12023314Y5254401D02*
G02X12051317Y5254401I14002J0D01*
G01X12051317Y5187401D01*
G02X12023314Y5187401I-14002J0D01*
G01X12023314Y5254401D01*
G37*
G36*
G01X11973273Y5254401D02*
G02X12001276Y5254401I14002J0D01*
G01X12001276Y5187401D01*
G02X11973273Y5187401I-14002J0D01*
G01X11973273Y5254401D01*
G37*
G36*
G01X11923250Y5254401D02*
G02X11951233Y5254401I13992J-499D01*
G01X11951233Y5187401D01*
G02X11923250Y5187401I-13992J499D01*
G01X11923250Y5254401D01*
G37*
G36*
G01X11873210Y5254401D02*
G02X11901193Y5254401I13992J-499D01*
G01X11901193Y5187401D01*
G02X11873210Y5187401I-13992J499D01*
G01X11873210Y5254401D01*
G37*
G36*
G01X11823174Y5254401D02*
G02X11851173Y5254401I13999J-189D01*
G01X11851173Y5187401D01*
G02X11823174Y5187401I-13999J189D01*
G01X11823174Y5254401D01*
G37*
G36*
G01X11773134Y5254401D02*
G02X11801132Y5254401I13999J-189D01*
G01X11801132Y5187401D01*
G02X11773134Y5187401I-13999J189D01*
G01X11773134Y5254401D01*
G37*
G36*
G01X11723093Y5254401D02*
G02X11751092Y5254401I13999J-189D01*
G01X11751092Y5187401D01*
G02X11723093Y5187401I-13999J189D01*
G01X11723093Y5254401D01*
G37*
G36*
G01X11678181Y5142522D02*
G02X11678181Y5114521I0J-14000D01*
G01X11611186Y5114521D01*
G02X11611186Y5142522I0J14000D01*
G01X11678181Y5142522D01*
G37*
G36*
G01X11678181Y5092484D02*
G02X11678181Y5064483I0J-14000D01*
G01X11611186Y5064483D01*
G02X11611186Y5092484I0J14000D01*
G01X11678181Y5092484D01*
G37*
G36*
G01X11678181Y5042446D02*
G02X11678181Y5014445I0J-14000D01*
G01X11611186Y5014445D01*
G02X11611186Y5042446I0J14000D01*
G01X11678181Y5042446D01*
G37*
G36*
G01X11678181Y4992408D02*
G02X11678181Y4964407I0J-14000D01*
G01X11611186Y4964407D01*
G02X11611186Y4992408I0J14000D01*
G01X11678181Y4992408D01*
G37*
G36*
G01X11678181Y4942370D02*
G02X11678181Y4914369I0J-14000D01*
G01X11611186Y4914369D01*
G02X11611186Y4942370I0J14000D01*
G01X11678181Y4942370D01*
G37*
G36*
G01X11678181Y4892332D02*
G02X11678181Y4864331I0J-14000D01*
G01X11611186Y4864331D01*
G02X11611186Y4892332I0J14000D01*
G01X11678181Y4892332D01*
G37*
G36*
G01X11678181Y4842294D02*
G02X11678181Y4814293I0J-14000D01*
G01X11611186Y4814293D01*
G02X11611186Y4842294I0J14000D01*
G01X11678181Y4842294D01*
G37*
G36*
G01X11723093Y4769388D02*
G02X11751092Y4769388I13999J-189D01*
G01X11751092Y4702388D01*
G02X11723093Y4702388I-13999J189D01*
G01X11723093Y4769388D01*
G37*
G36*
G01X11773134Y4769388D02*
G02X11801132Y4769388I13999J-189D01*
G01X11801132Y4702388D01*
G02X11773134Y4702388I-13999J189D01*
G01X11773134Y4769388D01*
G37*
G36*
G01X11823174Y4769388D02*
G02X11851173Y4769388I13999J-189D01*
G01X11851173Y4702388D01*
G02X11823174Y4702388I-13999J189D01*
G01X11823174Y4769388D01*
G37*
G36*
G01X11873210Y4769388D02*
G02X11901193Y4769388I13992J-499D01*
G01X11901193Y4702388D01*
G02X11873210Y4702388I-13992J499D01*
G01X11873210Y4769388D01*
G37*
G36*
G01X11923250Y4769388D02*
G02X11951233Y4769388I13992J-499D01*
G01X11951233Y4702388D01*
G02X11923250Y4702388I-13992J499D01*
G01X11923250Y4769388D01*
G37*
G36*
G01X11973273Y4769388D02*
G02X12001276Y4769388I14002J0D01*
G01X12001276Y4702388D01*
G02X11973273Y4702388I-14002J0D01*
G01X11973273Y4769388D01*
G37*
G36*
G01X12023314Y4769388D02*
G02X12051317Y4769388I14002J0D01*
G01X12051317Y4702388D01*
G02X12023314Y4702388I-14002J0D01*
G01X12023314Y4769388D01*
G37*
G36*
G01X12163201Y4842294D02*
G02X12163201Y4814293I0J-14000D01*
G01X12096201Y4814293D01*
G02X12096201Y4842294I0J14000D01*
G01X12163201Y4842294D01*
G37*
G36*
G01X12163201Y4892332D02*
G02X12163201Y4864331I0J-14000D01*
G01X12096201Y4864331D01*
G02X12096201Y4892332I0J14000D01*
G01X12163201Y4892332D01*
G37*
G36*
G01X12163201Y4942370D02*
G02X12163201Y4914369I0J-14000D01*
G01X12096201Y4914369D01*
G02X12096201Y4942370I0J14000D01*
G01X12163201Y4942370D01*
G37*
G36*
G01X12163201Y4992408D02*
G02X12163201Y4964407I0J-14000D01*
G01X12096201Y4964407D01*
G02X12096201Y4992408I0J14000D01*
G01X12163201Y4992408D01*
G37*
G36*
G01X12163201Y5042446D02*
G02X12163201Y5014445I0J-14000D01*
G01X12096201Y5014445D01*
G02X12096201Y5042446I0J14000D01*
G01X12163201Y5042446D01*
G37*
G36*
G01X12163201Y5092484D02*
G02X12163201Y5064483I0J-14000D01*
G01X12096201Y5064483D01*
G02X12096201Y5092484I0J14000D01*
G01X12163201Y5092484D01*
G37*
G36*
G01X12163201Y5142522D02*
G02X12163201Y5114521I0J-14000D01*
G01X12096201Y5114521D01*
G02X12096201Y5142522I0J14000D01*
G01X12163201Y5142522D01*
G37*
G36*
G01X10007801Y415201D02*
G01X9970775Y415201D01*
G01X9960775Y425201D01*
G01X9960775Y455691D01*
G01X9950775Y465691D01*
G01X9912025Y465691D01*
G01X9902025Y455691D01*
G01X9902025Y425201D01*
G01X9892025Y415201D01*
G01X9854999Y415201D01*
G01X9844999Y425201D01*
G01X9844999Y553700D01*
G01X9854999Y563700D01*
G01X10007801Y563700D01*
G01X10017801Y553700D01*
G01X10017801Y425201D01*
G01X10007801Y415201D01*
G37*
G36*
G01X10007801Y245199D02*
G01X9970775Y245199D01*
G01X9960775Y235199D01*
G01X9960775Y204709D01*
G01X9950775Y194709D01*
G01X9912025Y194709D01*
G01X9902025Y204709D01*
G01X9902025Y235199D01*
G01X9892025Y245199D01*
G01X9854999Y245199D01*
G01X9844999Y235199D01*
G01X9844999Y106700D01*
G01X9854999Y96700D01*
G01X10007801Y96700D01*
G01X10017801Y106700D01*
G01X10017801Y235199D01*
G01X10007801Y245199D01*
G37*
G36*
G01X10261801Y415201D02*
G01X10224775Y415201D01*
G01X10214775Y425201D01*
G01X10214775Y455691D01*
G01X10204775Y465691D01*
G01X10166025Y465691D01*
G01X10156025Y455691D01*
G01X10156025Y425201D01*
G01X10146025Y415201D01*
G01X10108999Y415201D01*
G01X10098999Y425201D01*
G01X10098999Y553700D01*
G01X10108999Y563700D01*
G01X10261801Y563700D01*
G01X10271801Y553700D01*
G01X10271801Y425201D01*
G01X10261801Y415201D01*
G37*
G36*
G01X10261801Y245199D02*
G01X10224775Y245199D01*
G01X10214775Y235199D01*
G01X10214775Y204709D01*
G01X10204775Y194709D01*
G01X10166025Y194709D01*
G01X10156025Y204709D01*
G01X10156025Y235199D01*
G01X10146025Y245199D01*
G01X10108999Y245199D01*
G01X10098999Y235199D01*
G01X10098999Y106700D01*
G01X10108999Y96700D01*
G01X10261801Y96700D01*
G01X10271801Y106700D01*
G01X10271801Y235199D01*
G01X10261801Y245199D01*
G37*
G36*
G01X10515801Y415201D02*
G01X10478775Y415201D01*
G01X10468775Y425201D01*
G01X10468775Y455691D01*
G01X10458775Y465691D01*
G01X10420025Y465691D01*
G01X10410025Y455691D01*
G01X10410025Y425201D01*
G01X10400025Y415201D01*
G01X10362999Y415201D01*
G01X10352999Y425201D01*
G01X10352999Y553700D01*
G01X10362999Y563700D01*
G01X10515801Y563700D01*
G01X10525801Y553700D01*
G01X10525801Y425201D01*
G01X10515801Y415201D01*
G37*
G36*
G01X10515801Y245199D02*
G01X10478775Y245199D01*
G01X10468775Y235199D01*
G01X10468775Y204709D01*
G01X10458775Y194709D01*
G01X10420025Y194709D01*
G01X10410025Y204709D01*
G01X10410025Y235199D01*
G01X10400025Y245199D01*
G01X10362999Y245199D01*
G01X10352999Y235199D01*
G01X10352999Y106700D01*
G01X10362999Y96700D01*
G01X10515801Y96700D01*
G01X10525801Y106700D01*
G01X10525801Y235199D01*
G01X10515801Y245199D01*
G37*
G36*
G01X11766400Y3325401D02*
G01X11766400Y3256300D01*
G01X11756400Y3246300D01*
G01X11720810Y3246300D01*
G01X11710810Y3236300D01*
G01X11710810Y3164500D01*
G01X11720810Y3154500D01*
G01X11756400Y3154500D01*
G01X11766400Y3144500D01*
G01X11766400Y3075399D01*
G01X11756400Y3065399D01*
G01X11612900Y3065399D01*
G01X11602900Y3075399D01*
G01X11602900Y3325401D01*
G01X11612900Y3335401D01*
G01X11756400Y3335401D01*
G01X11766400Y3325401D01*
G37*
G36*
G01X11906400Y3325401D02*
G01X11906400Y3256300D01*
G01X11916400Y3246300D01*
G01X11951990Y3246300D01*
G01X11961990Y3236300D01*
G01X11961990Y3164500D01*
G01X11951990Y3154500D01*
G01X11916400Y3154500D01*
G01X11906400Y3144500D01*
G01X11906400Y3075399D01*
G01X11916400Y3065399D01*
G01X12059900Y3065399D01*
G01X12069900Y3075399D01*
G01X12069900Y3325401D01*
G01X12059900Y3335401D01*
G01X11916400Y3335401D01*
G01X11906400Y3325401D01*
G37*
G36*
G01X11766400Y4036601D02*
G01X11766400Y3967500D01*
G01X11756400Y3957500D01*
G01X11720810Y3957500D01*
G01X11710810Y3947500D01*
G01X11710810Y3875700D01*
G01X11720810Y3865700D01*
G01X11756400Y3865700D01*
G01X11766400Y3855700D01*
G01X11766400Y3786599D01*
G01X11756400Y3776599D01*
G01X11612900Y3776599D01*
G01X11602900Y3786599D01*
G01X11602900Y4036601D01*
G01X11612900Y4046601D01*
G01X11756400Y4046601D01*
G01X11766400Y4036601D01*
G37*
G36*
G01X11906400Y4036601D02*
G01X11906400Y3967500D01*
G01X11916400Y3957500D01*
G01X11951990Y3957500D01*
G01X11961990Y3947500D01*
G01X11961990Y3875700D01*
G01X11951990Y3865700D01*
G01X11916400Y3865700D01*
G01X11906400Y3855700D01*
G01X11906400Y3786599D01*
G01X11916400Y3776599D01*
G01X12059900Y3776599D01*
G01X12069900Y3786599D01*
G01X12069900Y4036601D01*
G01X12059900Y4046601D01*
G01X11916400Y4046601D01*
G01X11906400Y4036601D01*
G37*
G36*
G01X11766400Y3681001D02*
G01X11766400Y3611900D01*
G01X11756400Y3601900D01*
G01X11720810Y3601900D01*
G01X11710810Y3591900D01*
G01X11710810Y3520100D01*
G01X11720810Y3510100D01*
G01X11756400Y3510100D01*
G01X11766400Y3500100D01*
G01X11766400Y3430999D01*
G01X11756400Y3420999D01*
G01X11612900Y3420999D01*
G01X11602900Y3430999D01*
G01X11602900Y3681001D01*
G01X11612900Y3691001D01*
G01X11756400Y3691001D01*
G01X11766400Y3681001D01*
G37*
G36*
G01X11906400Y3681001D02*
G01X11906400Y3611900D01*
G01X11916400Y3601900D01*
G01X11951990Y3601900D01*
G01X11961990Y3591900D01*
G01X11961990Y3520100D01*
G01X11951990Y3510100D01*
G01X11916400Y3510100D01*
G01X11906400Y3500100D01*
G01X11906400Y3430999D01*
G01X11916400Y3420999D01*
G01X12059900Y3420999D01*
G01X12069900Y3430999D01*
G01X12069900Y3681001D01*
G01X12059900Y3691001D01*
G01X11916400Y3691001D01*
G01X11906400Y3681001D01*
G37*
G36*
G01X11956098Y2934200D02*
G01X11956098Y2806202D01*
G01X11951096Y2801201D01*
G01X11836095Y2801201D01*
G01X11831096Y2806202D01*
G01X11830594Y2847205D01*
G01X11875595Y2847205D01*
G01X11875595Y2892204D01*
G01X11831594Y2892204D01*
G01X11831096Y2934200D01*
G01X11836095Y2939202D01*
G01X11951096Y2939202D01*
G01X11956098Y2934200D01*
G37*
G36*
G01X11615103Y2806200D02*
G01X11615103Y2934198D01*
G01X11620104Y2939199D01*
G01X11735105Y2939199D01*
G01X11740104Y2934198D01*
G01X11740606Y2893195D01*
G01X11695605Y2893195D01*
G01X11695605Y2848196D01*
G01X11739606Y2848196D01*
G01X11740104Y2806200D01*
G01X11735105Y2801198D01*
G01X11620104Y2801198D01*
G01X11615103Y2806200D01*
G37*
G36*
G01X11193602Y2121400D02*
G01X11193602Y1993402D01*
G01X11188601Y1988401D01*
G01X11073600Y1988401D01*
G01X11068601Y1993402D01*
G01X11068098Y2034405D01*
G01X11113099Y2034405D01*
G01X11113099Y2079404D01*
G01X11069099Y2079404D01*
G01X11068601Y2121400D01*
G01X11073600Y2126402D01*
G01X11188601Y2126402D01*
G01X11193602Y2121400D01*
G37*
G36*
G01X10978601Y2121400D02*
G01X10978599Y2079404D01*
G01X10934101Y2079404D01*
G01X10934101Y2034405D01*
G01X10978098Y2034405D01*
G01X10978601Y1993402D01*
G01X10973600Y1988401D01*
G01X10858602Y1988401D01*
G01X10853600Y1993402D01*
G01X10853600Y2121400D01*
G01X10858602Y2126402D01*
G01X10973600Y2126402D01*
G01X10978601Y2121400D01*
G37*
G36*
G01X11751399Y7798001D02*
G01X11751399Y7760975D01*
G01X11741399Y7750975D01*
G01X11710909Y7750975D01*
G01X11700909Y7740975D01*
G01X11700909Y7702225D01*
G01X11710909Y7692225D01*
G01X11741399Y7692225D01*
G01X11751399Y7682225D01*
G01X11751399Y7645199D01*
G01X11741399Y7635199D01*
G01X11612900Y7635199D01*
G01X11602900Y7645199D01*
G01X11602900Y7798001D01*
G01X11612900Y7808001D01*
G01X11741399Y7808001D01*
G01X11751399Y7798001D01*
G37*
G36*
G01X11921401Y7798001D02*
G01X11921401Y7760975D01*
G01X11931401Y7750975D01*
G01X11961891Y7750975D01*
G01X11971891Y7740975D01*
G01X11971891Y7702225D01*
G01X11961891Y7692225D01*
G01X11931401Y7692225D01*
G01X11921401Y7682225D01*
G01X11921401Y7645199D01*
G01X11931401Y7635199D01*
G01X12059900Y7635199D01*
G01X12069900Y7645199D01*
G01X12069900Y7798001D01*
G01X12059900Y7808001D01*
G01X11931401Y7808001D01*
G01X11921401Y7798001D01*
G37*
G36*
G01X11751399Y7544001D02*
G01X11751399Y7506975D01*
G01X11741399Y7496975D01*
G01X11710909Y7496975D01*
G01X11700909Y7486975D01*
G01X11700909Y7448225D01*
G01X11710909Y7438225D01*
G01X11741399Y7438225D01*
G01X11751399Y7428225D01*
G01X11751399Y7391199D01*
G01X11741399Y7381199D01*
G01X11612900Y7381199D01*
G01X11602900Y7391199D01*
G01X11602900Y7544001D01*
G01X11612900Y7554001D01*
G01X11741399Y7554001D01*
G01X11751399Y7544001D01*
G37*
G36*
G01X11921401Y7544001D02*
G01X11921401Y7506975D01*
G01X11931401Y7496975D01*
G01X11961891Y7496975D01*
G01X11971891Y7486975D01*
G01X11971891Y7448225D01*
G01X11961891Y7438225D01*
G01X11931401Y7438225D01*
G01X11921401Y7428225D01*
G01X11921401Y7391199D01*
G01X11931401Y7381199D01*
G01X12059900Y7381199D01*
G01X12069900Y7391199D01*
G01X12069900Y7544001D01*
G01X12059900Y7554001D01*
G01X11931401Y7554001D01*
G01X11921401Y7544001D01*
G37*
G36*
G01X11751399Y7290001D02*
G01X11751399Y7252975D01*
G01X11741399Y7242975D01*
G01X11710909Y7242975D01*
G01X11700909Y7232975D01*
G01X11700909Y7194225D01*
G01X11710909Y7184225D01*
G01X11741399Y7184225D01*
G01X11751399Y7174225D01*
G01X11751399Y7137199D01*
G01X11741399Y7127199D01*
G01X11612900Y7127199D01*
G01X11602900Y7137199D01*
G01X11602900Y7290001D01*
G01X11612900Y7300001D01*
G01X11741399Y7300001D01*
G01X11751399Y7290001D01*
G37*
G36*
G01X11921401Y7290001D02*
G01X11921401Y7252975D01*
G01X11931401Y7242975D01*
G01X11961891Y7242975D01*
G01X11971891Y7232975D01*
G01X11971891Y7194225D01*
G01X11961891Y7184225D01*
G01X11931401Y7184225D01*
G01X11921401Y7174225D01*
G01X11921401Y7137199D01*
G01X11931401Y7127199D01*
G01X12059900Y7127199D01*
G01X12069900Y7137199D01*
G01X12069900Y7290001D01*
G01X12059900Y7300001D01*
G01X11931401Y7300001D01*
G01X11921401Y7290001D01*
G37*
G36*
G01X10966600Y6402799D02*
G01X10966600Y6471900D01*
G01X10976600Y6481900D01*
G01X11012190Y6481900D01*
G01X11022190Y6491900D01*
G01X11022190Y6563700D01*
G01X11012190Y6573700D01*
G01X10976600Y6573700D01*
G01X10966600Y6583700D01*
G01X10966600Y6652801D01*
G01X10976600Y6662801D01*
G01X11120100Y6662801D01*
G01X11130100Y6652801D01*
G01X11130100Y6402799D01*
G01X11120100Y6392799D01*
G01X10976600Y6392799D01*
G01X10966600Y6402799D01*
G37*
G36*
G01X10826600Y6402799D02*
G01X10826600Y6471900D01*
G01X10816600Y6481900D01*
G01X10781010Y6481900D01*
G01X10771010Y6491900D01*
G01X10771010Y6563700D01*
G01X10781010Y6573700D01*
G01X10816600Y6573700D01*
G01X10826600Y6583700D01*
G01X10826600Y6652801D01*
G01X10816600Y6662801D01*
G01X10673100Y6662801D01*
G01X10663100Y6652801D01*
G01X10663100Y6402799D01*
G01X10673100Y6392799D01*
G01X10816600Y6392799D01*
G01X10826600Y6402799D01*
G37*
G36*
G01X10966600Y6072599D02*
G01X10966600Y6141700D01*
G01X10976600Y6151700D01*
G01X11012190Y6151700D01*
G01X11022190Y6161700D01*
G01X11022190Y6233500D01*
G01X11012190Y6243500D01*
G01X10976600Y6243500D01*
G01X10966600Y6253500D01*
G01X10966600Y6322601D01*
G01X10976600Y6332601D01*
G01X11120100Y6332601D01*
G01X11130100Y6322601D01*
G01X11130100Y6072599D01*
G01X11120100Y6062599D01*
G01X10976600Y6062599D01*
G01X10966600Y6072599D01*
G37*
G36*
G01X10826600Y6072599D02*
G01X10826600Y6141700D01*
G01X10816600Y6151700D01*
G01X10781010Y6151700D01*
G01X10771010Y6161700D01*
G01X10771010Y6233500D01*
G01X10781010Y6243500D01*
G01X10816600Y6243500D01*
G01X10826600Y6253500D01*
G01X10826600Y6322601D01*
G01X10816600Y6332601D01*
G01X10673100Y6332601D01*
G01X10663100Y6322601D01*
G01X10663100Y6072599D01*
G01X10673100Y6062599D01*
G01X10816600Y6062599D01*
G01X10826600Y6072599D01*
G37*
G36*
G01X10966600Y5729699D02*
G01X10966600Y5798800D01*
G01X10976600Y5808800D01*
G01X11012190Y5808800D01*
G01X11022190Y5818800D01*
G01X11022190Y5890600D01*
G01X11012190Y5900600D01*
G01X10976600Y5900600D01*
G01X10966600Y5910600D01*
G01X10966600Y5979701D01*
G01X10976600Y5989701D01*
G01X11120100Y5989701D01*
G01X11130100Y5979701D01*
G01X11130100Y5729699D01*
G01X11120100Y5719699D01*
G01X10976600Y5719699D01*
G01X10966600Y5729699D01*
G37*
G36*
G01X10826600Y5729699D02*
G01X10826600Y5798800D01*
G01X10816600Y5808800D01*
G01X10781010Y5808800D01*
G01X10771010Y5818800D01*
G01X10771010Y5890600D01*
G01X10781010Y5900600D01*
G01X10816600Y5900600D01*
G01X10826600Y5910600D01*
G01X10826600Y5979701D01*
G01X10816600Y5989701D01*
G01X10673100Y5989701D01*
G01X10663100Y5979701D01*
G01X10663100Y5729699D01*
G01X10673100Y5719699D01*
G01X10816600Y5719699D01*
G01X10826600Y5729699D01*
G37*
G36*
G01X10649903Y6971800D02*
G01X10649903Y7099798D01*
G01X10654904Y7104799D01*
G01X10769905Y7104799D01*
G01X10774904Y7099798D01*
G01X10775406Y7058795D01*
G01X10730405Y7058795D01*
G01X10730405Y7013796D01*
G01X10774406Y7013796D01*
G01X10774904Y6971800D01*
G01X10769905Y6966798D01*
G01X10654904Y6966798D01*
G01X10649903Y6971800D01*
G37*
G36*
G01X10990898Y7099800D02*
G01X10990898Y6971802D01*
G01X10985896Y6966801D01*
G01X10870895Y6966801D01*
G01X10865896Y6971802D01*
G01X10865394Y7012805D01*
G01X10910395Y7012805D01*
G01X10910395Y7057804D01*
G01X10866394Y7057804D01*
G01X10865896Y7099800D01*
G01X10870895Y7104802D01*
G01X10985896Y7104802D01*
G01X10990898Y7099800D01*
G37*
G36*
G01X12342419Y5867997D02*
G02X12342419Y5967997I0J50000D01*
G01X12442419Y5967997D01*
G02X12442419Y5867997I0J-50000D01*
G01X12342419Y5867997D01*
G37*
G36*
G01X12342401Y6732003D02*
G02X12342401Y6832003I0J50000D01*
G01X12442401Y6832003D01*
G02X12442401Y6732003I0J-50000D01*
G01X12342401Y6732003D01*
G37*
G36*
G01X12770401Y6732003D02*
G02X12770401Y6832003I0J50000D01*
G01X12850401Y6832003D01*
G02X12850401Y6732003I0J-50000D01*
G01X12770401Y6732003D01*
G37*
G36*
G01X12770401Y5867997D02*
G02X12770401Y5967997I0J50000D01*
G01X12850401Y5967997D01*
G02X12850401Y5867997I0J-50000D01*
G01X12770401Y5867997D01*
G37*
G36*
G01X12278675Y6644998D02*
G01X12278675Y6695001D01*
G01X12392675Y6695001D01*
G01X12392675Y6644998D01*
G01X12278675Y6644998D01*
G37*
G36*
G01X12278675Y6564998D02*
G01X12278675Y6615001D01*
G01X12392675Y6615001D01*
G01X12392675Y6564998D01*
G01X12278675Y6564998D01*
G37*
G36*
G01X12278688Y6510007D02*
G01X12278688Y6540007D01*
G01X12392688Y6540007D01*
G01X12392688Y6510007D01*
G01X12278688Y6510007D01*
G37*
G36*
G01X12278586Y6459969D02*
G01X12278586Y6489969D01*
G01X12392586Y6489969D01*
G01X12392586Y6459969D01*
G01X12278586Y6459969D01*
G37*
G36*
G01X12278688Y6410008D02*
G01X12278688Y6440007D01*
G01X12392688Y6440007D01*
G01X12392688Y6410008D01*
G01X12278688Y6410008D01*
G37*
G36*
G01X12278688Y6359995D02*
G01X12278688Y6389995D01*
G01X12392688Y6389995D01*
G01X12392688Y6359995D01*
G01X12278688Y6359995D01*
G37*
G36*
G01X12278688Y6310008D02*
G01X12278688Y6340008D01*
G01X12392688Y6340008D01*
G01X12392688Y6310008D01*
G01X12278688Y6310008D01*
G37*
G36*
G01X12278688Y6259995D02*
G01X12278688Y6289995D01*
G01X12392688Y6289995D01*
G01X12392688Y6259995D01*
G01X12278688Y6259995D01*
G37*
G36*
G01X12278688Y6210008D02*
G01X12278688Y6240008D01*
G01X12392688Y6240008D01*
G01X12392688Y6210008D01*
G01X12278688Y6210008D01*
G37*
G36*
G01X12278586Y6159995D02*
G01X12278586Y6189995D01*
G01X12392586Y6189995D01*
G01X12392586Y6159995D01*
G01X12278586Y6159995D01*
G37*
G36*
G01X12278675Y6084999D02*
G01X12278675Y6135002D01*
G01X12392675Y6135002D01*
G01X12392675Y6084999D01*
G01X12278675Y6084999D01*
G37*
G36*
G01X12278675Y6004999D02*
G01X12278675Y6054999D01*
G01X12392675Y6054999D01*
G01X12392675Y6004999D01*
G01X12278675Y6004999D01*
G37*
G36*
G01X4814230Y6016318D02*
G01X4686231Y6016318D01*
G01X4681230Y6021319D01*
G01X4681230Y6136320D01*
G01X4686231Y6141319D01*
G01X4727235Y6141822D01*
G01X4727235Y6096820D01*
G01X4772233Y6096820D01*
G01X4772233Y6140821D01*
G01X4814230Y6141319D01*
G01X4819231Y6136320D01*
G01X4819231Y6021319D01*
G01X4814230Y6016318D01*
G37*
G36*
G01X4814230Y6231319D02*
G01X4772233Y6231321D01*
G01X4772233Y6275819D01*
G01X4727235Y6275819D01*
G01X4727235Y6231821D01*
G01X4686231Y6231319D01*
G01X4681230Y6236320D01*
G01X4681230Y6351318D01*
G01X4686231Y6356320D01*
G01X4814230Y6356320D01*
G01X4819231Y6351318D01*
G01X4819231Y6236320D01*
G01X4814230Y6231319D01*
G37*
G36*
G01X11486002Y6902999D02*
G01X11406002Y6902999D01*
G01X11401001Y6897997D01*
G01X11401001Y6875201D01*
G01X11438001Y6875201D01*
G01X11438001Y6842201D01*
G01X11401001Y6842201D01*
G01X11401001Y6817998D01*
G01X11406002Y6812999D01*
G01X11486002Y6812999D01*
G01X11491001Y6817998D01*
G01X11491001Y6897997D01*
G01X11486002Y6902999D01*
G37*
G36*
G01X11246998Y6813001D02*
G01X11326998Y6813001D01*
G01X11331999Y6818003D01*
G01X11331999Y6840799D01*
G01X11294999Y6840799D01*
G01X11294999Y6873799D01*
G01X11331999Y6873799D01*
G01X11331999Y6898002D01*
G01X11326998Y6903001D01*
G01X11246998Y6903001D01*
G01X11241999Y6898002D01*
G01X11241999Y6818003D01*
G01X11246998Y6813001D01*
G37*
G36*
G01X11183498Y2876001D02*
G01X11263498Y2876001D01*
G01X11268499Y2881003D01*
G01X11268499Y2903799D01*
G01X11231499Y2903799D01*
G01X11231499Y2936799D01*
G01X11268499Y2936799D01*
G01X11268499Y2961002D01*
G01X11263498Y2966001D01*
G01X11183498Y2966001D01*
G01X11178499Y2961002D01*
G01X11178499Y2881003D01*
G01X11183498Y2876001D01*
G37*
G36*
G01X11422502Y2965999D02*
G01X11342502Y2965999D01*
G01X11337501Y2960997D01*
G01X11337501Y2938201D01*
G01X11374501Y2938201D01*
G01X11374501Y2905201D01*
G01X11337501Y2905201D01*
G01X11337501Y2880998D01*
G01X11342502Y2875999D01*
G01X11422502Y2875999D01*
G01X11427501Y2880998D01*
G01X11427501Y2960997D01*
G01X11422502Y2965999D01*
G37*
G36*
G01X11183498Y2723601D02*
G01X11263498Y2723601D01*
G01X11268499Y2728603D01*
G01X11268499Y2751399D01*
G01X11231499Y2751399D01*
G01X11231499Y2784399D01*
G01X11268499Y2784399D01*
G01X11268499Y2808602D01*
G01X11263498Y2813601D01*
G01X11183498Y2813601D01*
G01X11178499Y2808602D01*
G01X11178499Y2728603D01*
G01X11183498Y2723601D01*
G37*
G36*
G01X11422502Y2813599D02*
G01X11342502Y2813599D01*
G01X11337501Y2808597D01*
G01X11337501Y2785801D01*
G01X11374501Y2785801D01*
G01X11374501Y2752801D01*
G01X11337501Y2752801D01*
G01X11337501Y2728598D01*
G01X11342502Y2723599D01*
G01X11422502Y2723599D01*
G01X11427501Y2728598D01*
G01X11427501Y2808597D01*
G01X11422502Y2813599D01*
G37*
G36*
G01X11486002Y7055399D02*
G01X11406002Y7055399D01*
G01X11401001Y7050397D01*
G01X11401001Y7027601D01*
G01X11438001Y7027601D01*
G01X11438001Y6994601D01*
G01X11401001Y6994601D01*
G01X11401001Y6970398D01*
G01X11406002Y6965399D01*
G01X11486002Y6965399D01*
G01X11491001Y6970398D01*
G01X11491001Y7050397D01*
G01X11486002Y7055399D01*
G37*
G36*
G01X11246998Y6965401D02*
G01X11326998Y6965401D01*
G01X11331999Y6970403D01*
G01X11331999Y6993199D01*
G01X11294999Y6993199D01*
G01X11294999Y7026199D01*
G01X11331999Y7026199D01*
G01X11331999Y7050402D01*
G01X11326998Y7055401D01*
G01X11246998Y7055401D01*
G01X11241999Y7050402D01*
G01X11241999Y6970403D01*
G01X11246998Y6965401D01*
G37*
G36*
G01X11500399Y3398398D02*
G01X11500399Y3478398D01*
G01X11495397Y3483399D01*
G01X11472601Y3483399D01*
G01X11472601Y3446399D01*
G01X11439601Y3446399D01*
G01X11439601Y3483399D01*
G01X11415398Y3483399D01*
G01X11410399Y3478398D01*
G01X11410399Y3398398D01*
G01X11415398Y3393399D01*
G01X11495397Y3393399D01*
G01X11500399Y3398398D01*
G37*
G36*
G01X11410401Y3637402D02*
G01X11410401Y3557402D01*
G01X11415403Y3552401D01*
G01X11438199Y3552401D01*
G01X11438199Y3589401D01*
G01X11471199Y3589401D01*
G01X11471199Y3552401D01*
G01X11495402Y3552401D01*
G01X11500401Y3557402D01*
G01X11500401Y3637402D01*
G01X11495402Y3642401D01*
G01X11415403Y3642401D01*
G01X11410401Y3637402D01*
G37*
G36*
G01X11183498Y3193501D02*
G01X11263498Y3193501D01*
G01X11268499Y3198503D01*
G01X11268499Y3221299D01*
G01X11231499Y3221299D01*
G01X11231499Y3254299D01*
G01X11268499Y3254299D01*
G01X11268499Y3278502D01*
G01X11263498Y3283501D01*
G01X11183498Y3283501D01*
G01X11178499Y3278502D01*
G01X11178499Y3198503D01*
G01X11183498Y3193501D01*
G37*
G36*
G01X11422502Y3283499D02*
G01X11342502Y3283499D01*
G01X11337501Y3278497D01*
G01X11337501Y3255701D01*
G01X11374501Y3255701D01*
G01X11374501Y3222701D01*
G01X11337501Y3222701D01*
G01X11337501Y3198498D01*
G01X11342502Y3193499D01*
G01X11422502Y3193499D01*
G01X11427501Y3198498D01*
G01X11427501Y3278497D01*
G01X11422502Y3283499D01*
G37*
G36*
G01X11258001Y6482202D02*
G01X11258001Y6402202D01*
G01X11263003Y6397201D01*
G01X11285799Y6397201D01*
G01X11285799Y6434201D01*
G01X11318799Y6434201D01*
G01X11318799Y6397201D01*
G01X11343002Y6397201D01*
G01X11348001Y6402202D01*
G01X11348001Y6482202D01*
G01X11343002Y6487201D01*
G01X11263003Y6487201D01*
G01X11258001Y6482202D01*
G37*
G36*
G01X11347999Y6243198D02*
G01X11347999Y6323198D01*
G01X11342997Y6328199D01*
G01X11320201Y6328199D01*
G01X11320201Y6291199D01*
G01X11287201Y6291199D01*
G01X11287201Y6328199D01*
G01X11262998Y6328199D01*
G01X11257999Y6323198D01*
G01X11257999Y6243198D01*
G01X11262998Y6238199D01*
G01X11342997Y6238199D01*
G01X11347999Y6243198D01*
G37*
G36*
G01X11486002Y6610899D02*
G01X11406002Y6610899D01*
G01X11401001Y6605897D01*
G01X11401001Y6583101D01*
G01X11438001Y6583101D01*
G01X11438001Y6550101D01*
G01X11401001Y6550101D01*
G01X11401001Y6525898D01*
G01X11406002Y6520899D01*
G01X11486002Y6520899D01*
G01X11491001Y6525898D01*
G01X11491001Y6605897D01*
G01X11486002Y6610899D01*
G37*
G36*
G01X11246998Y6520901D02*
G01X11326998Y6520901D01*
G01X11331999Y6525903D01*
G01X11331999Y6548699D01*
G01X11294999Y6548699D01*
G01X11294999Y6581699D01*
G01X11331999Y6581699D01*
G01X11331999Y6605902D01*
G01X11326998Y6610901D01*
G01X11246998Y6610901D01*
G01X11241999Y6605902D01*
G01X11241999Y6525903D01*
G01X11246998Y6520901D01*
G37*
G36*
G01X11790802Y6610899D02*
G01X11710802Y6610899D01*
G01X11705801Y6605897D01*
G01X11705801Y6583101D01*
G01X11742801Y6583101D01*
G01X11742801Y6550101D01*
G01X11705801Y6550101D01*
G01X11705801Y6525898D01*
G01X11710802Y6520899D01*
G01X11790802Y6520899D01*
G01X11795801Y6525898D01*
G01X11795801Y6605897D01*
G01X11790802Y6610899D01*
G37*
G36*
G01X11551798Y6520901D02*
G01X11631798Y6520901D01*
G01X11636799Y6525903D01*
G01X11636799Y6548699D01*
G01X11599799Y6548699D01*
G01X11599799Y6581699D01*
G01X11636799Y6581699D01*
G01X11636799Y6605902D01*
G01X11631798Y6610901D01*
G01X11551798Y6610901D01*
G01X11546799Y6605902D01*
G01X11546799Y6525903D01*
G01X11551798Y6520901D01*
G37*
G36*
G01X11026003Y7847096D02*
G01X11026003Y7719098D01*
G01X11021002Y7714097D01*
G01X10906001Y7714097D01*
G01X10901002Y7719098D01*
G01X10900499Y7760101D01*
G01X10945500Y7760101D01*
G01X10945500Y7805100D01*
G01X10901500Y7805100D01*
G01X10901002Y7847096D01*
G01X10906001Y7852098D01*
G01X11021002Y7852098D01*
G01X11026003Y7847096D01*
G37*
G36*
G01X10811002Y7847096D02*
G01X10810999Y7805100D01*
G01X10766501Y7805100D01*
G01X10766501Y7760101D01*
G01X10810499Y7760101D01*
G01X10811002Y7719098D01*
G01X10806001Y7714097D01*
G01X10691002Y7714097D01*
G01X10686001Y7719098D01*
G01X10686001Y7847096D01*
G01X10691002Y7852098D01*
G01X10806001Y7852098D01*
G01X10811002Y7847096D01*
G37*
G36*
G01X11081898Y7765501D02*
G01X11161898Y7765501D01*
G01X11166899Y7770503D01*
G01X11166899Y7793299D01*
G01X11129899Y7793299D01*
G01X11129899Y7826299D01*
G01X11166899Y7826299D01*
G01X11166899Y7850502D01*
G01X11161898Y7855501D01*
G01X11081898Y7855501D01*
G01X11076899Y7850502D01*
G01X11076899Y7770503D01*
G01X11081898Y7765501D01*
G37*
G36*
G01X11320902Y7855499D02*
G01X11240902Y7855499D01*
G01X11235901Y7850497D01*
G01X11235901Y7827701D01*
G01X11272901Y7827701D01*
G01X11272901Y7794701D01*
G01X11235901Y7794701D01*
G01X11235901Y7770498D01*
G01X11240902Y7765499D01*
G01X11320902Y7765499D01*
G01X11325901Y7770498D01*
G01X11325901Y7850497D01*
G01X11320902Y7855499D01*
G37*
G36*
G01X10881497Y2224004D02*
G01X10881497Y2352002D01*
G01X10886498Y2357003D01*
G01X11001499Y2357003D01*
G01X11006498Y2352002D01*
G01X11007001Y2310999D01*
G01X10962000Y2310999D01*
G01X10962000Y2266000D01*
G01X11006000Y2266000D01*
G01X11006498Y2224004D01*
G01X11001499Y2219002D01*
G01X10886498Y2219002D01*
G01X10881497Y2224004D01*
G37*
G36*
G01X11096498Y2224004D02*
G01X11096501Y2266000D01*
G01X11140999Y2266000D01*
G01X11140999Y2310999D01*
G01X11097001Y2310999D01*
G01X11096498Y2352002D01*
G01X11101499Y2357003D01*
G01X11216498Y2357003D01*
G01X11221499Y2352002D01*
G01X11221499Y2224004D01*
G01X11216498Y2219002D01*
G01X11101499Y2219002D01*
G01X11096498Y2224004D01*
G37*
G36*
G01X12024497Y2300204D02*
G01X12024497Y2428202D01*
G01X12029498Y2433203D01*
G01X12144499Y2433203D01*
G01X12149498Y2428202D01*
G01X12150001Y2387199D01*
G01X12105000Y2387199D01*
G01X12105000Y2342200D01*
G01X12149000Y2342200D01*
G01X12149498Y2300204D01*
G01X12144499Y2295202D01*
G01X12029498Y2295202D01*
G01X12024497Y2300204D01*
G37*
G36*
G01X12239498Y2300204D02*
G01X12239501Y2342200D01*
G01X12283999Y2342200D01*
G01X12283999Y2387199D01*
G01X12240001Y2387199D01*
G01X12239498Y2428202D01*
G01X12244499Y2433203D01*
G01X12359498Y2433203D01*
G01X12364499Y2428202D01*
G01X12364499Y2300204D01*
G01X12359498Y2295202D01*
G01X12244499Y2295202D01*
G01X12239498Y2300204D01*
G37*
G36*
G01X11321501Y2088002D02*
G01X11321501Y2008002D01*
G01X11326503Y2003001D01*
G01X11349299Y2003001D01*
G01X11349299Y2040001D01*
G01X11382299Y2040001D01*
G01X11382299Y2003001D01*
G01X11406502Y2003001D01*
G01X11411501Y2008002D01*
G01X11411501Y2088002D01*
G01X11406502Y2093001D01*
G01X11326503Y2093001D01*
G01X11321501Y2088002D01*
G37*
G36*
G01X11411499Y1848998D02*
G01X11411499Y1928998D01*
G01X11406497Y1933999D01*
G01X11383701Y1933999D01*
G01X11383701Y1896999D01*
G01X11350701Y1896999D01*
G01X11350701Y1933999D01*
G01X11326498Y1933999D01*
G01X11321499Y1928998D01*
G01X11321499Y1848998D01*
G01X11326498Y1843999D01*
G01X11406497Y1843999D01*
G01X11411499Y1848998D01*
G37*
G36*
G01X12384004Y4079103D02*
G01X12512002Y4079103D01*
G01X12517003Y4074102D01*
G01X12517003Y3959101D01*
G01X12512002Y3954102D01*
G01X12470999Y3953599D01*
G01X12470999Y3998600D01*
G01X12426000Y3998600D01*
G01X12426000Y3954600D01*
G01X12384004Y3954102D01*
G01X12379002Y3959101D01*
G01X12379002Y4074102D01*
G01X12384004Y4079103D01*
G37*
G36*
G01X12384004Y3864102D02*
G01X12426000Y3864099D01*
G01X12426000Y3819601D01*
G01X12470999Y3819601D01*
G01X12470999Y3863599D01*
G01X12512002Y3864102D01*
G01X12517003Y3859101D01*
G01X12517003Y3744102D01*
G01X12512002Y3739101D01*
G01X12384004Y3739101D01*
G01X12379002Y3744102D01*
G01X12379002Y3859101D01*
G01X12384004Y3864102D01*
G37*
G36*
G01X3898400Y2049602D02*
G01X4026398Y2049602D01*
G01X4031399Y2044601D01*
G01X4031399Y1929600D01*
G01X4026398Y1924601D01*
G01X3985395Y1924098D01*
G01X3985395Y1969099D01*
G01X3940396Y1969099D01*
G01X3940396Y1925099D01*
G01X3898400Y1924601D01*
G01X3893398Y1929600D01*
G01X3893398Y2044601D01*
G01X3898400Y2049602D01*
G37*
G36*
G01X3898400Y1834601D02*
G01X3940396Y1834599D01*
G01X3940396Y1790101D01*
G01X3985395Y1790101D01*
G01X3985395Y1834098D01*
G01X4026398Y1834601D01*
G01X4031399Y1829600D01*
G01X4031399Y1714602D01*
G01X4026398Y1709600D01*
G01X3898400Y1709600D01*
G01X3893398Y1714602D01*
G01X3893398Y1829600D01*
G01X3898400Y1834601D01*
G37*
G36*
G01X12229600Y5567502D02*
G01X12357598Y5567502D01*
G01X12362599Y5562501D01*
G01X12362599Y5447500D01*
G01X12357598Y5442501D01*
G01X12316595Y5441998D01*
G01X12316595Y5486999D01*
G01X12271596Y5486999D01*
G01X12271596Y5442999D01*
G01X12229600Y5442501D01*
G01X12224598Y5447500D01*
G01X12224598Y5562501D01*
G01X12229600Y5567502D01*
G37*
G36*
G01X12229600Y5352501D02*
G01X12271596Y5352499D01*
G01X12271596Y5308001D01*
G01X12316595Y5308001D01*
G01X12316595Y5351998D01*
G01X12357598Y5352501D01*
G01X12362599Y5347500D01*
G01X12362599Y5232502D01*
G01X12357598Y5227500D01*
G01X12229600Y5227500D01*
G01X12224598Y5232502D01*
G01X12224598Y5347500D01*
G01X12229600Y5352501D01*
G37*
G36*
G01X12380996Y1458097D02*
G01X12252998Y1458097D01*
G01X12247997Y1463098D01*
G01X12247997Y1578099D01*
G01X12252998Y1583098D01*
G01X12294001Y1583601D01*
G01X12294001Y1538600D01*
G01X12339000Y1538600D01*
G01X12339000Y1582600D01*
G01X12380996Y1583098D01*
G01X12385998Y1578099D01*
G01X12385998Y1463098D01*
G01X12380996Y1458097D01*
G37*
G36*
G01X12380996Y1673098D02*
G01X12339000Y1673101D01*
G01X12339000Y1717599D01*
G01X12294001Y1717599D01*
G01X12294001Y1673601D01*
G01X12252998Y1673098D01*
G01X12247997Y1678099D01*
G01X12247997Y1793098D01*
G01X12252998Y1798099D01*
G01X12380996Y1798099D01*
G01X12385998Y1793098D01*
G01X12385998Y1678099D01*
G01X12380996Y1673098D01*
G37*
G36*
G01X3087604Y573903D02*
G01X3215602Y573903D01*
G01X3220603Y568902D01*
G01X3220603Y453901D01*
G01X3215602Y448902D01*
G01X3174599Y448399D01*
G01X3174599Y493400D01*
G01X3129600Y493400D01*
G01X3129600Y449400D01*
G01X3087604Y448902D01*
G01X3082602Y453901D01*
G01X3082602Y568902D01*
G01X3087604Y573903D01*
G37*
G36*
G01X3087604Y358902D02*
G01X3129600Y358899D01*
G01X3129600Y314401D01*
G01X3174599Y314401D01*
G01X3174599Y358399D01*
G01X3215602Y358902D01*
G01X3220603Y353901D01*
G01X3220603Y238902D01*
G01X3215602Y233901D01*
G01X3087604Y233901D01*
G01X3082602Y238902D01*
G01X3082602Y353901D01*
G01X3087604Y358902D01*
G37*
G36*
G01X3106598Y1409200D02*
G01X3106598Y1537198D01*
G01X3111599Y1542199D01*
G01X3226600Y1542199D01*
G01X3231599Y1537198D01*
G01X3232102Y1496195D01*
G01X3187101Y1496195D01*
G01X3187101Y1451196D01*
G01X3231101Y1451196D01*
G01X3231599Y1409200D01*
G01X3226600Y1404198D01*
G01X3111599Y1404198D01*
G01X3106598Y1409200D01*
G37*
G36*
G01X3321599Y1409200D02*
G01X3321601Y1451196D01*
G01X3366099Y1451196D01*
G01X3366099Y1496195D01*
G01X3322102Y1496195D01*
G01X3321599Y1537198D01*
G01X3326600Y1542199D01*
G01X3441598Y1542199D01*
G01X3446600Y1537198D01*
G01X3446600Y1409200D01*
G01X3441598Y1404198D01*
G01X3326600Y1404198D01*
G01X3321599Y1409200D01*
G37*
G36*
G01X3593600Y1567002D02*
G01X3721598Y1567002D01*
G01X3726599Y1562001D01*
G01X3726599Y1447000D01*
G01X3721598Y1442001D01*
G01X3680595Y1441498D01*
G01X3680595Y1486499D01*
G01X3635596Y1486499D01*
G01X3635596Y1442499D01*
G01X3593600Y1442001D01*
G01X3588598Y1447000D01*
G01X3588598Y1562001D01*
G01X3593600Y1567002D01*
G37*
G36*
G01X3593600Y1352001D02*
G01X3635596Y1351999D01*
G01X3635596Y1307501D01*
G01X3680595Y1307501D01*
G01X3680595Y1351498D01*
G01X3721598Y1352001D01*
G01X3726599Y1347000D01*
G01X3726599Y1232002D01*
G01X3721598Y1227000D01*
G01X3593600Y1227000D01*
G01X3588598Y1232002D01*
G01X3588598Y1347000D01*
G01X3593600Y1352001D01*
G37*
G36*
G01X3335198Y8114800D02*
G01X3335198Y8242798D01*
G01X3340199Y8247799D01*
G01X3455200Y8247799D01*
G01X3460199Y8242798D01*
G01X3460702Y8201795D01*
G01X3415701Y8201795D01*
G01X3415701Y8156796D01*
G01X3459701Y8156796D01*
G01X3460199Y8114800D01*
G01X3455200Y8109798D01*
G01X3340199Y8109798D01*
G01X3335198Y8114800D01*
G37*
G36*
G01X3550199Y8114800D02*
G01X3550201Y8156796D01*
G01X3594699Y8156796D01*
G01X3594699Y8201795D01*
G01X3550702Y8201795D01*
G01X3550199Y8242798D01*
G01X3555200Y8247799D01*
G01X3670198Y8247799D01*
G01X3675200Y8242798D01*
G01X3675200Y8114800D01*
G01X3670198Y8109798D01*
G01X3555200Y8109798D01*
G01X3550199Y8114800D01*
G37*
G36*
G01X3111865Y4141445D02*
G01X3021356Y4050937D01*
G01X3014284Y4050937D01*
G01X2932966Y4132255D01*
G01X2932967Y4139326D01*
G01X2961605Y4168675D01*
G01X2993426Y4136855D01*
G01X3025245Y4168674D01*
G01X2994132Y4199787D01*
G01X3023476Y4229834D01*
G01X3030547Y4229836D01*
G01X3111865Y4148518D01*
G01X3111865Y4141445D01*
G37*
G36*
G01X2959836Y4293474D02*
G01X2930139Y4263780D01*
G01X2898674Y4295245D01*
G01X2866855Y4263426D01*
G01X2897966Y4232315D01*
G01X2869328Y4202966D01*
G01X2862255Y4202966D01*
G01X2780939Y4284282D01*
G01X2780939Y4291355D01*
G01X2871447Y4381863D01*
G01X2878520Y4381863D01*
G01X2959836Y4300547D01*
G01X2959836Y4293474D01*
G37*
G36*
G01X3467600Y236398D02*
G01X3339602Y236398D01*
G01X3334601Y241399D01*
G01X3334601Y356400D01*
G01X3339602Y361399D01*
G01X3380605Y361902D01*
G01X3380605Y316901D01*
G01X3425604Y316901D01*
G01X3425604Y360901D01*
G01X3467600Y361399D01*
G01X3472602Y356400D01*
G01X3472602Y241399D01*
G01X3467600Y236398D01*
G37*
G36*
G01X3467600Y451399D02*
G01X3425604Y451401D01*
G01X3425604Y495899D01*
G01X3380605Y495899D01*
G01X3380605Y451902D01*
G01X3339602Y451399D01*
G01X3334601Y456400D01*
G01X3334601Y571398D01*
G01X3339602Y576400D01*
G01X3467600Y576400D01*
G01X3472602Y571398D01*
G01X3472602Y456400D01*
G01X3467600Y451399D01*
G37*
G36*
G01X5649097Y4129004D02*
G01X5649097Y4257002D01*
G01X5654098Y4262003D01*
G01X5769099Y4262003D01*
G01X5774098Y4257002D01*
G01X5774601Y4215999D01*
G01X5729600Y4215999D01*
G01X5729600Y4171000D01*
G01X5773600Y4171000D01*
G01X5774098Y4129004D01*
G01X5769099Y4124002D01*
G01X5654098Y4124002D01*
G01X5649097Y4129004D01*
G37*
G36*
G01X5864098Y4129004D02*
G01X5864101Y4171000D01*
G01X5908599Y4171000D01*
G01X5908599Y4215999D01*
G01X5864601Y4215999D01*
G01X5864098Y4257002D01*
G01X5869099Y4262003D01*
G01X5984098Y4262003D01*
G01X5989099Y4257002D01*
G01X5989099Y4129004D01*
G01X5984098Y4124002D01*
G01X5869099Y4124002D01*
G01X5864098Y4129004D01*
G37*
G36*
G01X3601601Y5222088D02*
G01X3568141Y5222088D01*
G01X3558141Y5232088D01*
G01X3558141Y5277277D01*
G01X3548141Y5287277D01*
G01X3513059Y5287277D01*
G01X3503059Y5277277D01*
G01X3503059Y5232088D01*
G01X3493059Y5222088D01*
G01X3459599Y5222088D01*
G01X3449599Y5232088D01*
G01X3449599Y5395087D01*
G01X3459599Y5405087D01*
G01X3601601Y5405087D01*
G01X3611601Y5395087D01*
G01X3611601Y5232088D01*
G01X3601601Y5222088D01*
G37*
G36*
G01X3601601Y5141087D02*
G01X3568141Y5141087D01*
G01X3558141Y5131087D01*
G01X3558141Y5085898D01*
G01X3548141Y5075898D01*
G01X3513059Y5075898D01*
G01X3503059Y5085898D01*
G01X3503059Y5131087D01*
G01X3493059Y5141087D01*
G01X3459599Y5141087D01*
G01X3449599Y5131087D01*
G01X3449599Y4968088D01*
G01X3459599Y4958088D01*
G01X3601601Y4958088D01*
G01X3611601Y4968088D01*
G01X3611601Y5131087D01*
G01X3601601Y5141087D01*
G37*
G36*
G01X1328598Y5143000D02*
G01X1328598Y5270998D01*
G01X1333599Y5275999D01*
G01X1448600Y5275999D01*
G01X1453599Y5270998D01*
G01X1454102Y5229995D01*
G01X1409101Y5229995D01*
G01X1409101Y5184996D01*
G01X1453101Y5184996D01*
G01X1453599Y5143000D01*
G01X1448600Y5137998D01*
G01X1333599Y5137998D01*
G01X1328598Y5143000D01*
G37*
G36*
G01X1543599Y5143000D02*
G01X1543601Y5184996D01*
G01X1588099Y5184996D01*
G01X1588099Y5229995D01*
G01X1544102Y5229995D01*
G01X1543599Y5270998D01*
G01X1548600Y5275999D01*
G01X1663598Y5275999D01*
G01X1668600Y5270998D01*
G01X1668600Y5143000D01*
G01X1663598Y5137998D01*
G01X1548600Y5137998D01*
G01X1543599Y5143000D01*
G37*
G36*
G01X2100402Y5271000D02*
G01X2100402Y5143002D01*
G01X2095401Y5138001D01*
G01X1980400Y5138001D01*
G01X1975401Y5143002D01*
G01X1974898Y5184005D01*
G01X2019899Y5184005D01*
G01X2019899Y5229004D01*
G01X1975899Y5229004D01*
G01X1975401Y5271000D01*
G01X1980400Y5276002D01*
G01X2095401Y5276002D01*
G01X2100402Y5271000D01*
G37*
G36*
G01X1885401Y5271000D02*
G01X1885399Y5229004D01*
G01X1840901Y5229004D01*
G01X1840901Y5184005D01*
G01X1884898Y5184005D01*
G01X1885401Y5143002D01*
G01X1880400Y5138001D01*
G01X1765402Y5138001D01*
G01X1760400Y5143002D01*
G01X1760400Y5271000D01*
G01X1765402Y5276002D01*
G01X1880400Y5276002D01*
G01X1885401Y5271000D01*
G37*
G36*
G01X5468798Y545600D02*
G01X5468798Y673598D01*
G01X5473799Y678599D01*
G01X5588800Y678599D01*
G01X5593799Y673598D01*
G01X5594302Y632595D01*
G01X5549301Y632595D01*
G01X5549301Y587596D01*
G01X5593301Y587596D01*
G01X5593799Y545600D01*
G01X5588800Y540598D01*
G01X5473799Y540598D01*
G01X5468798Y545600D01*
G37*
G36*
G01X5683799Y545600D02*
G01X5683801Y587596D01*
G01X5728299Y587596D01*
G01X5728299Y632595D01*
G01X5684302Y632595D01*
G01X5683799Y673598D01*
G01X5688800Y678599D01*
G01X5803798Y678599D01*
G01X5808800Y673598D01*
G01X5808800Y545600D01*
G01X5803798Y540598D01*
G01X5688800Y540598D01*
G01X5683799Y545600D01*
G37*
G36*
G01X4636000Y566598D02*
G01X4508002Y566598D01*
G01X4503001Y571599D01*
G01X4503001Y686600D01*
G01X4508002Y691599D01*
G01X4549005Y692102D01*
G01X4549005Y647101D01*
G01X4594004Y647101D01*
G01X4594004Y691101D01*
G01X4636000Y691599D01*
G01X4641002Y686600D01*
G01X4641002Y571599D01*
G01X4636000Y566598D01*
G37*
G36*
G01X4636000Y781599D02*
G01X4594004Y781601D01*
G01X4594004Y826099D01*
G01X4549005Y826099D01*
G01X4549005Y782102D01*
G01X4508002Y781599D01*
G01X4503001Y786600D01*
G01X4503001Y901598D01*
G01X4508002Y906600D01*
G01X4636000Y906600D01*
G01X4641002Y901598D01*
G01X4641002Y786600D01*
G01X4636000Y781599D01*
G37*
G36*
G01X5905000Y601802D02*
G01X6032998Y601802D01*
G01X6037999Y596801D01*
G01X6037999Y481800D01*
G01X6032998Y476801D01*
G01X5991995Y476298D01*
G01X5991995Y521299D01*
G01X5946996Y521299D01*
G01X5946996Y477299D01*
G01X5905000Y476801D01*
G01X5899998Y481800D01*
G01X5899998Y596801D01*
G01X5905000Y601802D01*
G37*
G36*
G01X5905000Y386801D02*
G01X5946996Y386799D01*
G01X5946996Y342301D01*
G01X5991995Y342301D01*
G01X5991995Y386298D01*
G01X6032998Y386801D01*
G01X6037999Y381800D01*
G01X6037999Y266802D01*
G01X6032998Y261800D01*
G01X5905000Y261800D01*
G01X5899998Y266802D01*
G01X5899998Y381800D01*
G01X5905000Y386801D01*
G37*
G36*
G01X4890000Y8338998D02*
G01X4762002Y8338998D01*
G01X4757001Y8343999D01*
G01X4757001Y8459000D01*
G01X4762002Y8463999D01*
G01X4803005Y8464502D01*
G01X4803005Y8419501D01*
G01X4848004Y8419501D01*
G01X4848004Y8463501D01*
G01X4890000Y8463999D01*
G01X4895002Y8459000D01*
G01X4895002Y8343999D01*
G01X4890000Y8338998D01*
G37*
G36*
G01X4890000Y8553999D02*
G01X4848004Y8554001D01*
G01X4848004Y8598499D01*
G01X4803005Y8598499D01*
G01X4803005Y8554502D01*
G01X4762002Y8553999D01*
G01X4757001Y8559000D01*
G01X4757001Y8673998D01*
G01X4762002Y8679000D01*
G01X4890000Y8679000D01*
G01X4895002Y8673998D01*
G01X4895002Y8559000D01*
G01X4890000Y8553999D01*
G37*
G36*
G01X5011598Y8851400D02*
G01X5011598Y8979398D01*
G01X5016599Y8984399D01*
G01X5131600Y8984399D01*
G01X5136599Y8979398D01*
G01X5137102Y8938395D01*
G01X5092101Y8938395D01*
G01X5092101Y8893396D01*
G01X5136101Y8893396D01*
G01X5136599Y8851400D01*
G01X5131600Y8846398D01*
G01X5016599Y8846398D01*
G01X5011598Y8851400D01*
G37*
G36*
G01X5226599Y8851400D02*
G01X5226601Y8893396D01*
G01X5271099Y8893396D01*
G01X5271099Y8938395D01*
G01X5227102Y8938395D01*
G01X5226599Y8979398D01*
G01X5231600Y8984399D01*
G01X5346598Y8984399D01*
G01X5351600Y8979398D01*
G01X5351600Y8851400D01*
G01X5346598Y8846398D01*
G01X5231600Y8846398D01*
G01X5226599Y8851400D01*
G37*

G04 Pad Start*
G54D10*
G01X2364227Y3124200D03*
G01X2614163Y3219196D03*
G01X2614163Y3029204D03*
G54D11*
G01X4438210Y3222264D03*
G01X4473574Y3257628D03*
G01X4508920Y3292974D03*
G01X4544285Y3328339D03*
G01X4579631Y3363685D03*
G01X4614995Y3399049D03*
G01X4650341Y3434395D03*
G01X4685706Y3469760D03*
G01X4721052Y3505106D03*
G01X4756416Y3540470D03*
G01X4791762Y3575817D03*
G01X4827127Y3611181D03*
G01X4862473Y3646527D03*
G01X4897837Y3681891D03*
G01X4933183Y3717238D03*
G01X4968548Y3752602D03*
G01X5003894Y3787948D03*
G01X5039258Y3823312D03*
G01X5074605Y3858659D03*
G01X5109969Y3894023D03*
G01X5145315Y3929369D03*
G01X5180679Y3964733D03*
G01X5216026Y4000080D03*
G01X5251390Y4035444D03*
G01X5286736Y4070790D03*
G54D12*
G01X5286736Y4311210D03*
G01X5251390Y4346556D03*
G01X5216026Y4381920D03*
G01X5180679Y4417267D03*
G01X5145315Y4452631D03*
G01X5109969Y4487977D03*
G01X5074605Y4523341D03*
G01X5039258Y4558688D03*
G01X5003894Y4594052D03*
G01X4968548Y4629398D03*
G01X4933183Y4664762D03*
G01X4897837Y4700109D03*
G01X4862473Y4735473D03*
G01X4827127Y4770819D03*
G01X4791762Y4806183D03*
G01X4756416Y4841530D03*
G01X4721052Y4876894D03*
G01X4685706Y4912240D03*
G01X4650341Y4947605D03*
G01X4614995Y4982951D03*
G01X4579631Y5018315D03*
G01X4544285Y5053661D03*
G01X4508920Y5089026D03*
G01X4473574Y5124372D03*
G01X4438210Y5159736D03*
G54D11*
G01X4197790Y5159736D03*
G01X4162444Y5124390D03*
G01X4127080Y5089026D03*
G01X4091733Y5053679D03*
G01X4056369Y5018315D03*
G01X4021023Y4982969D03*
G01X3985659Y4947605D03*
G01X3950312Y4912258D03*
G01X3914948Y4876894D03*
G01X3879602Y4841548D03*
G01X3844238Y4806183D03*
G01X3808891Y4770837D03*
G01X3773527Y4735473D03*
G01X3738181Y4700127D03*
G01X3702817Y4664762D03*
G01X3667470Y4629416D03*
G01X3632106Y4594052D03*
G01X3596760Y4558706D03*
G01X3561395Y4523341D03*
G01X3526049Y4487995D03*
G01X3490685Y4452631D03*
G01X3455339Y4417285D03*
G01X3419974Y4381920D03*
G01X3384628Y4346574D03*
G01X3349264Y4311210D03*
G54D12*
G01X3349264Y4070790D03*
G01X3384628Y4035426D03*
G01X3419974Y4000080D03*
G01X3455339Y3964715D03*
G01X3490685Y3929369D03*
G01X3526049Y3894005D03*
G01X3561395Y3858659D03*
G01X3596760Y3823294D03*
G01X3632106Y3787948D03*
G01X3667470Y3752584D03*
G01X3702817Y3717238D03*
G01X3738181Y3681873D03*
G01X3773527Y3646527D03*
G01X3808891Y3611163D03*
G01X3844238Y3575817D03*
G01X3879602Y3540452D03*
G01X3914948Y3505106D03*
G01X3950312Y3469742D03*
G01X3985659Y3434395D03*
G01X4021023Y3399031D03*
G01X4056369Y3363685D03*
G01X4091733Y3328321D03*
G01X4127080Y3292974D03*
G01X4162444Y3257610D03*
G01X4197790Y3222264D03*
G54D13*
G01X5369390Y4663546D03*
G54D14*
G01X5302250Y4730750D03*
G54D13*
G01X5235110Y4797954D03*
G54D15*
G01X9254871Y8674100D03*
G01X9464929Y8674100D03*
G01X10277729Y8674100D03*
G01X10067671Y8674100D03*
G54D16*
G01X12573000Y7595095D03*
G01X12573000Y7510107D03*
G01X12573000Y7425093D03*
G01X12573000Y7340105D03*
G01X12547600Y1727695D03*
G01X12547600Y1642707D03*
G01X12547600Y1557693D03*
G01X12547600Y1472705D03*
G01X2844800Y329705D03*
G01X2844800Y414693D03*
G01X2844800Y499707D03*
G01X2844800Y584695D03*
G01X2844800Y8457705D03*
G01X2844800Y8542693D03*
G01X2844800Y8627707D03*
G01X2844800Y8712695D03*
G54D18*
G01X4443006Y2525509D03*
G01X4392994Y2300491D03*
G01X4343006Y2525509D03*
G01X4292994Y2300491D03*
G01X4243007Y2525509D03*
G01X4192994Y2300491D03*
G54D19*
G01X3392996Y2413013D03*
G01X5243005Y2413013D03*
G54D18*
G01X4143007Y2525484D03*
G01X4092994Y2300491D03*
G01X4043007Y2525484D03*
G01X3992994Y2300491D03*
G01X3943007Y2525484D03*
G01X3892995Y2300491D03*
G01X3843007Y2525484D03*
G01X3792995Y2300491D03*
G01X3742982Y2525484D03*
G01X3692995Y2300491D03*
G01X3642982Y2525484D03*
G01X3592995Y2300491D03*
G01X4492968Y2300491D03*
G01X4542981Y2525509D03*
G01X4592993Y2300491D03*
G01X4642980Y2525509D03*
G01X4692993Y2300491D03*
G01X4743006Y2525509D03*
G01X4792993Y2300491D03*
G01X4843005Y2525509D03*
G01X4892993Y2300491D03*
G01X4943005Y2525509D03*
G01X4992992Y2300491D03*
G01X5043005Y2525509D03*
G01X3935006Y5859259D03*
G01X3884994Y5634241D03*
G01X3835006Y5859259D03*
G01X3784994Y5634241D03*
G01X3735007Y5859259D03*
G01X3684994Y5634241D03*
G54D19*
G01X2884996Y5746763D03*
G01X4735005Y5746763D03*
G54D18*
G01X3635007Y5859234D03*
G01X3584994Y5634241D03*
G01X3535007Y5859234D03*
G01X3484994Y5634241D03*
G01X3435007Y5859234D03*
G01X3384995Y5634241D03*
G01X3335007Y5859234D03*
G01X3284995Y5634241D03*
G01X3234982Y5859234D03*
G01X3184995Y5634241D03*
G01X3134982Y5859234D03*
G01X3084995Y5634241D03*
G01X3984968Y5634241D03*
G01X4034981Y5859259D03*
G01X4084993Y5634241D03*
G01X4134980Y5859259D03*
G01X4184993Y5634241D03*
G01X4235006Y5859259D03*
G01X4284993Y5634241D03*
G01X4335005Y5859259D03*
G01X4384993Y5634241D03*
G01X4435005Y5859259D03*
G01X4484992Y5634241D03*
G01X4535005Y5859259D03*
G54D20*
G01X3429010Y8551398D03*
G01X3429010Y8771412D03*
G54D21*
G01X2870190Y6118393D03*
G01X2964195Y6118393D03*
G01X2776184Y6118393D03*
G01X2964195Y6378412D03*
G01X2776184Y6378412D03*
G54D22*
G01X3392602Y6598996D03*
G01X3542589Y6598996D03*
G01X3692601Y6598996D03*
G01X3842588Y6598996D03*
G01X3992601Y6598996D03*
G01X4142588Y6598996D03*
G01X4292600Y6598996D03*
G01X4442612Y6598996D03*
G01X4592599Y6598996D03*
G01X4742612Y6598996D03*
G01X4892599Y6598996D03*
G01X5042611Y6598996D03*
G01X5192598Y6598996D03*
G01X3392602Y7879004D03*
G01X3542589Y7879004D03*
G01X3692601Y7879004D03*
G01X3842588Y7879004D03*
G01X3992601Y7879004D03*
G01X4142588Y7879004D03*
G01X4292600Y7879004D03*
G01X4442612Y7879004D03*
G01X4592599Y7879004D03*
G01X4742612Y7879004D03*
G01X4892599Y7879004D03*
G01X5042611Y7879004D03*
G01X5192598Y7879004D03*
G54D15*
G01X12544171Y4876800D03*
G01X12754229Y4876800D03*
G54D23*
G01X11684000Y5518810D03*
G01X11684000Y5758790D03*
G54D15*
G01X12544171Y5181600D03*
G01X12754229Y5181600D03*
G54D24*
G01X12869202Y2950401D03*
G01X12869202Y3200387D03*
G01X12869202Y3450400D03*
G01X12429198Y2950401D03*
G01X12429198Y3200387D03*
G01X12429198Y3450400D03*
G54D25*
G01X11887200Y5538800D03*
G01X11887200Y5738800D03*
G54D26*
G01X11407600Y2291080D03*
G01X11457600Y2291080D03*
G01X11507600Y2291080D03*
G01X11557599Y2291080D03*
G01X11607597Y2291080D03*
G54D27*
G01X11800898Y2388799D03*
G01X11800898Y2538799D03*
G54D26*
G01X11757599Y2636520D03*
G01X11707599Y2636520D03*
G01X11657599Y2636520D03*
G01X11607597Y2636520D03*
G01X11557599Y2636520D03*
G54D27*
G01X11363902Y2538799D03*
G01X11363902Y2388799D03*
G54D26*
G01X11657597Y2291080D03*
G01X11507600Y2636520D03*
G01X11707597Y2291080D03*
G01X11757597Y2291080D03*
G01X11457600Y2636520D03*
G01X11407600Y2636520D03*
G54D28*
G01X11582399Y2463800D03*
G54D26*
G01X11173000Y7589520D03*
G01X11123000Y7589520D03*
G01X11073000Y7589520D03*
G01X11023001Y7589520D03*
G01X10973003Y7589520D03*
G54D27*
G01X10779702Y7491801D03*
G01X10779702Y7341801D03*
G54D26*
G01X10823001Y7244080D03*
G01X10873001Y7244080D03*
G01X10923001Y7244080D03*
G01X10973003Y7244080D03*
G01X11023001Y7244080D03*
G54D27*
G01X11216698Y7341801D03*
G01X11216698Y7491801D03*
G54D26*
G01X10923003Y7589520D03*
G01X11073000Y7244080D03*
G01X10873003Y7589520D03*
G01X10823004Y7589520D03*
G01X11123000Y7244080D03*
G01X11173000Y7244080D03*
G54D29*
G01X10998201Y7416800D03*
G54D23*
G01X6223000Y4463390D03*
G01X6223000Y4223410D03*
G01X1701800Y4945990D03*
G01X1701800Y4706010D03*
G54D30*
G01X10855312Y8432800D03*
G01X11725288Y8432800D03*
G54D31*
G01X11379200Y1616088D03*
G01X11379200Y746112D03*
G54D32*
G01X11061700Y2787498D03*
G01X11061700Y2927502D03*
G01X11607800Y6737198D03*
G01X11607800Y6877202D03*
G54D33*
G01X11436502Y6731000D03*
G01X11296498Y6731000D03*
G01X11232998Y3073400D03*
G01X11373002Y3073400D03*
G54D34*
G01X10782013Y4572013D03*
G01X11315997Y4572013D03*
G54D35*
G01X8026413Y4305587D03*
G01X8026413Y3771603D03*
G54D36*
G01X12026900Y6384011D03*
G01X12026900Y6823989D03*
G54D37*
G01X4216400Y1488859D03*
G01X4216400Y1254341D03*
G01X4495800Y1254341D03*
G01X4495800Y1488859D03*
G54D38*
G01X11969496Y6183300D03*
G01X11779504Y6183300D03*
G01X11874500Y5983300D03*
G54D39*
G01X-1651000Y4651629D03*
G01X-1651000Y4441571D03*
G01X4978400Y511429D03*
G01X4978400Y301371D03*
G54D10*
G01X3176600Y1237996D03*
G01X3176600Y1048004D03*
G01X3376600Y1143000D03*
G54D40*
G01X1395400Y6070600D03*
G01X1195400Y6070600D03*
G54D21*
G01X1695196Y5508790D03*
G01X1505204Y5508790D03*
G01X1505204Y5768810D03*
G01X1600200Y5768810D03*
G01X1695196Y5768810D03*
G54D40*
G01X5738800Y381000D03*
G01X5538800Y381000D03*
G54D21*
G01X4858004Y1069810D03*
G01X5047996Y1069810D03*
G01X5047996Y809790D03*
G01X4953000Y809790D03*
G01X4858004Y809790D03*
G54D41*
G01X4953000Y1714398D03*
G54D42*
G01X5053000Y1384402D03*
G01X4853000Y1384402D03*
G54D43*
G01X5584990Y8414004D03*
G01X5584990Y8603996D03*
G01X5845010Y8603996D03*
G01X5845010Y8509000D03*
G01X5845010Y8414004D03*
G54D41*
G01X5232400Y8318602D03*
G54D42*
G01X5132400Y8648598D03*
G01X5332400Y8648598D03*
G54D44*
G01X5570651Y8924604D03*
G01X5952450Y8923005D03*
G01X5985800Y168500D03*
G01X5604000Y170100D03*
G04 Pad End*

M02*

