G04 Layer: TopSolderMaskLayer*
G04 EasyEDA Pro v2.2.40.8, 2025-09-21 19:38:57*
G04 Gerber Generator version 0.3*
G04 Scale: 100 percent, Rotated: No, Reflected: No*
G04 Dimensions in millimeters*
G04 Leading zeros omitted, absolute positions, 4 integers and 5 decimals*
G04 Generated by one-click*
%FSLAX45Y45*%
%MOMM*%
%AMRoundRect*1,1,$1,$2,$3*1,1,$1,$4,$5*1,1,$1,0-$2,0-$3*1,1,$1,0-$4,0-$5*20,1,$1,$2,$3,$4,$5,0*20,1,$1,$4,$5,0-$2,0-$3,0*20,1,$1,0-$2,0-$3,0-$4,0-$5,0*20,1,$1,0-$4,0-$5,$2,$3,0*4,1,4,$2,$3,$4,$5,0-$2,0-$3,0-$4,0-$5,$2,$3,0*%
%AMOval*1,1,$1,$2,$3*1,1,$1,$4,$5*20,1,$1,$2,$3,$4,$5,0*%
%ADD10C,0.6096*%
%ADD11C,5.102*%
%ADD12O,2.102X4.102*%
%ADD13C,0.7116*%
%ADD14RoundRect,0.09387X-0.57013X0.69237X0.57013X0.69237*%
%ADD15RoundRect,0.09387X-0.69237X-0.57013X-0.69237X0.57013*%
%ADD16C,1.9016*%
%ADD17RoundRect,0.1742X-0.64366X-0.36866X-0.64366X0.36866*%
%ADD18RoundRect,0.16588X-0.64366X-0.36866X-0.64366X0.36866*%
%ADD19Oval,0.38161X-0.46669X0.46669X0.46669X-0.46669*%
%ADD20Oval,0.38161X-0.46669X-0.46669X0.46669X0.46669*%
%ADD21RoundRect,0.08982X-0.80429X-0.33545X0.33629X0.80394*%
%ADD22RoundRect,0.08722X-0.75311X-0.38851X0.3893X0.75271*%
%ADD23RoundRect,0.09387X-0.08643X-0.89272X-0.89272X-0.08643*%
%ADD24RoundRect,0.09495X-0.70833X0.67833X0.70833X0.67833*%
%ADD25RoundRect,0.09302X-0.50429X0.70406X0.50429X0.70406*%
%ADD26RoundRect,0.08692X-0.60734X-0.25734X-0.60734X0.25734*%
%ADD27RoundRect,0.87365X-0.38897X-0.38897X-0.38897X0.38897*%
%ADD28RoundRect,0.08449X-0.20856X0.63356X0.20856X0.63356*%
%ADD29RoundRect,0.0973X-1.10215X1.20215X1.10215X1.20215*%
%ADD30C,4.10002*%
%ADD31RoundRect,0.09495X-0.67833X-0.70833X-0.67833X0.70833*%
%ADD32O,0.90002X0.38003*%
%ADD33O,0.38003X0.90002*%
%ADD34RoundRect,0.09658X-1.35172X-1.35172X-1.35172X1.35172*%
%ADD35RoundRect,0.09302X-0.62929X-0.50429X-0.62929X0.50429*%
%ADD36RoundRect,0.08752X-0.30625X-0.55625X-0.30625X0.55625*%
%ADD37RoundRect,0.09093X-0.45455X1.10455X0.45455X1.10455*%
%ADD38O,0.38161X1.05161*%
%ADD39O,1.05161X0.38161*%
%ADD40RoundRect,0.09852X-1.57654X-1.57654X-1.57654X1.57654*%
%ADD41RoundRect,0.09499X-0.68275X-0.7533X-0.68275X0.7533*%
%ADD42RoundRect,0.09288X-0.70357X-0.60357X-0.70357X0.60357*%
%ADD43RoundRect,0.17384X-0.78968X-0.51468X-0.78968X0.51468*%
%ADD44RoundRect,0.09549X-0.86705X-0.74556X-0.86705X0.74556*%
%ADD45RoundRect,0.09598X-0.82031X1.35281X0.82031X1.35281*%
%ADD46RoundRect,0.07749X-0.13319X0.36127X0.13319X0.36127*%
%ADD47RoundRect,0.07749X-0.36127X0.13319X0.36127X0.13319*%
%ADD48C,0.61*%
%ADD49RoundRect,0.09549X-0.74556X0.86705X0.74556X0.86705*%
%ADD50RoundRect,0.08692X-0.57734X-0.25734X-0.57734X0.25734*%
%ADD51RoundRect,0.08109X-0.58026X-0.16026X-0.58026X0.16026*%
%ADD52O,2.1016X1.1016*%
%ADD53O,1.9016X1.1016*%
%ADD54RoundRect,0.09669X-0.95245X0.95245X0.95245X0.95245*%
%ADD55C,2.0016*%
%ADD56RoundRect,0.09763X-1.20198X2.20198X1.20198X2.20198*%
%ADD57RoundRect,0.09763X-2.20198X-1.20198X-2.20198X1.20198*%
%ADD58RoundRect,0.09164X-0.45518X-0.40518X-0.45518X0.40518*%
%ADD59RoundRect,0.09138X-0.40835X0.43711X0.40835X0.43711*%
%ADD60RoundRect,0.09164X-0.40518X0.45518X0.40518X0.45518*%
%ADD61RoundRect,0.09138X-0.43711X-0.40835X-0.43711X0.40835*%
%ADD62RoundRect,0.09459X-1.7537X0.6037X1.7537X0.6037*%
%ADD63RoundRect,0.09459X-0.6037X-1.7537X-0.6037X1.7537*%
%ADD64C,1.7016*%
%ADD65RoundRect,0.09728X-1.00236X-1.00236X-1.00236X1.00236*%
%ADD66RoundRect,0.0911X-0.38046X-0.50545X-0.38046X0.50545*%
%ADD67RoundRect,0.09017X-0.35571X-0.63072X-0.35571X0.63072*%
%ADD68O,2.102X3.102*%
%ADD69R,3.0X1.8*%
%ADD70O,3.0X1.8*%
%ADD71C,2.1016*%
%ADD72RoundRect,0.09302X-0.70406X-0.50429X-0.70406X0.50429*%
%ADD73RoundRect,0.09017X-0.63072X0.35571X0.63072X0.35571*%
%ADD74RoundRect,0.09594X-0.81284X-0.89534X-0.81284X0.89534*%
%ADD75RoundRect,0.09654X-1.10273X-0.85273X-1.10273X0.85273*%
%ADD76O,2.302X1.802*%
%ADD77RoundRect,0.17384X-0.51468X0.78968X0.51468X0.78968*%
%ADD78C,1.62403*%
%ADD79C,2.102*%
%ADD80RoundRect,0.08906X-0.30647X-0.55647X-0.30647X0.55647*%
%ADD81RoundRect,0.09623X-0.80288X0.80288X0.80288X0.80288*%
%ADD82RoundRect,0.09459X-0.60365X0.7537X0.60365X0.7537*%
%ADD83RoundRect,0.08906X-0.55647X0.30647X0.55647X0.30647*%
%ADD84RoundRect,0.09402X-0.72549X-0.55399X-0.72549X0.55399*%
G75*


G04 PolygonModel Start*
G54D10*
G01X11274280Y7389904D02*
G01X11322800Y7389904D01*
G01X11386265Y7326440D01*
G01X11407399Y7441799D02*
G01X11480800Y7368398D01*
G01X11480800Y7366000D01*
G01X10769600Y7391400D02*
G01X10629737Y7391400D01*
G01X10488958Y7250621D01*
G01X10488958Y6985001D01*
G01X10693400Y7289800D02*
G01X10575000Y7173562D01*
G01X10575000Y6904544D01*

G04 Rect Start*
G36*
G01X9930409Y8058562D02*
G01X9930409Y8388560D01*
G01X10357262Y8388560D01*
G01X10357262Y8058562D01*
G01X9930409Y8058562D01*
G37*
G04 Rect End*

G04 Pad Start*
G54D11*
G01X431800Y6502400D03*
G01X1463040Y2346960D03*
G01X426720Y2453640D03*
G01X1463040Y6609080D03*
G54D12*
G01X-228600Y546100D03*
G01X965200Y546100D03*
G01X977900Y8509000D03*
G01X-215900Y8509000D03*
G54D11*
G01X12473376Y793572D03*
G54D13*
G01X11455400Y3799764D03*
G01X11303000Y6070600D03*
G01X10883900Y203200D03*
G01X10642600Y127000D03*
G01X11557879Y2032000D03*
G01X11353800Y2209800D03*
G01X11506200Y3175000D03*
G01X11163300Y6769100D03*
G01X10985500Y7683500D03*
G54D11*
G01X8178800Y8661400D03*
G01X8178800Y370840D03*
G01X12473376Y8293583D03*
G01X-558800Y6502400D03*
G01X-563880Y2453640D03*
G54D14*
G01X3887800Y6172200D03*
G01X4087800Y6172200D03*
G54D15*
G01X3200400Y8355000D03*
G01X3200400Y8155000D03*
G54D16*
G01X2499360Y2645677D03*
G01X2499360Y1885683D03*
G54D18*
G01X2364227Y3124200D03*
G01X2614163Y3219196D03*
G01X2614163Y3029204D03*
G54D14*
G01X3071800Y3022600D03*
G01X2871800Y3022600D03*
G54D19*
G01X4438210Y3222264D03*
G01X4473574Y3257628D03*
G01X4508920Y3292974D03*
G01X4544285Y3328339D03*
G01X4579631Y3363685D03*
G01X4614995Y3399049D03*
G01X4650341Y3434395D03*
G01X4685706Y3469760D03*
G01X4721052Y3505106D03*
G01X4756416Y3540470D03*
G01X4791762Y3575817D03*
G01X4827127Y3611181D03*
G01X4862473Y3646527D03*
G01X4897837Y3681891D03*
G01X4933183Y3717238D03*
G01X4968548Y3752602D03*
G01X5003894Y3787948D03*
G01X5039258Y3823312D03*
G01X5074605Y3858659D03*
G01X5109969Y3894023D03*
G01X5145315Y3929369D03*
G01X5180679Y3964733D03*
G01X5216026Y4000080D03*
G01X5251390Y4035444D03*
G01X5286736Y4070790D03*
G54D20*
G01X5286736Y4311210D03*
G01X5251390Y4346556D03*
G01X5216026Y4381920D03*
G01X5180679Y4417267D03*
G01X5145315Y4452631D03*
G01X5109969Y4487977D03*
G01X5074605Y4523341D03*
G01X5039258Y4558688D03*
G01X5003894Y4594052D03*
G01X4968548Y4629398D03*
G01X4933183Y4664762D03*
G01X4897837Y4700109D03*
G01X4862473Y4735473D03*
G01X4827127Y4770819D03*
G01X4791762Y4806183D03*
G01X4756416Y4841530D03*
G01X4721052Y4876894D03*
G01X4685706Y4912240D03*
G01X4650341Y4947605D03*
G01X4614995Y4982951D03*
G01X4579631Y5018315D03*
G01X4544285Y5053661D03*
G01X4508920Y5089026D03*
G01X4473574Y5124372D03*
G01X4438210Y5159736D03*
G54D19*
G01X4197790Y5159736D03*
G01X4162444Y5124390D03*
G01X4127080Y5089026D03*
G01X4091733Y5053679D03*
G01X4056369Y5018315D03*
G01X4021023Y4982969D03*
G01X3985659Y4947605D03*
G01X3950312Y4912258D03*
G01X3914948Y4876894D03*
G01X3879602Y4841548D03*
G01X3844238Y4806183D03*
G01X3808891Y4770837D03*
G01X3773527Y4735473D03*
G01X3738181Y4700127D03*
G01X3702817Y4664762D03*
G01X3667470Y4629416D03*
G01X3632106Y4594052D03*
G01X3596760Y4558706D03*
G01X3561395Y4523341D03*
G01X3526049Y4487995D03*
G01X3490685Y4452631D03*
G01X3455339Y4417285D03*
G01X3419974Y4381920D03*
G01X3384628Y4346574D03*
G01X3349264Y4311210D03*
G54D20*
G01X3349264Y4070790D03*
G01X3384628Y4035426D03*
G01X3419974Y4000080D03*
G01X3455339Y3964715D03*
G01X3490685Y3929369D03*
G01X3526049Y3894005D03*
G01X3561395Y3858659D03*
G01X3596760Y3823294D03*
G01X3632106Y3787948D03*
G01X3667470Y3752584D03*
G01X3702817Y3717238D03*
G01X3738181Y3681873D03*
G01X3773527Y3646527D03*
G01X3808891Y3611163D03*
G01X3844238Y3575817D03*
G01X3879602Y3540452D03*
G01X3914948Y3505106D03*
G01X3950312Y3469742D03*
G01X3985659Y3434395D03*
G01X4021023Y3399031D03*
G01X4056369Y3363685D03*
G01X4091733Y3328321D03*
G01X4127080Y3292974D03*
G01X4162444Y3257610D03*
G01X4197790Y3222264D03*
G54D21*
G01X5369390Y4663546D03*
G54D22*
G01X5302250Y4730750D03*
G54D21*
G01X5235110Y4797954D03*
G54D23*
G01X5485539Y4991961D03*
G01X5626961Y4850539D03*
G54D14*
G01X12749200Y5715000D03*
G01X12549200Y5715000D03*
G01X12536500Y7016750D03*
G01X12736500Y7016750D03*
G54D24*
G01X11581003Y2032000D03*
G01X11786997Y2032000D03*
G54D15*
G01X4211320Y1779600D03*
G01X4211320Y1979600D03*
G01X4495800Y1779600D03*
G01X4495800Y1979600D03*
G54D14*
G01X5945200Y5029200D03*
G01X6145200Y5029200D03*
G54D25*
G01X9254871Y8674100D03*
G01X9464929Y8674100D03*
G01X10277729Y8674100D03*
G01X10067671Y8674100D03*
G54D26*
G01X12573000Y7595095D03*
G01X12573000Y7510107D03*
G01X12573000Y7425093D03*
G01X12573000Y7340105D03*
G01X12547600Y1727695D03*
G01X12547600Y1642707D03*
G01X12547600Y1557693D03*
G01X12547600Y1472705D03*
G01X2844800Y329705D03*
G01X2844800Y414693D03*
G01X2844800Y499707D03*
G01X2844800Y584695D03*
G01X2844800Y8457705D03*
G01X2844800Y8542693D03*
G01X2844800Y8627707D03*
G01X2844800Y8712695D03*
G54D27*
G01X5664200Y3886199D03*
G01X5918200Y3886199D03*
G01X5664200Y3632200D03*
G01X5918200Y3632200D03*
G01X5664200Y3378201D03*
G01X5918200Y3378201D03*
G54D28*
G01X4443006Y2525509D03*
G01X4392994Y2300491D03*
G01X4343006Y2525509D03*
G01X4292994Y2300491D03*
G01X4243007Y2525509D03*
G01X4192994Y2300491D03*
G54D29*
G01X3392996Y2413013D03*
G01X5243005Y2413013D03*
G54D28*
G01X4143007Y2525484D03*
G01X4092994Y2300491D03*
G01X4043007Y2525484D03*
G01X3992994Y2300491D03*
G01X3943007Y2525484D03*
G01X3892995Y2300491D03*
G01X3843007Y2525484D03*
G01X3792995Y2300491D03*
G01X3742982Y2525484D03*
G01X3692995Y2300491D03*
G01X3642982Y2525484D03*
G01X3592995Y2300491D03*
G01X4492968Y2300491D03*
G01X4542981Y2525509D03*
G01X4592993Y2300491D03*
G01X4642980Y2525509D03*
G01X4692993Y2300491D03*
G01X4743006Y2525509D03*
G01X4792993Y2300491D03*
G01X4843005Y2525509D03*
G01X4892993Y2300491D03*
G01X4943005Y2525509D03*
G01X4992992Y2300491D03*
G01X5043005Y2525509D03*
G01X3935006Y5859259D03*
G01X3884994Y5634241D03*
G01X3835006Y5859259D03*
G01X3784994Y5634241D03*
G01X3735007Y5859259D03*
G01X3684994Y5634241D03*
G54D29*
G01X2884996Y5746763D03*
G01X4735005Y5746763D03*
G54D28*
G01X3635007Y5859234D03*
G01X3584994Y5634241D03*
G01X3535007Y5859234D03*
G01X3484994Y5634241D03*
G01X3435007Y5859234D03*
G01X3384995Y5634241D03*
G01X3335007Y5859234D03*
G01X3284995Y5634241D03*
G01X3234982Y5859234D03*
G01X3184995Y5634241D03*
G01X3134982Y5859234D03*
G01X3084995Y5634241D03*
G01X3984968Y5634241D03*
G01X4034981Y5859259D03*
G01X4084993Y5634241D03*
G01X4134980Y5859259D03*
G01X4184993Y5634241D03*
G01X4235006Y5859259D03*
G01X4284993Y5634241D03*
G01X4335005Y5859259D03*
G01X4384993Y5634241D03*
G01X4435005Y5859259D03*
G01X4484992Y5634241D03*
G01X4535005Y5859259D03*
G54D15*
G01X4927600Y3100400D03*
G01X4927600Y3300400D03*
G54D30*
G01X9525000Y8196986D03*
G01X9525000Y947014D03*
G54D24*
G01X5942203Y4775200D03*
G01X6148197Y4775200D03*
G01X6475603Y4978400D03*
G01X6681597Y4978400D03*
G54D31*
G01X7086600Y4469003D03*
G01X7086600Y4674997D03*
G54D24*
G01X6783197Y4089400D03*
G01X6577203Y4089400D03*
G54D32*
G01X6853366Y4413521D03*
G01X6853366Y4463508D03*
G01X6853366Y4513520D03*
G01X6853366Y4563508D03*
G01X6853366Y4613520D03*
G01X6853366Y4663507D03*
G54D33*
G01X6778360Y4738514D03*
G01X6728372Y4738514D03*
G01X6678360Y4738514D03*
G01X6628373Y4738514D03*
G01X6578360Y4738514D03*
G01X6528373Y4738514D03*
G54D32*
G01X6453367Y4663507D03*
G01X6453367Y4613520D03*
G01X6453367Y4563508D03*
G01X6453367Y4513520D03*
G01X6453367Y4463508D03*
G01X6453367Y4414308D03*
G54D33*
G01X6528373Y4338514D03*
G01X6578360Y4338514D03*
G01X6628373Y4338514D03*
G01X6678360Y4338514D03*
G01X6728372Y4338514D03*
G01X6778360Y4338514D03*
G54D34*
G01X6653366Y4539759D03*
G54D14*
G01X7059600Y5181600D03*
G01X6859600Y5181600D03*
G01X7110400Y3860800D03*
G01X6910400Y3860800D03*
G01X4294200Y6172200D03*
G01X4494200Y6172200D03*
G54D35*
G01X3429010Y8551398D03*
G01X3429010Y8771412D03*
G54D36*
G01X2870190Y6118393D03*
G01X2964195Y6118393D03*
G01X2776184Y6118393D03*
G01X2964195Y6378412D03*
G01X2776184Y6378412D03*
G54D24*
G01X5040503Y6273800D03*
G01X5246497Y6273800D03*
G54D31*
G01X3175000Y6170803D03*
G01X3175000Y6376797D03*
G54D37*
G01X3392602Y6598996D03*
G01X3542589Y6598996D03*
G01X3692601Y6598996D03*
G01X3842588Y6598996D03*
G01X3992601Y6598996D03*
G01X4142588Y6598996D03*
G01X4292600Y6598996D03*
G01X4442612Y6598996D03*
G01X4592599Y6598996D03*
G01X4742612Y6598996D03*
G01X4892599Y6598996D03*
G01X5042611Y6598996D03*
G01X5192598Y6598996D03*
G01X3392602Y7879004D03*
G01X3542589Y7879004D03*
G01X3692601Y7879004D03*
G01X3842588Y7879004D03*
G01X3992601Y7879004D03*
G01X4142588Y7879004D03*
G01X4292600Y7879004D03*
G01X4442612Y7879004D03*
G01X4592599Y7879004D03*
G01X4742612Y7879004D03*
G01X4892599Y7879004D03*
G01X5042611Y7879004D03*
G01X5192598Y7879004D03*
G54D25*
G01X12544171Y4876800D03*
G01X12754229Y4876800D03*
G54D14*
G01X12749200Y4622800D03*
G01X12549200Y4622800D03*
G01X12749200Y5461000D03*
G01X12549200Y5461000D03*
G54D24*
G01X12025503Y2032000D03*
G01X12231497Y2032000D03*
G54D38*
G01X12037327Y5220907D03*
G01X11987289Y5220907D03*
G01X11937251Y5220907D03*
G01X11887213Y5220907D03*
G01X11837175Y5220907D03*
G01X11787137Y5220907D03*
G01X11737099Y5220907D03*
G54D39*
G01X11644694Y5128527D03*
G01X11644694Y5078489D03*
G01X11644694Y5028451D03*
G01X11644694Y4978413D03*
G01X11644694Y4928375D03*
G01X11644694Y4878337D03*
G01X11644694Y4828299D03*
G54D38*
G01X11737099Y4735894D03*
G01X11787137Y4735894D03*
G01X11837175Y4735894D03*
G01X11887213Y4735894D03*
G01X11937251Y4735894D03*
G01X11987289Y4735894D03*
G01X12037327Y4735894D03*
G54D39*
G01X12129707Y4828299D03*
G01X12129707Y4878337D03*
G01X12129707Y4928375D03*
G01X12129707Y4978413D03*
G01X12129707Y5028451D03*
G01X12129707Y5078489D03*
G01X12129707Y5128527D03*
G54D40*
G01X11887213Y4978413D03*
G54D41*
G01X11684000Y5518810D03*
G01X11684000Y5758790D03*
G54D25*
G01X12544171Y5181600D03*
G01X12754229Y5181600D03*
G54D42*
G01X12869202Y2950401D03*
G01X12869202Y3200387D03*
G01X12869202Y3450400D03*
G01X12429198Y2950401D03*
G01X12429198Y3200387D03*
G01X12429198Y3450400D03*
G54D43*
G01X11887200Y5538800D03*
G01X11887200Y5738800D03*
G54D44*
G01X9931400Y489458D03*
G01X9931400Y170942D03*
G01X10185400Y489458D03*
G01X10185400Y170942D03*
G01X10439400Y489458D03*
G01X10439400Y170942D03*
G54D45*
G01X11684660Y3200400D03*
G01X11988140Y3200400D03*
G01X11684660Y3911600D03*
G01X11988140Y3911600D03*
G01X11684660Y3556000D03*
G01X11988140Y3556000D03*
G54D24*
G01X11685600Y2870200D03*
G01X11885600Y2870200D03*
G54D14*
G01X10923600Y2057400D03*
G01X11123600Y2057400D03*
G54D46*
G01X11407600Y2291080D03*
G01X11457600Y2291080D03*
G01X11507600Y2291080D03*
G01X11557599Y2291080D03*
G01X11607597Y2291080D03*
G54D47*
G01X11800898Y2388799D03*
G01X11800898Y2538799D03*
G54D46*
G01X11757599Y2636520D03*
G01X11707599Y2636520D03*
G01X11657599Y2636520D03*
G01X11607597Y2636520D03*
G01X11557599Y2636520D03*
G54D47*
G01X11363902Y2538799D03*
G01X11363902Y2388799D03*
G54D46*
G01X11657597Y2291080D03*
G01X11507600Y2636520D03*
G01X11707597Y2291080D03*
G01X11757597Y2291080D03*
G01X11457600Y2636520D03*
G01X11407600Y2636520D03*
G36*
G01X11735001Y2357399D02*
G01X11430198Y2357199D01*
G01X11426662Y2358664D01*
G01X11425197Y2362200D01*
G01X11425197Y2402098D01*
G01X11420399Y2402098D01*
G01X11416853Y2403572D01*
G01X11415398Y2407125D01*
G01X11415471Y2421400D01*
G01X11334298Y2421400D01*
G01X11330761Y2422865D01*
G01X11329297Y2426401D01*
G01X11329398Y2449522D01*
G01X11330871Y2453044D01*
G01X11334399Y2454501D01*
G01X11415581Y2454408D01*
G01X11415515Y2473116D01*
G01X11333882Y2473399D01*
G01X11330357Y2474870D01*
G01X11328898Y2478400D01*
G01X11328898Y2501400D01*
G01X11330354Y2504928D01*
G01X11333876Y2506401D01*
G01X11415377Y2506779D01*
G01X11415599Y2520381D01*
G01X11417074Y2523847D01*
G01X11420548Y2525301D01*
G01X11425208Y2525349D01*
G01X11425296Y2565411D01*
G01X11426765Y2568940D01*
G01X11430297Y2570401D01*
G01X11734998Y2570401D01*
G01X11738546Y2568924D01*
G01X11739999Y2565366D01*
G01X11739733Y2525900D01*
G01X11744498Y2525900D01*
G01X11748006Y2524463D01*
G01X11749498Y2520978D01*
G01X11749720Y2506901D01*
G01X11830898Y2506901D01*
G01X11834435Y2505436D01*
G01X11835900Y2501900D01*
G01X11835900Y2478499D01*
G01X11834435Y2474963D01*
G01X11830898Y2473498D01*
G01X11749552Y2473498D01*
G01X11749746Y2455101D01*
G01X11830898Y2455101D01*
G01X11834435Y2453636D01*
G01X11835900Y2450099D01*
G01X11835900Y2426701D01*
G01X11834435Y2423164D01*
G01X11830898Y2421700D01*
G01X11749578Y2421700D01*
G01X11749798Y2407778D01*
G01X11748362Y2404191D01*
G01X11744797Y2402698D01*
G01X11739999Y2402698D01*
G01X11739999Y2362401D01*
G01X11738536Y2358865D01*
G01X11735001Y2357399D01*
G37*
G54D48*
G01X11475720Y2463800D03*
G01X11673840Y2463800D03*
G01X11542179Y2403218D03*
G01X11542179Y2464178D03*
G01X11542179Y2525138D03*
G01X11607361Y2403218D03*
G01X11607361Y2464178D03*
G01X11607361Y2525138D03*
G54D49*
G01X11677142Y7721600D03*
G01X11995658Y7721600D03*
G01X11677142Y7467600D03*
G01X11995658Y7467600D03*
G01X11677142Y7213600D03*
G01X11995658Y7213600D03*
G54D45*
G01X11048340Y6527800D03*
G01X10744860Y6527800D03*
G01X11048340Y6197600D03*
G01X10744860Y6197600D03*
G01X11048340Y5854700D03*
G01X10744860Y5854700D03*
G54D24*
G01X10920400Y7035800D03*
G01X10720400Y7035800D03*
G54D46*
G01X11173000Y7589520D03*
G01X11123000Y7589520D03*
G01X11073000Y7589520D03*
G01X11023001Y7589520D03*
G01X10973003Y7589520D03*
G54D47*
G01X10779702Y7491801D03*
G01X10779702Y7341801D03*
G54D46*
G01X10823001Y7244080D03*
G01X10873001Y7244080D03*
G01X10923001Y7244080D03*
G01X10973003Y7244080D03*
G01X11023001Y7244080D03*
G54D47*
G01X11216698Y7341801D03*
G01X11216698Y7491801D03*
G54D46*
G01X10923003Y7589520D03*
G01X11073000Y7244080D03*
G01X10873003Y7589520D03*
G01X10823004Y7589520D03*
G01X11123000Y7244080D03*
G01X11173000Y7244080D03*
G36*
G01X11150303Y7310199D02*
G01X10845602Y7310199D01*
G01X10842054Y7311676D01*
G01X10840601Y7315234D01*
G01X10840867Y7354700D01*
G01X10836102Y7354700D01*
G01X10832594Y7356137D01*
G01X10831102Y7359622D01*
G01X10830880Y7373699D01*
G01X10749702Y7373699D01*
G01X10746165Y7375164D01*
G01X10744700Y7378700D01*
G01X10744700Y7402101D01*
G01X10746165Y7405637D01*
G01X10749702Y7407102D01*
G01X10831048Y7407102D01*
G01X10830854Y7425500D01*
G01X10749702Y7425500D01*
G01X10746165Y7426964D01*
G01X10744700Y7430501D01*
G01X10744700Y7453899D01*
G01X10746165Y7457436D01*
G01X10749702Y7458901D01*
G01X10831022Y7458901D01*
G01X10830802Y7472822D01*
G01X10832238Y7476409D01*
G01X10835803Y7477902D01*
G01X10840601Y7477902D01*
G01X10840601Y7518199D01*
G01X10842064Y7521735D01*
G01X10845599Y7523201D01*
G01X11150402Y7523401D01*
G01X11153938Y7521936D01*
G01X11155403Y7518400D01*
G01X11155403Y7478502D01*
G01X11160201Y7478502D01*
G01X11163747Y7477028D01*
G01X11165202Y7473475D01*
G01X11165129Y7459200D01*
G01X11246302Y7459200D01*
G01X11249839Y7457735D01*
G01X11251303Y7454199D01*
G01X11251202Y7431078D01*
G01X11249729Y7427556D01*
G01X11246201Y7426099D01*
G01X11165019Y7426192D01*
G01X11165085Y7407484D01*
G01X11246718Y7407201D01*
G01X11250243Y7405730D01*
G01X11251702Y7402200D01*
G01X11251702Y7379200D01*
G01X11250246Y7375672D01*
G01X11246724Y7374199D01*
G01X11165223Y7373821D01*
G01X11165001Y7360219D01*
G01X11163526Y7356753D01*
G01X11160052Y7355299D01*
G01X11155392Y7355251D01*
G01X11155304Y7315189D01*
G01X11153835Y7311660D01*
G01X11150303Y7310199D01*
G37*
G54D50*
G01X12335675Y6669989D03*
G01X12335675Y6590005D03*
G54D51*
G01X12335675Y6525006D03*
G01X12335599Y6474968D03*
G01X12335675Y6425006D03*
G01X12335675Y6374994D03*
G01X12335675Y6325006D03*
G01X12335675Y6274994D03*
G01X12335675Y6225007D03*
G01X12335599Y6174994D03*
G54D50*
G01X12335675Y6109995D03*
G01X12335675Y6030011D03*
G54D52*
G01X12392419Y5917997D03*
G01X12392393Y6782003D03*
G54D53*
G01X12810401Y6782003D03*
G01X12810401Y5917997D03*
G54D41*
G01X6223000Y4463390D03*
G01X6223000Y4223410D03*
G01X1701800Y4945990D03*
G01X1701800Y4706010D03*
G54D31*
G01X4752233Y6286818D03*
G01X4752233Y6080824D03*
G54D54*
G01X495300Y1295400D03*
G54D55*
G01X749300Y1295400D03*
G54D54*
G01X762000Y7759700D03*
G54D55*
G01X508000Y7759700D03*
G54D54*
G01X254000Y7759700D03*
G54D55*
G01X0Y7759700D03*
G54D54*
G01X-8989Y1295400D03*
G54D55*
G01X245011Y1295400D03*
G54D56*
G01X10855312Y8432800D03*
G01X11725288Y8432800D03*
G54D57*
G01X11379200Y1616088D03*
G01X11379200Y746112D03*
G54D58*
G01X11061700Y2787498D03*
G01X11061700Y2927502D03*
G01X11607800Y6737198D03*
G01X11607800Y6877202D03*
G54D59*
G01X11441836Y6858000D03*
G01X11291164Y6858000D03*
G01X11227664Y2921000D03*
G01X11378336Y2921000D03*
G01X11227664Y2768600D03*
G01X11378336Y2768600D03*
G01X11441836Y7010400D03*
G01X11291164Y7010400D03*
G54D60*
G01X11436502Y6731000D03*
G01X11296498Y6731000D03*
G01X11232998Y3073400D03*
G01X11373002Y3073400D03*
G54D61*
G01X11455400Y3442564D03*
G01X11455400Y3593236D03*
G54D59*
G01X11227664Y3238500D03*
G01X11378336Y3238500D03*
G54D61*
G01X11303000Y6438036D03*
G01X11303000Y6287364D03*
G54D59*
G01X11441836Y6565900D03*
G01X11291164Y6565900D03*
G01X11746636Y6565900D03*
G01X11595964Y6565900D03*
G54D24*
G01X10755503Y7785100D03*
G01X10961497Y7785100D03*
G54D59*
G01X11126064Y7810500D03*
G01X11276736Y7810500D03*
G54D24*
G01X11151997Y2286000D03*
G01X10946003Y2286000D03*
G01X12294997Y2362200D03*
G01X12089003Y2362200D03*
G54D61*
G01X11366500Y2043836D03*
G01X11366500Y1893164D03*
G54D62*
G01X10782013Y4572013D03*
G01X11315997Y4572013D03*
G54D63*
G01X8026413Y4305587D03*
G01X8026413Y3771603D03*
G54D64*
G01X7912100Y4828794D03*
G01X7912100Y5178806D03*
G54D31*
G01X12446000Y3808603D03*
G01X12446000Y4014597D03*
G54D65*
G01X12026900Y6384011D03*
G01X12026900Y6823989D03*
G54D66*
G01X4216400Y1488859D03*
G01X4216400Y1254341D03*
G01X4495800Y1254341D03*
G01X4495800Y1488859D03*
G54D15*
G01X3962400Y1779600D03*
G01X3962400Y1979600D03*
G01X12293600Y5297500D03*
G01X12293600Y5497500D03*
G54D67*
G01X11969496Y6183300D03*
G01X11779504Y6183300D03*
G01X11874500Y5983300D03*
G54D68*
G01X7315200Y5486400D03*
G01X7061200Y5486400D03*
G01X6807200Y5486400D03*
G01X6553200Y5486400D03*
G01X6578600Y3556000D03*
G01X6832600Y3556000D03*
G01X7086600Y3556000D03*
G01X7340600Y3556000D03*
G54D69*
G01X1422400Y4927599D03*
G54D70*
G01X1422400Y4673600D03*
G01X1422400Y4419600D03*
G01X1422400Y4165601D03*
G54D71*
G01X3960595Y713005D03*
G01X4140200Y533400D03*
G01X4319805Y353795D03*
G01X3960595Y8303995D03*
G01X4140200Y8483600D03*
G01X4319805Y8663205D03*
G54D31*
G01X12319000Y1728597D03*
G01X12319000Y1522603D03*
G01X3149600Y303403D03*
G01X3149600Y509397D03*
G54D72*
G01X-1651000Y4651629D03*
G01X-1651000Y4441571D03*
G01X4978400Y511429D03*
G01X4978400Y301371D03*
G54D73*
G01X3176600Y1237996D03*
G01X3176600Y1048004D03*
G01X3376600Y1143000D03*
G54D14*
G01X3376600Y1473200D03*
G01X3176600Y1473200D03*
G54D15*
G01X3657600Y1297000D03*
G01X3657600Y1497000D03*
G54D14*
G01X3605200Y8178800D03*
G01X3405200Y8178800D03*
G54D23*
G01X2875689Y4287111D03*
G01X3017111Y4145689D03*
G54D15*
G01X3403600Y506400D03*
G01X3403600Y306400D03*
G54D24*
G01X5919597Y4191000D03*
G01X5713603Y4191000D03*
G54D74*
G01X3530600Y5315852D03*
G01X3530600Y5047348D03*
G54D75*
G01X-558800Y5156200D03*
G54D76*
G01X-558800Y4902200D03*
G01X-558800Y4648200D03*
G01X-558800Y4394200D03*
G01X-558800Y4140200D03*
G01X-558800Y3886200D03*
G01X-558800Y3632200D03*
G01X-558800Y3378200D03*
G01X-558800Y3124200D03*
G54D77*
G01X1395400Y6070600D03*
G01X1195400Y6070600D03*
G54D14*
G01X1598600Y5207000D03*
G01X1398600Y5207000D03*
G01X1830400Y5207000D03*
G01X2030400Y5207000D03*
G54D78*
G01X2184400Y7050405D03*
G01X2184400Y5700395D03*
G54D79*
G01X2159000Y7592601D03*
G01X2409000Y7342602D03*
G01X1909001Y7342602D03*
G54D80*
G01X1695196Y5508790D03*
G01X1505204Y5508790D03*
G01X1505204Y5768810D03*
G01X1600200Y5768810D03*
G01X1695196Y5768810D03*
G54D77*
G01X5738800Y381000D03*
G01X5538800Y381000D03*
G54D14*
G01X5738800Y609600D03*
G01X5538800Y609600D03*
G54D15*
G01X4572000Y836600D03*
G01X4572000Y636600D03*
G01X5969000Y331800D03*
G01X5969000Y531800D03*
G54D80*
G01X4858004Y1069810D03*
G01X5047996Y1069810D03*
G01X5047996Y809790D03*
G01X4953000Y809790D03*
G01X4858004Y809790D03*
G54D81*
G01X4953000Y1714398D03*
G54D82*
G01X5053000Y1384402D03*
G01X4853000Y1384402D03*
G54D15*
G01X4826000Y8609000D03*
G01X4826000Y8409000D03*
G54D14*
G01X5281600Y8915400D03*
G01X5081600Y8915400D03*
G54D83*
G01X5584990Y8414004D03*
G01X5584990Y8603996D03*
G01X5845010Y8603996D03*
G01X5845010Y8509000D03*
G01X5845010Y8414004D03*
G54D81*
G01X5232400Y8318602D03*
G54D82*
G01X5132400Y8648598D03*
G01X5332400Y8648598D03*
G54D84*
G01X5570651Y8924604D03*
G01X5952450Y8923005D03*
G01X5985800Y168500D03*
G01X5604000Y170100D03*
G04 Pad End*

M02*

