G04 Layer: DrillDrawingLayer*
G04 EasyEDA Pro v2.2.40.8, 2025-09-21 19:38:57*
G04 Gerber Generator version 0.3*
G04 Scale: 100 percent, Rotated: No, Reflected: No*
G04 Dimensions in millimeters*
G04 Leading zeros omitted, absolute positions, 4 integers and 5 decimals*
G04 Generated by one-click*
%FSLAX45Y45*%
%MOMM*%
%AMIconRect*4,1,4,0.2,-0.2,-0.2,-0.2,-0.2,0.2,0.2,0.2,0.2,-0.2,0*4,0,4,0.166667,-0.166667,0.166667,0.166667,-0.166667,0.166667,-0.166667,-0.166667,0.166667,-0.166667,0*%
%AMIconTriangle*4,1,3,-0.242567,0.171767,0.242567,0.171767,0,-0.2706,-0.242567,0.171767,0*4,0,3,-0.189767,0.1386,0,-0.1953,0.190167,0.1386,-0.189767,0.1386,0*%
%AMIconStar6*4,1,12,0.0862,0.1492,0.213233,0.123367,0.172367,0,0.213233,-0.1229,0.0862,-0.148733,0,-0.245767,-0.085767,-0.148733,-0.213267,-0.1229,-0.171933,0,-0.213267,0.1229,-0.085767,0.1492,0,0.245767,0.0862,0.1492,0*4,0,12,-0.000333,0.195333,-0.064333,0.122667,-0.169667,0.097667,-0.138333,-0.005333,-0.169667,-0.098,-0.064333,-0.122667,-0.000333,-0.195667,0.064333,-0.122667,0.169667,-0.098,0.138667,0.005,0.169667,0.098,0.064333,0.122333,-0.000333,0.195333,0*%
%AMIconStar4*4,1,8,-0.222667,0.222667,0,0.144667,0.222667,0.222667,0.144667,0,0.222667,-0.222667,0,-0.144667,-0.217433,-0.222667,-0.144667,0,-0.222667,0.222667,0*4,0,8,0.166667,-0.166667,0.108,0,0.166667,0.166667,0,0.108,-0.166667,0.166667,-0.108,0,-0.166667,-0.166667,0,-0.108,0.166667,-0.166667,0*%
%AMIconPlus*4,1,12,0.124,-0.2,-0.124,-0.2,-0.124,-0.124,-0.2,-0.124,-0.2,0.124,-0.124,0.124,-0.124,0.2,0.124,0.2,0.124,0.124,0.2,0.124,0.2,-0.124,0.124,-0.124,0.124,-0.2,0*4,0,12,0.090667,-0.166667,0.090667,-0.090667,0.166667,-0.090667,0.166667,0.090667,0.090667,0.090667,0.090667,0.166667,-0.090667,0.166667,-0.090667,0.090667,-0.166667,0.090667,-0.166667,-0.090667,-0.090667,-0.090667,-0.090667,-0.166667,0.090667,-0.166667,0*%
%AMIconX*4,1,16,0.2,-0.2,0.054533,-0.2,0,-0.145467,-0.054533,-0.2,-0.2,-0.2,-0.2,-0.054533,-0.145467,0,-0.2,0.054533,-0.2,0.2,-0.054533,0.2,0,0.145467,0.054533,0.2,0.2,0.2,0.2,0.054533,0.145467,0,0.2,-0.054533,0.2,-0.2,0*4,0,16,0.1668,-0.1664,0.1668,-0.068467,0.097933,0.000067,0.1668,0.068467,0.1668,0.1665,0.068467,0.1665,0,0.097933,-0.068467,0.1665,-0.1668,0.1665,-0.1668,0.068467,-0.097933,0.000067,-0.1668,-0.068467,-0.1668,-0.1664,-0.068467,-0.1664,0,-0.097933,0.068467,-0.1664,0.1668,-0.1664,0*%
%AMIconDiamond*4,1,4,0,-0.26,-0.26,0,0,0.26,0.26,0,0,-0.26,0*4,0,4,0,-0.203433,0.203433,0,0,0.2036,-0.203433,0,0,-0.203433,0*%
%AMIconRect2*4,1,6,0.2,-0.2,-0.2,-0.2,-0.2,0.2,-0.1668,0.1665,-0.166667,-0.166667,0.1668,-0.166667,0.2,-0.2,0*4,1,6,0.2,-0.2,0.1668,-0.166667,0.1668,0.1665,-0.1668,0.1665,-0.2,0.2,0.2,0.2,0.2,-0.2,0*4,1,6,0.133467,-0.133333,-0.133333,-0.133333,-0.133333,0.133467,-0.1,0.100133,-0.1,-0.1,0.100133,-0.1,0.133467,-0.133333,0*4,1,6,0.133467,-0.133333,0.100133,-0.1,0.100133,0.100133,-0.1,0.100133,-0.133333,0.133467,0.133467,0.133467,0.133467,-0.133333,0*%
%AMCharA*4,1,8,-0.122067,-0.1864,-0.1532,-0.174533,-0.015133,0.1864,0.016,0.1864,0.1532,-0.174533,0.122067,-0.1864,0.0764,-0.0662,-0.076133,-0.0662,-0.122067,-0.1864,0*4,0,3,-0.063333,-0.032867,0.063667,-0.032867,0.000333,0.1338,-0.063333,-0.032867,0*%
%AMCharB*4,1,17,-0.131133,-0.1894,-0.131133,0.1894,0.033533,0.1894,0.088067,0.172467,0.1114,0.151733,0.131133,0.114133,0.131,0.066467,0.114333,0.0338,0.094733,0.0128,0.086467,0.0084,0.094733,0.003867,0.114333,-0.017133,0.131,-0.0498,0.131133,-0.114133,0.1114,-0.151733,0.088067,-0.1726,0.033533,-0.1894,-0.131133,-0.1894,0*4,0,10,-0.0978,-0.156067,0.030867,-0.156067,0.073867,-0.142,0.085867,-0.130133,0.099533,-0.1028,0.099533,-0.0614,0.085867,-0.034533,0.073867,-0.0226,0.030867,-0.008667,-0.0978,-0.008667,-0.0978,-0.156067,0*4,0,10,-0.0978,0.024667,0.0308,0.024667,0.073867,0.039267,0.085867,0.051267,0.099533,0.078067,0.099533,0.102667,0.085867,0.130133,0.073867,0.142,0.030867,0.156067,-0.0978,0.156067,-0.0978,0.024667,0*%
%AMCharC*4,1,36,-0.027533,-0.1894,-0.071933,-0.1684,-0.1084,-0.130667,-0.125333,-0.096,-0.1428,-0.041333,-0.1428,0.041333,-0.1244,0.098,-0.105267,0.135067,-0.067533,0.171667,-0.027533,0.1894,0.038533,0.1894,0.083067,0.1684,0.119467,0.130667,0.1428,0.083,0.112867,0.0684,0.090867,0.113467,0.0614,0.142933,0.034733,0.156067,-0.0236,0.156067,-0.050333,0.142933,-0.079733,0.113467,-0.094067,0.084333,-0.109467,0.0386,-0.109467,-0.0386,-0.094067,-0.084333,-0.079733,-0.113467,-0.050333,-0.142867,-0.0236,-0.156067,0.034733,-0.156067,0.0614,-0.142867,0.090867,-0.113467,0.112867,-0.0684,0.1428,-0.083,0.119467,-0.130667,0.083067,-0.1684,0.038533,-0.1894,-0.027533,-0.1894,0*%
%AMCharD*4,1,12,-0.132,-0.1894,-0.132,0.1894,-0.000067,0.1894,0.054533,0.172467,0.0968,0.130933,0.1144,0.096067,0.132,0.041333,0.132,-0.041333,0.113467,-0.098267,0.093933,-0.134933,0.054533,-0.1726,-0.000067,-0.1894,-0.132,-0.1894,0*4,0,12,-0.098667,-0.156067,-0.002667,-0.156067,0.040333,-0.142133,0.068333,-0.113467,0.083267,-0.0842,0.098667,-0.0386,0.098667,0.0386,0.083267,0.0842,0.068333,0.113467,0.040333,0.142133,-0.002667,0.156067,-0.098667,0.156067,-0.098667,-0.156067,0*%
%AMCharE*4,1,12,-0.123667,-0.1894,-0.123667,0.1894,0.123667,0.1894,0.123667,0.156067,-0.090333,0.156067,-0.090333,0.024667,0.0416,0.024667,0.0416,-0.008667,-0.090333,-0.008667,-0.090333,-0.156067,0.123667,-0.156067,0.123667,-0.1894,-0.123667,-0.1894,0*%
%AMCharF*4,1,11,-0.123667,-0.1894,-0.123667,0.1894,-0.090333,0.1894,0.123667,0.1894,0.123667,0.156067,-0.090333,0.156067,-0.090333,0.024667,0.0416,0.024667,0.0416,-0.008667,-0.090333,-0.008667,-0.090333,-0.1894,-0.123667,-0.1894,0*%
%AMCharG*4,1,40,-0.027933,-0.1894,-0.072333,-0.1684,-0.1088,-0.130667,-0.125733,-0.096,-0.1424,-0.046667,-0.1424,0.046667,-0.1248,0.098,-0.105667,0.135067,-0.067933,0.171667,-0.027933,0.1894,0.038133,0.1894,0.082667,0.1684,0.119067,0.130667,0.1424,0.083,0.112467,0.0684,0.090467,0.113467,0.061,0.142933,0.034333,0.156067,-0.024,0.156067,-0.050733,0.142933,-0.080133,0.113467,-0.094467,0.084333,-0.1098,0.0386,-0.1098,-0.0386,-0.094467,-0.084333,-0.080133,-0.113467,-0.050733,-0.142867,-0.024,-0.156067,0.034333,-0.156067,0.061,-0.142867,0.090467,-0.113467,0.103467,-0.0868,0.103467,-0.058,0.021467,-0.058,0.021467,-0.024667,0.1368,-0.024667,0.1368,-0.090667,0.116,-0.135067,0.078067,-0.171667,0.038133,-0.1894,-0.027933,-0.1894,0*%
%AMCharH*4,1,12,-0.132,-0.1894,-0.132,0.1894,-0.098667,0.1894,-0.098667,0.024667,0.098667,0.024667,0.098667,0.1894,0.132,0.1894,0.132,-0.1894,0.098667,-0.1894,0.098667,-0.008667,-0.098667,-0.008667,-0.098667,-0.1894,-0.132,-0.1894,0*%
%ADD10IconRect*%
%ADD11C,0.44X0.373333*%
%ADD12IconTriangle*%
%ADD13IconStar6*%
%ADD14IconStar4*%
%ADD15IconPlus*%
%ADD16IconX*%
%ADD17IconDiamond*%
%ADD18IconRect2*%
%ADD19CharA*%
%ADD20CharB*%
%ADD21CharC*%
%ADD22CharD*%
%ADD23CharE*%
%ADD24CharF*%
%ADD25CharG*%
%ADD26CharH*%
G75*


G04 Drill Drawing Start*
G54D10*
G01X9525000Y947014D03*
G01X9525000Y8196997D03*
G54D11*
G01X12392397Y6781998D03*
G01X12392415Y5918002D03*
G54D12*
G01X12810406Y5918002D03*
G01X12810406Y6781998D03*
G54D13*
G01X377299Y8512233D03*
G01X378460Y538480D03*
G54D14*
G01X12442406Y6060999D03*
G01X12442406Y6639001D03*
G54D15*
G01X-228600Y546100D03*
G01X-215900Y8509000D03*
G01X965200Y546100D03*
G01X977900Y8509000D03*
G54D16*
G01X2540000Y3708500D03*
G01X2540000Y5308500D03*
G01X10922000Y3708500D03*
G01X10922000Y5308500D03*
G54D17*
G01X5664200Y3378201D03*
G01X5664200Y3632200D03*
G01X5664200Y3886199D03*
G01X5918200Y3378201D03*
G01X5918200Y3632200D03*
G01X5918200Y3886199D03*
G54D18*
G01X11475720Y2463800D03*
G01X11542179Y2403218D03*
G01X11542179Y2464178D03*
G01X11542179Y2525138D03*
G01X11607361Y2403218D03*
G01X11607361Y2464178D03*
G01X11607361Y2525138D03*
G01X11673840Y2463800D03*
G54D19*
G01X-8989Y1295400D03*
G01X0Y7759700D03*
G01X245011Y1295400D03*
G01X254000Y7759700D03*
G01X495300Y1295400D03*
G01X508000Y7759700D03*
G01X749300Y1295400D03*
G01X762000Y7759700D03*
G54D20*
G01X5697600Y1408000D03*
G01X5697600Y2308000D03*
G01X5697600Y6734400D03*
G01X5697600Y7634400D03*
G01X8196200Y1408000D03*
G01X8196200Y2308000D03*
G01X8196200Y6734400D03*
G01X8196200Y7634400D03*
G54D21*
G01X431800Y5156200D03*
G01X431800Y4140200D03*
G01X431800Y4394200D03*
G01X431800Y4648200D03*
G01X431800Y4902200D03*
G01X431800Y3124200D03*
G01X431800Y3378200D03*
G01X431800Y3632200D03*
G01X431800Y3886200D03*
G54D22*
G01X-563880Y2453640D03*
G01X-558800Y6502400D03*
G01X426720Y2453640D03*
G01X431800Y6502400D03*
G01X1463040Y2346960D03*
G01X1463040Y6609080D03*
G01X8178800Y370840D03*
G01X8178800Y8661400D03*
G01X12473376Y793572D03*
G01X12473376Y8293583D03*
G54D23*
G01X2184400Y5700400D03*
G01X2184400Y7050400D03*
G01X6553200Y5486400D03*
G01X6578600Y3556000D03*
G01X6807200Y5486400D03*
G01X6832600Y3556000D03*
G01X7061200Y5486400D03*
G01X7086600Y3556000D03*
G01X7315200Y5486400D03*
G01X7340600Y3556000D03*
G54D24*
G01X1422400Y4165601D03*
G01X1422400Y4419600D03*
G01X1422400Y4673600D03*
G01X1422400Y4927599D03*
G01X1909001Y7342602D03*
G01X2159000Y7592601D03*
G01X2409000Y7342602D03*
G01X2499360Y1885681D03*
G01X2499360Y2645679D03*
G01X7912100Y4828794D03*
G01X7912100Y5178806D03*
G54D25*
G01X-558800Y4902200D03*
G01X-558800Y5156200D03*
G01X-558800Y3632200D03*
G01X-558800Y3886200D03*
G01X-558800Y4140200D03*
G01X-558800Y4394200D03*
G01X-558800Y4648200D03*
G01X-558800Y3124200D03*
G01X-558800Y3378200D03*
G01X3960595Y713005D03*
G01X3960595Y8303995D03*
G01X4140200Y533400D03*
G01X4140200Y8483600D03*
G01X4319805Y353795D03*
G01X4319805Y8663205D03*
G54D26*
G01X-1768615Y5352137D03*
G01X-1768615Y8167180D03*
G01X-1756079Y2525904D03*
G01X-1473200Y4376532D03*
G01X-1295400Y1244600D03*
G01X-1219200Y4038600D03*
G01X-1219200Y6426200D03*
G01X-1219200Y7975600D03*
G01X-1165837Y4688205D03*
G01X-1089957Y4818990D03*
G01X-812800Y5740400D03*
G01X-759460Y2456427D03*
G01X-754380Y6505187D03*
G01X-713740Y2311647D03*
G01X-713740Y2593587D03*
G01X-708660Y6360407D03*
G01X-708660Y6642347D03*
G01X-579120Y2250687D03*
G01X-574040Y6299447D03*
G01X-563880Y2656593D03*
G01X-558800Y6705353D03*
G01X-414020Y2311647D03*
G01X-411480Y2591047D03*
G01X-408940Y6360407D03*
G01X-406400Y6639807D03*
G01X-368300Y2456427D03*
G01X-363220Y6505187D03*
G01X76200Y5765800D03*
G01X177800Y5283200D03*
G01X203200Y3149600D03*
G01X203200Y3378200D03*
G01X203200Y3636745D03*
G01X203200Y3886200D03*
G01X203200Y4140200D03*
G01X203200Y4394200D03*
G01X203200Y4648200D03*
G01X203200Y4902200D03*
G01X228600Y2209800D03*
G01X228600Y6502400D03*
G01X231140Y2456427D03*
G01X254000Y5638800D03*
G01X254000Y6781800D03*
G01X276860Y2311647D03*
G01X276860Y2593587D03*
G01X279400Y6350000D03*
G01X279400Y6629400D03*
G01X411480Y2250687D03*
G01X426720Y2656593D03*
G01X431800Y2006600D03*
G01X431800Y6296418D03*
G01X431800Y6705600D03*
G01X482600Y6985000D03*
G01X576580Y2311647D03*
G01X579120Y2591047D03*
G01X584200Y6350000D03*
G01X584200Y6629400D03*
G01X622300Y2456427D03*
G01X635000Y3632200D03*
G01X635000Y4140200D03*
G01X635000Y6502400D03*
G01X640080Y5709920D03*
G01X643768Y4648200D03*
G01X660400Y5156200D03*
G01X685800Y1879600D03*
G01X736600Y7112000D03*
G01X749300Y6413500D03*
G01X823479Y5894821D03*
G01X889000Y4089400D03*
G01X927100Y6946900D03*
G01X939800Y2804160D03*
G01X965200Y3619500D03*
G01X965200Y4394200D03*
G01X989155Y3048000D03*
G01X1016000Y6286500D03*
G01X1016000Y6705600D03*
G01X1016000Y7162800D03*
G01X1041400Y1828800D03*
G01X1193800Y4572000D03*
G01X1193800Y5918200D03*
G01X1219200Y4292600D03*
G01X1267460Y2349747D03*
G01X1267460Y6611867D03*
G01X1295400Y7264400D03*
G01X1313180Y2217667D03*
G01X1313180Y2486907D03*
G01X1313180Y6467087D03*
G01X1320800Y3048000D03*
G01X1325880Y6761727D03*
G01X1442720Y2804160D03*
G01X1447800Y2144007D03*
G01X1447800Y6406127D03*
G01X1463040Y2549913D03*
G01X1463040Y6812033D03*
G01X1536700Y1638300D03*
G01X1600200Y7213600D03*
G01X1612900Y2217667D03*
G01X1612900Y6467087D03*
G01X1615440Y2484367D03*
G01X1615440Y6733787D03*
G01X1650285Y4013201D03*
G01X1658620Y2349747D03*
G01X1658620Y6611867D03*
G01X1676400Y3048000D03*
G01X1676400Y4546600D03*
G01X1727200Y6096000D03*
G01X1752600Y7620000D03*
G01X1803400Y3784600D03*
G01X1854200Y5918200D03*
G01X1879600Y1295400D03*
G01X1905000Y6527800D03*
G01X1905000Y6858000D03*
G01X1924096Y5019051D03*
G01X1955800Y2844800D03*
G01X1981200Y6299200D03*
G01X2032000Y1016000D03*
G01X2032000Y1536700D03*
G01X2032000Y2019300D03*
G01X2032000Y7975600D03*
G01X2057400Y4000500D03*
G01X2103600Y6855399D03*
G01X2108200Y4267200D03*
G01X2120900Y3543300D03*
G01X2159000Y660400D03*
G01X2184400Y4610100D03*
G01X2235200Y1828800D03*
G01X2235200Y7239000D03*
G01X2260600Y965200D03*
G01X2305050Y460387D03*
G01X2336800Y3276600D03*
G01X2362200Y7061200D03*
G01X2387600Y4521200D03*
G01X2387600Y4749800D03*
G01X2387600Y8585200D03*
G01X2463800Y5740400D03*
G01X2479040Y4264660D03*
G01X2489200Y279400D03*
G01X2514600Y7620000D03*
G01X2540000Y4775200D03*
G01X2641600Y5029200D03*
G01X2667000Y508000D03*
G01X2707640Y4414520D03*
G01X2768600Y152400D03*
G01X2768600Y5969000D03*
G01X2806700Y8940800D03*
G01X2832100Y3276600D03*
G01X2884996Y5746763D03*
G01X2895600Y4775200D03*
G01X2933700Y3543300D03*
G01X2946400Y5308600D03*
G01X2971800Y8637397D03*
G01X2997200Y609600D03*
G01X3022600Y4800600D03*
G01X3022600Y4953000D03*
G01X3048000Y101600D03*
G01X3048000Y8737600D03*
G01X3111500Y3276600D03*
G01X3149600Y4038600D03*
G01X3149600Y5359400D03*
G01X3175000Y1600200D03*
G01X3235960Y3240615D03*
G01X3239995Y3732755D03*
G01X3251200Y8940800D03*
G01X3282625Y3084079D03*
G01X3292109Y2896230D03*
G01X3302000Y101600D03*
G01X3302000Y4241800D03*
G01X3322320Y5455920D03*
G01X3327400Y2413000D03*
G01X3327400Y6375400D03*
G01X3337560Y6012180D03*
G01X3351815Y3865880D03*
G01X3352800Y4813300D03*
G01X3378200Y6908800D03*
G01X3378200Y7594600D03*
G01X3454400Y5537200D03*
G01X3456620Y3708400D03*
G01X3492180Y4648200D03*
G01X3492180Y4747580D03*
G01X3505200Y4241800D03*
G01X3517900Y5956300D03*
G01X3530600Y7289800D03*
G01X3539860Y685800D03*
G01X3556000Y381000D03*
G01X3556000Y6070600D03*
G01X3568700Y3276600D03*
G01X3587750Y4064000D03*
G01X3587750Y5429250D03*
G01X3591658Y4741045D03*
G01X3619500Y1790700D03*
G01X3632200Y8432800D03*
G01X3651250Y5810250D03*
G01X3657600Y1651000D03*
G01X3662083Y4961570D03*
G01X3670300Y2095500D03*
G01X3675380Y5715000D03*
G01X3683000Y787400D03*
G01X3683000Y3968750D03*
G01X3708400Y6070600D03*
G01X3733800Y5181600D03*
G01X3733800Y6375400D03*
G01X3733800Y8585200D03*
G01X3746500Y8940800D03*
G01X3750630Y4953000D03*
G01X3759200Y7289800D03*
G01X3781574Y8763000D03*
G01X3784600Y1092200D03*
G01X3810000Y4267200D03*
G01X3810000Y5518352D03*
G01X3811687Y6889171D03*
G01X3835006Y5756579D03*
G01X3901440Y4450080D03*
G01X3962400Y2019300D03*
G01X3975100Y7594600D03*
G01X3987800Y6350000D03*
G01X3992880Y2164080D03*
G01X4000500Y1600200D03*
G01X4001056Y4763056D03*
G01X4064000Y6883400D03*
G01X4084320Y4632960D03*
G01X4089400Y8737600D03*
G01X4092994Y2165115D03*
G01X4114800Y4013200D03*
G01X4134980Y5990992D03*
G01X4145280Y2682240D03*
G01X4152900Y3124200D03*
G01X4159250Y5270500D03*
G01X4191000Y787400D03*
G01X4191000Y6197600D03*
G01X4216400Y4343400D03*
G01X4222750Y3556000D03*
G01X4222750Y5334000D03*
G01X4229100Y1155700D03*
G01X4292600Y3200400D03*
G01X4311312Y5740840D03*
G01X4318000Y5054600D03*
G01X4343400Y5308600D03*
G01X4343400Y8940800D03*
G01X4356100Y558800D03*
G01X4358640Y2164080D03*
G01X4368800Y1460500D03*
G01X4368800Y3486150D03*
G01X4368800Y3886200D03*
G01X4368800Y4521200D03*
G01X4457700Y4673600D03*
G01X4470400Y8077200D03*
G01X4495800Y5384800D03*
G01X4495800Y8407400D03*
G01X4508500Y4857750D03*
G01X4511040Y2164080D03*
G01X4533900Y1168400D03*
G01X4540250Y4762500D03*
G01X4546600Y4343400D03*
G01X4546600Y6985000D03*
G01X4559347Y2711403D03*
G01X4572000Y836600D03*
G01X4576608Y3601081D03*
G01X4597400Y5232400D03*
G01X4597400Y5359400D03*
G01X4602480Y3200400D03*
G01X4622800Y203200D03*
G01X4648200Y2901950D03*
G01X4648200Y7594600D03*
G01X4673600Y5410200D03*
G01X4673600Y5689600D03*
G01X4673600Y8204200D03*
G01X4699000Y3746500D03*
G01X4724400Y6883400D03*
G01X4749800Y6286500D03*
G01X4798336Y5213394D03*
G01X4817430Y5469570D03*
G01X4817430Y8204200D03*
G01X4841240Y8940800D03*
G01X4851400Y3886200D03*
G01X4851400Y4445000D03*
G01X4864420Y5115289D03*
G01X4902200Y6934200D03*
G01X4902200Y7315200D03*
G01X4953000Y76200D03*
G01X4978400Y7683500D03*
G01X4978400Y8763000D03*
G01X5003800Y4305300D03*
G01X5003800Y8204200D03*
G01X5029200Y4052250D03*
G01X5080000Y6032500D03*
G01X5119521Y5120792D03*
G01X5132400Y8648598D03*
G01X5181600Y5207000D03*
G01X5181600Y5613400D03*
G01X5207000Y3556000D03*
G01X5207000Y3683000D03*
G01X5207000Y6807200D03*
G01X5207000Y7493000D03*
G01X5232400Y889000D03*
G01X5257800Y2413000D03*
G01X5290383Y584060D03*
G01X5302250Y4508500D03*
G01X5321300Y1054100D03*
G01X5334000Y3778250D03*
G01X5334000Y4165600D03*
G01X5359400Y5384800D03*
G01X5435600Y4292600D03*
G01X5435600Y4826000D03*
G01X5461000Y8661400D03*
G01X5486400Y7264400D03*
G01X5511800Y787400D03*
G01X5562600Y4686300D03*
G01X5600700Y1917700D03*
G01X5621020Y4574220D03*
G01X5626100Y5880100D03*
G01X5664200Y4368800D03*
G01X5699760Y5029200D03*
G01X5738800Y381000D03*
G01X5753100Y5397500D03*
G01X5765800Y3213100D03*
G01X5816600Y5257800D03*
G01X5829300Y8204200D03*
G01X5840400Y8712200D03*
G01X5880100Y5321300D03*
G01X5892800Y7886700D03*
G01X5917602Y2842363D03*
G01X5918200Y3048000D03*
G01X5918200Y4635820D03*
G01X5943600Y5194300D03*
G01X6001410Y4294756D03*
G01X6007100Y5537200D03*
G01X6028690Y1054100D03*
G01X6032500Y850900D03*
G01X6032500Y1270000D03*
G01X6038849Y4052172D03*
G01X6045200Y1727200D03*
G01X6045200Y1930400D03*
G01X6045200Y5372100D03*
G01X6045520Y4447220D03*
G01X6057900Y3505200D03*
G01X6070600Y5613400D03*
G01X6134100Y5461000D03*
G01X6159500Y3213100D03*
G01X6159500Y4902200D03*
G01X6184900Y76200D03*
G01X6261100Y5588000D03*
G01X6311900Y4800600D03*
G01X6311900Y7899400D03*
G01X6336702Y2842363D03*
G01X6337300Y3048000D03*
G01X6337300Y3746500D03*
G01X6350000Y1054100D03*
G01X6357620Y850900D03*
G01X6357620Y1270000D03*
G01X6370320Y1727200D03*
G01X6370320Y1930400D03*
G01X6380809Y8011489D03*
G01X6380809Y8238235D03*
G01X6383020Y7772400D03*
G01X6400800Y5219700D03*
G01X6413500Y6756400D03*
G01X6426200Y4775200D03*
G01X6426200Y6070600D03*
G01X6659348Y4209390D03*
G01X6675120Y1054100D03*
G01X6682740Y850900D03*
G01X6682740Y1270000D03*
G01X6692900Y3340100D03*
G01X6693896Y2358902D03*
G01X6695440Y1727200D03*
G01X6695440Y1930400D03*
G01X6696899Y4838447D03*
G01X6705002Y2842363D03*
G01X6705600Y3048000D03*
G01X6705600Y7327900D03*
G01X6705929Y8011489D03*
G01X6705929Y8238235D03*
G01X6708140Y7772400D03*
G01X6718300Y6362700D03*
G01X6728296Y6578600D03*
G01X6731000Y6019800D03*
G01X6769420Y4241800D03*
G01X6904858Y4838800D03*
G01X6934200Y4089400D03*
G01X6946900Y4724400D03*
G01X6985000Y6362700D03*
G01X7000240Y1054100D03*
G01X7007860Y850900D03*
G01X7007860Y1270000D03*
G01X7020560Y1727200D03*
G01X7020560Y1930400D03*
G01X7031049Y8011489D03*
G01X7031049Y8238235D03*
G01X7033260Y7772400D03*
G01X7073302Y2842363D03*
G01X7073900Y3048000D03*
G01X7099300Y6184900D03*
G01X7251700Y3340100D03*
G01X7325360Y1054100D03*
G01X7332980Y850900D03*
G01X7332980Y1270000D03*
G01X7345680Y1727200D03*
G01X7345680Y1930400D03*
G01X7345680Y2358902D03*
G01X7353300Y7327900D03*
G01X7356169Y8011489D03*
G01X7356169Y8238235D03*
G01X7358380Y7772400D03*
G01X7366000Y4114800D03*
G01X7366000Y4394200D03*
G01X7366000Y5054600D03*
G01X7403502Y2842363D03*
G01X7404100Y3048000D03*
G01X7404100Y3340100D03*
G01X7429500Y6477000D03*
G01X7442200Y6731000D03*
G01X7518400Y5283200D03*
G01X7531100Y6096000D03*
G01X7632700Y6045200D03*
G01X7645400Y3759200D03*
G01X7658100Y850900D03*
G01X7658100Y1054100D03*
G01X7658100Y1270000D03*
G01X7658100Y6388100D03*
G01X7658100Y6731000D03*
G01X7670800Y1727200D03*
G01X7670800Y1930400D03*
G01X7681289Y8011489D03*
G01X7681289Y8238235D03*
G01X7683500Y7772400D03*
G01X7696200Y3340100D03*
G01X7696798Y2847237D03*
G01X7697397Y3052874D03*
G01X7747000Y3860800D03*
G01X7848600Y3962400D03*
G01X7874000Y4216400D03*
G01X7874000Y4419600D03*
G01X7894320Y91440D03*
G01X7894320Y822960D03*
G01X7894320Y6035040D03*
G01X7894320Y8321040D03*
G01X7894320Y8991600D03*
G01X7975600Y370840D03*
G01X7975600Y8661400D03*
G01X7985760Y2834640D03*
G01X7985760Y3078480D03*
G01X7985760Y6370320D03*
G01X8026400Y231140D03*
G01X8026400Y510540D03*
G01X8026400Y3581400D03*
G01X8026400Y3708400D03*
G01X8026400Y4038600D03*
G01X8039100Y8521700D03*
G01X8039100Y8801100D03*
G01X8153400Y4038600D03*
G01X8153400Y4140200D03*
G01X8153400Y4241800D03*
G01X8153400Y4343400D03*
G01X8168640Y3535680D03*
G01X8168640Y4846320D03*
G01X8178800Y167640D03*
G01X8178800Y574040D03*
G01X8178800Y8458200D03*
G01X8178800Y8864600D03*
G01X8199120Y5364480D03*
G01X8199120Y5699760D03*
G01X8249920Y3947160D03*
G01X8254399Y4441099D03*
G01X8312150Y4996434D03*
G01X8318500Y8521700D03*
G01X8318500Y8801100D03*
G01X8331200Y231140D03*
G01X8331200Y510540D03*
G01X8351520Y91440D03*
G01X8351520Y822960D03*
G01X8351520Y1645920D03*
G01X8351520Y2590800D03*
G01X8351520Y2834640D03*
G01X8351520Y3078480D03*
G01X8351520Y3535680D03*
G01X8351520Y4511040D03*
G01X8361534Y1052033D03*
G01X8382000Y370840D03*
G01X8382000Y1920240D03*
G01X8382000Y4038600D03*
G01X8382000Y4191000D03*
G01X8382000Y4343400D03*
G01X8382000Y5974080D03*
G01X8382000Y6278880D03*
G01X8382000Y7071360D03*
G01X8382000Y7315200D03*
G01X8382000Y8321040D03*
G01X8382000Y8661400D03*
G01X8382000Y8991600D03*
G01X8559800Y152400D03*
G01X8559800Y609600D03*
G01X8559800Y1143000D03*
G01X8559800Y1422400D03*
G01X8559800Y1930400D03*
G01X8559800Y2260600D03*
G01X8559800Y2590800D03*
G01X8559800Y3149600D03*
G01X8559800Y4038600D03*
G01X8559800Y4140200D03*
G01X8559800Y4241800D03*
G01X8559800Y4343400D03*
G01X8564880Y2834640D03*
G01X8585200Y3530600D03*
G01X8585200Y5486400D03*
G01X8585200Y5816600D03*
G01X8585200Y6172200D03*
G01X8585200Y6477000D03*
G01X8585200Y6781800D03*
G01X8585200Y7060827D03*
G01X8585200Y7315200D03*
G01X8585200Y7569200D03*
G01X8585200Y7823200D03*
G01X8595360Y5242560D03*
G01X8597900Y838200D03*
G01X8661400Y8229600D03*
G01X8699500Y3937000D03*
G01X8724900Y152400D03*
G01X8724900Y431800D03*
G01X8724900Y990600D03*
G01X8724900Y1282700D03*
G01X8788400Y4038600D03*
G01X8788400Y4140200D03*
G01X8788400Y4241800D03*
G01X8788400Y4343400D03*
G01X8788400Y4648200D03*
G01X8788400Y4775200D03*
G01X8788400Y4902200D03*
G01X8788400Y5257800D03*
G01X8788400Y5384800D03*
G01X8788400Y5511800D03*
G01X8801100Y5016500D03*
G01X8801100Y5143500D03*
G01X8823960Y1618930D03*
G01X8823960Y1944050D03*
G01X8823960Y2269170D03*
G01X8823960Y2594290D03*
G01X8823960Y2919410D03*
G01X8890000Y4140200D03*
G01X8890000Y4241800D03*
G01X8890000Y4343400D03*
G01X8902700Y584200D03*
G01X8902700Y3479800D03*
G01X8915400Y4648200D03*
G01X8915400Y4775200D03*
G01X8915400Y4902200D03*
G01X8915400Y5016500D03*
G01X8915400Y5143500D03*
G01X8928100Y152400D03*
G01X8945942Y5969000D03*
G01X8945942Y6146800D03*
G01X8945942Y6299200D03*
G01X8945942Y6451600D03*
G01X8945942Y6807200D03*
G01X8945942Y6959600D03*
G01X8945942Y7112000D03*
G01X8945942Y7289800D03*
G01X8948639Y6635750D03*
G01X8966200Y7899400D03*
G01X8966200Y8204200D03*
G01X9029700Y3733800D03*
G01X9037084Y5021580D03*
G01X9037084Y5143500D03*
G01X9093200Y4864100D03*
G01X9096531Y5969000D03*
G01X9096531Y6146800D03*
G01X9096531Y6299200D03*
G01X9096531Y6451600D03*
G01X9096531Y6807200D03*
G01X9096531Y6959600D03*
G01X9096531Y7112000D03*
G01X9096531Y7289800D03*
G01X9099228Y6635750D03*
G01X9131300Y8813800D03*
G01X9144000Y152400D03*
G01X9144000Y342900D03*
G01X9149080Y1293810D03*
G01X9149080Y1618930D03*
G01X9149080Y1944050D03*
G01X9149080Y2269170D03*
G01X9149080Y2594290D03*
G01X9149080Y2919410D03*
G01X9149080Y3244530D03*
G01X9159004Y5021580D03*
G01X9159004Y5143500D03*
G01X9182100Y3479800D03*
G01X9182100Y4864100D03*
G01X9201150Y7634400D03*
G01X9220200Y7899400D03*
G01X9220200Y8394700D03*
G01X9245900Y5969000D03*
G01X9245900Y6146800D03*
G01X9245900Y6299200D03*
G01X9245900Y6451600D03*
G01X9245900Y6807200D03*
G01X9245900Y6959600D03*
G01X9245900Y7112000D03*
G01X9245900Y7289800D03*
G01X9248597Y6635750D03*
G01X9271000Y3860800D03*
G01X9271000Y4864100D03*
G01X9280924Y5021580D03*
G01X9280924Y5143500D03*
G01X9309100Y8191500D03*
G01X9321800Y5461000D03*
G01X9351515Y4495803D03*
G01X9354820Y4711700D03*
G01X9359900Y8813800D03*
G01X9372600Y152400D03*
G01X9372600Y8051800D03*
G01X9372600Y8343900D03*
G01X9392858Y5969000D03*
G01X9392858Y6146800D03*
G01X9392858Y6299200D03*
G01X9392858Y6451600D03*
G01X9392858Y6807200D03*
G01X9392858Y6959600D03*
G01X9392858Y7112000D03*
G01X9392858Y7289800D03*
G01X9395555Y6635750D03*
G01X9402844Y5021580D03*
G01X9402844Y5143500D03*
G01X9474200Y1944050D03*
G01X9474200Y2269170D03*
G01X9474200Y2594290D03*
G01X9474200Y2919410D03*
G01X9474200Y3244530D03*
G01X9474200Y3479800D03*
G01X9486900Y3860800D03*
G01X9489440Y4216400D03*
G01X9499600Y1676400D03*
G01X9524764Y5021580D03*
G01X9524764Y5143500D03*
G01X9525000Y6887599D03*
G01X9525000Y7016120D03*
G01X9525000Y7137246D03*
G01X9525000Y7261647D03*
G01X9525000Y7988300D03*
G01X9525000Y8407400D03*
G01X9530001Y6012311D03*
G01X9530001Y6140832D03*
G01X9530001Y6261958D03*
G01X9530001Y6386359D03*
G01X9530001Y6508750D03*
G01X9530001Y6635750D03*
G01X9530001Y6770471D03*
G01X9563100Y8813800D03*
G01X9588500Y469900D03*
G01X9601200Y7543800D03*
G01X9613900Y152400D03*
G01X9646684Y5021580D03*
G01X9646684Y5143500D03*
G01X9649460Y3860800D03*
G01X9652000Y4216400D03*
G01X9652000Y5308600D03*
G01X9676635Y4495803D03*
G01X9677400Y2082800D03*
G01X9679940Y4711700D03*
G01X9690100Y8051800D03*
G01X9690100Y8331200D03*
G01X9702667Y7543800D03*
G01X9740900Y8191500D03*
G01X9766300Y8585200D03*
G01X9766300Y8813800D03*
G01X9768604Y5021580D03*
G01X9768604Y5143500D03*
G01X9799320Y2594290D03*
G01X9799320Y2919410D03*
G01X9799320Y3244530D03*
G01X9804400Y2235200D03*
G01X9804400Y3479800D03*
G01X9812020Y3860800D03*
G01X9814560Y4216400D03*
G01X9829800Y635000D03*
G01X9855200Y1727200D03*
G01X9855200Y1879600D03*
G01X9880600Y7696200D03*
G01X9880600Y7874000D03*
G01X9890524Y5021580D03*
G01X9890524Y5143500D03*
G01X9893300Y5600700D03*
G01X9895840Y5311140D03*
G01X9931400Y736600D03*
G01X9956800Y2362200D03*
G01X9974580Y3860800D03*
G01X9977120Y4216400D03*
G01X9982200Y7239000D03*
G01X10001755Y4495803D03*
G01X10005060Y4711700D03*
G01X10007600Y5930900D03*
G01X10007600Y6179887D03*
G01X10007600Y6418866D03*
G01X10007600Y7581900D03*
G01X10020300Y5029200D03*
G01X10020300Y5143500D03*
G01X10033000Y635000D03*
G01X10033000Y838200D03*
G01X10058400Y8153400D03*
G01X10058400Y8229600D03*
G01X10058400Y8305800D03*
G01X10084870Y6705600D03*
G01X10109200Y2514600D03*
G01X10109200Y7467600D03*
G01X10134600Y736600D03*
G01X10134600Y2159000D03*
G01X10134600Y8153400D03*
G01X10134600Y8229600D03*
G01X10134600Y8305800D03*
G01X10137140Y3860800D03*
G01X10139680Y4216400D03*
G01X10158278Y7696200D03*
G01X10182860Y5311140D03*
G01X10185400Y5029200D03*
G01X10185400Y5143500D03*
G01X10185400Y5600700D03*
G01X10210800Y2667000D03*
G01X10210800Y2870200D03*
G01X10210800Y3073400D03*
G01X10210800Y3276600D03*
G01X10210800Y3479800D03*
G01X10223500Y7761920D03*
G01X10236200Y635000D03*
G01X10236200Y838200D03*
G01X10236200Y8153400D03*
G01X10236200Y8229600D03*
G01X10236200Y8305800D03*
G01X10261600Y4343400D03*
G01X10287000Y5943600D03*
G01X10287000Y6862100D03*
G01X10294940Y7835900D03*
G01X10312400Y8153400D03*
G01X10312400Y8229600D03*
G01X10312400Y8305800D03*
G01X10326875Y4572003D03*
G01X10330180Y4711700D03*
G01X10337800Y736600D03*
G01X10337800Y5029200D03*
G01X10337800Y5156200D03*
G01X10337800Y8819539D03*
G01X10363200Y1727200D03*
G01X10363200Y2387600D03*
G01X10363200Y7594600D03*
G01X10439400Y635000D03*
G01X10439400Y838200D03*
G01X10464800Y4445000D03*
G01X10464800Y5029200D03*
G01X10464800Y5156200D03*
G01X10464800Y5295900D03*
G01X10464800Y5422900D03*
G01X10464800Y5549900D03*
G01X10464800Y5676900D03*
G01X10464800Y5930900D03*
G01X10464800Y6057900D03*
G01X10464800Y6184900D03*
G01X10464800Y6311900D03*
G01X10464800Y6426200D03*
G01X10464800Y6540500D03*
G01X10464800Y6667500D03*
G01X10464800Y6794500D03*
G01X10515600Y4572000D03*
G01X10515600Y4699000D03*
G01X10528300Y7835900D03*
G01X10541000Y736600D03*
G01X10566400Y127000D03*
G01X10566400Y2159000D03*
G01X10566400Y5156200D03*
G01X10566400Y5295900D03*
G01X10566400Y5422900D03*
G01X10566400Y5549900D03*
G01X10566400Y5676900D03*
G01X10566400Y5930900D03*
G01X10566400Y6057900D03*
G01X10566400Y6184900D03*
G01X10566400Y6311900D03*
G01X10566400Y6540500D03*
G01X10566400Y6667500D03*
G01X10566400Y6794500D03*
G01X10575000Y6428907D03*
G01X10594020Y8166100D03*
G01X10629900Y5029200D03*
G01X10642600Y457200D03*
G01X10642600Y635000D03*
G01X10642600Y838200D03*
G01X10668000Y1727200D03*
G01X10668000Y6794500D03*
G01X10668000Y9042400D03*
G01X10693400Y7645400D03*
G01X10694629Y7491801D03*
G01X10744200Y558800D03*
G01X10744200Y736600D03*
G01X10744200Y2489200D03*
G01X10744200Y2590800D03*
G01X10744200Y2819400D03*
G01X10744200Y3022600D03*
G01X10744200Y3225800D03*
G01X10744200Y3429000D03*
G01X10769600Y4699000D03*
G01X10769600Y6794500D03*
G01X10820400Y1930400D03*
G01X10820401Y8810548D03*
G01X10845800Y457200D03*
G01X10845800Y635000D03*
G01X10845800Y838200D03*
G01X10845800Y2489200D03*
G01X10845800Y2590800D03*
G01X10845800Y2717800D03*
G01X10845800Y2819400D03*
G01X10845800Y2921000D03*
G01X10845800Y3022600D03*
G01X10845800Y3124200D03*
G01X10845800Y3225800D03*
G01X10845800Y3327400D03*
G01X10871200Y6794500D03*
G01X10871200Y7416800D03*
G01X10945500Y7416800D03*
G01X10947400Y558800D03*
G01X10947400Y736600D03*
G01X10947400Y1727200D03*
G01X10947400Y2489200D03*
G01X10947400Y2590800D03*
G01X10947400Y3327400D03*
G01X10947400Y7353300D03*
G01X10947400Y7480300D03*
G01X11049000Y457200D03*
G01X11049000Y635000D03*
G01X11049000Y838200D03*
G01X11049000Y2489200D03*
G01X11049000Y2590800D03*
G01X11049000Y3327400D03*
G01X11049000Y7353300D03*
G01X11049000Y7416800D03*
G01X11049000Y7480300D03*
G01X11125200Y7416800D03*
G01X11150600Y558800D03*
G01X11150600Y2489200D03*
G01X11150600Y2590800D03*
G01X11150600Y3327400D03*
G01X11150600Y8788400D03*
G01X11201400Y8026400D03*
G01X11252200Y457200D03*
G01X11252200Y2489200D03*
G01X11252200Y2590800D03*
G01X11252200Y3327400D03*
G01X11252200Y4572000D03*
G01X11277600Y7620000D03*
G01X11290300Y3429000D03*
G01X11290300Y3530600D03*
G01X11290300Y3632200D03*
G01X11290300Y7162800D03*
G01X11290300Y7251700D03*
G01X11303000Y7491801D03*
G01X11315700Y8788400D03*
G01X11353800Y558800D03*
G01X11379200Y4572000D03*
G01X11379200Y7162800D03*
G01X11379200Y7251700D03*
G01X11455400Y457200D03*
G01X11455400Y4140200D03*
G01X11455400Y4267200D03*
G01X11468100Y7162800D03*
G01X11468100Y7251700D03*
G01X11468100Y8788400D03*
G01X11557000Y558800D03*
G01X11557000Y4140200D03*
G01X11557000Y4267200D03*
G01X11582400Y4648200D03*
G01X11620500Y4445000D03*
G01X11620500Y8788400D03*
G01X11633200Y5334000D03*
G01X11633200Y7162800D03*
G01X11658600Y457200D03*
G01X11658600Y635000D03*
G01X11658600Y838200D03*
G01X11658600Y4178300D03*
G01X11658600Y4305300D03*
G01X11709400Y7162800D03*
G01X11760200Y736600D03*
G01X11760200Y4178300D03*
G01X11760200Y4305300D03*
G01X11760200Y5765800D03*
G01X11772900Y8788400D03*
G01X11836400Y5384800D03*
G01X11861800Y533400D03*
G01X11861800Y635000D03*
G01X11861800Y838200D03*
G01X11861800Y4178300D03*
G01X11861800Y4305300D03*
G01X11874500Y5918200D03*
G01X11887200Y8737600D03*
G01X11899900Y5537200D03*
G01X11912600Y7048500D03*
G01X11925300Y8255000D03*
G01X11925300Y8432800D03*
G01X11925300Y8610600D03*
G01X11963400Y2514600D03*
G01X11963400Y2616200D03*
G01X11963400Y2717800D03*
G01X11963400Y4178300D03*
G01X11963400Y4305300D03*
G01X11976100Y5702300D03*
G01X11980872Y1828800D03*
G01X11988800Y5334000D03*
G01X11988800Y5930900D03*
G01X11995658Y7467600D03*
G01X12014200Y6248400D03*
G01X12026900Y6883400D03*
G01X12027312Y5005764D03*
G01X12053850Y1828800D03*
G01X12065000Y2514600D03*
G01X12065000Y2616200D03*
G01X12065000Y2717800D03*
G01X12065000Y4178300D03*
G01X12065000Y4305300D03*
G01X12065000Y8973779D03*
G01X12141200Y7480300D03*
G01X12166600Y1879600D03*
G01X12166600Y2514600D03*
G01X12166600Y2616200D03*
G01X12166600Y2717800D03*
G01X12166600Y2819400D03*
G01X12166600Y2946400D03*
G01X12166600Y3073400D03*
G01X12166600Y3200400D03*
G01X12166600Y3327400D03*
G01X12166600Y3429000D03*
G01X12166600Y3556000D03*
G01X12166600Y3683000D03*
G01X12166600Y3810000D03*
G01X12166600Y3937000D03*
G01X12166600Y4064000D03*
G01X12166600Y4178300D03*
G01X12166600Y4305300D03*
G01X12192000Y6590005D03*
G01X12217400Y6030011D03*
G01X12255500Y7454900D03*
G01X12268200Y2514600D03*
G01X12268200Y2616200D03*
G01X12268200Y2717800D03*
G01X12268200Y2819400D03*
G01X12268200Y2946400D03*
G01X12268200Y3073400D03*
G01X12268200Y3200400D03*
G01X12268200Y3327400D03*
G01X12268200Y3429000D03*
G01X12268200Y3556000D03*
G01X12268200Y3683000D03*
G01X12268200Y3810000D03*
G01X12268200Y3937000D03*
G01X12268200Y4064000D03*
G01X12268200Y4178300D03*
G01X12268200Y4305300D03*
G01X12277796Y796359D03*
G01X12277796Y8296369D03*
G01X12293600Y4787900D03*
G01X12293600Y5139323D03*
G01X12293600Y5551410D03*
G01X12319000Y1879600D03*
G01X12323516Y651579D03*
G01X12323516Y920819D03*
G01X12336216Y8151589D03*
G01X12336216Y8433529D03*
G01X12356889Y5270711D03*
G01X12369800Y2514600D03*
G01X12369800Y2616200D03*
G01X12369800Y2717800D03*
G01X12395200Y2108200D03*
G01X12420600Y3454400D03*
G01X12433300Y7505700D03*
G01X12446000Y1562100D03*
G01X12446000Y4419600D03*
G01X12458136Y590619D03*
G01X12458700Y7594600D03*
G01X12470836Y8090629D03*
G01X12471400Y2514600D03*
G01X12471400Y2616200D03*
G01X12471400Y2717800D03*
G01X12473376Y996525D03*
G01X12473376Y8496536D03*
G01X12496800Y4876800D03*
G01X12522200Y5232400D03*
G01X12547600Y3975100D03*
G01X12573000Y2895600D03*
G01X12573000Y3556000D03*
G01X12573000Y6274994D03*
G01X12573000Y6425006D03*
G01X12585700Y3810000D03*
G01X12585700Y4152900D03*
G01X12610536Y651579D03*
G01X12610536Y935812D03*
G01X12610536Y8151589D03*
G01X12616180Y8440420D03*
G01X12623800Y2311400D03*
G01X12649200Y3429000D03*
G01X12668956Y796359D03*
G01X12668956Y8296369D03*
G01X12687300Y1879600D03*
G01X12700000Y4356100D03*
G01X12700000Y6273800D03*
G01X12852400Y7264400D03*
G01X12903200Y3886200D03*
G01X12905420Y3975010D03*
G01X12954000Y1587500D03*
G01X12979400Y1447800D03*
G01X12979400Y3683000D03*
G04 Drill Drawing End*

M02*

