;TYPE=PLATED
;Layer: PTH_Through_Via
;EasyEDA Pro v2.2.40.8, 2025-09-21 19:41:24
;Gerber Generator version 0.3
M48
METRIC,LZ,0000.00000
;Hole size 1 = 0.30480 METRIC
T01C0.30480
;Hole size 2 = 0.30500 METRIC
T02C0.30500
%
G05
G90
T01
X81.95777Y84.55907
X83.35477Y85.16867
X83.93897Y86.61647
X83.38017Y87.96267
X81.98317Y88.61813
X80.61157Y87.98807
X79.90037Y86.61647
X80.61157Y85.16867
X81.93237Y1.72967
X83.32937Y2.21227
X84.04057Y3.66007
X83.35477Y5.13327
X81.95777Y5.66173
X80.58617Y5.15867
X79.87497Y3.66007
X80.58617Y2.21227
X14.59697Y21.69407
X16.24797Y22.43067
X16.70517Y23.75147
X16.27337Y24.97067
X14.74937Y25.75313
X13.25077Y24.99607
X12.79357Y23.75147
X13.25077Y22.43067
X14.59697Y64.31527
X16.12097Y64.92487
X16.70517Y66.37267
X16.14637Y67.71887
X14.74937Y68.37433
X13.37777Y67.74427
X12.79357Y66.37267
X13.37777Y64.92487
X92.5515Y84.61952
X93.9231Y85.24958
X95.3201Y84.59412
X95.8789Y83.24792
X95.2947Y81.80012
X93.8977Y81.19052
X92.5515Y81.80012
X91.9673Y83.24792
X92.5515Y9.61942
X93.9231Y10.24948
X95.3201Y9.59402
X95.8789Y8.24782
X95.2947Y6.80002
X93.8977Y6.19042
X92.5515Y6.80002
X91.9673Y8.24782
X123.5517Y9.61942
X124.9233Y10.24948
X126.3203Y9.59402
X126.8791Y8.24782
X126.2949Y6.80002
X124.8979Y6.19042
X123.5517Y6.80002
X122.9675Y8.24782
X123.5517Y84.61952
X124.9233Y85.24958
X126.3203Y84.59412
X126.8791Y83.24792
X126.2949Y81.80012
X124.8979Y81.19052
X123.5517Y81.80012
X122.9675Y83.24792
X92.7608Y87.884
X97.8408Y87.884
X102.9208Y87.884
X108.0008Y87.884
X113.0808Y87.884
X118.1608Y87.884
X123.2408Y87.884
X82.6008Y82.804
X87.6808Y82.804
X97.8408Y82.804
X102.9208Y82.804
X108.0008Y82.804
X113.0808Y82.804
X118.1608Y82.804
X128.3208Y82.804
X82.6008Y77.724
X87.6808Y77.724
X92.7608Y77.724
X103.0224Y77.724
X108.1024Y77.724
X123.2408Y77.724
X128.3208Y77.724
X82.6008Y73.152
X87.6808Y72.644
X92.7608Y72.644
X128.3208Y72.644
X87.6808Y67.564
X92.7608Y67.564
X103.0224Y67.564
X128.3208Y67.564
X82.6008Y62.484
X92.7608Y62.484
X103.0224Y62.484
X128.3208Y62.484
X123.2408Y57.404
X128.3208Y57.404
X82.6008Y36.2712
X92.7608Y36.2712
X97.8408Y36.2712
X102.9208Y36.2712
X123.1392Y35.6616
X92.7608Y31.1912
X97.8408Y31.1912
X102.9208Y31.1912
X108.0008Y31.1912
X76.8096Y14.9352
X87.6808Y21.0312
X92.7608Y21.0312
X97.8408Y21.0312
X102.9208Y21.0312
X108.0008Y21.0312
X123.2408Y21.0312
X82.296Y15.8496
X87.7824Y15.8496
X92.7608Y15.9512
X97.8408Y15.9512
X102.9208Y15.9512
X108.0008Y15.9512
X118.1608Y15.9512
X123.2408Y15.9512
X82.6008Y11.2776
X97.8408Y10.8712
X102.9208Y10.8712
X108.0008Y10.8712
X123.2408Y10.8712
X87.6808Y5.7912
X97.8408Y5.7912
X102.9208Y5.7912
X108.0008Y5.7912
X113.0808Y5.7912
X118.1608Y5.7912
X123.2408Y5.7912
X103.0224Y52.1208
X97.8408Y52.1208
X92.6592Y52.1208
X92.6592Y45.72
X102.9208Y40.55424
X107.8992Y40.5384
X103.0224Y45.72
X97.8408Y39.624
X97.8408Y24.9936
X97.8408Y77.724
X97.8408Y72.5424
X97.8408Y67.54465
X97.8408Y62.484
X87.7062Y87.884
X123.18799Y62.42567
X123.19Y67.564
X123.19Y72.644
X102.997Y72.517
X87.83794Y10.09552
X116.1351Y60.3427
X109.601Y60.452
X112.776Y61.976
X111.379Y61.976
X109.855Y61.976
X114.3Y61.976
X115.824Y61.976
X112.96193Y68.62267
X113.96193Y68.62267
X113.96193Y67.62267
X112.96193Y67.62267
T02
X73.025Y67.1068
X37.7952Y32.6136
X38.7096Y32.6136
X39.9288Y32.6136
X42.3672Y37.4904
X44.196Y37.4904
X43.2816Y37.4904
X37.1856Y24.384
X42.3672Y30.48
X46.6344Y37.7952
X47.8536Y38.4048
X48.4632Y37.4904
X49.3776Y38.1
X13.5095Y71.0184
X36.8808Y32.6136
X34.7472Y37.1856
X68.2752Y28.0416
X62.1792Y28.0416
X7.62Y36.2712
X80.772Y45.4152
X80.772Y39.0144
X80.772Y29.5656
X80.772Y13.716
X78.0288Y45.4152
X78.0288Y39.0144
X78.0288Y29.5656
X76.2Y18.8976
X127.1016Y53.0352
X69.7992Y43.5864
X9.4488Y35.6616
X11.8872Y34.1376
X28.6512Y85.344
X9.4488Y59.1312
X10.1243Y56.74448
X9.144Y38.1
X7.0104Y29.2608
X2.7432Y28.0416
X39.9288Y24.384
X45.72Y28.6512
X48.4632Y23.4696
X51.816Y23.4696
X53.9496Y24.6888
X59.1312Y21.336
X41.148Y29.4132
X42.0624Y31.6992
X69.7992Y61.2648
X66.7512Y56.0832
X73.152Y55.4736
X65.532Y50.5968
X73.7616Y46.6344
X67.056Y32.004
X74.3712Y35.052
X39.3192Y31.3944
X51.5112Y32.004
X50.9016Y38.1
X99.5934Y42.0624
X78.9432Y65.2272
X82.9056Y65.2272
X66.4464Y69.1896
X38.1Y27.432
X32.6136Y21.9456
X29.5656Y21.9456
X42.9768Y26.5176
X48.768Y28.3464
X45.8724Y31.8516
X54.864Y28.3464
X40.8432Y39.4716
X43.8912Y39.624
X49.3776Y47.8536
X56.9976Y53.34
X56.9976Y50.5968
X59.436Y35.052
X52.7304Y35.052
X67.056Y36.8808
X56.0832Y56.0832
X79.248Y42.1132
X73.152Y58.8264
X73.1741Y61.92241
X79.248Y52.1208
X82.6008Y52.1208
X75.2856Y40.8432
X79.629Y31.6992
X82.296Y31.6992
X35.9664Y0.9144
X37.0332Y7.1882
X10.668Y20.1168
X21.0312Y12.8016
X26.2128Y4.572
X22.2504Y83.2104
X25.908Y87.7824
X39.0652Y90.3478
X48.4378Y90.3732
X99.06Y45.72
X78.6384Y70.7136
X91.1352Y44.196
X82.9056Y44.5008
X82.9056Y39.624
X64.008Y80.772
X64.008Y76.2
X32.004Y87.7824
X69.4944Y80.772
X35.052Y32.6136
X1.524Y48.4632
X3.9624Y48.4632
X1.524Y31.3944
X3.9624Y31.3944
X48.4632Y17.6784
X37.4904Y17.6784
X128.6256Y49.9872
X128.6256Y35.6616
X97.8408Y0.9144
X87.7824Y0.9144
X58.3184Y90.3732
X62.1792Y65.2272
X27.432Y23.1648
X33.2232Y28.6512
X59.436Y17.6784
X27.432Y17.6784
X22.86Y25.6032
X43.32576Y34.99214
X48.6156Y30.6324
X64.3128Y59.436
X64.3128Y63.0936
X71.3232Y44.8056
X71.7804Y39.3192
X27.7622Y8.5598
X64.3128Y70.2564
X65.8368Y22.2504
X56.6928Y35.052
X46.9392Y40.0812
X30.3276Y42.672
X36.576Y38.5572
X74.0664Y72.5424
X39.0652Y35.052
X97.8408Y27.1272
X91.44Y29.2608
X82.296Y27.1272
X78.6384Y27.1272
X74.70956Y27.1272
X69.4944Y27.1272
X74.1172Y30.2768
X69.4944Y29.2608
X105.7656Y24.9936
X91.44Y24.9936
X82.296Y24.9936
X82.296Y22.2504
X78.6384Y22.2504
X78.6384Y25.21058
X74.4728Y22.606
X35.052Y21.9456
X9.1694Y87.6046
X106.98481Y44.34095
X111.01061Y49.16498
X107.8992Y52.1208
X113.0808Y52.1208
X128.6256Y45.72
X128.6256Y40.8432
X113.0808Y45.72
X110.3376Y44.8056
X110.6424Y40.55414
X112.1664Y43.5864
X111.5568Y46.0248
X124.587Y52.4256
X124.587Y47.8536
X124.46Y43.2816
X124.46Y38.1
X45.72Y46.3296
X66.6242Y54.1274
X118.2624Y52.1208
X37.4904Y37.62192
X39.0144Y37.998
X45.4152Y45.1104
X46.9392Y53.34
X46.3296Y53.34
X39.9288Y50.9016
X38.1Y50.9016
X37.4904Y49.9872
X37.1856Y49.0728
X62.1792Y24.9936
X56.6928Y32.004
X59.436Y32.004
X44.196Y60.0456
X44.8056Y61.2648
X45.4152Y62.1792
X48.1584Y65.532
X26.8224Y33.8328
X32.004Y38.1
X7.43629Y56.74449
X30.7848Y36.8808
X7.0104Y46.0248
X29.5656Y35.6616
X40.5384Y51.816
X32.4612Y42.672
X32.9184Y45.1104
X24.9936Y68.8848
X27.432Y71.0184
X24.9936Y62.484
X27.432Y62.484
X38.7096Y87.7824
X44.73484Y87.1728
X45.1104Y83.5152
X48.1584Y83.82
X57.3024Y73.4568
X64.3128Y87.1728
X64.3128Y84.1248
X74.0664Y87.1728
X73.4568Y83.5152
X47.5488Y62.7888
X38.8874Y62.992
X40.2336Y61.8744
X39.86692Y57.912
X38.1Y60.0456
X29.2608Y39.624
X27.432Y39.0144
X26.8732Y36.83
X26.2128Y42.672
X22.86Y45.1104
X28.0416Y45.1104
X30.1752Y45.1104
X39.9288Y42.18505
X40.8432Y42.9768
X43.2816Y45.5676
X38.7096Y41.148
X18.288Y45.1104
X18.288Y42.672
X24.9936Y47.8536
X27.432Y47.8536
X29.8704Y47.8536
X32.6136Y47.8536
X24.9936Y55.1688
X29.8704Y55.4228
X32.6136Y52.7304
X49.3776Y43.5864
X49.3776Y52.1208
X49.3776Y59.1312
X49.3776Y62.484
X59.436Y38.7096
X59.436Y43.5864
X54.5592Y43.5864
X65.2272Y39.624
X5.4864Y19.2024
X1.2192Y23.1648
X48.768Y71.9328
X53.34Y72.2376
X61.8744Y71.7804
X55.7784Y66.1416
X65.532Y65.2272
X113.8861Y36.88081
X111.8616Y32.9184
X123.1392Y40.8432
X23.90436Y77.37879
X23.91029Y71.9328
X127.01704Y28.63198
X127.01704Y26.19358
X109.6264Y68.7324
X111.04087Y72.4662
X117.2972Y68.7324
X117.2972Y72.0546
X91.1352Y39.624
X118.5672Y54.2544
X118.5672Y55.1688
X90.2208Y59.7408
X90.2208Y80.09152
X102.7176Y59.1312
X102.0826Y55.0672
X99.88927Y54.5592
X99.9744Y59.1312
X114.3762Y66.294
X112.5474Y66.294
X112.5474Y69.9516
X114.3762Y69.9516
X69.7992Y57.3024
X60.3504Y61.5696
X82.6008Y56.0832
X82.6008Y58.5216
X79.248Y58.5216
X79.248Y56.0832
X60.96Y56.0832
X46.3296Y57.912
X45.4152Y59.436
X23.4696Y59.1312
X23.4696Y65.532
X46.0248Y71.628
X41.71905Y71.0184
X38.1Y71.0184
X32.9184Y71.0184
X24.9936Y65.532
X29.8704Y62.484
X32.6136Y62.484
X32.6136Y58.0644
X29.8704Y58.8264
X24.9936Y74.676
X24.9936Y79.8576
X27.432Y74.676
X20.1168Y65.532
X18.5928Y74.676
X18.5928Y68.8848
X6.7056Y61.5696
X8.2296Y65.532
X10.9728Y65.532
X1.524Y56.9976
X71.9328Y18.034
X68.9864Y17.272
X66.929Y12.5476
X116.7384Y27.432
X105.7656Y27.1272
X91.44Y27.1272
X74.3712Y24.6888
X21.0312Y20.1168
X24.384Y13.716
X55.7784Y72.2376
X59.1312Y76.5048
X57.912Y78.6384
X56.9976Y82.296
X59.1312Y79.8576
X60.3504Y84.7344
X34.7472Y52.7304
X29.8704Y52.7304
X27.432Y52.7304
X27.7368Y58.8264
X34.7472Y47.8536
X52.1208Y37.1856
X52.7304Y32.004
X53.9496Y32.004
X49.3776Y55.4736
X13.1064Y17.0688
X18.288Y13.4112
X21.0312Y8.5344
X29.5656Y0.9144
X23.4696Y3.9624
X42.672Y0.9144
X64.3128Y0.9144
X71.0184Y0.9144
X78.0288Y0.9144
X103.0224Y0.9144
X108.204Y0.9144
X113.0808Y0.9144
X117.9576Y0.9144
X123.1392Y1.524
X127.7112Y5.4864
X129.54Y10.9728
X129.54Y15.8496
X129.54Y21.0312
X129.54Y27.432
X30.1752Y90.2208
X33.528Y79.5528
X35.6616Y81.6864
X36.0426Y77.1652
X65.15454Y61.2648
X67.3608Y61.8744
X67.3608Y60.6552
X123.1392Y24.9936
X125.2728Y30.1752
X123.1392Y30.1752
X120.3198Y25.1206
X123.1392Y49.9872
X128.6256Y54.2544
X46.0248Y41.6052
X42.0624Y44.3484
X37.6428Y21.9456
X40.2336Y21.9456
X42.5196Y21.9456
X45.4152Y21.9456
X54.2544Y21.9456
X56.8452Y21.9456
X64.3128Y21.336
X49.6824Y31.3944
X56.0832Y78.6384
X34.33636Y35.05213
X52.4256Y76.8096
X54.5592Y75.8952
X42.35397Y79.03263
X40.132Y81.153
X36.93086Y58.2196
X35.05199Y68.91558
X39.9198Y68.91558
X29.95916Y68.91558
X37.68279Y78.867
X41.55637Y77.1652
X35.687Y58.801
X35.687Y62.992
X111.76Y23.7744
X115.57Y33.147
X112.903Y56.515
X117.2972Y72.9488
X70.71116Y23.3426
X70.71116Y25.146
X72.39Y25.146
X26.13763Y44.93363
X28.24377Y42.72177
X29.25977Y41.70577
X24.892Y38.862
X28.194Y34.29
X61.214Y15.748
X61.214Y4.064
X62.484Y15.748
X62.484Y12.7
X71.12Y6.858
X77.978Y6.858
X42.926Y6.858
X25.4Y16.764
X4.57199Y26.6643
X6.29078Y20.40844
M30