G04 Layer: BottomSilkscreenLayer*
G04 EasyEDA Pro v2.2.40.8, 2025-09-21 19:41:23*
G04 Gerber Generator version 0.3*
G04 Scale: 100 percent, Rotated: No, Reflected: No*
G04 Dimensions in millimeters*
G04 Leading zeros omitted, absolute positions, 4 integers and 5 decimals*
G04 Generated by one-click*
%FSLAX45Y45*%
%MOMM*%
%ADD10C,0.1524*%
%ADD11C,0.2*%
%ADD12C,0.254*%
%ADD13C,0.127*%
%ADD14C,0.15199*%
%ADD15C,0.1443*%
%ADD16C,0.13749*%
%ADD17C,0.4*%
%ADD18C,0.3*%
G75*


G04 Text Start*
G54D10*
G01X5307838Y6434074D02*
G01X5316982Y6431026D01*
G01X5323332Y6421628D01*
G01X5326380Y6406388D01*
G01X5326380Y6396990D01*
G01X5323332Y6381496D01*
G01X5316982Y6372098D01*
G01X5307838Y6369050D01*
G01X5301488Y6369050D01*
G01X5292344Y6372098D01*
G01X5286248Y6381496D01*
G01X5282946Y6396990D01*
G01X5282946Y6406388D01*
G01X5286248Y6421628D01*
G01X5292344Y6431026D01*
G01X5301488Y6434074D01*
G01X5307838Y6434074D01*
G01X5249672Y6384544D02*
G01X5252720Y6381496D01*
G01X5249672Y6378448D01*
G01X5246624Y6381496D01*
G01X5249672Y6384544D01*
G01X5216398Y6421628D02*
G01X5210302Y6424930D01*
G01X5201158Y6434074D01*
G01X5201158Y6369050D01*
G01X5170932Y6412484D02*
G01X5170932Y6381496D01*
G01X5167884Y6372098D01*
G01X5161788Y6369050D01*
G01X5152390Y6369050D01*
G01X5146294Y6372098D01*
G01X5136896Y6381496D01*
G01X5136896Y6412484D02*
G01X5136896Y6369050D01*
G01X1424940Y6055868D02*
G01X1418844Y6059170D01*
G01X1409446Y6068314D01*
G01X1409446Y6003290D01*
G01X1360678Y6068314D02*
G01X1370076Y6065266D01*
G01X1376172Y6055868D01*
G01X1379220Y6040628D01*
G01X1379220Y6031230D01*
G01X1376172Y6015736D01*
G01X1370076Y6006338D01*
G01X1360678Y6003290D01*
G01X1354582Y6003290D01*
G01X1345184Y6006338D01*
G01X1339088Y6015736D01*
G01X1336040Y6031230D01*
G01X1336040Y6040628D01*
G01X1339088Y6055868D01*
G01X1345184Y6065266D01*
G01X1354582Y6068314D01*
G01X1360678Y6068314D01*
G01X1305814Y6068314D02*
G01X1305814Y6003290D01*
G01X1275080Y6046724D02*
G01X1305814Y6015736D01*
G01X1293622Y6028182D02*
G01X1271778Y6003290D01*
G01X1424940Y4989068D02*
G01X1418844Y4992370D01*
G01X1409446Y5001514D01*
G01X1409446Y4936490D01*
G01X1360678Y5001514D02*
G01X1370076Y4998466D01*
G01X1376172Y4989068D01*
G01X1379220Y4973828D01*
G01X1379220Y4964430D01*
G01X1376172Y4948936D01*
G01X1370076Y4939538D01*
G01X1360678Y4936490D01*
G01X1354582Y4936490D01*
G01X1345184Y4939538D01*
G01X1339088Y4948936D01*
G01X1336040Y4964430D01*
G01X1336040Y4973828D01*
G01X1339088Y4989068D01*
G01X1345184Y4998466D01*
G01X1354582Y5001514D01*
G01X1360678Y5001514D01*
G01X1305814Y5001514D02*
G01X1305814Y4936490D01*
G01X1275080Y4979924D02*
G01X1305814Y4948936D01*
G01X1293622Y4961382D02*
G01X1271778Y4936490D01*
G01X1424940Y4013708D02*
G01X1418844Y4017010D01*
G01X1409446Y4026154D01*
G01X1409446Y3961130D01*
G01X1360678Y4026154D02*
G01X1370076Y4023106D01*
G01X1376172Y4013708D01*
G01X1379220Y3998468D01*
G01X1379220Y3989070D01*
G01X1376172Y3973576D01*
G01X1370076Y3964178D01*
G01X1360678Y3961130D01*
G01X1354582Y3961130D01*
G01X1345184Y3964178D01*
G01X1339088Y3973576D01*
G01X1336040Y3989070D01*
G01X1336040Y3998468D01*
G01X1339088Y4013708D01*
G01X1345184Y4023106D01*
G01X1354582Y4026154D01*
G01X1360678Y4026154D01*
G01X1305814Y4026154D02*
G01X1305814Y3961130D01*
G01X1275080Y4004564D02*
G01X1305814Y3973576D01*
G01X1293622Y3986022D02*
G01X1271778Y3961130D01*
G01X7424420Y1326388D02*
G01X7418324Y1329690D01*
G01X7408926Y1338834D01*
G01X7408926Y1273810D01*
G01X7360158Y1338834D02*
G01X7369556Y1335786D01*
G01X7375652Y1326388D01*
G01X7378700Y1311148D01*
G01X7378700Y1301750D01*
G01X7375652Y1286256D01*
G01X7369556Y1276858D01*
G01X7360158Y1273810D01*
G01X7354062Y1273810D01*
G01X7344664Y1276858D01*
G01X7338568Y1286256D01*
G01X7335520Y1301750D01*
G01X7335520Y1311148D01*
G01X7338568Y1326388D01*
G01X7344664Y1335786D01*
G01X7354062Y1338834D01*
G01X7360158Y1338834D01*
G01X7305294Y1338834D02*
G01X7305294Y1273810D01*
G01X7274560Y1317244D02*
G01X7305294Y1286256D01*
G01X7293102Y1298702D02*
G01X7271258Y1273810D01*
G01X7170420Y1326388D02*
G01X7164324Y1329690D01*
G01X7154926Y1338834D01*
G01X7154926Y1273810D01*
G01X7106158Y1338834D02*
G01X7115556Y1335786D01*
G01X7121652Y1326388D01*
G01X7124700Y1311148D01*
G01X7124700Y1301750D01*
G01X7121652Y1286256D01*
G01X7115556Y1276858D01*
G01X7106158Y1273810D01*
G01X7100062Y1273810D01*
G01X7090664Y1276858D01*
G01X7084568Y1286256D01*
G01X7081520Y1301750D01*
G01X7081520Y1311148D01*
G01X7084568Y1326388D01*
G01X7090664Y1335786D01*
G01X7100062Y1338834D01*
G01X7106158Y1338834D01*
G01X7051294Y1338834D02*
G01X7051294Y1273810D01*
G01X7020560Y1317244D02*
G01X7051294Y1286256D01*
G01X7039102Y1298702D02*
G01X7017258Y1273810D01*
G01X6484620Y8555228D02*
G01X6478524Y8558530D01*
G01X6469126Y8567674D01*
G01X6469126Y8502650D01*
G01X6420358Y8567674D02*
G01X6429756Y8564626D01*
G01X6435852Y8555228D01*
G01X6438900Y8539988D01*
G01X6438900Y8530590D01*
G01X6435852Y8515096D01*
G01X6429756Y8505698D01*
G01X6420358Y8502650D01*
G01X6414262Y8502650D01*
G01X6404864Y8505698D01*
G01X6398768Y8515096D01*
G01X6395720Y8530590D01*
G01X6395720Y8539988D01*
G01X6398768Y8555228D01*
G01X6404864Y8564626D01*
G01X6414262Y8567674D01*
G01X6420358Y8567674D01*
G01X6365494Y8546084D02*
G01X6365494Y8515096D01*
G01X6362446Y8505698D01*
G01X6356350Y8502650D01*
G01X6346952Y8502650D01*
G01X6340856Y8505698D01*
G01X6331458Y8515096D01*
G01X6331458Y8546084D02*
G01X6331458Y8502650D01*
G01X6301232Y8567674D02*
G01X6301232Y8502650D01*
G01X6301232Y8567674D02*
G01X6261100Y8567674D01*
G01X6301232Y8536686D02*
G01X6276594Y8536686D01*
G01X632460Y5872988D02*
G01X626364Y5876290D01*
G01X616966Y5885434D01*
G01X616966Y5820410D01*
G01X586740Y5885434D02*
G01X586740Y5820410D01*
G01X556006Y5863844D02*
G01X586740Y5832856D01*
G01X574548Y5845302D02*
G01X552704Y5820410D01*
G01X631952Y4818634D02*
G01X662940Y4775454D01*
G01X616458Y4775454D01*
G01X631952Y4818634D02*
G01X631952Y4753610D01*
G01X543052Y4818634D02*
G01X574040Y4753610D01*
G01X586232Y4818634D02*
G01X543052Y4818634D01*
G01X494284Y4818634D02*
G01X503682Y4815586D01*
G01X509778Y4806188D01*
G01X512826Y4790948D01*
G01X512826Y4781550D01*
G01X509778Y4766056D01*
G01X503682Y4756658D01*
G01X494284Y4753610D01*
G01X488188Y4753610D01*
G01X478790Y4756658D01*
G01X472694Y4766056D01*
G01X469646Y4781550D01*
G01X469646Y4790948D01*
G01X472694Y4806188D01*
G01X478790Y4815586D01*
G01X488188Y4818634D01*
G01X494284Y4818634D01*
G01X692912Y3812794D02*
G01X723900Y3769614D01*
G01X677418Y3769614D01*
G01X692912Y3812794D02*
G01X692912Y3747770D01*
G01X604012Y3812794D02*
G01X635000Y3747770D01*
G01X647192Y3812794D02*
G01X604012Y3812794D01*
G01X555244Y3812794D02*
G01X564642Y3809746D01*
G01X570738Y3800348D01*
G01X573786Y3785108D01*
G01X573786Y3775710D01*
G01X570738Y3760216D01*
G01X564642Y3750818D01*
G01X555244Y3747770D01*
G01X549148Y3747770D01*
G01X539750Y3750818D01*
G01X533654Y3760216D01*
G01X530606Y3775710D01*
G01X530606Y3785108D01*
G01X533654Y3800348D01*
G01X539750Y3809746D01*
G01X549148Y3812794D01*
G01X555244Y3812794D01*
G01X4368038Y8793734D02*
G01X4377182Y8790686D01*
G01X4383532Y8781288D01*
G01X4386580Y8766048D01*
G01X4386580Y8756650D01*
G01X4383532Y8741156D01*
G01X4377182Y8731758D01*
G01X4368038Y8728710D01*
G01X4361688Y8728710D01*
G01X4352544Y8731758D01*
G01X4346448Y8741156D01*
G01X4343146Y8756650D01*
G01X4343146Y8766048D01*
G01X4346448Y8781288D01*
G01X4352544Y8790686D01*
G01X4361688Y8793734D01*
G01X4368038Y8793734D01*
G01X4309872Y8744204D02*
G01X4312920Y8741156D01*
G01X4309872Y8738108D01*
G01X4306824Y8741156D01*
G01X4309872Y8744204D01*
G01X4276598Y8781288D02*
G01X4270502Y8784590D01*
G01X4261358Y8793734D01*
G01X4261358Y8728710D01*
G01X4231132Y8772144D02*
G01X4231132Y8741156D01*
G01X4228084Y8731758D01*
G01X4221988Y8728710D01*
G01X4212590Y8728710D01*
G01X4206494Y8731758D01*
G01X4197096Y8741156D01*
G01X4197096Y8772144D02*
G01X4197096Y8728710D01*
G01X601980Y2502154D02*
G01X601980Y2437130D01*
G01X601980Y2502154D02*
G01X574040Y2502154D01*
G01X564896Y2499106D01*
G01X561848Y2496058D01*
G01X558546Y2489708D01*
G01X558546Y2483612D01*
G01X561848Y2477516D01*
G01X564896Y2474468D01*
G01X574040Y2471166D01*
G01X601980Y2471166D02*
G01X574040Y2471166D01*
G01X564896Y2468118D01*
G01X561848Y2465070D01*
G01X558546Y2458974D01*
G01X558546Y2449576D01*
G01X561848Y2443480D01*
G01X564896Y2440178D01*
G01X574040Y2437130D01*
G01X601980Y2437130D01*
G01X482092Y2486660D02*
G01X485140Y2493010D01*
G01X491236Y2499106D01*
G01X497586Y2502154D01*
G01X509778Y2502154D01*
G01X516128Y2499106D01*
G01X522224Y2493010D01*
G01X525272Y2486660D01*
G01X528320Y2477516D01*
G01X528320Y2462022D01*
G01X525272Y2452624D01*
G01X522224Y2446528D01*
G01X516128Y2440178D01*
G01X509778Y2437130D01*
G01X497586Y2437130D01*
G01X491236Y2440178D01*
G01X485140Y2446528D01*
G01X482092Y2452624D01*
G01X436626Y2502154D02*
G01X445770Y2499106D01*
G01X448818Y2493010D01*
G01X448818Y2486660D01*
G01X445770Y2480564D01*
G01X439674Y2477516D01*
G01X427228Y2474468D01*
G01X417830Y2471166D01*
G01X411734Y2465070D01*
G01X408686Y2458974D01*
G01X408686Y2449576D01*
G01X411734Y2443480D01*
G01X414782Y2440178D01*
G01X424180Y2437130D01*
G01X436626Y2437130D01*
G01X445770Y2440178D01*
G01X448818Y2443480D01*
G01X451866Y2449576D01*
G01X451866Y2458974D01*
G01X448818Y2465070D01*
G01X442722Y2471166D01*
G01X433324Y2474468D01*
G01X421132Y2477516D01*
G01X414782Y2480564D01*
G01X411734Y2486660D01*
G01X411734Y2493010D01*
G01X414782Y2499106D01*
G01X424180Y2502154D01*
G01X436626Y2502154D01*
G01X378460Y2489708D02*
G01X372364Y2493010D01*
G01X363220Y2502154D01*
G01X363220Y2437130D01*
G01X289814Y2502154D02*
G01X320802Y2437130D01*
G01X332994Y2502154D02*
G01X289814Y2502154D01*
G01X815340Y2885948D02*
G01X809244Y2889250D01*
G01X799846Y2898394D01*
G01X799846Y2833370D01*
G01X769620Y2898394D02*
G01X769620Y2833370D01*
G01X738886Y2876804D02*
G01X769620Y2845816D01*
G01X757428Y2858262D02*
G01X735584Y2833370D01*
G01X537972Y3065780D02*
G01X537972Y3068828D01*
G01X534924Y3075178D01*
G01X531622Y3078226D01*
G01X525526Y3081274D01*
G01X513080Y3081274D01*
G01X506984Y3078226D01*
G01X503936Y3075178D01*
G01X500888Y3068828D01*
G01X500888Y3062732D01*
G01X503936Y3056636D01*
G01X510032Y3047238D01*
G01X541020Y3016250D01*
G01X497586Y3016250D01*
G01X464312Y3065780D02*
G01X464312Y3068828D01*
G01X461264Y3075178D01*
G01X458216Y3078226D01*
G01X452120Y3081274D01*
G01X439674Y3081274D01*
G01X433324Y3078226D01*
G01X430276Y3075178D01*
G01X427228Y3068828D01*
G01X427228Y3062732D01*
G01X430276Y3056636D01*
G01X436626Y3047238D01*
G01X467360Y3016250D01*
G01X424180Y3016250D01*
G01X375412Y3081274D02*
G01X384810Y3078226D01*
G01X390906Y3068828D01*
G01X393954Y3053588D01*
G01X393954Y3044190D01*
G01X390906Y3028696D01*
G01X384810Y3019298D01*
G01X375412Y3016250D01*
G01X369316Y3016250D01*
G01X359918Y3019298D01*
G01X353822Y3028696D01*
G01X350774Y3044190D01*
G01X350774Y3053588D01*
G01X353822Y3068828D01*
G01X359918Y3078226D01*
G01X369316Y3081274D01*
G01X375412Y3081274D01*
G01X1333500Y6860794D02*
G01X1333500Y6795770D01*
G01X1333500Y6860794D02*
G01X1305560Y6860794D01*
G01X1296416Y6857746D01*
G01X1293368Y6854698D01*
G01X1290066Y6848348D01*
G01X1290066Y6842252D01*
G01X1293368Y6836156D01*
G01X1296416Y6833108D01*
G01X1305560Y6829806D01*
G01X1333500Y6829806D02*
G01X1305560Y6829806D01*
G01X1296416Y6826758D01*
G01X1293368Y6823710D01*
G01X1290066Y6817614D01*
G01X1290066Y6808216D01*
G01X1293368Y6802120D01*
G01X1296416Y6798818D01*
G01X1305560Y6795770D01*
G01X1333500Y6795770D01*
G01X1213612Y6845300D02*
G01X1216660Y6851650D01*
G01X1222756Y6857746D01*
G01X1229106Y6860794D01*
G01X1241298Y6860794D01*
G01X1247648Y6857746D01*
G01X1253744Y6851650D01*
G01X1256792Y6845300D01*
G01X1259840Y6836156D01*
G01X1259840Y6820662D01*
G01X1256792Y6811264D01*
G01X1253744Y6805168D01*
G01X1247648Y6798818D01*
G01X1241298Y6795770D01*
G01X1229106Y6795770D01*
G01X1222756Y6798818D01*
G01X1216660Y6805168D01*
G01X1213612Y6811264D01*
G01X1168146Y6860794D02*
G01X1177290Y6857746D01*
G01X1180338Y6851650D01*
G01X1180338Y6845300D01*
G01X1177290Y6839204D01*
G01X1171194Y6836156D01*
G01X1158748Y6833108D01*
G01X1149350Y6829806D01*
G01X1143254Y6823710D01*
G01X1140206Y6817614D01*
G01X1140206Y6808216D01*
G01X1143254Y6802120D01*
G01X1146302Y6798818D01*
G01X1155700Y6795770D01*
G01X1168146Y6795770D01*
G01X1177290Y6798818D01*
G01X1180338Y6802120D01*
G01X1183386Y6808216D01*
G01X1183386Y6817614D01*
G01X1180338Y6823710D01*
G01X1174242Y6829806D01*
G01X1164844Y6833108D01*
G01X1152652Y6836156D01*
G01X1146302Y6839204D01*
G01X1143254Y6845300D01*
G01X1143254Y6851650D01*
G01X1146302Y6857746D01*
G01X1155700Y6860794D01*
G01X1168146Y6860794D01*
G01X1109980Y6848348D02*
G01X1103884Y6851650D01*
G01X1094740Y6860794D01*
G01X1094740Y6795770D01*
G01X1021334Y6860794D02*
G01X1052322Y6795770D01*
G01X1064514Y6860794D02*
G01X1021334Y6860794D01*
G01X1272540Y7275068D02*
G01X1266444Y7278370D01*
G01X1257046Y7287514D01*
G01X1257046Y7222490D01*
G01X1226820Y7287514D02*
G01X1226820Y7222490D01*
G01X1196086Y7265924D02*
G01X1226820Y7234936D01*
G01X1214628Y7247382D02*
G01X1192784Y7222490D01*
G01X416052Y6540500D02*
G01X416052Y6543548D01*
G01X413004Y6549898D01*
G01X409702Y6552946D01*
G01X403606Y6555994D01*
G01X391160Y6555994D01*
G01X385064Y6552946D01*
G01X382016Y6549898D01*
G01X378968Y6543548D01*
G01X378968Y6537452D01*
G01X382016Y6531356D01*
G01X388112Y6521958D01*
G01X419100Y6490970D01*
G01X375666Y6490970D01*
G01X342392Y6540500D02*
G01X342392Y6543548D01*
G01X339344Y6549898D01*
G01X336296Y6552946D01*
G01X330200Y6555994D01*
G01X317754Y6555994D01*
G01X311404Y6552946D01*
G01X308356Y6549898D01*
G01X305308Y6543548D01*
G01X305308Y6537452D01*
G01X308356Y6531356D01*
G01X314706Y6521958D01*
G01X345440Y6490970D01*
G01X302260Y6490970D01*
G01X253492Y6555994D02*
G01X262890Y6552946D01*
G01X268986Y6543548D01*
G01X272034Y6528308D01*
G01X272034Y6518910D01*
G01X268986Y6503416D01*
G01X262890Y6494018D01*
G01X253492Y6490970D01*
G01X247396Y6490970D01*
G01X237998Y6494018D01*
G01X231902Y6503416D01*
G01X228854Y6518910D01*
G01X228854Y6528308D01*
G01X231902Y6543548D01*
G01X237998Y6552946D01*
G01X247396Y6555994D01*
G01X253492Y6555994D01*
G01X10386060Y4958588D02*
G01X10379964Y4961890D01*
G01X10370566Y4971034D01*
G01X10370566Y4906010D01*
G01X10321798Y4971034D02*
G01X10331196Y4967986D01*
G01X10337292Y4958588D01*
G01X10340340Y4943348D01*
G01X10340340Y4933950D01*
G01X10337292Y4918456D01*
G01X10331196Y4909058D01*
G01X10321798Y4906010D01*
G01X10315702Y4906010D01*
G01X10306304Y4909058D01*
G01X10300208Y4918456D01*
G01X10297160Y4933950D01*
G01X10297160Y4943348D01*
G01X10300208Y4958588D01*
G01X10306304Y4967986D01*
G01X10315702Y4971034D01*
G01X10321798Y4971034D01*
G01X10266934Y4971034D02*
G01X10266934Y4906010D01*
G01X10236200Y4949444D02*
G01X10266934Y4918456D01*
G01X10254742Y4930902D02*
G01X10232898Y4906010D01*
G01X11330940Y3708908D02*
G01X11324844Y3712210D01*
G01X11315446Y3721354D01*
G01X11315446Y3656330D01*
G01X11285220Y3721354D02*
G01X11285220Y3656330D01*
G01X11254486Y3699764D02*
G01X11285220Y3668776D01*
G01X11273028Y3681222D02*
G01X11251184Y3656330D01*
G01X10843260Y3952748D02*
G01X10837164Y3956050D01*
G01X10827766Y3965194D01*
G01X10827766Y3900170D01*
G01X10797540Y3965194D02*
G01X10797540Y3900170D01*
G01X10766806Y3943604D02*
G01X10797540Y3912616D01*
G01X10785348Y3925062D02*
G01X10763504Y3900170D01*
G01X10568940Y4440428D02*
G01X10562844Y4443730D01*
G01X10553446Y4452874D01*
G01X10553446Y4387850D01*
G01X10523220Y4452874D02*
G01X10523220Y4387850D01*
G01X10492486Y4431284D02*
G01X10523220Y4400296D01*
G01X10511028Y4412742D02*
G01X10489184Y4387850D01*
G01X11497809Y4837439D02*
G01X11501111Y4843535D01*
G01X11510255Y4852933D01*
G01X11445231Y4852933D01*
G01X11510255Y4883159D02*
G01X11445231Y4883159D01*
G01X11488665Y4913893D02*
G01X11457677Y4883159D01*
G01X11470123Y4895351D02*
G01X11445231Y4917195D01*
G01X11666220Y5385308D02*
G01X11660124Y5388610D01*
G01X11650726Y5397754D01*
G01X11650726Y5332730D01*
G01X11583416Y5397754D02*
G01X11614404Y5397754D01*
G01X11617452Y5370068D01*
G01X11614404Y5373116D01*
G01X11605260Y5376164D01*
G01X11595862Y5376164D01*
G01X11586464Y5373116D01*
G01X11580368Y5366766D01*
G01X11577320Y5357622D01*
G01X11577320Y5351272D01*
G01X11580368Y5342128D01*
G01X11586464Y5335778D01*
G01X11595862Y5332730D01*
G01X11605260Y5332730D01*
G01X11614404Y5335778D01*
G01X11617452Y5339080D01*
G01X11620500Y5345176D01*
G01X11547094Y5397754D02*
G01X11547094Y5332730D01*
G01X11516360Y5376164D02*
G01X11547094Y5345176D01*
G01X11534902Y5357622D02*
G01X11513058Y5332730D01*
G01X10367518Y4727194D02*
G01X10376662Y4724146D01*
G01X10383012Y4714748D01*
G01X10386060Y4699508D01*
G01X10386060Y4690110D01*
G01X10383012Y4674616D01*
G01X10376662Y4665218D01*
G01X10367518Y4662170D01*
G01X10361168Y4662170D01*
G01X10352024Y4665218D01*
G01X10345928Y4674616D01*
G01X10342626Y4690110D01*
G01X10342626Y4699508D01*
G01X10345928Y4714748D01*
G01X10352024Y4724146D01*
G01X10361168Y4727194D01*
G01X10367518Y4727194D01*
G01X10309352Y4677664D02*
G01X10312400Y4674616D01*
G01X10309352Y4671568D01*
G01X10306304Y4674616D01*
G01X10309352Y4677664D01*
G01X10276078Y4714748D02*
G01X10269982Y4718050D01*
G01X10260838Y4727194D01*
G01X10260838Y4662170D01*
G01X10230612Y4705604D02*
G01X10230612Y4674616D01*
G01X10227564Y4665218D01*
G01X10221468Y4662170D01*
G01X10212070Y4662170D01*
G01X10205974Y4665218D01*
G01X10196576Y4674616D01*
G01X10196576Y4705604D02*
G01X10196576Y4662170D01*
G01X11757660Y4513834D02*
G01X11757660Y4448810D01*
G01X11757660Y4448810D02*
G01X11720576Y4448810D01*
G01X11690350Y4513834D02*
G01X11690350Y4448810D01*
G01X11690350Y4513834D02*
G01X11665712Y4448810D01*
G01X11640820Y4513834D02*
G01X11665712Y4448810D01*
G01X11640820Y4513834D02*
G01X11640820Y4448810D01*
G01X11604498Y4513834D02*
G01X11570462Y4513834D01*
G01X11589004Y4489196D01*
G01X11579860Y4489196D01*
G01X11573510Y4486148D01*
G01X11570462Y4482846D01*
G01X11567414Y4473702D01*
G01X11567414Y4467352D01*
G01X11570462Y4458208D01*
G01X11576558Y4451858D01*
G01X11585956Y4448810D01*
G01X11595354Y4448810D01*
G01X11604498Y4451858D01*
G01X11607546Y4455160D01*
G01X11610594Y4461256D01*
G01X11531092Y4513834D02*
G01X11497056Y4513834D01*
G01X11515598Y4489196D01*
G01X11506454Y4489196D01*
G01X11500104Y4486148D01*
G01X11497056Y4482846D01*
G01X11494008Y4473702D01*
G01X11494008Y4467352D01*
G01X11497056Y4458208D01*
G01X11503152Y4451858D01*
G01X11512550Y4448810D01*
G01X11521948Y4448810D01*
G01X11531092Y4451858D01*
G01X11534140Y4455160D01*
G01X11537188Y4461256D01*
G01X11423650Y4492244D02*
G01X11426698Y4482846D01*
G01X11433048Y4476750D01*
G01X11442192Y4473702D01*
G01X11445240Y4473702D01*
G01X11454638Y4476750D01*
G01X11460734Y4482846D01*
G01X11463782Y4492244D01*
G01X11463782Y4495292D01*
G01X11460734Y4504690D01*
G01X11454638Y4510786D01*
G01X11445240Y4513834D01*
G01X11442192Y4513834D01*
G01X11433048Y4510786D01*
G01X11426698Y4504690D01*
G01X11423650Y4492244D01*
G01X11423650Y4476750D01*
G01X11426698Y4461256D01*
G01X11433048Y4451858D01*
G01X11442192Y4448810D01*
G01X11448542Y4448810D01*
G01X11457686Y4451858D01*
G01X11460734Y4458208D01*
G01X2763012Y8491220D02*
G01X2763012Y8494268D01*
G01X2759964Y8500618D01*
G01X2756662Y8503666D01*
G01X2750566Y8506714D01*
G01X2738120Y8506714D01*
G01X2732024Y8503666D01*
G01X2728976Y8500618D01*
G01X2725928Y8494268D01*
G01X2725928Y8488172D01*
G01X2728976Y8482076D01*
G01X2735072Y8472678D01*
G01X2766060Y8441690D01*
G01X2722626Y8441690D01*
G01X2692400Y8506714D02*
G01X2692400Y8441690D01*
G01X2661666Y8485124D02*
G01X2692400Y8454136D01*
G01X2680208Y8466582D02*
G01X2658364Y8441690D01*
G01X2704592Y1567434D02*
G01X2735580Y1524254D01*
G01X2689098Y1524254D01*
G01X2704592Y1567434D02*
G01X2704592Y1502410D01*
G01X2615692Y1567434D02*
G01X2646680Y1502410D01*
G01X2658872Y1567434D02*
G01X2615692Y1567434D01*
G01X2566924Y1567434D02*
G01X2576322Y1564386D01*
G01X2582418Y1554988D01*
G01X2585466Y1539748D01*
G01X2585466Y1530350D01*
G01X2582418Y1514856D01*
G01X2576322Y1505458D01*
G01X2566924Y1502410D01*
G01X2560828Y1502410D01*
G01X2551430Y1505458D01*
G01X2545334Y1514856D01*
G01X2542286Y1530350D01*
G01X2542286Y1539748D01*
G01X2545334Y1554988D01*
G01X2551430Y1564386D01*
G01X2560828Y1567434D01*
G01X2566924Y1567434D01*
G01X6435598Y4605274D02*
G01X6444742Y4602226D01*
G01X6451092Y4592828D01*
G01X6454140Y4577588D01*
G01X6454140Y4568190D01*
G01X6451092Y4552696D01*
G01X6444742Y4543298D01*
G01X6435598Y4540250D01*
G01X6429248Y4540250D01*
G01X6420104Y4543298D01*
G01X6414008Y4552696D01*
G01X6410706Y4568190D01*
G01X6410706Y4577588D01*
G01X6414008Y4592828D01*
G01X6420104Y4602226D01*
G01X6429248Y4605274D01*
G01X6435598Y4605274D01*
G01X6377432Y4555744D02*
G01X6380480Y4552696D01*
G01X6377432Y4549648D01*
G01X6374384Y4552696D01*
G01X6377432Y4555744D01*
G01X6344158Y4592828D02*
G01X6338062Y4596130D01*
G01X6328918Y4605274D01*
G01X6328918Y4540250D01*
G01X6298692Y4583684D02*
G01X6298692Y4552696D01*
G01X6295644Y4543298D01*
G01X6289548Y4540250D01*
G01X6280150Y4540250D01*
G01X6274054Y4543298D01*
G01X6264656Y4552696D01*
G01X6264656Y4583684D02*
G01X6264656Y4540250D01*
G01X8203438Y7531354D02*
G01X8212582Y7528306D01*
G01X8218932Y7518908D01*
G01X8221980Y7503668D01*
G01X8221980Y7494270D01*
G01X8218932Y7478776D01*
G01X8212582Y7469378D01*
G01X8203438Y7466330D01*
G01X8197088Y7466330D01*
G01X8187944Y7469378D01*
G01X8181848Y7478776D01*
G01X8178546Y7494270D01*
G01X8178546Y7503668D01*
G01X8181848Y7518908D01*
G01X8187944Y7528306D01*
G01X8197088Y7531354D01*
G01X8203438Y7531354D01*
G01X8145272Y7481824D02*
G01X8148320Y7478776D01*
G01X8145272Y7475728D01*
G01X8142224Y7478776D01*
G01X8145272Y7481824D01*
G01X8111998Y7518908D02*
G01X8105902Y7522210D01*
G01X8096758Y7531354D01*
G01X8096758Y7466330D01*
G01X8066532Y7509764D02*
G01X8066532Y7478776D01*
G01X8063484Y7469378D01*
G01X8057388Y7466330D01*
G01X8047990Y7466330D01*
G01X8041894Y7469378D01*
G01X8032496Y7478776D01*
G01X8032496Y7509764D02*
G01X8032496Y7466330D01*
G01X8233918Y1313434D02*
G01X8243062Y1310386D01*
G01X8249412Y1300988D01*
G01X8252460Y1285748D01*
G01X8252460Y1276350D01*
G01X8249412Y1260856D01*
G01X8243062Y1251458D01*
G01X8233918Y1248410D01*
G01X8227568Y1248410D01*
G01X8218424Y1251458D01*
G01X8212328Y1260856D01*
G01X8209026Y1276350D01*
G01X8209026Y1285748D01*
G01X8212328Y1300988D01*
G01X8218424Y1310386D01*
G01X8227568Y1313434D01*
G01X8233918Y1313434D01*
G01X8175752Y1263904D02*
G01X8178800Y1260856D01*
G01X8175752Y1257808D01*
G01X8172704Y1260856D01*
G01X8175752Y1263904D01*
G01X8142478Y1300988D02*
G01X8136382Y1304290D01*
G01X8127238Y1313434D01*
G01X8127238Y1248410D01*
G01X8097012Y1291844D02*
G01X8097012Y1260856D01*
G01X8093964Y1251458D01*
G01X8087868Y1248410D01*
G01X8078470Y1248410D01*
G01X8072374Y1251458D01*
G01X8062976Y1260856D01*
G01X8062976Y1291844D02*
G01X8062976Y1248410D01*
G01X7033260Y8555228D02*
G01X7027164Y8558530D01*
G01X7017766Y8567674D01*
G01X7017766Y8502650D01*
G01X6968998Y8567674D02*
G01X6978396Y8564626D01*
G01X6984492Y8555228D01*
G01X6987540Y8539988D01*
G01X6987540Y8530590D01*
G01X6984492Y8515096D01*
G01X6978396Y8505698D01*
G01X6968998Y8502650D01*
G01X6962902Y8502650D01*
G01X6953504Y8505698D01*
G01X6947408Y8515096D01*
G01X6944360Y8530590D01*
G01X6944360Y8539988D01*
G01X6947408Y8555228D01*
G01X6953504Y8564626D01*
G01X6962902Y8567674D01*
G01X6968998Y8567674D01*
G01X6914134Y8546084D02*
G01X6914134Y8515096D01*
G01X6911086Y8505698D01*
G01X6904990Y8502650D01*
G01X6895592Y8502650D01*
G01X6889496Y8505698D01*
G01X6880098Y8515096D01*
G01X6880098Y8546084D02*
G01X6880098Y8502650D01*
G01X6849872Y8567674D02*
G01X6849872Y8502650D01*
G01X6849872Y8567674D02*
G01X6809740Y8567674D01*
G01X6849872Y8536686D02*
G01X6825234Y8536686D01*
G01X12552680Y1884934D02*
G01X12552680Y1838452D01*
G01X12549632Y1829308D01*
G01X12543282Y1822958D01*
G01X12534138Y1819910D01*
G01X12527788Y1819910D01*
G01X12518644Y1822958D01*
G01X12512548Y1829308D01*
G01X12509246Y1838452D01*
G01X12509246Y1884934D01*
G01X12454382Y1884934D02*
G01X12479020Y1819910D01*
G01X12454382Y1884934D02*
G01X12429490Y1819910D01*
G01X12469876Y1841754D02*
G01X12438888Y1841754D01*
G01X12399264Y1884934D02*
G01X12399264Y1819910D01*
G01X12399264Y1884934D02*
G01X12371578Y1884934D01*
G01X12362180Y1881886D01*
G01X12359132Y1878838D01*
G01X12356084Y1872488D01*
G01X12356084Y1866392D01*
G01X12359132Y1860296D01*
G01X12362180Y1857248D01*
G01X12371578Y1853946D01*
G01X12399264Y1853946D01*
G01X12377674Y1853946D02*
G01X12356084Y1819910D01*
G01X12304268Y1884934D02*
G01X12304268Y1819910D01*
G01X12325858Y1884934D02*
G01X12282678Y1884934D01*
G01X12249404Y1869440D02*
G01X12249404Y1872488D01*
G01X12246356Y1878838D01*
G01X12243308Y1881886D01*
G01X12237212Y1884934D01*
G01X12224766Y1884934D01*
G01X12218416Y1881886D01*
G01X12215368Y1878838D01*
G01X12212320Y1872488D01*
G01X12212320Y1866392D01*
G01X12215368Y1860296D01*
G01X12221718Y1850898D01*
G01X12252452Y1819910D01*
G01X12209272Y1819910D01*
G01X12458700Y3526028D02*
G01X12452604Y3529330D01*
G01X12443206Y3538474D01*
G01X12443206Y3473450D01*
G01X12412980Y3538474D02*
G01X12412980Y3473450D01*
G01X12382246Y3516884D02*
G01X12412980Y3485896D01*
G01X12400788Y3498342D02*
G01X12378944Y3473450D01*
G01X12763500Y3526028D02*
G01X12757404Y3529330D01*
G01X12748006Y3538474D01*
G01X12748006Y3473450D01*
G01X12717780Y3538474D02*
G01X12717780Y3473450D01*
G01X12687046Y3516884D02*
G01X12717780Y3485896D01*
G01X12705588Y3498342D02*
G01X12683744Y3473450D01*
G01X479144Y226160D02*
G01X414120Y226160D01*
G01X479144Y204570D02*
G01X479144Y248004D01*
G01X479144Y278230D02*
G01X414120Y278230D01*
G01X479144Y278230D02*
G01X479144Y318362D01*
G01X448156Y278230D02*
G01X448156Y302868D01*
G01X414120Y278230D02*
G01X414120Y318362D01*
G01X479144Y348588D02*
G01X414120Y348588D01*
G01X479144Y348588D02*
G01X479144Y388720D01*
G01X448156Y348588D02*
G01X448156Y373226D01*
G01X479144Y440536D02*
G01X414120Y440536D01*
G01X479144Y418946D02*
G01X479144Y462126D01*
G01X479144Y523086D02*
G01X435964Y492352D01*
G01X435964Y538580D01*
G01X479144Y523086D02*
G01X414120Y523086D01*
G01X479144Y574902D02*
G01X479144Y608938D01*
G01X454506Y590396D01*
G01X454506Y599540D01*
G01X451458Y605890D01*
G01X448156Y608938D01*
G01X439012Y611986D01*
G01X432662Y611986D01*
G01X423518Y608938D01*
G01X417168Y602842D01*
G01X414120Y593444D01*
G01X414120Y584046D01*
G01X417168Y574902D01*
G01X420470Y571854D01*
G01X426566Y568806D01*
G01X479144Y660754D02*
G01X476096Y651356D01*
G01X466698Y645260D01*
G01X451458Y642212D01*
G01X442060Y642212D01*
G01X426566Y645260D01*
G01X417168Y651356D01*
G01X414120Y660754D01*
G01X414120Y666850D01*
G01X417168Y676248D01*
G01X426566Y682344D01*
G01X442060Y685392D01*
G01X451458Y685392D01*
G01X466698Y682344D01*
G01X476096Y676248D01*
G01X479144Y666850D01*
G01X479144Y660754D01*
G01X479144Y734160D02*
G01X476096Y724762D01*
G01X466698Y718666D01*
G01X451458Y715618D01*
G01X442060Y715618D01*
G01X426566Y718666D01*
G01X417168Y724762D01*
G01X414120Y734160D01*
G01X414120Y740256D01*
G01X417168Y749654D01*
G01X426566Y755750D01*
G01X442060Y758798D01*
G01X451458Y758798D01*
G01X466698Y755750D01*
G01X476096Y749654D01*
G01X479144Y740256D01*
G01X479144Y734160D01*
G01X1443990Y279654D02*
G01X1450086Y273304D01*
G01X1453134Y264160D01*
G01X1453134Y251714D01*
G01X1450086Y242316D01*
G01X1443990Y236220D01*
G01X1437640Y236220D01*
G01X1431544Y239268D01*
G01X1428496Y242316D01*
G01X1425448Y248666D01*
G01X1419098Y267208D01*
G01X1416050Y273304D01*
G01X1413002Y276352D01*
G01X1406652Y279654D01*
G01X1397508Y279654D01*
G01X1391158Y273304D01*
G01X1388110Y264160D01*
G01X1388110Y251714D01*
G01X1391158Y242316D01*
G01X1397508Y236220D01*
G01X1453134Y309880D02*
G01X1388110Y309880D01*
G01X1453134Y309880D02*
G01X1453134Y350012D01*
G01X1422146Y309880D02*
G01X1422146Y334518D01*
G01X1453134Y380238D02*
G01X1388110Y380238D01*
G01X1453134Y423418D02*
G01X1388110Y423418D01*
G01X1422146Y380238D02*
G01X1422146Y423418D01*
G01X1453134Y484378D02*
G01X1409954Y453644D01*
G01X1409954Y499872D01*
G01X1453134Y484378D02*
G01X1388110Y484378D01*
G01X1453134Y567182D02*
G01X1453134Y536194D01*
G01X1425448Y533146D01*
G01X1428496Y536194D01*
G01X1431544Y545338D01*
G01X1431544Y554736D01*
G01X1428496Y564134D01*
G01X1422146Y570230D01*
G01X1413002Y573278D01*
G01X1406652Y573278D01*
G01X1397508Y570230D01*
G01X1391158Y564134D01*
G01X1388110Y554736D01*
G01X1388110Y545338D01*
G01X1391158Y536194D01*
G01X1394460Y533146D01*
G01X1400556Y530098D01*
G01X1453134Y640588D02*
G01X1453134Y609600D01*
G01X1425448Y606552D01*
G01X1428496Y609600D01*
G01X1431544Y618744D01*
G01X1431544Y628142D01*
G01X1428496Y637540D01*
G01X1422146Y643636D01*
G01X1413002Y646684D01*
G01X1406652Y646684D01*
G01X1397508Y643636D01*
G01X1391158Y637540D01*
G01X1388110Y628142D01*
G01X1388110Y618744D01*
G01X1391158Y609600D01*
G01X1394460Y606552D01*
G01X1400556Y603504D01*
G01X1453134Y695452D02*
G01X1450086Y686054D01*
G01X1440688Y679958D01*
G01X1425448Y676910D01*
G01X1416050Y676910D01*
G01X1400556Y679958D01*
G01X1391158Y686054D01*
G01X1388110Y695452D01*
G01X1388110Y701548D01*
G01X1391158Y710946D01*
G01X1400556Y717042D01*
G01X1416050Y720090D01*
G01X1425448Y720090D01*
G01X1440688Y717042D01*
G01X1450086Y710946D01*
G01X1453134Y701548D01*
G01X1453134Y695452D01*
G01X1040284Y128932D02*
G01X1037236Y119788D01*
G01X1027838Y113438D01*
G01X1012598Y110390D01*
G01X1003200Y110390D01*
G01X987706Y113438D01*
G01X978308Y119788D01*
G01X975260Y128932D01*
G01X975260Y135282D01*
G01X978308Y144426D01*
G01X987706Y150522D01*
G01X1003200Y153824D01*
G01X1012598Y153824D01*
G01X1027838Y150522D01*
G01X1037236Y144426D01*
G01X1040284Y135282D01*
G01X1040284Y128932D01*
G01X990754Y187098D02*
G01X987706Y184050D01*
G01X984658Y187098D01*
G01X987706Y190146D01*
G01X990754Y187098D01*
G01X1027838Y220372D02*
G01X1031140Y226468D01*
G01X1040284Y235612D01*
G01X975260Y235612D01*
G01X1018694Y265838D02*
G01X987706Y265838D01*
G01X978308Y268886D01*
G01X975260Y274982D01*
G01X975260Y284380D01*
G01X978308Y290476D01*
G01X987706Y299874D01*
G01X1018694Y299874D02*
G01X975260Y299874D01*
G01X972820Y451612D02*
G01X978916Y448310D01*
G01X988314Y439166D01*
G01X988314Y504190D01*
G01X1037082Y439166D02*
G01X1027684Y442214D01*
G01X1021588Y451612D01*
G01X1018540Y466852D01*
G01X1018540Y476250D01*
G01X1021588Y491744D01*
G01X1027684Y501142D01*
G01X1037082Y504190D01*
G01X1043178Y504190D01*
G01X1052576Y501142D01*
G01X1058672Y491744D01*
G01X1061720Y476250D01*
G01X1061720Y466852D01*
G01X1058672Y451612D01*
G01X1052576Y442214D01*
G01X1043178Y439166D01*
G01X1037082Y439166D01*
G01X1110488Y439166D02*
G01X1101090Y442214D01*
G01X1094994Y451612D01*
G01X1091946Y466852D01*
G01X1091946Y476250D01*
G01X1094994Y491744D01*
G01X1101090Y501142D01*
G01X1110488Y504190D01*
G01X1116584Y504190D01*
G01X1125982Y501142D01*
G01X1132078Y491744D01*
G01X1135126Y476250D01*
G01X1135126Y466852D01*
G01X1132078Y451612D01*
G01X1125982Y442214D01*
G01X1116584Y439166D01*
G01X1110488Y439166D01*
G01X655320Y858012D02*
G01X661416Y854710D01*
G01X670814Y845566D01*
G01X670814Y910590D01*
G01X719582Y845566D02*
G01X710184Y848614D01*
G01X704088Y858012D01*
G01X701040Y873252D01*
G01X701040Y882650D01*
G01X704088Y898144D01*
G01X710184Y907542D01*
G01X719582Y910590D01*
G01X725678Y910590D01*
G01X735076Y907542D01*
G01X741172Y898144D01*
G01X744220Y882650D01*
G01X744220Y873252D01*
G01X741172Y858012D01*
G01X735076Y848614D01*
G01X725678Y845566D01*
G01X719582Y845566D01*
G01X774446Y845566D02*
G01X774446Y910590D01*
G01X805180Y867156D02*
G01X774446Y898144D01*
G01X786638Y885698D02*
G01X808482Y910590D01*
G01X500634Y8235950D02*
G01X435610Y8235950D01*
G01X500634Y8214360D02*
G01X500634Y8257794D01*
G01X500634Y8288020D02*
G01X435610Y8288020D01*
G01X500634Y8288020D02*
G01X500634Y8328152D01*
G01X469646Y8288020D02*
G01X469646Y8312658D01*
G01X435610Y8288020D02*
G01X435610Y8328152D01*
G01X500634Y8358378D02*
G01X435610Y8358378D01*
G01X500634Y8358378D02*
G01X500634Y8398510D01*
G01X469646Y8358378D02*
G01X469646Y8383016D01*
G01X500634Y8450326D02*
G01X435610Y8450326D01*
G01X500634Y8428736D02*
G01X500634Y8471916D01*
G01X500634Y8532876D02*
G01X457454Y8502142D01*
G01X457454Y8548370D01*
G01X500634Y8532876D02*
G01X435610Y8532876D01*
G01X500634Y8584692D02*
G01X500634Y8618728D01*
G01X475996Y8600186D01*
G01X475996Y8609330D01*
G01X472948Y8615680D01*
G01X469646Y8618728D01*
G01X460502Y8621776D01*
G01X454152Y8621776D01*
G01X445008Y8618728D01*
G01X438658Y8612632D01*
G01X435610Y8603234D01*
G01X435610Y8593836D01*
G01X438658Y8584692D01*
G01X441960Y8581644D01*
G01X448056Y8578596D01*
G01X500634Y8670544D02*
G01X497586Y8661146D01*
G01X488188Y8655050D01*
G01X472948Y8652002D01*
G01X463550Y8652002D01*
G01X448056Y8655050D01*
G01X438658Y8661146D01*
G01X435610Y8670544D01*
G01X435610Y8676640D01*
G01X438658Y8686038D01*
G01X448056Y8692134D01*
G01X463550Y8695182D01*
G01X472948Y8695182D01*
G01X488188Y8692134D01*
G01X497586Y8686038D01*
G01X500634Y8676640D01*
G01X500634Y8670544D01*
G01X500634Y8743950D02*
G01X497586Y8734552D01*
G01X488188Y8728456D01*
G01X472948Y8725408D01*
G01X463550Y8725408D01*
G01X448056Y8728456D01*
G01X438658Y8734552D01*
G01X435610Y8743950D01*
G01X435610Y8750046D01*
G01X438658Y8759444D01*
G01X448056Y8765540D01*
G01X463550Y8768588D01*
G01X472948Y8768588D01*
G01X488188Y8765540D01*
G01X497586Y8759444D01*
G01X500634Y8750046D01*
G01X500634Y8743950D01*
G01X1459230Y8293354D02*
G01X1465326Y8287004D01*
G01X1468374Y8277860D01*
G01X1468374Y8265414D01*
G01X1465326Y8256016D01*
G01X1459230Y8249920D01*
G01X1452880Y8249920D01*
G01X1446784Y8252968D01*
G01X1443736Y8256016D01*
G01X1440688Y8262366D01*
G01X1434338Y8280908D01*
G01X1431290Y8287004D01*
G01X1428242Y8290052D01*
G01X1421892Y8293354D01*
G01X1412748Y8293354D01*
G01X1406398Y8287004D01*
G01X1403350Y8277860D01*
G01X1403350Y8265414D01*
G01X1406398Y8256016D01*
G01X1412748Y8249920D01*
G01X1468374Y8323580D02*
G01X1403350Y8323580D01*
G01X1468374Y8323580D02*
G01X1468374Y8363712D01*
G01X1437386Y8323580D02*
G01X1437386Y8348218D01*
G01X1468374Y8393938D02*
G01X1403350Y8393938D01*
G01X1468374Y8437118D02*
G01X1403350Y8437118D01*
G01X1437386Y8393938D02*
G01X1437386Y8437118D01*
G01X1468374Y8498078D02*
G01X1425194Y8467344D01*
G01X1425194Y8513572D01*
G01X1468374Y8498078D02*
G01X1403350Y8498078D01*
G01X1468374Y8580882D02*
G01X1468374Y8549894D01*
G01X1440688Y8546846D01*
G01X1443736Y8549894D01*
G01X1446784Y8559038D01*
G01X1446784Y8568436D01*
G01X1443736Y8577834D01*
G01X1437386Y8583930D01*
G01X1428242Y8586978D01*
G01X1421892Y8586978D01*
G01X1412748Y8583930D01*
G01X1406398Y8577834D01*
G01X1403350Y8568436D01*
G01X1403350Y8559038D01*
G01X1406398Y8549894D01*
G01X1409700Y8546846D01*
G01X1415796Y8543798D01*
G01X1468374Y8647938D02*
G01X1425194Y8617204D01*
G01X1425194Y8663432D01*
G01X1468374Y8647938D02*
G01X1403350Y8647938D01*
G01X1468374Y8730742D02*
G01X1468374Y8699754D01*
G01X1440688Y8696706D01*
G01X1443736Y8699754D01*
G01X1446784Y8708898D01*
G01X1446784Y8718296D01*
G01X1443736Y8727694D01*
G01X1437386Y8733790D01*
G01X1428242Y8736838D01*
G01X1421892Y8736838D01*
G01X1412748Y8733790D01*
G01X1406398Y8727694D01*
G01X1403350Y8718296D01*
G01X1403350Y8708898D01*
G01X1406398Y8699754D01*
G01X1409700Y8696706D01*
G01X1415796Y8693658D01*
G01X1084834Y8342122D02*
G01X1081786Y8332978D01*
G01X1072388Y8326628D01*
G01X1057148Y8323580D01*
G01X1047750Y8323580D01*
G01X1032256Y8326628D01*
G01X1022858Y8332978D01*
G01X1019810Y8342122D01*
G01X1019810Y8348472D01*
G01X1022858Y8357616D01*
G01X1032256Y8363712D01*
G01X1047750Y8367014D01*
G01X1057148Y8367014D01*
G01X1072388Y8363712D01*
G01X1081786Y8357616D01*
G01X1084834Y8348472D01*
G01X1084834Y8342122D01*
G01X1035304Y8400288D02*
G01X1032256Y8397240D01*
G01X1029208Y8400288D01*
G01X1032256Y8403336D01*
G01X1035304Y8400288D01*
G01X1072388Y8433562D02*
G01X1075690Y8439658D01*
G01X1084834Y8448802D01*
G01X1019810Y8448802D01*
G01X1063244Y8479028D02*
G01X1032256Y8479028D01*
G01X1022858Y8482076D01*
G01X1019810Y8488172D01*
G01X1019810Y8497570D01*
G01X1022858Y8503666D01*
G01X1032256Y8513064D01*
G01X1063244Y8513064D02*
G01X1019810Y8513064D01*
G01X977900Y8594852D02*
G01X983996Y8591550D01*
G01X993394Y8582406D01*
G01X993394Y8647430D01*
G01X1042162Y8582406D02*
G01X1032764Y8585454D01*
G01X1026668Y8594852D01*
G01X1023620Y8610092D01*
G01X1023620Y8619490D01*
G01X1026668Y8634984D01*
G01X1032764Y8644382D01*
G01X1042162Y8647430D01*
G01X1048258Y8647430D01*
G01X1057656Y8644382D01*
G01X1063752Y8634984D01*
G01X1066800Y8619490D01*
G01X1066800Y8610092D01*
G01X1063752Y8594852D01*
G01X1057656Y8585454D01*
G01X1048258Y8582406D01*
G01X1042162Y8582406D01*
G01X1115568Y8582406D02*
G01X1106170Y8585454D01*
G01X1100074Y8594852D01*
G01X1097026Y8610092D01*
G01X1097026Y8619490D01*
G01X1100074Y8634984D01*
G01X1106170Y8644382D01*
G01X1115568Y8647430D01*
G01X1121664Y8647430D01*
G01X1131062Y8644382D01*
G01X1137158Y8634984D01*
G01X1140206Y8619490D01*
G01X1140206Y8610092D01*
G01X1137158Y8594852D01*
G01X1131062Y8585454D01*
G01X1121664Y8582406D01*
G01X1115568Y8582406D01*
G01X869188Y8884920D02*
G01X872490Y8891016D01*
G01X881634Y8900414D01*
G01X816610Y8900414D01*
G01X881634Y8949182D02*
G01X878586Y8939784D01*
G01X869188Y8933688D01*
G01X853948Y8930640D01*
G01X844550Y8930640D01*
G01X829056Y8933688D01*
G01X819658Y8939784D01*
G01X816610Y8949182D01*
G01X816610Y8955278D01*
G01X819658Y8964676D01*
G01X829056Y8970772D01*
G01X844550Y8973820D01*
G01X853948Y8973820D01*
G01X869188Y8970772D01*
G01X878586Y8964676D01*
G01X881634Y8955278D01*
G01X881634Y8949182D01*
G01X881634Y9004046D02*
G01X816610Y9004046D01*
G01X860044Y9034780D02*
G01X829056Y9004046D01*
G01X841502Y9016238D02*
G01X816610Y9038082D01*
G01X11861038Y3965194D02*
G01X11870182Y3962146D01*
G01X11876532Y3952748D01*
G01X11879580Y3937508D01*
G01X11879580Y3928110D01*
G01X11876532Y3912616D01*
G01X11870182Y3903218D01*
G01X11861038Y3900170D01*
G01X11854688Y3900170D01*
G01X11845544Y3903218D01*
G01X11839448Y3912616D01*
G01X11836146Y3928110D01*
G01X11836146Y3937508D01*
G01X11839448Y3952748D01*
G01X11845544Y3962146D01*
G01X11854688Y3965194D01*
G01X11861038Y3965194D01*
G01X11802872Y3915664D02*
G01X11805920Y3912616D01*
G01X11802872Y3909568D01*
G01X11799824Y3912616D01*
G01X11802872Y3915664D01*
G01X11769598Y3952748D02*
G01X11763502Y3956050D01*
G01X11754358Y3965194D01*
G01X11754358Y3900170D01*
G01X11724132Y3943604D02*
G01X11724132Y3912616D01*
G01X11721084Y3903218D01*
G01X11714988Y3900170D01*
G01X11705590Y3900170D01*
G01X11699494Y3903218D01*
G01X11690096Y3912616D01*
G01X11690096Y3943604D02*
G01X11690096Y3900170D01*
G01X5905500Y5050028D02*
G01X5899404Y5053330D01*
G01X5890006Y5062474D01*
G01X5890006Y4997450D01*
G01X5841238Y5062474D02*
G01X5850636Y5059426D01*
G01X5856732Y5050028D01*
G01X5859780Y5034788D01*
G01X5859780Y5025390D01*
G01X5856732Y5009896D01*
G01X5850636Y5000498D01*
G01X5841238Y4997450D01*
G01X5835142Y4997450D01*
G01X5825744Y5000498D01*
G01X5819648Y5009896D01*
G01X5816600Y5025390D01*
G01X5816600Y5034788D01*
G01X5819648Y5050028D01*
G01X5825744Y5059426D01*
G01X5835142Y5062474D01*
G01X5841238Y5062474D01*
G01X5786374Y5062474D02*
G01X5786374Y4997450D01*
G01X5755640Y5040884D02*
G01X5786374Y5009896D01*
G01X5774182Y5022342D02*
G01X5752338Y4997450D01*
G01X11782044Y3507994D02*
G01X11748008Y3507994D01*
G01X11766550Y3483356D01*
G01X11757152Y3483356D01*
G01X11751056Y3480308D01*
G01X11748008Y3477006D01*
G01X11744706Y3467862D01*
G01X11744706Y3461512D01*
G01X11748008Y3452368D01*
G01X11754104Y3446018D01*
G01X11763248Y3442970D01*
G01X11772646Y3442970D01*
G01X11782044Y3446018D01*
G01X11785092Y3449320D01*
G01X11788140Y3455416D01*
G01X11695938Y3507994D02*
G01X11705336Y3504946D01*
G01X11711432Y3495548D01*
G01X11714480Y3480308D01*
G01X11714480Y3470910D01*
G01X11711432Y3455416D01*
G01X11705336Y3446018D01*
G01X11695938Y3442970D01*
G01X11689842Y3442970D01*
G01X11680444Y3446018D01*
G01X11674348Y3455416D01*
G01X11671300Y3470910D01*
G01X11671300Y3480308D01*
G01X11674348Y3495548D01*
G01X11680444Y3504946D01*
G01X11689842Y3507994D01*
G01X11695938Y3507994D01*
G01X10507980Y3861308D02*
G01X10501884Y3864610D01*
G01X10492486Y3873754D01*
G01X10492486Y3808730D01*
G01X10462260Y3852164D02*
G01X10462260Y3821176D01*
G01X10459212Y3811778D01*
G01X10453116Y3808730D01*
G01X10443718Y3808730D01*
G01X10437622Y3811778D01*
G01X10428224Y3821176D01*
G01X10428224Y3852164D02*
G01X10428224Y3808730D01*
G01X10690860Y3416554D02*
G01X10690860Y3351530D01*
G01X10690860Y3416554D02*
G01X10662920Y3416554D01*
G01X10653776Y3413506D01*
G01X10650728Y3410458D01*
G01X10647426Y3404108D01*
G01X10647426Y3398012D01*
G01X10650728Y3391916D01*
G01X10653776Y3388868D01*
G01X10662920Y3385566D01*
G01X10690860Y3385566D02*
G01X10662920Y3385566D01*
G01X10653776Y3382518D01*
G01X10650728Y3379470D01*
G01X10647426Y3373374D01*
G01X10647426Y3363976D01*
G01X10650728Y3357880D01*
G01X10653776Y3354578D01*
G01X10662920Y3351530D01*
G01X10690860Y3351530D01*
G01X10574020Y3416554D02*
G01X10617200Y3351530D01*
G01X10617200Y3416554D02*
G01X10574020Y3416554D01*
G01X10617200Y3351530D02*
G01X10574020Y3351530D01*
G01X10543794Y3416554D02*
G01X10500614Y3351530D01*
G01X10500614Y3416554D02*
G01X10543794Y3351530D01*
G01X10455148Y3416554D02*
G01X10464292Y3413506D01*
G01X10467340Y3407410D01*
G01X10467340Y3401060D01*
G01X10464292Y3394964D01*
G01X10458196Y3391916D01*
G01X10445750Y3388868D01*
G01X10436352Y3385566D01*
G01X10430256Y3379470D01*
G01X10427208Y3373374D01*
G01X10427208Y3363976D01*
G01X10430256Y3357880D01*
G01X10433304Y3354578D01*
G01X10442702Y3351530D01*
G01X10455148Y3351530D01*
G01X10464292Y3354578D01*
G01X10467340Y3357880D01*
G01X10470388Y3363976D01*
G01X10470388Y3373374D01*
G01X10467340Y3379470D01*
G01X10461244Y3385566D01*
G01X10451846Y3388868D01*
G01X10439654Y3391916D01*
G01X10433304Y3394964D01*
G01X10430256Y3401060D01*
G01X10430256Y3407410D01*
G01X10433304Y3413506D01*
G01X10442702Y3416554D01*
G01X10455148Y3416554D01*
G01X10366248Y3416554D02*
G01X10396982Y3373374D01*
G01X10350754Y3373374D01*
G01X10366248Y3416554D02*
G01X10366248Y3351530D01*
G01X10320528Y3379470D02*
G01X10264902Y3379470D01*
G01X10188448Y3401060D02*
G01X10191496Y3407410D01*
G01X10197592Y3413506D01*
G01X10203942Y3416554D01*
G01X10216134Y3416554D01*
G01X10222484Y3413506D01*
G01X10228580Y3407410D01*
G01X10231628Y3401060D01*
G01X10234676Y3391916D01*
G01X10234676Y3376422D01*
G01X10231628Y3367024D01*
G01X10228580Y3360928D01*
G01X10222484Y3354578D01*
G01X10216134Y3351530D01*
G01X10203942Y3351530D01*
G01X10197592Y3354578D01*
G01X10191496Y3360928D01*
G01X10188448Y3367024D01*
G01X10127488Y3416554D02*
G01X10158222Y3373374D01*
G01X10111994Y3373374D01*
G01X10127488Y3416554D02*
G01X10127488Y3351530D01*
G01X10081768Y3416554D02*
G01X10057130Y3351530D01*
G01X10032238Y3416554D02*
G01X10057130Y3351530D01*
G01X9995916Y3416554D02*
G01X9961880Y3416554D01*
G01X9980422Y3391916D01*
G01X9971278Y3391916D01*
G01X9964928Y3388868D01*
G01X9961880Y3385566D01*
G01X9958832Y3376422D01*
G01X9958832Y3370072D01*
G01X9961880Y3360928D01*
G01X9967976Y3354578D01*
G01X9977374Y3351530D01*
G01X9986772Y3351530D01*
G01X9995916Y3354578D01*
G01X9998964Y3357880D01*
G01X10002012Y3363976D01*
G01X11587480Y6495034D02*
G01X11587480Y6430010D01*
G01X11587480Y6495034D02*
G01X11562588Y6430010D01*
G01X11537950Y6495034D02*
G01X11562588Y6430010D01*
G01X11537950Y6495034D02*
G01X11537950Y6430010D01*
G01X11507724Y6495034D02*
G01X11507724Y6430010D01*
G01X11507724Y6495034D02*
G01X11480038Y6495034D01*
G01X11470640Y6491986D01*
G01X11467592Y6488938D01*
G01X11464544Y6482588D01*
G01X11464544Y6473444D01*
G01X11467592Y6467348D01*
G01X11470640Y6464046D01*
G01X11480038Y6460998D01*
G01X11507724Y6460998D01*
G01X11431270Y6479540D02*
G01X11431270Y6482588D01*
G01X11428222Y6488938D01*
G01X11425174Y6491986D01*
G01X11419078Y6495034D01*
G01X11406632Y6495034D01*
G01X11400282Y6491986D01*
G01X11397234Y6488938D01*
G01X11394186Y6482588D01*
G01X11394186Y6476492D01*
G01X11397234Y6470396D01*
G01X11403584Y6460998D01*
G01X11434318Y6430010D01*
G01X11391138Y6430010D01*
G01X11354816Y6495034D02*
G01X11320780Y6495034D01*
G01X11339322Y6470396D01*
G01X11330178Y6470396D01*
G01X11323828Y6467348D01*
G01X11320780Y6464046D01*
G01X11317732Y6454902D01*
G01X11317732Y6448552D01*
G01X11320780Y6439408D01*
G01X11326876Y6433058D01*
G01X11336274Y6430010D01*
G01X11345672Y6430010D01*
G01X11354816Y6433058D01*
G01X11357864Y6436360D01*
G01X11360912Y6442456D01*
G01X11268964Y6495034D02*
G01X11278362Y6491986D01*
G01X11284458Y6482588D01*
G01X11287506Y6467348D01*
G01X11287506Y6457950D01*
G01X11284458Y6442456D01*
G01X11278362Y6433058D01*
G01X11268964Y6430010D01*
G01X11262868Y6430010D01*
G01X11253470Y6433058D01*
G01X11247374Y6442456D01*
G01X11244326Y6457950D01*
G01X11244326Y6467348D01*
G01X11247374Y6482588D01*
G01X11253470Y6491986D01*
G01X11262868Y6495034D01*
G01X11268964Y6495034D01*
G01X11170920Y6495034D02*
G01X11201908Y6430010D01*
G01X11214100Y6495034D02*
G01X11170920Y6495034D01*
G01X12438380Y6637528D02*
G01X12432284Y6640830D01*
G01X12422886Y6649974D01*
G01X12422886Y6584950D01*
G01X12374118Y6649974D02*
G01X12383516Y6646926D01*
G01X12389612Y6637528D01*
G01X12392660Y6622288D01*
G01X12392660Y6612890D01*
G01X12389612Y6597396D01*
G01X12383516Y6587998D01*
G01X12374118Y6584950D01*
G01X12368022Y6584950D01*
G01X12358624Y6587998D01*
G01X12352528Y6597396D01*
G01X12349480Y6612890D01*
G01X12349480Y6622288D01*
G01X12352528Y6637528D01*
G01X12358624Y6646926D01*
G01X12368022Y6649974D01*
G01X12374118Y6649974D01*
G01X12319254Y6628384D02*
G01X12319254Y6597396D01*
G01X12316206Y6587998D01*
G01X12310110Y6584950D01*
G01X12300712Y6584950D01*
G01X12294616Y6587998D01*
G01X12285218Y6597396D01*
G01X12285218Y6628384D02*
G01X12285218Y6584950D01*
G01X12254992Y6649974D02*
G01X12254992Y6584950D01*
G01X12211812Y6649974D02*
G01X12211812Y6584950D01*
G01X12254992Y6618986D02*
G01X12211812Y6618986D01*
G01X12209780Y7015988D02*
G01X12203684Y7019290D01*
G01X12194286Y7028434D01*
G01X12194286Y6963410D01*
G01X12145518Y7028434D02*
G01X12154916Y7025386D01*
G01X12161012Y7015988D01*
G01X12164060Y7000748D01*
G01X12164060Y6991350D01*
G01X12161012Y6975856D01*
G01X12154916Y6966458D01*
G01X12145518Y6963410D01*
G01X12139422Y6963410D01*
G01X12130024Y6966458D01*
G01X12123928Y6975856D01*
G01X12120880Y6991350D01*
G01X12120880Y7000748D01*
G01X12123928Y7015988D01*
G01X12130024Y7025386D01*
G01X12139422Y7028434D01*
G01X12145518Y7028434D01*
G01X12090654Y7006844D02*
G01X12090654Y6963410D01*
G01X12090654Y6994398D02*
G01X12081510Y7003796D01*
G01X12075414Y7006844D01*
G01X12066016Y7006844D01*
G01X12059920Y7003796D01*
G01X12056618Y6994398D01*
G01X12056618Y6963410D01*
G01X11516360Y7455408D02*
G01X11510264Y7458710D01*
G01X11500866Y7467854D01*
G01X11500866Y7402830D01*
G01X11452098Y7467854D02*
G01X11461496Y7464806D01*
G01X11467592Y7455408D01*
G01X11470640Y7440168D01*
G01X11470640Y7430770D01*
G01X11467592Y7415276D01*
G01X11461496Y7405878D01*
G01X11452098Y7402830D01*
G01X11446002Y7402830D01*
G01X11436604Y7405878D01*
G01X11430508Y7415276D01*
G01X11427460Y7430770D01*
G01X11427460Y7440168D01*
G01X11430508Y7455408D01*
G01X11436604Y7464806D01*
G01X11446002Y7467854D01*
G01X11452098Y7467854D01*
G01X11378692Y7467854D02*
G01X11388090Y7464806D01*
G01X11394186Y7455408D01*
G01X11397234Y7440168D01*
G01X11397234Y7430770D01*
G01X11394186Y7415276D01*
G01X11388090Y7405878D01*
G01X11378692Y7402830D01*
G01X11372596Y7402830D01*
G01X11363198Y7405878D01*
G01X11357102Y7415276D01*
G01X11354054Y7430770D01*
G01X11354054Y7440168D01*
G01X11357102Y7455408D01*
G01X11363198Y7464806D01*
G01X11372596Y7467854D01*
G01X11378692Y7467854D01*
G01X11323828Y7467854D02*
G01X11323828Y7402830D01*
G01X11293094Y7446264D02*
G01X11323828Y7415276D01*
G01X11311636Y7427722D02*
G01X11289792Y7402830D01*
G01X10438638Y7079234D02*
G01X10447782Y7076186D01*
G01X10454132Y7066788D01*
G01X10457180Y7051548D01*
G01X10457180Y7042150D01*
G01X10454132Y7026656D01*
G01X10447782Y7017258D01*
G01X10438638Y7014210D01*
G01X10432288Y7014210D01*
G01X10423144Y7017258D01*
G01X10417048Y7026656D01*
G01X10413746Y7042150D01*
G01X10413746Y7051548D01*
G01X10417048Y7066788D01*
G01X10423144Y7076186D01*
G01X10432288Y7079234D01*
G01X10438638Y7079234D01*
G01X10380472Y7029704D02*
G01X10383520Y7026656D01*
G01X10380472Y7023608D01*
G01X10377424Y7026656D01*
G01X10380472Y7029704D01*
G01X10347198Y7066788D02*
G01X10341102Y7070090D01*
G01X10331958Y7079234D01*
G01X10331958Y7014210D01*
G01X10301732Y7057644D02*
G01X10301732Y7026656D01*
G01X10298684Y7017258D01*
G01X10292588Y7014210D01*
G01X10283190Y7014210D01*
G01X10277094Y7017258D01*
G01X10267696Y7026656D01*
G01X10267696Y7057644D02*
G01X10267696Y7014210D01*
G01X10451084Y6660134D02*
G01X10417048Y6660134D01*
G01X10435590Y6635496D01*
G01X10426192Y6635496D01*
G01X10420096Y6632448D01*
G01X10417048Y6629146D01*
G01X10413746Y6620002D01*
G01X10413746Y6613652D01*
G01X10417048Y6604508D01*
G01X10423144Y6598158D01*
G01X10432288Y6595110D01*
G01X10441686Y6595110D01*
G01X10451084Y6598158D01*
G01X10454132Y6601460D01*
G01X10457180Y6607556D01*
G01X10380472Y6610604D02*
G01X10383520Y6607556D01*
G01X10380472Y6604508D01*
G01X10377424Y6607556D01*
G01X10380472Y6610604D01*
G01X10307066Y6638544D02*
G01X10310114Y6629146D01*
G01X10316464Y6623050D01*
G01X10325608Y6620002D01*
G01X10328656Y6620002D01*
G01X10338054Y6623050D01*
G01X10344150Y6629146D01*
G01X10347198Y6638544D01*
G01X10347198Y6641592D01*
G01X10344150Y6650990D01*
G01X10338054Y6657086D01*
G01X10328656Y6660134D01*
G01X10325608Y6660134D01*
G01X10316464Y6657086D01*
G01X10310114Y6650990D01*
G01X10307066Y6638544D01*
G01X10307066Y6623050D01*
G01X10310114Y6607556D01*
G01X10316464Y6598158D01*
G01X10325608Y6595110D01*
G01X10331958Y6595110D01*
G01X10341102Y6598158D01*
G01X10344150Y6604508D01*
G01X10276840Y6638544D02*
G01X10276840Y6595110D01*
G01X10276840Y6626098D02*
G01X10267696Y6635496D01*
G01X10261600Y6638544D01*
G01X10252202Y6638544D01*
G01X10246106Y6635496D01*
G01X10242804Y6626098D01*
G01X10242804Y6595110D01*
G01X10420096Y6879590D02*
G01X10423144Y6885686D01*
G01X10432288Y6888734D01*
G01X10438638Y6888734D01*
G01X10447782Y6885686D01*
G01X10454132Y6876288D01*
G01X10457180Y6861048D01*
G01X10457180Y6845554D01*
G01X10454132Y6833108D01*
G01X10447782Y6826758D01*
G01X10438638Y6823710D01*
G01X10435590Y6823710D01*
G01X10426192Y6826758D01*
G01X10420096Y6833108D01*
G01X10417048Y6842252D01*
G01X10417048Y6845554D01*
G01X10420096Y6854698D01*
G01X10426192Y6861048D01*
G01X10435590Y6864096D01*
G01X10438638Y6864096D01*
G01X10447782Y6861048D01*
G01X10454132Y6854698D01*
G01X10457180Y6845554D01*
G01X10383774Y6839204D02*
G01X10386822Y6836156D01*
G01X10383774Y6833108D01*
G01X10380726Y6836156D01*
G01X10383774Y6839204D01*
G01X10335260Y6888734D02*
G01X10344404Y6885686D01*
G01X10347452Y6879590D01*
G01X10347452Y6873240D01*
G01X10344404Y6867144D01*
G01X10338308Y6864096D01*
G01X10325862Y6861048D01*
G01X10316464Y6857746D01*
G01X10310368Y6851650D01*
G01X10307320Y6845554D01*
G01X10307320Y6836156D01*
G01X10310368Y6830060D01*
G01X10313416Y6826758D01*
G01X10322814Y6823710D01*
G01X10335260Y6823710D01*
G01X10344404Y6826758D01*
G01X10347452Y6830060D01*
G01X10350500Y6836156D01*
G01X10350500Y6845554D01*
G01X10347452Y6851650D01*
G01X10341356Y6857746D01*
G01X10331958Y6861048D01*
G01X10319766Y6864096D01*
G01X10313416Y6867144D01*
G01X10310368Y6873240D01*
G01X10310368Y6879590D01*
G01X10313416Y6885686D01*
G01X10322814Y6888734D01*
G01X10335260Y6888734D01*
G01X10277094Y6888734D02*
G01X10277094Y6823710D01*
G01X10246360Y6867144D02*
G01X10277094Y6836156D01*
G01X10264902Y6848602D02*
G01X10243058Y6823710D01*
G01X10472420Y6434328D02*
G01X10466324Y6437630D01*
G01X10456926Y6446774D01*
G01X10456926Y6381750D01*
G01X10408158Y6446774D02*
G01X10417556Y6443726D01*
G01X10423652Y6434328D01*
G01X10426700Y6419088D01*
G01X10426700Y6409690D01*
G01X10423652Y6394196D01*
G01X10417556Y6384798D01*
G01X10408158Y6381750D01*
G01X10402062Y6381750D01*
G01X10392664Y6384798D01*
G01X10386568Y6394196D01*
G01X10383520Y6409690D01*
G01X10383520Y6419088D01*
G01X10386568Y6434328D01*
G01X10392664Y6443726D01*
G01X10402062Y6446774D01*
G01X10408158Y6446774D01*
G01X10353294Y6446774D02*
G01X10353294Y6381750D01*
G01X10322560Y6425184D02*
G01X10353294Y6394196D01*
G01X10341102Y6406642D02*
G01X10319258Y6381750D01*
G01X10504932Y5890514D02*
G01X10535920Y5847334D01*
G01X10489438Y5847334D01*
G01X10504932Y5890514D02*
G01X10504932Y5825490D01*
G01X10416032Y5890514D02*
G01X10447020Y5825490D01*
G01X10459212Y5890514D02*
G01X10416032Y5890514D01*
G01X10385806Y5890514D02*
G01X10385806Y5825490D01*
G01X10355072Y5868924D02*
G01X10385806Y5837936D01*
G01X10373614Y5850382D02*
G01X10351770Y5825490D01*
G01X10768076Y5890514D02*
G01X10799064Y5890514D01*
G01X10802112Y5862828D01*
G01X10799064Y5865876D01*
G01X10789666Y5868924D01*
G01X10780268Y5868924D01*
G01X10771124Y5865876D01*
G01X10765028Y5859526D01*
G01X10761726Y5850382D01*
G01X10761726Y5844032D01*
G01X10765028Y5834888D01*
G01X10771124Y5828538D01*
G01X10780268Y5825490D01*
G01X10789666Y5825490D01*
G01X10799064Y5828538D01*
G01X10802112Y5831840D01*
G01X10805160Y5837936D01*
G01X10694416Y5881370D02*
G01X10697464Y5887466D01*
G01X10706862Y5890514D01*
G01X10712958Y5890514D01*
G01X10722356Y5887466D01*
G01X10728452Y5878068D01*
G01X10731500Y5862828D01*
G01X10731500Y5847334D01*
G01X10728452Y5834888D01*
G01X10722356Y5828538D01*
G01X10712958Y5825490D01*
G01X10709910Y5825490D01*
G01X10700766Y5828538D01*
G01X10694416Y5834888D01*
G01X10691368Y5844032D01*
G01X10691368Y5847334D01*
G01X10694416Y5856478D01*
G01X10700766Y5862828D01*
G01X10709910Y5865876D01*
G01X10712958Y5865876D01*
G01X10722356Y5862828D01*
G01X10728452Y5856478D01*
G01X10731500Y5847334D01*
G01X10661142Y5890514D02*
G01X10661142Y5825490D01*
G01X10630408Y5868924D02*
G01X10661142Y5837936D01*
G01X10648950Y5850382D02*
G01X10627106Y5825490D01*
G01X4423918Y7714234D02*
G01X4433062Y7711186D01*
G01X4439412Y7701788D01*
G01X4442460Y7686548D01*
G01X4442460Y7677150D01*
G01X4439412Y7661656D01*
G01X4433062Y7652258D01*
G01X4423918Y7649210D01*
G01X4417568Y7649210D01*
G01X4408424Y7652258D01*
G01X4402328Y7661656D01*
G01X4399026Y7677150D01*
G01X4399026Y7686548D01*
G01X4402328Y7701788D01*
G01X4408424Y7711186D01*
G01X4417568Y7714234D01*
G01X4423918Y7714234D01*
G01X4365752Y7664704D02*
G01X4368800Y7661656D01*
G01X4365752Y7658608D01*
G01X4362704Y7661656D01*
G01X4365752Y7664704D01*
G01X4332478Y7701788D02*
G01X4326382Y7705090D01*
G01X4317238Y7714234D01*
G01X4317238Y7649210D01*
G01X4287012Y7692644D02*
G01X4287012Y7661656D01*
G01X4283964Y7652258D01*
G01X4277868Y7649210D01*
G01X4268470Y7649210D01*
G01X4262374Y7652258D01*
G01X4252976Y7661656D01*
G01X4252976Y7692644D02*
G01X4252976Y7649210D01*
G01X2796540Y7488428D02*
G01X2790444Y7491730D01*
G01X2781046Y7500874D01*
G01X2781046Y7435850D01*
G01X2732278Y7500874D02*
G01X2741676Y7497826D01*
G01X2747772Y7488428D01*
G01X2750820Y7473188D01*
G01X2750820Y7463790D01*
G01X2747772Y7448296D01*
G01X2741676Y7438898D01*
G01X2732278Y7435850D01*
G01X2726182Y7435850D01*
G01X2716784Y7438898D01*
G01X2710688Y7448296D01*
G01X2707640Y7463790D01*
G01X2707640Y7473188D01*
G01X2710688Y7488428D01*
G01X2716784Y7497826D01*
G01X2726182Y7500874D01*
G01X2732278Y7500874D01*
G01X2658872Y7500874D02*
G01X2668270Y7497826D01*
G01X2674366Y7488428D01*
G01X2677414Y7473188D01*
G01X2677414Y7463790D01*
G01X2674366Y7448296D01*
G01X2668270Y7438898D01*
G01X2658872Y7435850D01*
G01X2652776Y7435850D01*
G01X2643378Y7438898D01*
G01X2637282Y7448296D01*
G01X2634234Y7463790D01*
G01X2634234Y7473188D01*
G01X2637282Y7488428D01*
G01X2643378Y7497826D01*
G01X2652776Y7500874D01*
G01X2658872Y7500874D01*
G01X5155438Y7592314D02*
G01X5164582Y7589266D01*
G01X5170932Y7579868D01*
G01X5173980Y7564628D01*
G01X5173980Y7555230D01*
G01X5170932Y7539736D01*
G01X5164582Y7530338D01*
G01X5155438Y7527290D01*
G01X5149088Y7527290D01*
G01X5139944Y7530338D01*
G01X5133848Y7539736D01*
G01X5130546Y7555230D01*
G01X5130546Y7564628D01*
G01X5133848Y7579868D01*
G01X5139944Y7589266D01*
G01X5149088Y7592314D01*
G01X5155438Y7592314D01*
G01X5097272Y7542784D02*
G01X5100320Y7539736D01*
G01X5097272Y7536688D01*
G01X5094224Y7539736D01*
G01X5097272Y7542784D01*
G01X5063998Y7579868D02*
G01X5057902Y7583170D01*
G01X5048758Y7592314D01*
G01X5048758Y7527290D01*
G01X5018532Y7570724D02*
G01X5018532Y7539736D01*
G01X5015484Y7530338D01*
G01X5009388Y7527290D01*
G01X4999990Y7527290D01*
G01X4993894Y7530338D01*
G01X4984496Y7539736D01*
G01X4984496Y7570724D02*
G01X4984496Y7527290D01*
G01X4104132Y561340D02*
G01X4104132Y564388D01*
G01X4101084Y570738D01*
G01X4097782Y573786D01*
G01X4091686Y576834D01*
G01X4079240Y576834D01*
G01X4073144Y573786D01*
G01X4070096Y570738D01*
G01X4067048Y564388D01*
G01X4067048Y558292D01*
G01X4070096Y552196D01*
G01X4076192Y542798D01*
G01X4107180Y511810D01*
G01X4063746Y511810D01*
G01X4030472Y561340D02*
G01X4030472Y564388D01*
G01X4027424Y570738D01*
G01X4024376Y573786D01*
G01X4018280Y576834D01*
G01X4005834Y576834D01*
G01X3999484Y573786D01*
G01X3996436Y570738D01*
G01X3993388Y564388D01*
G01X3993388Y558292D01*
G01X3996436Y552196D01*
G01X4002786Y542798D01*
G01X4033520Y511810D01*
G01X3990340Y511810D01*
G01X3941572Y576834D02*
G01X3950970Y573786D01*
G01X3957066Y564388D01*
G01X3960114Y549148D01*
G01X3960114Y539750D01*
G01X3957066Y524256D01*
G01X3950970Y514858D01*
G01X3941572Y511810D01*
G01X3935476Y511810D01*
G01X3926078Y514858D01*
G01X3919982Y524256D01*
G01X3916934Y539750D01*
G01X3916934Y549148D01*
G01X3919982Y564388D01*
G01X3926078Y573786D01*
G01X3935476Y576834D01*
G01X3941572Y576834D01*
G01X3886708Y555244D02*
G01X3886708Y524256D01*
G01X3883660Y514858D01*
G01X3877564Y511810D01*
G01X3868166Y511810D01*
G01X3862070Y514858D01*
G01X3852672Y524256D01*
G01X3852672Y555244D02*
G01X3852672Y511810D01*
G01X3822446Y576834D02*
G01X3822446Y511810D01*
G01X3822446Y576834D02*
G01X3782314Y576834D01*
G01X3822446Y545846D02*
G01X3797808Y545846D01*
G01X3436620Y7732268D02*
G01X3430524Y7735570D01*
G01X3421126Y7744714D01*
G01X3421126Y7679690D01*
G01X3372358Y7744714D02*
G01X3381756Y7741666D01*
G01X3387852Y7732268D01*
G01X3390900Y7717028D01*
G01X3390900Y7707630D01*
G01X3387852Y7692136D01*
G01X3381756Y7682738D01*
G01X3372358Y7679690D01*
G01X3366262Y7679690D01*
G01X3356864Y7682738D01*
G01X3350768Y7692136D01*
G01X3347720Y7707630D01*
G01X3347720Y7717028D01*
G01X3350768Y7732268D01*
G01X3356864Y7741666D01*
G01X3366262Y7744714D01*
G01X3372358Y7744714D01*
G01X3298952Y7744714D02*
G01X3308350Y7741666D01*
G01X3314446Y7732268D01*
G01X3317494Y7717028D01*
G01X3317494Y7707630D01*
G01X3314446Y7692136D01*
G01X3308350Y7682738D01*
G01X3298952Y7679690D01*
G01X3292856Y7679690D01*
G01X3283458Y7682738D01*
G01X3277362Y7692136D01*
G01X3274314Y7707630D01*
G01X3274314Y7717028D01*
G01X3277362Y7732268D01*
G01X3283458Y7741666D01*
G01X3292856Y7744714D01*
G01X3298952Y7744714D01*
G01X3244088Y7723124D02*
G01X3244088Y7692136D01*
G01X3241040Y7682738D01*
G01X3234944Y7679690D01*
G01X3225546Y7679690D01*
G01X3219450Y7682738D01*
G01X3210052Y7692136D01*
G01X3210052Y7723124D02*
G01X3210052Y7679690D01*
G01X3179826Y7744714D02*
G01X3179826Y7679690D01*
G01X3179826Y7744714D02*
G01X3139694Y7744714D01*
G01X3179826Y7713726D02*
G01X3155188Y7713726D01*
G01X6755892Y6388100D02*
G01X6755892Y6391148D01*
G01X6752844Y6397498D01*
G01X6749542Y6400546D01*
G01X6743446Y6403594D01*
G01X6731000Y6403594D01*
G01X6724904Y6400546D01*
G01X6721856Y6397498D01*
G01X6718808Y6391148D01*
G01X6718808Y6385052D01*
G01X6721856Y6378956D01*
G01X6727952Y6369558D01*
G01X6758940Y6338570D01*
G01X6715506Y6338570D01*
G01X6682232Y6388100D02*
G01X6682232Y6391148D01*
G01X6679184Y6397498D01*
G01X6676136Y6400546D01*
G01X6670040Y6403594D01*
G01X6657594Y6403594D01*
G01X6651244Y6400546D01*
G01X6648196Y6397498D01*
G01X6645148Y6391148D01*
G01X6645148Y6385052D01*
G01X6648196Y6378956D01*
G01X6654546Y6369558D01*
G01X6685280Y6338570D01*
G01X6642100Y6338570D01*
G01X6593332Y6403594D02*
G01X6602730Y6400546D01*
G01X6608826Y6391148D01*
G01X6611874Y6375908D01*
G01X6611874Y6366510D01*
G01X6608826Y6351016D01*
G01X6602730Y6341618D01*
G01X6593332Y6338570D01*
G01X6587236Y6338570D01*
G01X6577838Y6341618D01*
G01X6571742Y6351016D01*
G01X6568694Y6366510D01*
G01X6568694Y6375908D01*
G01X6571742Y6391148D01*
G01X6577838Y6400546D01*
G01X6587236Y6403594D01*
G01X6593332Y6403594D01*
G01X6538468Y6382004D02*
G01X6538468Y6351016D01*
G01X6535420Y6341618D01*
G01X6529324Y6338570D01*
G01X6519926Y6338570D01*
G01X6513830Y6341618D01*
G01X6504432Y6351016D01*
G01X6504432Y6382004D02*
G01X6504432Y6338570D01*
G01X6474206Y6403594D02*
G01X6474206Y6338570D01*
G01X6474206Y6403594D02*
G01X6434074Y6403594D01*
G01X6474206Y6372606D02*
G01X6449568Y6372606D01*
G01X5374132Y6060440D02*
G01X5374132Y6063488D01*
G01X5371084Y6069838D01*
G01X5367782Y6072886D01*
G01X5361686Y6075934D01*
G01X5349240Y6075934D01*
G01X5343144Y6072886D01*
G01X5340096Y6069838D01*
G01X5337048Y6063488D01*
G01X5337048Y6057392D01*
G01X5340096Y6051296D01*
G01X5346192Y6041898D01*
G01X5377180Y6010910D01*
G01X5333746Y6010910D01*
G01X5300472Y6060440D02*
G01X5300472Y6063488D01*
G01X5297424Y6069838D01*
G01X5294376Y6072886D01*
G01X5288280Y6075934D01*
G01X5275834Y6075934D01*
G01X5269484Y6072886D01*
G01X5266436Y6069838D01*
G01X5263388Y6063488D01*
G01X5263388Y6057392D01*
G01X5266436Y6051296D01*
G01X5272786Y6041898D01*
G01X5303520Y6010910D01*
G01X5260340Y6010910D01*
G01X5211572Y6075934D02*
G01X5220970Y6072886D01*
G01X5227066Y6063488D01*
G01X5230114Y6048248D01*
G01X5230114Y6038850D01*
G01X5227066Y6023356D01*
G01X5220970Y6013958D01*
G01X5211572Y6010910D01*
G01X5205476Y6010910D01*
G01X5196078Y6013958D01*
G01X5189982Y6023356D01*
G01X5186934Y6038850D01*
G01X5186934Y6048248D01*
G01X5189982Y6063488D01*
G01X5196078Y6072886D01*
G01X5205476Y6075934D01*
G01X5211572Y6075934D01*
G01X5156708Y6054344D02*
G01X5156708Y6023356D01*
G01X5153660Y6013958D01*
G01X5147564Y6010910D01*
G01X5138166Y6010910D01*
G01X5132070Y6013958D01*
G01X5122672Y6023356D01*
G01X5122672Y6054344D02*
G01X5122672Y6010910D01*
G01X5092446Y6075934D02*
G01X5092446Y6010910D01*
G01X5092446Y6075934D02*
G01X5052314Y6075934D01*
G01X5092446Y6044946D02*
G01X5067808Y6044946D01*
G01X4780788Y8260334D02*
G01X4805680Y8195310D01*
G01X4780788Y8260334D02*
G01X4756150Y8195310D01*
G01X4796282Y8217154D02*
G01X4765548Y8217154D01*
G01X4707382Y8260334D02*
G01X4713732Y8257286D01*
G01X4719828Y8251190D01*
G01X4722876Y8244840D01*
G01X4725924Y8235696D01*
G01X4725924Y8220202D01*
G01X4722876Y8210804D01*
G01X4719828Y8204708D01*
G01X4713732Y8198358D01*
G01X4707382Y8195310D01*
G01X4695190Y8195310D01*
G01X4688840Y8198358D01*
G01X4682744Y8204708D01*
G01X4679696Y8210804D01*
G01X4676394Y8220202D01*
G01X4676394Y8235696D01*
G01X4679696Y8244840D01*
G01X4682744Y8251190D01*
G01X4688840Y8257286D01*
G01X4695190Y8260334D01*
G01X4707382Y8260334D01*
G01X4640072Y8260334D02*
G01X4606036Y8260334D01*
G01X4624578Y8235696D01*
G01X4615434Y8235696D01*
G01X4609084Y8232648D01*
G01X4606036Y8229346D01*
G01X4602988Y8220202D01*
G01X4602988Y8213852D01*
G01X4606036Y8204708D01*
G01X4612132Y8198358D01*
G01X4621530Y8195310D01*
G01X4630928Y8195310D01*
G01X4640072Y8198358D01*
G01X4643120Y8201660D01*
G01X4646168Y8207756D01*
G01X4542028Y8260334D02*
G01X4572762Y8217154D01*
G01X4526534Y8217154D01*
G01X4542028Y8260334D02*
G01X4542028Y8195310D01*
G01X4496308Y8247888D02*
G01X4490212Y8251190D01*
G01X4481068Y8260334D01*
G01X4481068Y8195310D01*
G01X4413758Y8260334D02*
G01X4444746Y8260334D01*
G01X4447794Y8232648D01*
G01X4444746Y8235696D01*
G01X4435602Y8238744D01*
G01X4426204Y8238744D01*
G01X4416806Y8235696D01*
G01X4410710Y8229346D01*
G01X4407662Y8220202D01*
G01X4407662Y8213852D01*
G01X4410710Y8204708D01*
G01X4416806Y8198358D01*
G01X4426204Y8195310D01*
G01X4435602Y8195310D01*
G01X4444746Y8198358D01*
G01X4447794Y8201660D01*
G01X4450842Y8207756D01*
G01X4094480Y7765288D02*
G01X4088384Y7768590D01*
G01X4078986Y7777734D01*
G01X4078986Y7712710D01*
G01X4030218Y7777734D02*
G01X4039616Y7774686D01*
G01X4045712Y7765288D01*
G01X4048760Y7750048D01*
G01X4048760Y7740650D01*
G01X4045712Y7725156D01*
G01X4039616Y7715758D01*
G01X4030218Y7712710D01*
G01X4024122Y7712710D01*
G01X4014724Y7715758D01*
G01X4008628Y7725156D01*
G01X4005580Y7740650D01*
G01X4005580Y7750048D01*
G01X4008628Y7765288D01*
G01X4014724Y7774686D01*
G01X4024122Y7777734D01*
G01X4030218Y7777734D01*
G01X3956812Y7777734D02*
G01X3966210Y7774686D01*
G01X3972306Y7765288D01*
G01X3975354Y7750048D01*
G01X3975354Y7740650D01*
G01X3972306Y7725156D01*
G01X3966210Y7715758D01*
G01X3956812Y7712710D01*
G01X3950716Y7712710D01*
G01X3941318Y7715758D01*
G01X3935222Y7725156D01*
G01X3932174Y7740650D01*
G01X3932174Y7750048D01*
G01X3935222Y7765288D01*
G01X3941318Y7774686D01*
G01X3950716Y7777734D01*
G01X3956812Y7777734D01*
G01X3901948Y7777734D02*
G01X3901948Y7712710D01*
G01X3871214Y7756144D02*
G01X3901948Y7725156D01*
G01X3889756Y7737602D02*
G01X3867912Y7712710D01*
G01X11638280Y2037588D02*
G01X11632184Y2040890D01*
G01X11622786Y2050034D01*
G01X11622786Y1985010D01*
G01X11592560Y2028444D02*
G01X11592560Y1997456D01*
G01X11589512Y1988058D01*
G01X11583416Y1985010D01*
G01X11574018Y1985010D01*
G01X11567922Y1988058D01*
G01X11558524Y1997456D01*
G01X11558524Y2028444D02*
G01X11558524Y1985010D01*
G01X1288288Y731520D02*
G01X1291590Y737616D01*
G01X1300734Y747014D01*
G01X1235710Y747014D01*
G01X1300734Y795782D02*
G01X1297686Y786384D01*
G01X1288288Y780288D01*
G01X1273048Y777240D01*
G01X1263650Y777240D01*
G01X1248156Y780288D01*
G01X1238758Y786384D01*
G01X1235710Y795782D01*
G01X1235710Y801878D01*
G01X1238758Y811276D01*
G01X1248156Y817372D01*
G01X1263650Y820420D01*
G01X1273048Y820420D01*
G01X1288288Y817372D01*
G01X1297686Y811276D01*
G01X1300734Y801878D01*
G01X1300734Y795782D01*
G01X1300734Y869188D02*
G01X1297686Y859790D01*
G01X1288288Y853694D01*
G01X1273048Y850646D01*
G01X1263650Y850646D01*
G01X1248156Y853694D01*
G01X1238758Y859790D01*
G01X1235710Y869188D01*
G01X1235710Y875284D01*
G01X1238758Y884682D01*
G01X1248156Y890778D01*
G01X1263650Y893826D01*
G01X1273048Y893826D01*
G01X1288288Y890778D01*
G01X1297686Y884682D01*
G01X1300734Y875284D01*
G01X1300734Y869188D01*
G01X1377188Y8859520D02*
G01X1380490Y8865616D01*
G01X1389634Y8875014D01*
G01X1324610Y8875014D01*
G01X1389634Y8923782D02*
G01X1386586Y8914384D01*
G01X1377188Y8908288D01*
G01X1361948Y8905240D01*
G01X1352550Y8905240D01*
G01X1337056Y8908288D01*
G01X1327658Y8914384D01*
G01X1324610Y8923782D01*
G01X1324610Y8929878D01*
G01X1327658Y8939276D01*
G01X1337056Y8945372D01*
G01X1352550Y8948420D01*
G01X1361948Y8948420D01*
G01X1377188Y8945372D01*
G01X1386586Y8939276D01*
G01X1389634Y8929878D01*
G01X1389634Y8923782D01*
G01X1389634Y8997188D02*
G01X1386586Y8987790D01*
G01X1377188Y8981694D01*
G01X1361948Y8978646D01*
G01X1352550Y8978646D01*
G01X1337056Y8981694D01*
G01X1327658Y8987790D01*
G01X1324610Y8997188D01*
G01X1324610Y9003284D01*
G01X1327658Y9012682D01*
G01X1337056Y9018778D01*
G01X1352550Y9021826D01*
G01X1361948Y9021826D01*
G01X1377188Y9018778D01*
G01X1386586Y9012682D01*
G01X1389634Y9003284D01*
G01X1389634Y8997188D01*
G01X12095480Y4755388D02*
G01X12089384Y4758690D01*
G01X12079986Y4767834D01*
G01X12079986Y4702810D01*
G01X12049760Y4767834D02*
G01X12049760Y4702810D01*
G01X12019026Y4746244D02*
G01X12049760Y4715256D01*
G01X12037568Y4727702D02*
G01X12015724Y4702810D01*
G01X11130280Y2672588D02*
G01X11124184Y2675890D01*
G01X11114786Y2685034D01*
G01X11114786Y2620010D01*
G01X11084560Y2685034D02*
G01X11084560Y2620010D01*
G01X11084560Y2685034D02*
G01X11041380Y2620010D01*
G01X11041380Y2685034D02*
G01X11041380Y2620010D01*
G01X10980420Y2685034D02*
G01X11011154Y2641854D01*
G01X10964926Y2641854D01*
G01X10980420Y2685034D02*
G01X10980420Y2620010D01*
G01X10934700Y2672588D02*
G01X10928604Y2675890D01*
G01X10919460Y2685034D01*
G01X10919460Y2620010D01*
G01X10858500Y2685034D02*
G01X10889234Y2641854D01*
G01X10843006Y2641854D01*
G01X10858500Y2685034D02*
G01X10858500Y2620010D01*
G01X10797540Y2685034D02*
G01X10806684Y2681986D01*
G01X10809732Y2675890D01*
G01X10809732Y2669540D01*
G01X10806684Y2663444D01*
G01X10800588Y2660396D01*
G01X10788142Y2657348D01*
G01X10778744Y2654046D01*
G01X10772648Y2647950D01*
G01X10769600Y2641854D01*
G01X10769600Y2632456D01*
G01X10772648Y2626360D01*
G01X10775696Y2623058D01*
G01X10785094Y2620010D01*
G01X10797540Y2620010D01*
G01X10806684Y2623058D01*
G01X10809732Y2626360D01*
G01X10812780Y2632456D01*
G01X10812780Y2641854D01*
G01X10809732Y2647950D01*
G01X10803636Y2654046D01*
G01X10794238Y2657348D01*
G01X10782046Y2660396D01*
G01X10775696Y2663444D01*
G01X10772648Y2669540D01*
G01X10772648Y2675890D01*
G01X10775696Y2681986D01*
G01X10785094Y2685034D01*
G01X10797540Y2685034D01*
G01X10739374Y2685034D02*
G01X10724134Y2620010D01*
G01X10708640Y2685034D02*
G01X10724134Y2620010D01*
G01X10708640Y2685034D02*
G01X10693146Y2620010D01*
G01X10677652Y2685034D02*
G01X10693146Y2620010D01*
G01X10604246Y2675890D02*
G01X10610342Y2681986D01*
G01X10619740Y2685034D01*
G01X10632186Y2685034D01*
G01X10641330Y2681986D01*
G01X10647426Y2675890D01*
G01X10647426Y2669540D01*
G01X10644378Y2663444D01*
G01X10641330Y2660396D01*
G01X10635234Y2657348D01*
G01X10616692Y2650998D01*
G01X10610342Y2647950D01*
G01X10607294Y2644902D01*
G01X10604246Y2638552D01*
G01X10604246Y2629408D01*
G01X10610342Y2623058D01*
G01X10619740Y2620010D01*
G01X10632186Y2620010D01*
G01X10641330Y2623058D01*
G01X10647426Y2629408D01*
G01X11130280Y2837688D02*
G01X11124184Y2840990D01*
G01X11114786Y2850134D01*
G01X11114786Y2785110D01*
G01X11084560Y2850134D02*
G01X11084560Y2785110D01*
G01X11084560Y2850134D02*
G01X11041380Y2785110D01*
G01X11041380Y2850134D02*
G01X11041380Y2785110D01*
G01X10980420Y2850134D02*
G01X11011154Y2806954D01*
G01X10964926Y2806954D01*
G01X10980420Y2850134D02*
G01X10980420Y2785110D01*
G01X10934700Y2837688D02*
G01X10928604Y2840990D01*
G01X10919460Y2850134D01*
G01X10919460Y2785110D01*
G01X10858500Y2850134D02*
G01X10889234Y2806954D01*
G01X10843006Y2806954D01*
G01X10858500Y2850134D02*
G01X10858500Y2785110D01*
G01X10797540Y2850134D02*
G01X10806684Y2847086D01*
G01X10809732Y2840990D01*
G01X10809732Y2834640D01*
G01X10806684Y2828544D01*
G01X10800588Y2825496D01*
G01X10788142Y2822448D01*
G01X10778744Y2819146D01*
G01X10772648Y2813050D01*
G01X10769600Y2806954D01*
G01X10769600Y2797556D01*
G01X10772648Y2791460D01*
G01X10775696Y2788158D01*
G01X10785094Y2785110D01*
G01X10797540Y2785110D01*
G01X10806684Y2788158D01*
G01X10809732Y2791460D01*
G01X10812780Y2797556D01*
G01X10812780Y2806954D01*
G01X10809732Y2813050D01*
G01X10803636Y2819146D01*
G01X10794238Y2822448D01*
G01X10782046Y2825496D01*
G01X10775696Y2828544D01*
G01X10772648Y2834640D01*
G01X10772648Y2840990D01*
G01X10775696Y2847086D01*
G01X10785094Y2850134D01*
G01X10797540Y2850134D01*
G01X10739374Y2850134D02*
G01X10724134Y2785110D01*
G01X10708640Y2850134D02*
G01X10724134Y2785110D01*
G01X10708640Y2850134D02*
G01X10693146Y2785110D01*
G01X10677652Y2850134D02*
G01X10693146Y2785110D01*
G01X10604246Y2840990D02*
G01X10610342Y2847086D01*
G01X10619740Y2850134D01*
G01X10632186Y2850134D01*
G01X10641330Y2847086D01*
G01X10647426Y2840990D01*
G01X10647426Y2834640D01*
G01X10644378Y2828544D01*
G01X10641330Y2825496D01*
G01X10635234Y2822448D01*
G01X10616692Y2816098D01*
G01X10610342Y2813050D01*
G01X10607294Y2810002D01*
G01X10604246Y2803652D01*
G01X10604246Y2794508D01*
G01X10610342Y2788158D01*
G01X10619740Y2785110D01*
G01X10632186Y2785110D01*
G01X10641330Y2788158D01*
G01X10647426Y2794508D01*
G01X11658092Y3269234D02*
G01X11689080Y3226054D01*
G01X11642598Y3226054D01*
G01X11658092Y3269234D02*
G01X11658092Y3204210D01*
G01X11609324Y3219704D02*
G01X11612372Y3216656D01*
G01X11609324Y3213608D01*
G01X11606276Y3216656D01*
G01X11609324Y3219704D01*
G01X11532870Y3269234D02*
G01X11563858Y3204210D01*
G01X11576050Y3269234D02*
G01X11532870Y3269234D01*
G01X11502644Y3269234D02*
G01X11502644Y3204210D01*
G01X11471910Y3247644D02*
G01X11502644Y3216656D01*
G01X11490452Y3229102D02*
G01X11468608Y3204210D01*
G01X12064492Y3548634D02*
G01X12095480Y3505454D01*
G01X12048998Y3505454D01*
G01X12064492Y3548634D02*
G01X12064492Y3483610D01*
G01X12015724Y3499104D02*
G01X12018772Y3496056D01*
G01X12015724Y3493008D01*
G01X12012676Y3496056D01*
G01X12015724Y3499104D01*
G01X11939270Y3548634D02*
G01X11970258Y3483610D01*
G01X11982450Y3548634D02*
G01X11939270Y3548634D01*
G01X11909044Y3548634D02*
G01X11909044Y3483610D01*
G01X11878310Y3527044D02*
G01X11909044Y3496056D01*
G01X11896852Y3508502D02*
G01X11875008Y3483610D01*
G01X11533632Y6212840D02*
G01X11533632Y6215888D01*
G01X11530584Y6222238D01*
G01X11527282Y6225286D01*
G01X11521186Y6228334D01*
G01X11508740Y6228334D01*
G01X11502644Y6225286D01*
G01X11499596Y6222238D01*
G01X11496548Y6215888D01*
G01X11496548Y6209792D01*
G01X11499596Y6203696D01*
G01X11505692Y6194298D01*
G01X11536680Y6163310D01*
G01X11493246Y6163310D01*
G01X11459972Y6212840D02*
G01X11459972Y6215888D01*
G01X11456924Y6222238D01*
G01X11453876Y6225286D01*
G01X11447780Y6228334D01*
G01X11435334Y6228334D01*
G01X11428984Y6225286D01*
G01X11425936Y6222238D01*
G01X11422888Y6215888D01*
G01X11422888Y6209792D01*
G01X11425936Y6203696D01*
G01X11432286Y6194298D01*
G01X11463020Y6163310D01*
G01X11419840Y6163310D01*
G01X11389614Y6206744D02*
G01X11389614Y6175756D01*
G01X11386566Y6166358D01*
G01X11380470Y6163310D01*
G01X11371072Y6163310D01*
G01X11364976Y6166358D01*
G01X11355578Y6175756D01*
G01X11355578Y6206744D02*
G01X11355578Y6163310D01*
G01X11325352Y6228334D02*
G01X11325352Y6163310D01*
G01X11325352Y6228334D02*
G01X11285220Y6228334D01*
G01X11325352Y6197346D02*
G01X11300714Y6197346D01*
G01X11228832Y6212840D02*
G01X11228832Y6215888D01*
G01X11225784Y6222238D01*
G01X11222482Y6225286D01*
G01X11216386Y6228334D01*
G01X11203940Y6228334D01*
G01X11197844Y6225286D01*
G01X11194796Y6222238D01*
G01X11191748Y6215888D01*
G01X11191748Y6209792D01*
G01X11194796Y6203696D01*
G01X11200892Y6194298D01*
G01X11231880Y6163310D01*
G01X11188446Y6163310D01*
G01X11155172Y6212840D02*
G01X11155172Y6215888D01*
G01X11152124Y6222238D01*
G01X11149076Y6225286D01*
G01X11142980Y6228334D01*
G01X11130534Y6228334D01*
G01X11124184Y6225286D01*
G01X11121136Y6222238D01*
G01X11118088Y6215888D01*
G01X11118088Y6209792D01*
G01X11121136Y6203696D01*
G01X11127486Y6194298D01*
G01X11158220Y6163310D01*
G01X11115040Y6163310D01*
G01X11084814Y6206744D02*
G01X11084814Y6175756D01*
G01X11081766Y6166358D01*
G01X11075670Y6163310D01*
G01X11066272Y6163310D01*
G01X11060176Y6166358D01*
G01X11050778Y6175756D01*
G01X11050778Y6206744D02*
G01X11050778Y6163310D01*
G01X11020552Y6228334D02*
G01X11020552Y6163310D01*
G01X11020552Y6228334D02*
G01X10980420Y6228334D01*
G01X11020552Y6197346D02*
G01X10995914Y6197346D01*
G01X12232132Y7444740D02*
G01X12232132Y7447788D01*
G01X12229084Y7454138D01*
G01X12225782Y7457186D01*
G01X12219686Y7460234D01*
G01X12207240Y7460234D01*
G01X12201144Y7457186D01*
G01X12198096Y7454138D01*
G01X12195048Y7447788D01*
G01X12195048Y7441692D01*
G01X12198096Y7435596D01*
G01X12204192Y7426198D01*
G01X12235180Y7395210D01*
G01X12191746Y7395210D01*
G01X12158472Y7444740D02*
G01X12158472Y7447788D01*
G01X12155424Y7454138D01*
G01X12152376Y7457186D01*
G01X12146280Y7460234D01*
G01X12133834Y7460234D01*
G01X12127484Y7457186D01*
G01X12124436Y7454138D01*
G01X12121388Y7447788D01*
G01X12121388Y7441692D01*
G01X12124436Y7435596D01*
G01X12130786Y7426198D01*
G01X12161520Y7395210D01*
G01X12118340Y7395210D01*
G01X12088114Y7438644D02*
G01X12088114Y7407656D01*
G01X12085066Y7398258D01*
G01X12078970Y7395210D01*
G01X12069572Y7395210D01*
G01X12063476Y7398258D01*
G01X12054078Y7407656D01*
G01X12054078Y7438644D02*
G01X12054078Y7395210D01*
G01X12023852Y7460234D02*
G01X12023852Y7395210D01*
G01X12023852Y7460234D02*
G01X11983720Y7460234D01*
G01X12023852Y7429246D02*
G01X11999214Y7429246D01*
G01X6418580Y1123188D02*
G01X6412484Y1126490D01*
G01X6403086Y1135634D01*
G01X6403086Y1070610D01*
G01X6354318Y1135634D02*
G01X6363716Y1132586D01*
G01X6369812Y1123188D01*
G01X6372860Y1107948D01*
G01X6372860Y1098550D01*
G01X6369812Y1083056D01*
G01X6363716Y1073658D01*
G01X6354318Y1070610D01*
G01X6348222Y1070610D01*
G01X6338824Y1073658D01*
G01X6332728Y1083056D01*
G01X6329680Y1098550D01*
G01X6329680Y1107948D01*
G01X6332728Y1123188D01*
G01X6338824Y1132586D01*
G01X6348222Y1135634D01*
G01X6354318Y1135634D01*
G01X6299454Y1114044D02*
G01X6299454Y1049020D01*
G01X6299454Y1104646D02*
G01X6293358Y1110996D01*
G01X6287262Y1114044D01*
G01X6277864Y1114044D01*
G01X6271768Y1110996D01*
G01X6265418Y1104646D01*
G01X6262370Y1095502D01*
G01X6262370Y1089152D01*
G01X6265418Y1080008D01*
G01X6271768Y1073658D01*
G01X6277864Y1070610D01*
G01X6287262Y1070610D01*
G01X6293358Y1073658D01*
G01X6299454Y1080008D01*
G01X6654038Y856234D02*
G01X6663182Y853186D01*
G01X6669532Y843788D01*
G01X6672580Y828548D01*
G01X6672580Y819150D01*
G01X6669532Y803656D01*
G01X6663182Y794258D01*
G01X6654038Y791210D01*
G01X6647688Y791210D01*
G01X6638544Y794258D01*
G01X6632448Y803656D01*
G01X6629146Y819150D01*
G01X6629146Y828548D01*
G01X6632448Y843788D01*
G01X6638544Y853186D01*
G01X6647688Y856234D01*
G01X6654038Y856234D01*
G01X6595872Y806704D02*
G01X6598920Y803656D01*
G01X6595872Y800608D01*
G01X6592824Y803656D01*
G01X6595872Y806704D01*
G01X6562598Y843788D02*
G01X6556502Y847090D01*
G01X6547358Y856234D01*
G01X6547358Y791210D01*
G01X6517132Y834644D02*
G01X6517132Y803656D01*
G01X6514084Y794258D01*
G01X6507988Y791210D01*
G01X6498590Y791210D01*
G01X6492494Y794258D01*
G01X6483096Y803656D01*
G01X6483096Y834644D02*
G01X6483096Y791210D01*
G01X6396990Y399034D02*
G01X6396990Y334010D01*
G01X6418580Y399034D02*
G01X6375146Y399034D01*
G01X6323330Y399034D02*
G01X6323330Y334010D01*
G01X6344920Y399034D02*
G01X6301740Y399034D01*
G01X6271514Y399034D02*
G01X6271514Y334010D01*
G01X6271514Y399034D02*
G01X6243828Y399034D01*
G01X6234430Y395986D01*
G01X6231382Y392938D01*
G01X6228334Y386588D01*
G01X6228334Y377444D01*
G01X6231382Y371348D01*
G01X6234430Y368046D01*
G01X6243828Y364998D01*
G01X6271514Y364998D01*
G01X6195060Y383540D02*
G01X6195060Y386588D01*
G01X6192012Y392938D01*
G01X6188964Y395986D01*
G01X6182868Y399034D01*
G01X6170422Y399034D01*
G01X6164072Y395986D01*
G01X6161024Y392938D01*
G01X6157976Y386588D01*
G01X6157976Y380492D01*
G01X6161024Y374396D01*
G01X6167374Y364998D01*
G01X6198108Y334010D01*
G01X6154928Y334010D01*
G01X6121654Y383540D02*
G01X6121654Y386588D01*
G01X6118606Y392938D01*
G01X6115558Y395986D01*
G01X6109462Y399034D01*
G01X6097016Y399034D01*
G01X6090666Y395986D01*
G01X6087618Y392938D01*
G01X6084570Y386588D01*
G01X6084570Y380492D01*
G01X6087618Y374396D01*
G01X6093968Y364998D01*
G01X6124702Y334010D01*
G01X6081522Y334010D01*
G01X6045200Y399034D02*
G01X6011164Y399034D01*
G01X6029706Y374396D01*
G01X6020562Y374396D01*
G01X6014212Y371348D01*
G01X6011164Y368046D01*
G01X6008116Y358902D01*
G01X6008116Y352552D01*
G01X6011164Y343408D01*
G01X6017260Y337058D01*
G01X6026658Y334010D01*
G01X6036056Y334010D01*
G01X6045200Y337058D01*
G01X6048248Y340360D01*
G01X6051296Y346456D01*
G01X5977890Y361950D02*
G01X5922264Y361950D01*
G01X5870448Y399034D02*
G01X5870448Y334010D01*
G01X5892038Y399034D02*
G01X5848858Y399034D01*
G01X5818632Y399034D02*
G01X5818632Y334010D01*
G01X5818632Y399034D02*
G01X5797042Y399034D01*
G01X5787898Y395986D01*
G01X5781548Y389890D01*
G01X5778500Y383540D01*
G01X5775452Y374396D01*
G01X5775452Y358902D01*
G01X5778500Y349504D01*
G01X5781548Y343408D01*
G01X5787898Y337058D01*
G01X5797042Y334010D01*
G01X5818632Y334010D01*
G04 Text End*

G04 PolygonModel Start*
G01X5332240Y6462840D02*
G01X5191239Y6462840D01*
G01X5191239Y6643561D02*
G01X5332240Y6643561D01*
G01X5347480Y6628321D02*
G01X5347480Y6478080D01*
G01X4970000Y6462840D02*
G01X5111001Y6462840D01*
G01X5111001Y6643561D02*
G01X4970000Y6643561D01*
G01X4954760Y6628321D02*
G01X4954760Y6478080D01*
G01X5332240Y6643561D02*
G02X5347480Y6628321I0J-15240D01*
G01X5347480Y6478080D02*
G02X5332240Y6462840I-15240J0D01*
G01X4970000Y6643561D02*
G03X4954760Y6628321I0J-15240D01*
G01X4954760Y6478080D02*
G03X4970000Y6462840I15240J0D01*
G01X1388740Y5943869D02*
G01X1517233Y5943869D01*
G01X1517233Y5943869D02*
G01X1517233Y5760451D01*
G01X1517233Y5760451D02*
G01X1388740Y5760451D01*
G01X1293500Y5943869D02*
G01X1165007Y5943869D01*
G01X1165007Y5943869D02*
G01X1165007Y5760451D01*
G01X1165007Y5760451D02*
G01X1293500Y5760451D01*
G01X1388740Y4907549D02*
G01X1517233Y4907549D01*
G01X1517233Y4907549D02*
G01X1517233Y4724131D01*
G01X1517233Y4724131D02*
G01X1388740Y4724131D01*
G01X1293500Y4907549D02*
G01X1165007Y4907549D01*
G01X1165007Y4907549D02*
G01X1165007Y4724131D01*
G01X1165007Y4724131D02*
G01X1293500Y4724131D01*
G01X1388740Y3901709D02*
G01X1517233Y3901709D01*
G01X1517233Y3901709D02*
G01X1517233Y3718291D01*
G01X1517233Y3718291D02*
G01X1388740Y3718291D01*
G01X1293500Y3901709D02*
G01X1165007Y3901709D01*
G01X1165007Y3901709D02*
G01X1165007Y3718291D01*
G01X1165007Y3718291D02*
G01X1293500Y3718291D01*
G01X7248891Y1597020D02*
G01X7248891Y1725513D01*
G01X7248891Y1725513D02*
G01X7432309Y1725513D01*
G01X7432309Y1725513D02*
G01X7432309Y1597020D01*
G01X7248891Y1501780D02*
G01X7248891Y1373287D01*
G01X7248891Y1373287D02*
G01X7432309Y1373287D01*
G01X7432309Y1373287D02*
G01X7432309Y1501780D01*
G01X6994891Y1597020D02*
G01X6994891Y1725513D01*
G01X6994891Y1725513D02*
G01X7178309Y1725513D01*
G01X7178309Y1725513D02*
G01X7178309Y1597020D01*
G01X6994891Y1501780D02*
G01X6994891Y1373287D01*
G01X6994891Y1373287D02*
G01X7178309Y1373287D01*
G01X7178309Y1373287D02*
G01X7178309Y1501780D01*
G01X6253180Y8044180D02*
G01X6548420Y8044180D01*
G01X6253180Y8290298D02*
G01X6253180Y7925062D01*
G01X6548420Y8290298D02*
G01X6548420Y7925062D01*
G01X6253180Y8290298D02*
G01X6261677Y8290298D01*
G01X6548420Y8290298D02*
G01X6539923Y8290298D01*
G36*
G01X6245560Y7932679D02*
G01X6266759Y7932679D01*
G01X6266759Y7886959D01*
G01X6245560Y7886959D01*
G01X6245560Y7932679D01*
G37*
G36*
G01X6556040Y7932679D02*
G01X6534841Y7932679D01*
G01X6534841Y7886959D01*
G01X6556040Y7886959D01*
G01X6556040Y7932679D01*
G37*
G01X537639Y5582740D02*
G01X409146Y5582740D01*
G01X409146Y5582740D02*
G01X409146Y5766158D01*
G01X409146Y5766158D02*
G01X537639Y5766158D01*
G01X632879Y5582740D02*
G01X761373Y5582740D01*
G01X761373Y5582740D02*
G01X761373Y5766158D01*
G01X761373Y5766158D02*
G01X632879Y5766158D01*
G01X531500Y4510771D02*
G01X403007Y4510771D01*
G01X403007Y4510771D02*
G01X403007Y4694189D01*
G01X403007Y4694189D02*
G01X531500Y4694189D01*
G01X626740Y4510771D02*
G01X755233Y4510771D01*
G01X755233Y4510771D02*
G01X755233Y4694189D01*
G01X755233Y4694189D02*
G01X626740Y4694189D01*
G01X575657Y3540580D02*
G01X447163Y3540580D01*
G01X447163Y3540580D02*
G01X447163Y3723998D01*
G01X447163Y3723998D02*
G01X575657Y3723998D01*
G01X670897Y3540580D02*
G01X799390Y3540580D01*
G01X799390Y3540580D02*
G01X799390Y3723998D01*
G01X799390Y3723998D02*
G01X670897Y3723998D01*
G01X4227640Y8302480D02*
G01X4227640Y8443481D01*
G01X4408361Y8443481D02*
G01X4408361Y8302480D01*
G01X4393121Y8287240D02*
G01X4242880Y8287240D01*
G01X4227640Y8664720D02*
G01X4227640Y8523719D01*
G01X4408361Y8523719D02*
G01X4408361Y8664720D01*
G01X4393121Y8679960D02*
G01X4242880Y8679960D01*
G01X4408361Y8302480D02*
G02X4393121Y8287240I-15240J0D01*
G01X4242880Y8287240D02*
G02X4227640Y8302480I0J15240D01*
G01X4408361Y8664720D02*
G03X4393121Y8679960I-15240J0D01*
G01X4242880Y8679960D02*
G03X4227640Y8664720I0J-15240D01*
G54D11*
G01X439574Y2087176D02*
G02X439574Y2274524I35002J93674D01*
G54D12*
G01X872490Y2251481D02*
G01X938479Y2251481D01*
G01X938479Y2251481D02*
G01X872490Y2251481D01*
G01X872490Y2251481D02*
G01X938479Y2251481D01*
G01X938479Y2251481D02*
G01X938479Y2332990D01*
G01X646481Y2332990D02*
G01X646481Y2251481D01*
G01X646481Y2251481D02*
G01X712470Y2251481D01*
G54D11*
G01X762483Y2406472D02*
G01X822477Y2406472D01*
G54D10*
G01X714380Y2590531D02*
G01X585887Y2590531D01*
G01X585887Y2590531D02*
G01X585887Y2773949D01*
G01X585887Y2773949D02*
G01X714380Y2773949D01*
G01X809620Y2590531D02*
G01X938113Y2590531D01*
G01X938113Y2590531D02*
G01X938113Y2773949D01*
G01X938113Y2773949D02*
G01X809620Y2773949D01*
G01X365491Y2821300D02*
G01X365491Y2949793D01*
G01X365491Y2949793D02*
G01X548909Y2949793D01*
G01X548909Y2949793D02*
G01X548909Y2821300D01*
G01X365491Y2726060D02*
G01X365491Y2597567D01*
G01X365491Y2597567D02*
G01X548909Y2597567D01*
G01X548909Y2597567D02*
G01X548909Y2726060D01*
G54D11*
G01X447490Y6764327D02*
G02X447490Y6951675I35002J93674D01*
G54D12*
G01X742950Y6953479D02*
G01X676961Y6953479D01*
G01X676961Y6953479D02*
G01X742950Y6953479D01*
G01X742950Y6953479D02*
G01X676961Y6953479D01*
G01X676961Y6953479D02*
G01X676961Y6871970D01*
G01X968959Y6871970D02*
G01X968959Y6953479D01*
G01X968959Y6953479D02*
G01X902970Y6953479D01*
G54D11*
G01X852957Y6798488D02*
G01X792963Y6798488D01*
G54D10*
G01X1171580Y7010131D02*
G01X1043087Y7010131D01*
G01X1043087Y7010131D02*
G01X1043087Y7193549D01*
G01X1043087Y7193549D02*
G01X1171580Y7193549D01*
G01X1266820Y7010131D02*
G01X1395313Y7010131D01*
G01X1395313Y7010131D02*
G01X1395313Y7193549D01*
G01X1395313Y7193549D02*
G01X1266820Y7193549D01*
G01X640349Y6414140D02*
G01X640349Y6285647D01*
G01X640349Y6285647D02*
G01X456931Y6285647D01*
G01X456931Y6285647D02*
G01X456931Y6414140D01*
G01X640349Y6509380D02*
G01X640349Y6637873D01*
G01X640349Y6637873D02*
G01X456931Y6637873D01*
G01X456931Y6637873D02*
G01X456931Y6509380D01*
G54D12*
G01X5138638Y3435200D02*
G01X5138638Y3525200D01*
G01X5138638Y3525200D02*
G01X3578642Y3525200D01*
G01X3578642Y3525200D02*
G01X3578642Y3435200D01*
G01X3590534Y3605197D02*
G01X3558639Y3605197D01*
G01X3690534Y3605197D02*
G01X3676762Y3605197D01*
G01X3640546Y3405198D02*
G01X3558639Y3405198D01*
G01X3740546Y3405198D02*
G01X3726774Y3405198D01*
G01X3840546Y3405198D02*
G01X3826774Y3405198D01*
G01X3940546Y3405198D02*
G01X3926774Y3405198D01*
G01X4040546Y3405198D02*
G01X4026774Y3405198D01*
G01X4140545Y3405198D02*
G01X4126774Y3405198D01*
G01X4240533Y3405198D02*
G01X4226773Y3405198D01*
G01X3690534Y3605197D02*
G01X3676762Y3605197D01*
G01X3790533Y3605197D02*
G01X3776762Y3605197D01*
G01X3890533Y3605197D02*
G01X3876761Y3605197D01*
G01X3990533Y3605197D02*
G01X3976761Y3605197D01*
G01X4090533Y3605197D02*
G01X4076761Y3605197D01*
G01X4190533Y3605197D02*
G01X4176761Y3605197D01*
G01X4290532Y3605197D02*
G01X4276761Y3605197D01*
G01X5150533Y3405198D02*
G01X5126759Y3405198D01*
G01X5040531Y3405198D02*
G01X5026759Y3405198D01*
G01X4940531Y3405198D02*
G01X4926759Y3405198D01*
G01X4840531Y3405198D02*
G01X4826759Y3405198D01*
G01X4740532Y3405198D02*
G01X4726760Y3405198D01*
G01X4640532Y3405198D02*
G01X4626760Y3405198D01*
G01X5150533Y3605197D02*
G01X5076759Y3605197D01*
G01X4990531Y3605197D02*
G01X4976759Y3605197D01*
G01X4890531Y3605197D02*
G01X4876759Y3605197D01*
G01X4790531Y3605197D02*
G01X4776760Y3605197D01*
G01X4690532Y3605197D02*
G01X4676760Y3605197D01*
G01X4590532Y3605197D02*
G01X4576760Y3605197D01*
G01X4490532Y3605197D02*
G01X4476760Y3605197D01*
G01X4390532Y3605197D02*
G01X4376760Y3605197D01*
G01X4290532Y3605197D02*
G01X4276761Y3605197D01*
G01X4540532Y3405198D02*
G01X4526760Y3405198D01*
G01X4440532Y3405198D02*
G01X4426760Y3405198D01*
G01X4340532Y3405198D02*
G01X4326760Y3405198D01*
G01X4772878Y5477360D02*
G01X4772878Y5567360D01*
G01X4772878Y5567360D02*
G01X3212882Y5567360D01*
G01X3212882Y5567360D02*
G01X3212882Y5477360D01*
G01X3224774Y5647357D02*
G01X3192879Y5647357D01*
G01X3324774Y5647357D02*
G01X3311002Y5647357D01*
G01X3274786Y5447358D02*
G01X3192879Y5447358D01*
G01X3374786Y5447358D02*
G01X3361014Y5447358D01*
G01X3474786Y5447358D02*
G01X3461014Y5447358D01*
G01X3574786Y5447358D02*
G01X3561014Y5447358D01*
G01X3674786Y5447358D02*
G01X3661014Y5447358D01*
G01X3774785Y5447358D02*
G01X3761014Y5447358D01*
G01X3874773Y5447358D02*
G01X3861013Y5447358D01*
G01X3324774Y5647357D02*
G01X3311002Y5647357D01*
G01X3424773Y5647357D02*
G01X3411002Y5647357D01*
G01X3524773Y5647357D02*
G01X3511001Y5647357D01*
G01X3624773Y5647357D02*
G01X3611001Y5647357D01*
G01X3724773Y5647357D02*
G01X3711001Y5647357D01*
G01X3824773Y5647357D02*
G01X3811001Y5647357D01*
G01X3924772Y5647357D02*
G01X3911001Y5647357D01*
G01X4784773Y5447358D02*
G01X4760999Y5447358D01*
G01X4674771Y5447358D02*
G01X4660999Y5447358D01*
G01X4574771Y5447358D02*
G01X4560999Y5447358D01*
G01X4474771Y5447358D02*
G01X4460999Y5447358D01*
G01X4374772Y5447358D02*
G01X4361000Y5447358D01*
G01X4274772Y5447358D02*
G01X4261000Y5447358D01*
G01X4784773Y5647357D02*
G01X4710999Y5647357D01*
G01X4624771Y5647357D02*
G01X4610999Y5647357D01*
G01X4524771Y5647357D02*
G01X4510999Y5647357D01*
G01X4424771Y5647357D02*
G01X4411000Y5647357D01*
G01X4324772Y5647357D02*
G01X4311000Y5647357D01*
G01X4224772Y5647357D02*
G01X4211000Y5647357D01*
G01X4124772Y5647357D02*
G01X4111000Y5647357D01*
G01X4024772Y5647357D02*
G01X4011000Y5647357D01*
G01X3924772Y5647357D02*
G01X3911001Y5647357D01*
G01X4174772Y5447358D02*
G01X4161000Y5447358D01*
G01X4074772Y5447358D02*
G01X4061000Y5447358D01*
G01X3974772Y5447358D02*
G01X3961000Y5447358D01*
G54D10*
G01X10654660Y5029469D02*
G01X10783153Y5029469D01*
G01X10783153Y5029469D02*
G01X10783153Y4846051D01*
G01X10783153Y4846051D02*
G01X10654660Y4846051D01*
G01X10559420Y5029469D02*
G01X10430927Y5029469D01*
G01X10430927Y5029469D02*
G01X10430927Y4846051D01*
G01X10430927Y4846051D02*
G01X10559420Y4846051D01*
G01X11081380Y3779789D02*
G01X11209873Y3779789D01*
G01X11209873Y3779789D02*
G01X11209873Y3596371D01*
G01X11209873Y3596371D02*
G01X11081380Y3596371D01*
G01X10986140Y3779789D02*
G01X10857647Y3779789D01*
G01X10857647Y3779789D02*
G01X10857647Y3596371D01*
G01X10857647Y3596371D02*
G01X10986140Y3596371D01*
G01X11111860Y4023629D02*
G01X11240353Y4023629D01*
G01X11240353Y4023629D02*
G01X11240353Y3840211D01*
G01X11240353Y3840211D02*
G01X11111860Y3840211D01*
G01X11016620Y4023629D02*
G01X10888127Y4023629D01*
G01X10888127Y4023629D02*
G01X10888127Y3840211D01*
G01X10888127Y3840211D02*
G01X11016620Y3840211D01*
G01X10790189Y4250060D02*
G01X10790189Y4121567D01*
G01X10790189Y4121567D02*
G01X10606771Y4121567D01*
G01X10606771Y4121567D02*
G01X10606771Y4250060D01*
G01X10790189Y4345300D02*
G01X10790189Y4473793D01*
G01X10790189Y4473793D02*
G01X10606771Y4473793D01*
G01X10606771Y4473793D02*
G01X10606771Y4345300D01*
G01X11185521Y4890510D02*
G01X11057028Y4890510D01*
G01X11057028Y4890510D02*
G01X11057028Y5073928D01*
G01X11057028Y5073928D02*
G01X11185521Y5073928D01*
G01X11280761Y4890510D02*
G01X11409255Y4890510D01*
G01X11409255Y4890510D02*
G01X11409255Y5073928D01*
G01X11409255Y5073928D02*
G01X11280761Y5073928D01*
G01X11660130Y5086999D02*
G01X11660130Y4958505D01*
G01X11660130Y4958505D02*
G01X11476712Y4958505D01*
G01X11476712Y4958505D02*
G01X11476712Y5086999D01*
G01X11660130Y5182239D02*
G01X11660130Y5310732D01*
G01X11660130Y5310732D02*
G01X11476712Y5310732D01*
G01X11476712Y5310732D02*
G01X11476712Y5182239D01*
G01X10788160Y4634040D02*
G01X10647159Y4634040D01*
G01X10647159Y4814761D02*
G01X10788160Y4814761D01*
G01X10803400Y4799521D02*
G01X10803400Y4649280D01*
G01X10425920Y4634040D02*
G01X10566921Y4634040D01*
G01X10566921Y4814761D02*
G01X10425920Y4814761D01*
G01X10410680Y4799521D02*
G01X10410680Y4649280D01*
G01X10788160Y4814761D02*
G02X10803400Y4799521I0J-15240D01*
G01X10803400Y4649280D02*
G02X10788160Y4634040I-15240J0D01*
G01X10425920Y4814761D02*
G03X10410680Y4799521I0J-15240D01*
G01X10410680Y4649280D02*
G03X10425920Y4634040I15240J0D01*
G01X11797679Y4304539D02*
G01X11797679Y4623579D01*
G01X11797679Y4623579D02*
G01X10912441Y4623579D01*
G01X10912441Y4623579D02*
G01X10912441Y4304539D01*
G01X10912441Y4304539D02*
G01X11797679Y4304539D01*
G01X2604140Y8198851D02*
G01X2475647Y8198851D01*
G01X2475647Y8198851D02*
G01X2475647Y8382269D01*
G01X2475647Y8382269D02*
G01X2604140Y8382269D01*
G01X2699380Y8198851D02*
G01X2827873Y8198851D01*
G01X2827873Y8198851D02*
G01X2827873Y8382269D01*
G01X2827873Y8382269D02*
G01X2699380Y8382269D01*
G01X2727320Y1463309D02*
G01X2855813Y1463309D01*
G01X2855813Y1463309D02*
G01X2855813Y1279891D01*
G01X2855813Y1279891D02*
G01X2727320Y1279891D01*
G01X2632080Y1463309D02*
G01X2503587Y1463309D01*
G01X2503587Y1463309D02*
G01X2503587Y1279891D01*
G01X2503587Y1279891D02*
G01X2632080Y1279891D01*
G01X6460681Y4478800D02*
G01X6460681Y4337799D01*
G01X6279960Y4337799D02*
G01X6279960Y4478800D01*
G01X6295200Y4494040D02*
G01X6445441Y4494040D01*
G01X6460681Y4116560D02*
G01X6460681Y4257561D01*
G01X6279960Y4257561D02*
G01X6279960Y4116560D01*
G01X6295200Y4101320D02*
G01X6445441Y4101320D01*
G01X6279960Y4478800D02*
G02X6295200Y4494040I15240J0D01*
G01X6445441Y4494040D02*
G02X6460681Y4478800I0J-15240D01*
G01X6279960Y4116560D02*
G03X6295200Y4101320I15240J0D01*
G01X6445441Y4101320D02*
G03X6460681Y4116560I0J15240D01*
G01X7835120Y7405561D02*
G01X7976121Y7405561D01*
G01X7976121Y7224840D02*
G01X7835120Y7224840D01*
G01X7819880Y7240080D02*
G01X7819880Y7390321D01*
G01X8197360Y7405561D02*
G01X8056359Y7405561D01*
G01X8056359Y7224840D02*
G01X8197360Y7224840D01*
G01X8212600Y7240080D02*
G01X8212600Y7390321D01*
G01X7835120Y7224840D02*
G02X7819880Y7240080I0J15240D01*
G01X7819880Y7390321D02*
G02X7835120Y7405561I15240J0D01*
G01X8197360Y7224840D02*
G03X8212600Y7240080I0J15240D01*
G01X8212600Y7390321D02*
G03X8197360Y7405561I-15240J0D01*
G01X7835120Y1218121D02*
G01X7976121Y1218121D01*
G01X7976121Y1037400D02*
G01X7835120Y1037400D01*
G01X7819880Y1052640D02*
G01X7819880Y1202881D01*
G01X8197360Y1218121D02*
G01X8056359Y1218121D01*
G01X8056359Y1037400D02*
G01X8197360Y1037400D01*
G01X8212600Y1052640D02*
G01X8212600Y1202881D01*
G01X7835120Y1037400D02*
G02X7819880Y1052640I0J15240D01*
G01X7819880Y1202881D02*
G02X7835120Y1218121I15240J0D01*
G01X8197360Y1037400D02*
G03X8212600Y1052640I0J15240D01*
G01X8212600Y1202881D02*
G03X8197360Y1218121I-15240J0D01*
G01X6801820Y8044180D02*
G01X7097060Y8044180D01*
G01X6801820Y8290298D02*
G01X6801820Y7925062D01*
G01X7097060Y8290298D02*
G01X7097060Y7925062D01*
G01X6801820Y8290298D02*
G01X6810317Y8290298D01*
G01X7097060Y8290298D02*
G01X7088563Y8290298D01*
G36*
G01X6794200Y7932679D02*
G01X6815399Y7932679D01*
G01X6815399Y7886959D01*
G01X6794200Y7886959D01*
G01X6794200Y7932679D01*
G37*
G36*
G01X7104680Y7932679D02*
G01X7083481Y7932679D01*
G01X7083481Y7886959D01*
G01X7104680Y7886959D01*
G01X7104680Y7932679D01*
G37*
G54D12*
G01X12237720Y2626360D02*
G01X12837721Y2626360D01*
G01X12237720Y2372360D02*
G01X12837721Y2372360D01*
G01X12237720Y2880360D02*
G01X12837721Y2880360D01*
G01X12237720Y2118360D02*
G01X12837721Y2118360D01*
G54D10*
G01X12466589Y3213740D02*
G01X12466589Y3085247D01*
G01X12466589Y3085247D02*
G01X12283171Y3085247D01*
G01X12283171Y3085247D02*
G01X12283171Y3213740D01*
G01X12466589Y3308980D02*
G01X12466589Y3437473D01*
G01X12466589Y3437473D02*
G01X12283171Y3437473D01*
G01X12283171Y3437473D02*
G01X12283171Y3308980D01*
G01X12740909Y3213740D02*
G01X12740909Y3085247D01*
G01X12740909Y3085247D02*
G01X12557491Y3085247D01*
G01X12557491Y3085247D02*
G01X12557491Y3213740D01*
G01X12740909Y3308980D02*
G01X12740909Y3437473D01*
G01X12740909Y3437473D02*
G01X12557491Y3437473D01*
G01X12557491Y3437473D02*
G01X12557491Y3308980D01*
G01X747840Y123680D02*
G01X747840Y264681D01*
G01X928561Y264681D02*
G01X928561Y123680D01*
G01X913321Y108440D02*
G01X763080Y108440D01*
G01X747840Y485920D02*
G01X747840Y344919D01*
G01X928561Y344919D02*
G01X928561Y485920D01*
G01X913321Y501160D02*
G01X763080Y501160D01*
G01X928561Y123680D02*
G02X913321Y108440I-15240J0D01*
G01X763080Y108440D02*
G02X747840Y123680I0J15240D01*
G01X928561Y485920D02*
G03X913321Y501160I-15240J0D01*
G01X763080Y501160D02*
G03X747840Y485920I0J-15240D01*
G01X1062450Y717920D02*
G01X1190944Y717920D01*
G01X1190944Y717920D02*
G01X1190944Y534501D01*
G01X1190944Y534501D02*
G01X1062450Y534501D01*
G01X967210Y717920D02*
G01X838717Y717920D01*
G01X838717Y717920D02*
G01X838717Y534501D01*
G01X838717Y534501D02*
G01X967210Y534501D01*
G01X600080Y644891D02*
G01X471587Y644891D01*
G01X471587Y644891D02*
G01X471587Y828309D01*
G01X471587Y828309D02*
G01X600080Y828309D01*
G01X695320Y644891D02*
G01X823813Y644891D01*
G01X823813Y644891D02*
G01X823813Y828309D01*
G01X823813Y828309D02*
G01X695320Y828309D01*
G54D12*
G01X49630Y56570D02*
G01X303630Y56570D01*
G01X49630Y860571D02*
G01X49630Y56570D01*
G01X49630Y583218D02*
G01X303630Y583218D01*
G01X303630Y860571D02*
G01X303630Y56570D01*
G01X49630Y860571D02*
G01X303630Y860571D01*
G54D10*
G01X747840Y8226280D02*
G01X747840Y8367281D01*
G01X928561Y8367281D02*
G01X928561Y8226280D01*
G01X913321Y8211040D02*
G01X763080Y8211040D01*
G01X747840Y8588520D02*
G01X747840Y8447519D01*
G01X928561Y8447519D02*
G01X928561Y8588520D01*
G01X913321Y8603760D02*
G01X763080Y8603760D01*
G01X928561Y8226280D02*
G02X913321Y8211040I-15240J0D01*
G01X763080Y8211040D02*
G02X747840Y8226280I0J15240D01*
G01X928561Y8588520D02*
G03X913321Y8603760I-15240J0D01*
G01X763080Y8603760D02*
G03X747840Y8588520I0J-15240D01*
G01X1152520Y8854709D02*
G01X1281013Y8854709D01*
G01X1281013Y8854709D02*
G01X1281013Y8671291D01*
G01X1281013Y8671291D02*
G01X1152520Y8671291D01*
G01X1057280Y8854709D02*
G01X928787Y8854709D01*
G01X928787Y8854709D02*
G01X928787Y8671291D01*
G01X928787Y8671291D02*
G01X1057280Y8671291D01*
G01X686440Y8668751D02*
G01X557947Y8668751D01*
G01X557947Y8668751D02*
G01X557947Y8852169D01*
G01X557947Y8852169D02*
G01X686440Y8852169D01*
G01X781680Y8668751D02*
G01X910173Y8668751D01*
G01X910173Y8668751D02*
G01X910173Y8852169D01*
G01X910173Y8852169D02*
G01X781680Y8852169D01*
G54D12*
G01X304800Y9012601D02*
G01X50800Y9012601D01*
G01X304800Y8208599D02*
G01X304800Y9012601D01*
G01X304800Y8485952D02*
G01X50800Y8485952D01*
G01X50800Y8208599D02*
G01X50800Y9012601D01*
G01X304800Y8208599D02*
G01X50800Y8208599D01*
G54D10*
G01X11641600Y3841560D02*
G01X11500599Y3841560D01*
G01X11500599Y4022281D02*
G01X11641600Y4022281D01*
G01X11656840Y4007041D02*
G01X11656840Y3856800D01*
G01X11279360Y3841560D02*
G01X11420361Y3841560D01*
G01X11420361Y4022281D02*
G01X11279360Y4022281D01*
G01X11264120Y4007041D02*
G01X11264120Y3856800D01*
G01X11641600Y4022281D02*
G02X11656840Y4007041I0J-15240D01*
G01X11656840Y3856800D02*
G02X11641600Y3841560I-15240J0D01*
G01X11279360Y4022281D02*
G03X11264120Y4007041I0J-15240D01*
G01X11264120Y3856800D02*
G03X11279360Y3841560I15240J0D01*
G01X5869300Y4938029D02*
G01X5997793Y4938029D01*
G01X5997793Y4938029D02*
G01X5997793Y4754611D01*
G01X5997793Y4754611D02*
G01X5869300Y4754611D01*
G01X5774060Y4938029D02*
G01X5645567Y4938029D01*
G01X5645567Y4938029D02*
G01X5645567Y4754611D01*
G01X5645567Y4754611D02*
G01X5774060Y4754611D01*
G01X11508100Y3566429D02*
G01X11636593Y3566429D01*
G01X11636593Y3566429D02*
G01X11636593Y3383011D01*
G01X11636593Y3383011D02*
G01X11508100Y3383011D01*
G01X11412860Y3566429D02*
G01X11284367Y3566429D01*
G01X11284367Y3566429D02*
G01X11284367Y3383011D01*
G01X11284367Y3383011D02*
G01X11412860Y3383011D01*
G01X10788160Y3597720D02*
G01X10647159Y3597720D01*
G01X10647159Y3778441D02*
G01X10788160Y3778441D01*
G01X10803400Y3763201D02*
G01X10803400Y3612960D01*
G01X10425920Y3597720D02*
G01X10566921Y3597720D01*
G01X10566921Y3778441D02*
G01X10425920Y3778441D01*
G01X10410680Y3763201D02*
G01X10410680Y3612960D01*
G01X10788160Y3778441D02*
G02X10803400Y3763201I0J-15240D01*
G01X10803400Y3612960D02*
G02X10788160Y3597720I-15240J0D01*
G01X10425920Y3778441D02*
G03X10410680Y3763201I0J-15240D01*
G01X10410680Y3612960D02*
G03X10425920Y3597720I15240J0D01*
G01X10759219Y3310659D02*
G01X10759219Y3455901D01*
G01X10759219Y3455901D02*
G01X10862381Y3455901D01*
G01X11064461Y3310659D02*
G01X11064461Y3455901D01*
G01X11064461Y3455901D02*
G01X10961299Y3455901D01*
G01X10866300Y3310659D02*
G01X10957380Y3310659D01*
G01X11498321Y7064901D02*
G01X11194039Y7064901D01*
G01X11194039Y7064901D02*
G01X11194039Y6559659D01*
G01X11194039Y6559659D02*
G01X11498321Y6559659D01*
G01X11498321Y6559659D02*
G01X11498321Y7064901D01*
G54D12*
G01X12318799Y6489492D02*
G01X12318799Y5829496D01*
G01X11658801Y6489492D02*
G01X11658801Y5829496D01*
G01X11658801Y5829496D02*
G01X11790685Y5829496D01*
G01X12186915Y6489492D02*
G01X12318799Y6489492D01*
G01X11658801Y6489492D02*
G01X11790685Y6489492D01*
G01X12186915Y5829496D02*
G01X12318799Y5829496D01*
G54D10*
G01X11834940Y6689580D02*
G01X11834940Y6830581D01*
G01X12015661Y6830581D02*
G01X12015661Y6689580D01*
G01X12000421Y6674340D02*
G01X11850180Y6674340D01*
G01X11834940Y7051820D02*
G01X11834940Y6910819D01*
G01X12015661Y6910819D02*
G01X12015661Y7051820D01*
G01X12000421Y7067060D02*
G01X11850180Y7067060D01*
G01X12015661Y6689580D02*
G02X12000421Y6674340I-15240J0D01*
G01X11850180Y6674340D02*
G02X11834940Y6689580I0J15240D01*
G01X12015661Y7051820D02*
G03X12000421Y7067060I-15240J0D01*
G01X11850180Y7067060D02*
G03X11834940Y7051820I0J-15240D01*
G01X11388720Y7343409D02*
G01X11517213Y7343409D01*
G01X11517213Y7343409D02*
G01X11517213Y7159991D01*
G01X11517213Y7159991D02*
G01X11388720Y7159991D01*
G01X11293480Y7343409D02*
G01X11164987Y7343409D01*
G01X11164987Y7343409D02*
G01X11164987Y7159991D01*
G01X11164987Y7159991D02*
G01X11293480Y7159991D01*
G01X10512280Y7138861D02*
G01X10653281Y7138861D01*
G01X10653281Y6958140D02*
G01X10512280Y6958140D01*
G01X10497040Y6973380D02*
G01X10497040Y7123621D01*
G01X10874520Y7138861D02*
G01X10733519Y7138861D01*
G01X10733519Y6958140D02*
G01X10874520Y6958140D01*
G01X10889760Y6973380D02*
G01X10889760Y7123621D01*
G01X10512280Y6958140D02*
G02X10497040Y6973380I0J15240D01*
G01X10497040Y7123621D02*
G02X10512280Y7138861I15240J0D01*
G01X10874520Y6958140D02*
G03X10889760Y6973380I0J15240D01*
G01X10889760Y7123621D02*
G03X10874520Y7138861I-15240J0D01*
G01X10874520Y6533960D02*
G01X10733519Y6533960D01*
G01X10733519Y6714681D02*
G01X10874520Y6714681D01*
G01X10889760Y6699441D02*
G01X10889760Y6549200D01*
G01X10512280Y6533960D02*
G01X10653281Y6533960D01*
G01X10653281Y6714681D02*
G01X10512280Y6714681D01*
G01X10497040Y6699441D02*
G01X10497040Y6549200D01*
G01X10874520Y6714681D02*
G02X10889760Y6699441I0J-15240D01*
G01X10889760Y6549200D02*
G02X10874520Y6533960I-15240J0D01*
G01X10512280Y6714681D02*
G03X10497040Y6699441I0J-15240D01*
G01X10497040Y6549200D02*
G03X10512280Y6533960I15240J0D01*
G01X10741020Y6929389D02*
G01X10869513Y6929389D01*
G01X10869513Y6929389D02*
G01X10869513Y6745971D01*
G01X10869513Y6745971D02*
G01X10741020Y6745971D01*
G01X10645780Y6929389D02*
G01X10517287Y6929389D01*
G01X10517287Y6929389D02*
G01X10517287Y6745971D01*
G01X10517287Y6745971D02*
G01X10645780Y6745971D01*
G01X10645780Y6321791D02*
G01X10517287Y6321791D01*
G01X10517287Y6321791D02*
G01X10517287Y6505209D01*
G01X10517287Y6505209D02*
G01X10645780Y6505209D01*
G01X10741020Y6321791D02*
G01X10869513Y6321791D01*
G01X10869513Y6321791D02*
G01X10869513Y6505209D01*
G01X10869513Y6505209D02*
G01X10741020Y6505209D01*
G01X10487391Y6143620D02*
G01X10487391Y6272113D01*
G01X10487391Y6272113D02*
G01X10670809Y6272113D01*
G01X10670809Y6272113D02*
G01X10670809Y6143620D01*
G01X10487391Y6048380D02*
G01X10487391Y5919887D01*
G01X10487391Y5919887D02*
G01X10670809Y5919887D01*
G01X10670809Y5919887D02*
G01X10670809Y6048380D01*
G01X10703291Y6143620D02*
G01X10703291Y6272113D01*
G01X10703291Y6272113D02*
G01X10886709Y6272113D01*
G01X10886709Y6272113D02*
G01X10886709Y6143620D01*
G01X10703291Y6048380D02*
G01X10703291Y5919887D01*
G01X10703291Y5919887D02*
G01X10886709Y5919887D01*
G01X10886709Y5919887D02*
G01X10886709Y6048380D01*
G01X4268280Y7195040D02*
G01X4268280Y7336041D01*
G01X4449001Y7336041D02*
G01X4449001Y7195040D01*
G01X4433761Y7179800D02*
G01X4283520Y7179800D01*
G01X4268280Y7557280D02*
G01X4268280Y7416279D01*
G01X4449001Y7416279D02*
G01X4449001Y7557280D01*
G01X4433761Y7572520D02*
G01X4283520Y7572520D01*
G01X4449001Y7195040D02*
G02X4433761Y7179800I-15240J0D01*
G01X4283520Y7179800D02*
G02X4268280Y7195040I0J15240D01*
G01X4449001Y7557280D02*
G03X4433761Y7572520I-15240J0D01*
G01X4283520Y7572520D02*
G03X4268280Y7557280I0J-15240D01*
G01X2665100Y7193011D02*
G01X2536607Y7193011D01*
G01X2536607Y7193011D02*
G01X2536607Y7376429D01*
G01X2536607Y7376429D02*
G01X2665100Y7376429D01*
G01X2760340Y7193011D02*
G01X2888833Y7193011D01*
G01X2888833Y7193011D02*
G01X2888833Y7376429D01*
G01X2888833Y7376429D02*
G01X2760340Y7376429D01*
G01X4786440Y7286480D02*
G01X4786440Y7427481D01*
G01X4967161Y7427481D02*
G01X4967161Y7286480D01*
G01X4951921Y7271240D02*
G01X4801680Y7271240D01*
G01X4786440Y7648720D02*
G01X4786440Y7507719D01*
G01X4967161Y7507719D02*
G01X4967161Y7648720D01*
G01X4951921Y7663960D02*
G01X4801680Y7663960D01*
G01X4967161Y7286480D02*
G02X4951921Y7271240I-15240J0D01*
G01X4801680Y7271240D02*
G02X4786440Y7286480I0J15240D01*
G01X4967161Y7648720D02*
G03X4951921Y7663960I-15240J0D01*
G01X4801680Y7663960D02*
G03X4786440Y7648720I0J-15240D01*
G01X3441583Y619783D02*
G01X4076817Y619783D01*
G01X3441583Y955017D02*
G01X4076817Y955017D01*
G01X3924628Y619783D02*
G01X3924628Y955017D01*
G01X3441583Y619783D02*
G01X3441583Y648277D01*
G01X3441583Y955017D02*
G01X3441583Y926523D01*
G36*
G01X4069199Y612160D02*
G01X4069199Y653359D01*
G01X4114919Y653359D01*
G01X4114919Y612160D01*
G01X4069199Y612160D01*
G37*
G36*
G01X4069199Y962640D02*
G01X4069199Y921441D01*
G01X4114919Y921441D01*
G01X4114919Y962640D01*
G01X4069199Y962640D01*
G37*
G01X3578977Y8122897D02*
G01X2943743Y8122897D01*
G01X3578977Y7787663D02*
G01X2943743Y7787663D01*
G01X3095932Y8122897D02*
G01X3095932Y7787663D01*
G01X3578977Y8122897D02*
G01X3578977Y8094403D01*
G01X3578977Y7787663D02*
G01X3578977Y7816157D01*
G36*
G01X2951361Y8130520D02*
G01X2951361Y8089321D01*
G01X2905641Y8089321D01*
G01X2905641Y8130520D01*
G01X2951361Y8130520D01*
G37*
G36*
G01X2951361Y7780040D02*
G01X2951361Y7821239D01*
G01X2905641Y7821239D01*
G01X2905641Y7780040D01*
G01X2951361Y7780040D01*
G37*
G01X6748897Y6294097D02*
G01X6113663Y6294097D01*
G01X6748897Y5958863D02*
G01X6113663Y5958863D01*
G01X6265852Y6294097D02*
G01X6265852Y5958863D01*
G01X6748897Y6294097D02*
G01X6748897Y6265603D01*
G01X6748897Y5958863D02*
G01X6748897Y5987357D01*
G36*
G01X6121281Y6301720D02*
G01X6121281Y6260521D01*
G01X6075561Y6260521D01*
G01X6075561Y6301720D01*
G01X6121281Y6301720D01*
G37*
G36*
G01X6121281Y5951240D02*
G01X6121281Y5992439D01*
G01X6075561Y5992439D01*
G01X6075561Y5951240D01*
G01X6121281Y5951240D01*
G37*
G01X5775937Y5778383D02*
G01X5775937Y6413617D01*
G01X5440703Y5778383D02*
G01X5440703Y6413617D01*
G01X5775937Y6261428D02*
G01X5440703Y6261428D01*
G01X5775937Y5778383D02*
G01X5747443Y5778383D01*
G01X5440703Y5778383D02*
G01X5469197Y5778383D01*
G36*
G01X5783560Y6405999D02*
G01X5742361Y6405999D01*
G01X5742361Y6451719D01*
G01X5783560Y6451719D01*
G01X5783560Y6405999D01*
G37*
G36*
G01X5433080Y6405999D02*
G01X5474279Y6405999D01*
G01X5474279Y6451719D01*
G01X5433080Y6451719D01*
G01X5433080Y6405999D01*
G37*
G54D13*
G01X4165600Y8102600D02*
G01X4165600Y8013700D01*
G01X4165600Y8013700D02*
G01X4169890Y8013700D01*
G01X4264886Y8166100D02*
G01X4165600Y8166100D01*
G01X4165600Y8166100D02*
G01X4165600Y8077200D01*
G01X4466110Y8013700D02*
G01X4470400Y8013700D01*
G01X4470400Y8013700D02*
G01X4470400Y8166100D01*
G01X4470400Y8166100D02*
G01X4371114Y8166100D01*
G01X4276118Y8013700D02*
G01X4359882Y8013700D01*
G54D10*
G01X4104909Y7940680D02*
G01X4104909Y7812187D01*
G01X4104909Y7812187D02*
G01X3921491Y7812187D01*
G01X3921491Y7812187D02*
G01X3921491Y7940680D01*
G01X4104909Y8035920D02*
G01X4104909Y8164413D01*
G01X4104909Y8164413D02*
G01X3921491Y8164413D01*
G01X3921491Y8164413D02*
G01X3921491Y8035920D01*
G01X11903220Y1763840D02*
G01X11762219Y1763840D01*
G01X11762219Y1944561D02*
G01X11903220Y1944561D01*
G01X11918460Y1929321D02*
G01X11918460Y1779080D01*
G01X11540980Y1763840D02*
G01X11681981Y1763840D01*
G01X11681981Y1944561D02*
G01X11540980Y1944561D01*
G01X11525740Y1929321D02*
G01X11525740Y1779080D01*
G01X11903220Y1944561D02*
G02X11918460Y1929321I0J-15240D01*
G01X11918460Y1779080D02*
G02X11903220Y1763840I-15240J0D01*
G01X11540980Y1944561D02*
G03X11525740Y1929321I0J-15240D01*
G01X11525740Y1779080D02*
G03X11540980Y1763840I15240J0D01*
G01X1063620Y917209D02*
G01X1192113Y917209D01*
G01X1192113Y917209D02*
G01X1192113Y733791D01*
G01X1192113Y733791D02*
G01X1063620Y733791D01*
G01X968380Y917209D02*
G01X839887Y917209D01*
G01X839887Y917209D02*
G01X839887Y733791D01*
G01X839887Y733791D02*
G01X968380Y733791D01*
G01X1152520Y9057909D02*
G01X1281013Y9057909D01*
G01X1281013Y9057909D02*
G01X1281013Y8874491D01*
G01X1281013Y8874491D02*
G01X1152520Y8874491D01*
G01X1057280Y9057909D02*
G01X928787Y9057909D01*
G01X928787Y9057909D02*
G01X928787Y8874491D01*
G01X928787Y8874491D02*
G01X1057280Y8874491D01*
G54D11*
G01X12186201Y4270743D02*
G01X12286178Y4270743D01*
G01X12286178Y4270743D02*
G01X12286204Y4644733D01*
G01X12286204Y4644733D02*
G01X12182191Y4644733D01*
G01X12096204Y4644695D02*
G01X11994223Y4644695D01*
G01X11994223Y4644695D02*
G01X11994198Y4270705D01*
G01X11994198Y4270705D02*
G01X12098228Y4270705D01*
G54D14*
G01X11456624Y2701521D02*
G01X11456624Y2680899D01*
G01X11456624Y2556279D02*
G01X11456624Y2575900D01*
G54D10*
G01X11281380Y2556279D02*
G01X11456624Y2556279D01*
G01X11281380Y2701521D02*
G01X11456624Y2701521D01*
G01X11321824Y2556279D02*
G01X11321824Y2701521D01*
G36*
G01X11289002Y2548659D02*
G01X11289002Y2583899D01*
G01X11258522Y2583899D01*
G01X11258522Y2548659D01*
G01X11289002Y2548659D01*
G37*
G36*
G01X11289002Y2709141D02*
G01X11289002Y2673901D01*
G01X11258522Y2673901D01*
G01X11258522Y2709141D01*
G01X11289002Y2709141D01*
G37*
G54D14*
G01X11276376Y2734079D02*
G01X11276376Y2754701D01*
G01X11276376Y2879321D02*
G01X11276376Y2859700D01*
G54D10*
G01X11451620Y2879321D02*
G01X11276376Y2879321D01*
G01X11451620Y2734079D02*
G01X11276376Y2734079D01*
G01X11411176Y2879321D02*
G01X11411176Y2734079D01*
G36*
G01X11443998Y2886941D02*
G01X11443998Y2851701D01*
G01X11474478Y2851701D01*
G01X11474478Y2886941D01*
G01X11443998Y2886941D01*
G37*
G36*
G01X11443998Y2726459D02*
G01X11443998Y2761699D01*
G01X11474478Y2761699D01*
G01X11474478Y2726459D01*
G01X11443998Y2726459D01*
G37*
G01X11445509Y3101980D02*
G01X11445509Y2973487D01*
G01X11445509Y2973487D02*
G01X11262091Y2973487D01*
G01X11262091Y2973487D02*
G01X11262091Y3101980D01*
G01X11445509Y3197220D02*
G01X11445509Y3325713D01*
G01X11445509Y3325713D02*
G01X11262091Y3325713D01*
G01X11262091Y3325713D02*
G01X11262091Y3197220D01*
G01X12055109Y3216280D02*
G01X12055109Y3087787D01*
G01X12055109Y3087787D02*
G01X11871691Y3087787D01*
G01X11871691Y3087787D02*
G01X11871691Y3216280D01*
G01X12055109Y3311520D02*
G01X12055109Y3440013D01*
G01X12055109Y3440013D02*
G01X11871691Y3440013D01*
G01X11871691Y3440013D02*
G01X11871691Y3311520D01*
G01X11320739Y5626280D02*
G01X11320739Y5774779D01*
G01X11539261Y5774779D02*
G01X11539261Y5626280D01*
G01X11524021Y5611040D02*
G01X11335979Y5611040D01*
G01X11320739Y6108520D02*
G01X11320739Y5960021D01*
G01X11539261Y5960021D02*
G01X11539261Y6108520D01*
G01X11524021Y6123760D02*
G01X11335979Y6123760D01*
G01X11539261Y5626280D02*
G02X11524021Y5611040I-15240J0D01*
G01X11335979Y5611040D02*
G02X11320739Y5626280I0J15240D01*
G01X11539261Y6108520D02*
G03X11524021Y6123760I-15240J0D01*
G01X11335979Y6123760D02*
G03X11320739Y6108520I0J-15240D01*
G01X11028639Y5626280D02*
G01X11028639Y5774779D01*
G01X11247161Y5774779D02*
G01X11247161Y5626280D01*
G01X11231921Y5611040D02*
G01X11043879Y5611040D01*
G01X11028639Y6108520D02*
G01X11028639Y5960021D01*
G01X11247161Y5960021D02*
G01X11247161Y6108520D01*
G01X11231921Y6123760D02*
G01X11043879Y6123760D01*
G01X11247161Y5626280D02*
G02X11231921Y5611040I-15240J0D01*
G01X11043879Y5611040D02*
G02X11028639Y5626280I0J15240D01*
G01X11247161Y6108520D02*
G03X11231921Y6123760I-15240J0D01*
G01X11043879Y6123760D02*
G03X11028639Y6108520I0J-15240D01*
G01X11747680Y7360961D02*
G01X11896179Y7360961D01*
G01X11896179Y7142439D02*
G01X11747680Y7142439D01*
G01X11732440Y7157679D02*
G01X11732440Y7345721D01*
G01X12229920Y7360961D02*
G01X12081421Y7360961D01*
G01X12081421Y7142439D02*
G01X12229920Y7142439D01*
G01X12245160Y7157679D02*
G01X12245160Y7345721D01*
G01X11747680Y7142439D02*
G02X11732440Y7157679I0J15240D01*
G01X11732440Y7345721D02*
G02X11747680Y7360961I15240J0D01*
G01X12229920Y7142439D02*
G03X12245160Y7157679I0J15240D01*
G01X12245160Y7345721D02*
G03X12229920Y7360961I-15240J0D01*
G01X6041880Y1004761D02*
G01X6182881Y1004761D01*
G01X6182881Y824040D02*
G01X6041880Y824040D01*
G01X6026640Y839280D02*
G01X6026640Y989521D01*
G01X6404120Y1004761D02*
G01X6263119Y1004761D01*
G01X6263119Y824040D02*
G01X6404120Y824040D01*
G01X6419360Y839280D02*
G01X6419360Y989521D01*
G01X6041880Y824040D02*
G02X6026640Y839280I0J15240D01*
G01X6026640Y989521D02*
G02X6041880Y1004761I15240J0D01*
G01X6404120Y824040D02*
G03X6419360Y839280I0J15240D01*
G01X6419360Y989521D02*
G03X6404120Y1004761I-15240J0D01*
G01X6668961Y714520D02*
G01X6668961Y573519D01*
G01X6488240Y573519D02*
G01X6488240Y714520D01*
G01X6503480Y729760D02*
G01X6653721Y729760D01*
G01X6668961Y352280D02*
G01X6668961Y493281D01*
G01X6488240Y493281D02*
G01X6488240Y352280D01*
G01X6503480Y337040D02*
G01X6653721Y337040D01*
G01X6488240Y714520D02*
G02X6503480Y729760I15240J0D01*
G01X6653721Y729760D02*
G02X6668961Y714520I0J-15240D01*
G01X6488240Y352280D02*
G03X6503480Y337040I15240J0D01*
G01X6653721Y337040D02*
G03X6668961Y352280I0J15240D01*
G01X6134080Y762249D02*
G01X6311920Y762249D01*
G01X6134080Y456951D02*
G01X6311920Y456951D01*

G04 Rect Start*
G54D12*
G01X12237720Y1991360D02*
G01X11983720Y1991360D01*
G01X11983720Y3007360D01*
G01X12237720Y3007360D01*
G01X12237720Y1991360D01*
G04 Rect End*

G04 Circle Start*
G01X5136350Y3341205D02*
G03X5156924Y3341205I10287J0D01*
G03X5136350Y3341205I-10287J0D01*
G01X4770590Y5383365D02*
G03X4791164Y5383365I10287J0D01*
G03X4770590Y5383365I-10287J0D01*
G54D16*
G01X11761817Y4333528D02*
G03X11775584Y4333528I6883J0D01*
G03X11761817Y4333528I-6883J0D01*
G54D17*
G01X11821304Y4202566D02*
G03X11841319Y4202566I10008J0D01*
G03X11821304Y4202566I-10008J0D01*
G54D18*
G01X11408080Y7002780D02*
G03X11438103Y7002780I15011J0D01*
G03X11408080Y7002780I-15011J0D01*
G01X11608410Y7077431D02*
G03X11638432Y7077431I15011J0D01*
G03X11608410Y7077431I-15011J0D01*
G01X6077839Y442773D02*
G03X6107862Y442773I15011J0D01*
G03X6077839Y442773I-15011J0D01*
G04 Circle End*

M02*

