G04 Layer: DrillDrawingLayer*
G04 EasyEDA Pro v2.2.40.8, 2025-09-21 19:41:23*
G04 Gerber Generator version 0.3*
G04 Scale: 100 percent, Rotated: No, Reflected: No*
G04 Dimensions in millimeters*
G04 Leading zeros omitted, absolute positions, 4 integers and 5 decimals*
G04 Generated by one-click*
%FSLAX45Y45*%
%MOMM*%
%AMIconRect*4,1,4,0.2,-0.2,-0.2,-0.2,-0.2,0.2,0.2,0.2,0.2,-0.2,0*4,0,4,0.166667,-0.166667,0.166667,0.166667,-0.166667,0.166667,-0.166667,-0.166667,0.166667,-0.166667,0*%
%AMIconTriangle*4,1,3,-0.242567,0.171767,0.242567,0.171767,0,-0.2706,-0.242567,0.171767,0*4,0,3,-0.189767,0.1386,0,-0.1953,0.190167,0.1386,-0.189767,0.1386,0*%
%AMIconStar6*4,1,12,0.0862,0.1492,0.213233,0.123367,0.172367,0,0.213233,-0.1229,0.0862,-0.148733,0,-0.245767,-0.085767,-0.148733,-0.213267,-0.1229,-0.171933,0,-0.213267,0.1229,-0.085767,0.1492,0,0.245767,0.0862,0.1492,0*4,0,12,-0.000333,0.195333,-0.064333,0.122667,-0.169667,0.097667,-0.138333,-0.005333,-0.169667,-0.098,-0.064333,-0.122667,-0.000333,-0.195667,0.064333,-0.122667,0.169667,-0.098,0.138667,0.005,0.169667,0.098,0.064333,0.122333,-0.000333,0.195333,0*%
%AMIconStar4*4,1,8,-0.222667,0.222667,0,0.144667,0.222667,0.222667,0.144667,0,0.222667,-0.222667,0,-0.144667,-0.217433,-0.222667,-0.144667,0,-0.222667,0.222667,0*4,0,8,0.166667,-0.166667,0.108,0,0.166667,0.166667,0,0.108,-0.166667,0.166667,-0.108,0,-0.166667,-0.166667,0,-0.108,0.166667,-0.166667,0*%
%AMIconPlus*4,1,12,0.124,-0.2,-0.124,-0.2,-0.124,-0.124,-0.2,-0.124,-0.2,0.124,-0.124,0.124,-0.124,0.2,0.124,0.2,0.124,0.124,0.2,0.124,0.2,-0.124,0.124,-0.124,0.124,-0.2,0*4,0,12,0.090667,-0.166667,0.090667,-0.090667,0.166667,-0.090667,0.166667,0.090667,0.090667,0.090667,0.090667,0.166667,-0.090667,0.166667,-0.090667,0.090667,-0.166667,0.090667,-0.166667,-0.090667,-0.090667,-0.090667,-0.090667,-0.166667,0.090667,-0.166667,0*%
%AMIconX*4,1,16,0.2,-0.2,0.054533,-0.2,0,-0.145467,-0.054533,-0.2,-0.2,-0.2,-0.2,-0.054533,-0.145467,0,-0.2,0.054533,-0.2,0.2,-0.054533,0.2,0,0.145467,0.054533,0.2,0.2,0.2,0.2,0.054533,0.145467,0,0.2,-0.054533,0.2,-0.2,0*4,0,16,0.1668,-0.1664,0.1668,-0.068467,0.097933,0.000067,0.1668,0.068467,0.1668,0.1665,0.068467,0.1665,0,0.097933,-0.068467,0.1665,-0.1668,0.1665,-0.1668,0.068467,-0.097933,0.000067,-0.1668,-0.068467,-0.1668,-0.1664,-0.068467,-0.1664,0,-0.097933,0.068467,-0.1664,0.1668,-0.1664,0*%
%AMIconDiamond*4,1,4,0,-0.26,-0.26,0,0,0.26,0.26,0,0,-0.26,0*4,0,4,0,-0.203433,0.203433,0,0,0.2036,-0.203433,0,0,-0.203433,0*%
%AMIconRect2*4,1,6,0.2,-0.2,-0.2,-0.2,-0.2,0.2,-0.1668,0.1665,-0.166667,-0.166667,0.1668,-0.166667,0.2,-0.2,0*4,1,6,0.2,-0.2,0.1668,-0.166667,0.1668,0.1665,-0.1668,0.1665,-0.2,0.2,0.2,0.2,0.2,-0.2,0*4,1,6,0.133467,-0.133333,-0.133333,-0.133333,-0.133333,0.133467,-0.1,0.100133,-0.1,-0.1,0.100133,-0.1,0.133467,-0.133333,0*4,1,6,0.133467,-0.133333,0.100133,-0.1,0.100133,0.100133,-0.1,0.100133,-0.133333,0.133467,0.133467,0.133467,0.133467,-0.133333,0*%
%AMCharA*4,1,8,-0.122067,-0.1864,-0.1532,-0.174533,-0.015133,0.1864,0.016,0.1864,0.1532,-0.174533,0.122067,-0.1864,0.0764,-0.0662,-0.076133,-0.0662,-0.122067,-0.1864,0*4,0,3,-0.063333,-0.032867,0.063667,-0.032867,0.000333,0.1338,-0.063333,-0.032867,0*%
%AMCharB*4,1,17,-0.131133,-0.1894,-0.131133,0.1894,0.033533,0.1894,0.088067,0.172467,0.1114,0.151733,0.131133,0.114133,0.131,0.066467,0.114333,0.0338,0.094733,0.0128,0.086467,0.0084,0.094733,0.003867,0.114333,-0.017133,0.131,-0.0498,0.131133,-0.114133,0.1114,-0.151733,0.088067,-0.1726,0.033533,-0.1894,-0.131133,-0.1894,0*4,0,10,-0.0978,-0.156067,0.030867,-0.156067,0.073867,-0.142,0.085867,-0.130133,0.099533,-0.1028,0.099533,-0.0614,0.085867,-0.034533,0.073867,-0.0226,0.030867,-0.008667,-0.0978,-0.008667,-0.0978,-0.156067,0*4,0,10,-0.0978,0.024667,0.0308,0.024667,0.073867,0.039267,0.085867,0.051267,0.099533,0.078067,0.099533,0.102667,0.085867,0.130133,0.073867,0.142,0.030867,0.156067,-0.0978,0.156067,-0.0978,0.024667,0*%
%AMCharC*4,1,36,-0.027533,-0.1894,-0.071933,-0.1684,-0.1084,-0.130667,-0.125333,-0.096,-0.1428,-0.041333,-0.1428,0.041333,-0.1244,0.098,-0.105267,0.135067,-0.067533,0.171667,-0.027533,0.1894,0.038533,0.1894,0.083067,0.1684,0.119467,0.130667,0.1428,0.083,0.112867,0.0684,0.090867,0.113467,0.0614,0.142933,0.034733,0.156067,-0.0236,0.156067,-0.050333,0.142933,-0.079733,0.113467,-0.094067,0.084333,-0.109467,0.0386,-0.109467,-0.0386,-0.094067,-0.084333,-0.079733,-0.113467,-0.050333,-0.142867,-0.0236,-0.156067,0.034733,-0.156067,0.0614,-0.142867,0.090867,-0.113467,0.112867,-0.0684,0.1428,-0.083,0.119467,-0.130667,0.083067,-0.1684,0.038533,-0.1894,-0.027533,-0.1894,0*%
%AMCharD*4,1,12,-0.132,-0.1894,-0.132,0.1894,-0.000067,0.1894,0.054533,0.172467,0.0968,0.130933,0.1144,0.096067,0.132,0.041333,0.132,-0.041333,0.113467,-0.098267,0.093933,-0.134933,0.054533,-0.1726,-0.000067,-0.1894,-0.132,-0.1894,0*4,0,12,-0.098667,-0.156067,-0.002667,-0.156067,0.040333,-0.142133,0.068333,-0.113467,0.083267,-0.0842,0.098667,-0.0386,0.098667,0.0386,0.083267,0.0842,0.068333,0.113467,0.040333,0.142133,-0.002667,0.156067,-0.098667,0.156067,-0.098667,-0.156067,0*%
%AMCharE*4,1,12,-0.123667,-0.1894,-0.123667,0.1894,0.123667,0.1894,0.123667,0.156067,-0.090333,0.156067,-0.090333,0.024667,0.0416,0.024667,0.0416,-0.008667,-0.090333,-0.008667,-0.090333,-0.156067,0.123667,-0.156067,0.123667,-0.1894,-0.123667,-0.1894,0*%
%AMCharF*4,1,11,-0.123667,-0.1894,-0.123667,0.1894,-0.090333,0.1894,0.123667,0.1894,0.123667,0.156067,-0.090333,0.156067,-0.090333,0.024667,0.0416,0.024667,0.0416,-0.008667,-0.090333,-0.008667,-0.090333,-0.1894,-0.123667,-0.1894,0*%
%ADD10IconRect*%
%ADD11C,0.44X0.373333*%
%ADD12IconTriangle*%
%ADD13IconStar6*%
%ADD14IconStar4*%
%ADD15IconPlus*%
%ADD16IconX*%
%ADD17IconDiamond*%
%ADD18IconRect2*%
%ADD19CharA*%
%ADD20CharB*%
%ADD21CharC*%
%ADD22CharD*%
%ADD23CharE*%
%ADD24CharF*%
G75*


G04 Drill Drawing Start*
G54D10*
G01X6474638Y3352800D03*
G01X6814642Y3352800D03*
G54D11*
G01X863600Y1143000D03*
G01X863600Y7924800D03*
G54D12*
G01X4897120Y7863840D03*
G01X5151120Y7863840D03*
G01X5405120Y7863840D03*
G54D13*
G01X5867408Y685800D03*
G01X6612179Y4172189D03*
G01X6612179Y4299189D03*
G01X6612179Y4426189D03*
G54D14*
G01X8488175Y871601D03*
G01X8488175Y1871599D03*
G01X8488175Y7059041D03*
G01X8488175Y8059039D03*
G54D15*
G01X588110Y331570D03*
G01X588110Y585570D03*
G01X612140Y8359140D03*
G01X612140Y8613140D03*
G54D16*
G01X2870200Y6766560D03*
G01X3124200Y6766560D03*
G01X3378200Y6766560D03*
G01X3632200Y6766560D03*
G01X3886200Y6766560D03*
G01X4140200Y6766560D03*
G54D17*
G01X365760Y2180937D03*
G01X365760Y6858000D03*
G01X11226800Y7924800D03*
G01X11480800Y7924800D03*
G01X11734800Y7924800D03*
G01X11988800Y7924800D03*
G54D18*
G01X1474937Y2372360D03*
G01X1474937Y6634480D03*
G01X8197753Y368783D03*
G01X8197753Y8659343D03*
G01X9392310Y821995D03*
G01X9392310Y8322005D03*
G01X12492330Y821995D03*
G01X12492330Y8322005D03*
G54D19*
G01X8656320Y3048000D03*
G01X8656320Y3810000D03*
G01X8656320Y4572000D03*
G01X8656320Y5334000D03*
G01X9570720Y3048000D03*
G01X9570720Y3810000D03*
G01X9570720Y4572000D03*
G01X9570720Y5334000D03*
G01X9570720Y6096000D03*
G54D20*
G01X1473327Y3158287D03*
G01X1473327Y3608273D03*
G01X1473327Y4164127D03*
G01X1473327Y4614113D03*
G01X1473327Y5200447D03*
G01X1473327Y5650433D03*
G01X2123313Y3158287D03*
G01X2123313Y3608273D03*
G01X2123313Y4164127D03*
G01X2123313Y4614113D03*
G01X2123313Y5200447D03*
G01X2123313Y5650433D03*
G54D21*
G01X482600Y4389120D03*
G01X482600Y5394960D03*
G01X513080Y3413760D03*
G01X736600Y4389120D03*
G01X736600Y5394960D03*
G01X767080Y3413760D03*
G01X1252220Y8359140D03*
G01X1252220Y8613140D03*
G01X1258670Y331570D03*
G01X1258670Y585570D03*
G01X6111227Y4836155D03*
G01X6111227Y5090155D03*
G01X6111265Y5344163D03*
G01X6873227Y4836155D03*
G01X6873227Y5090155D03*
G01X6873227Y5344155D03*
G54D22*
G01X3058160Y7279640D03*
G01X3058160Y7533640D03*
G01X3058160Y8346440D03*
G01X3058160Y8600440D03*
G01X3060700Y1143000D03*
G01X3060700Y1397000D03*
G01X3312160Y7279640D03*
G01X3312160Y7533640D03*
G01X3312160Y8346440D03*
G01X3312160Y8600440D03*
G01X3314700Y1143000D03*
G01X3314700Y1397000D03*
G01X3566160Y7279640D03*
G01X3566160Y7533640D03*
G01X3566160Y8346440D03*
G01X3566160Y8600440D03*
G01X3568700Y1143000D03*
G01X3568700Y1397000D03*
G01X3820160Y7279640D03*
G01X3820160Y7533640D03*
G01X3820160Y8346440D03*
G01X3820160Y8600440D03*
G01X3822700Y1143000D03*
G01X3822700Y1397000D03*
G01X4074160Y7279640D03*
G01X4074160Y7533640D03*
G01X4074160Y8346440D03*
G01X4074160Y8600440D03*
G01X4076700Y1143000D03*
G01X4076700Y1397000D03*
G54D23*
G01X176630Y204570D03*
G01X176630Y458570D03*
G01X176630Y712570D03*
G01X177800Y8864600D03*
G01X177800Y8610600D03*
G01X177800Y8356600D03*
G01X2860040Y1950720D03*
G01X3114040Y1950720D03*
G01X3368040Y1950720D03*
G01X3622040Y1950720D03*
G01X3876040Y1950720D03*
G01X4130040Y1950720D03*
G01X4384040Y1950720D03*
G01X4638040Y1950720D03*
G01X4658360Y6766560D03*
G01X4912360Y6766560D03*
G01X5044440Y1950720D03*
G01X5166360Y6766560D03*
G01X5298440Y1950720D03*
G01X5420360Y6766560D03*
G01X5552440Y1950720D03*
G01X5674360Y6766560D03*
G01X5806440Y1950720D03*
G01X5928360Y6766560D03*
G01X6060440Y1950720D03*
G01X6126480Y7579360D03*
G01X6126480Y7833360D03*
G01X6126480Y8087360D03*
G01X6182360Y6766560D03*
G01X6314440Y1950720D03*
G01X6436360Y6766560D03*
G01X6568440Y1950720D03*
G01X6675120Y7579360D03*
G01X6675120Y7833360D03*
G01X6675120Y8087360D03*
G01X6822440Y1950720D03*
G01X7076440Y1950720D03*
G01X7223760Y7579360D03*
G01X7223760Y7833360D03*
G01X7223760Y8087360D03*
G01X7330440Y1950720D03*
G01X7788173Y1121601D03*
G01X7788173Y1371600D03*
G01X7788173Y1621600D03*
G01X7788173Y7309041D03*
G01X7788173Y7559040D03*
G01X7788173Y7809040D03*
G01X11328400Y1104900D03*
G01X11582400Y1104900D03*
G01X11836400Y1104900D03*
G01X11856720Y2118360D03*
G01X11856720Y2372360D03*
G01X11856720Y2626360D03*
G01X11856720Y2880360D03*
G54D24*
G01X121920Y2316480D03*
G01X152400Y3139440D03*
G01X152400Y4846320D03*
G01X152400Y5699760D03*
G01X274320Y2804160D03*
G01X396240Y3139440D03*
G01X396240Y4846320D03*
G01X457199Y2666430D03*
G01X548640Y1920240D03*
G01X629078Y2040844D03*
G01X670560Y6156960D03*
G01X701040Y2926080D03*
G01X701040Y4602480D03*
G01X743629Y5674449D03*
G01X762000Y3627120D03*
G01X822960Y6553200D03*
G01X914400Y3810000D03*
G01X916940Y8760460D03*
G01X944880Y3566160D03*
G01X944880Y5913120D03*
G01X1012430Y5674448D03*
G01X1066800Y2011680D03*
G01X1097280Y6553200D03*
G01X1188720Y3413760D03*
G01X1279357Y2375147D03*
G01X1279357Y6637267D03*
G01X1310640Y1706880D03*
G01X1325077Y2243067D03*
G01X1325077Y2499607D03*
G01X1337777Y6492487D03*
G01X1337777Y6774427D03*
G01X1350950Y7101840D03*
G01X1459697Y2169407D03*
G01X1459697Y6431527D03*
G01X1474937Y2575313D03*
G01X1474937Y6837433D03*
G01X1612097Y6492487D03*
G01X1614637Y6771887D03*
G01X1624797Y2243067D03*
G01X1627337Y2497067D03*
G01X1670517Y2375147D03*
G01X1670517Y6637267D03*
G01X1828800Y1341120D03*
G01X1828800Y4267200D03*
G01X1828800Y4511040D03*
G01X1859280Y6888480D03*
G01X1859280Y7467600D03*
G01X2011680Y6553200D03*
G01X2103120Y853440D03*
G01X2103120Y1280160D03*
G01X2103120Y2011680D03*
G01X2225040Y8321040D03*
G01X2286000Y2560320D03*
G01X2286000Y4511040D03*
G01X2346960Y396240D03*
G01X2346960Y5913120D03*
G01X2346960Y6553200D03*
G01X2390436Y7737879D03*
G01X2391029Y7193280D03*
G01X2438400Y1371600D03*
G01X2489200Y3886200D03*
G01X2499360Y4785360D03*
G01X2499360Y5516880D03*
G01X2499360Y6248400D03*
G01X2499360Y6553200D03*
G01X2499360Y6888480D03*
G01X2499360Y7467600D03*
G01X2499360Y7985760D03*
G01X2540000Y1676400D03*
G01X2590800Y8778240D03*
G01X2613763Y4493363D03*
G01X2621280Y457200D03*
G01X2621280Y4267200D03*
G01X2682240Y3383280D03*
G01X2687320Y3683000D03*
G01X2743200Y1767840D03*
G01X2743200Y2316480D03*
G01X2743200Y3901440D03*
G01X2743200Y4785360D03*
G01X2743200Y5273040D03*
G01X2743200Y6248400D03*
G01X2743200Y7101840D03*
G01X2743200Y7467600D03*
G01X2773680Y5882640D03*
G01X2776220Y855980D03*
G01X2804160Y4511040D03*
G01X2819400Y3429000D03*
G01X2824377Y4272177D03*
G01X2865120Y8534400D03*
G01X2925977Y4170577D03*
G01X2926080Y3962400D03*
G01X2956560Y91440D03*
G01X2956560Y2194560D03*
G01X2956560Y3566160D03*
G01X2987040Y4785360D03*
G01X2987040Y5273040D03*
G01X2987040Y5542280D03*
G01X2987040Y5882640D03*
G01X2987040Y6248400D03*
G01X2995916Y6891558D03*
G01X3017520Y4511040D03*
G01X3017520Y9022080D03*
G01X3032760Y4267200D03*
G01X3078480Y3688080D03*
G01X3200400Y3810000D03*
G01X3200400Y8778240D03*
G01X3246120Y4267200D03*
G01X3261360Y2194560D03*
G01X3261360Y4785360D03*
G01X3261360Y5273040D03*
G01X3261360Y5806440D03*
G01X3261360Y6248400D03*
G01X3291840Y4511040D03*
G01X3291840Y7101840D03*
G01X3322320Y2865120D03*
G01X3352800Y7955280D03*
G01X3433636Y3505213D03*
G01X3474720Y3718560D03*
G01X3474720Y4785360D03*
G01X3474720Y5273040D03*
G01X3505199Y6891558D03*
G01X3505200Y2194560D03*
G01X3505200Y3261360D03*
G01X3566160Y8168640D03*
G01X3568700Y5880100D03*
G01X3568700Y6299200D03*
G01X3596640Y91440D03*
G01X3604260Y7716520D03*
G01X3657600Y3855720D03*
G01X3688080Y3261360D03*
G01X3693086Y5821960D03*
G01X3703320Y718820D03*
G01X3718560Y2438400D03*
G01X3718560Y4907280D03*
G01X3749040Y1767840D03*
G01X3749040Y3762192D03*
G01X3749040Y4998720D03*
G01X3764280Y2194560D03*
G01X3768279Y7886700D03*
G01X3779520Y3261360D03*
G01X3810000Y2743200D03*
G01X3810000Y5090160D03*
G01X3810000Y6004560D03*
G01X3810000Y7101840D03*
G01X3870960Y3261360D03*
G01X3870960Y4114800D03*
G01X3870960Y8778240D03*
G01X3888740Y6299200D03*
G01X3901440Y3799800D03*
G01X3906520Y3505200D03*
G01X3906520Y9034780D03*
G01X3931920Y3139440D03*
G01X3986692Y5791200D03*
G01X3991980Y6891558D03*
G01X3992880Y2438400D03*
G01X3992880Y3261360D03*
G01X3992880Y4218505D03*
G01X3992880Y5090160D03*
G01X4013200Y8115300D03*
G01X4023360Y2194560D03*
G01X4023360Y6187440D03*
G01X4053840Y5181600D03*
G01X4084320Y3947160D03*
G01X4084320Y4297680D03*
G01X4114800Y2941320D03*
G01X4155637Y7716520D03*
G01X4171905Y7101840D03*
G01X4206240Y3169920D03*
G01X4206240Y4434840D03*
G01X4235397Y7903263D03*
G01X4236720Y3048000D03*
G01X4236720Y3749040D03*
G01X4251960Y2194560D03*
G01X4267200Y91440D03*
G01X4292600Y685800D03*
G01X4297680Y2651760D03*
G01X4328160Y3749040D03*
G01X4328160Y4556760D03*
G01X4332576Y3499214D03*
G01X4389120Y3962400D03*
G01X4419600Y3749040D03*
G01X4419600Y6004560D03*
G01X4473484Y8717280D03*
G01X4480560Y6126480D03*
G01X4511040Y8351520D03*
G01X4541520Y2194560D03*
G01X4541520Y4511040D03*
G01X4541520Y5943600D03*
G01X4541520Y6217920D03*
G01X4572000Y2865120D03*
G01X4572000Y4632960D03*
G01X4587240Y3185160D03*
G01X4602480Y4160520D03*
G01X4602480Y7162800D03*
G01X4632960Y5334000D03*
G01X4632960Y5791200D03*
G01X4663440Y3779520D03*
G01X4693920Y4008120D03*
G01X4693920Y5334000D03*
G01X4754880Y6278880D03*
G01X4785360Y3840480D03*
G01X4815840Y6553200D03*
G01X4815840Y8382000D03*
G01X4843780Y9037320D03*
G01X4846320Y1767840D03*
G01X4846320Y2346960D03*
G01X4846320Y3749040D03*
G01X4861560Y3063240D03*
G01X4876800Y2834640D03*
G01X4876800Y7193280D03*
G01X4937760Y3810000D03*
G01X4937760Y4358640D03*
G01X4937760Y4785360D03*
G01X4937760Y5212080D03*
G01X4937760Y5547360D03*
G01X4937760Y5913120D03*
G01X4937760Y6248400D03*
G01X4968240Y3139440D03*
G01X5090160Y3810000D03*
G01X5151120Y3200400D03*
G01X5181600Y2346960D03*
G01X5212080Y3718560D03*
G01X5242560Y7680960D03*
G01X5273040Y3200400D03*
G01X5273040Y3505200D03*
G01X5334000Y7223760D03*
G01X5394960Y2468880D03*
G01X5394960Y3200400D03*
G01X5425440Y2194560D03*
G01X5455920Y4358640D03*
G01X5455920Y7589520D03*
G01X5486400Y2834640D03*
G01X5577840Y6614160D03*
G01X5577840Y7223760D03*
G01X5608320Y5608320D03*
G01X5608320Y7863840D03*
G01X5669280Y3200400D03*
G01X5669280Y3505200D03*
G01X5684520Y2194560D03*
G01X5699760Y5059680D03*
G01X5699760Y5334000D03*
G01X5699760Y8229600D03*
G01X5730240Y7345680D03*
G01X5791200Y7863840D03*
G01X5831840Y9037320D03*
G01X5913120Y2133600D03*
G01X5913120Y7650480D03*
G01X5913120Y7985760D03*
G01X5943600Y1767840D03*
G01X5943600Y3200400D03*
G01X5943600Y3505200D03*
G01X5943600Y3870960D03*
G01X5943600Y4358640D03*
G01X6035040Y6156960D03*
G01X6035040Y8473440D03*
G01X6096000Y5608320D03*
G01X6121400Y406400D03*
G01X6121400Y1574800D03*
G01X6187440Y7178040D03*
G01X6217920Y2499360D03*
G01X6217920Y2804160D03*
G01X6217920Y6522720D03*
G01X6248400Y1270000D03*
G01X6248400Y1574800D03*
G01X6400800Y7620000D03*
G01X6400800Y8077200D03*
G01X6431280Y91440D03*
G01X6431280Y2133600D03*
G01X6431280Y5943600D03*
G01X6431280Y6309360D03*
G01X6431280Y7025640D03*
G01X6431280Y8412480D03*
G01X6431280Y8717280D03*
G01X6515454Y6126480D03*
G01X6522720Y3962400D03*
G01X6553200Y5059680D03*
G01X6553200Y6522720D03*
G01X6583680Y2225040D03*
G01X6644640Y6918960D03*
G01X6662420Y5412740D03*
G01X6675120Y5608320D03*
G01X6692900Y1254760D03*
G01X6705600Y3200400D03*
G01X6705600Y3688080D03*
G01X6736080Y6065520D03*
G01X6736080Y6187440D03*
G01X6827520Y2804160D03*
G01X6898640Y1727200D03*
G01X6949440Y2712720D03*
G01X6949440Y2926080D03*
G01X6949440Y8077200D03*
G01X6979920Y4358640D03*
G01X6979920Y5730240D03*
G01X6979920Y6126480D03*
G01X7071116Y2334260D03*
G01X7071116Y2514600D03*
G01X7101840Y91440D03*
G01X7112000Y685800D03*
G01X7132320Y4480560D03*
G01X7178040Y3931920D03*
G01X7193280Y1803400D03*
G01X7239000Y2514600D03*
G01X7302500Y6710680D03*
G01X7315200Y5547360D03*
G01X7315200Y5882640D03*
G01X7317410Y6192241D03*
G01X7345680Y8351520D03*
G01X7376160Y4663440D03*
G01X7406640Y7254240D03*
G01X7406640Y8717280D03*
G01X7411720Y3027680D03*
G01X7437120Y2468880D03*
G01X7437120Y3505200D03*
G01X7447280Y2260600D03*
G01X7470956Y2712720D03*
G01X7528560Y4084320D03*
G01X7620000Y1889760D03*
G01X7680960Y1493520D03*
G01X7797800Y685800D03*
G01X7802880Y91440D03*
G01X7802880Y2956560D03*
G01X7802880Y3901440D03*
G01X7802880Y4541520D03*
G01X7863840Y2225040D03*
G01X7863840Y2521058D03*
G01X7863840Y2712720D03*
G01X7863840Y7071360D03*
G01X7894320Y6522720D03*
G01X7924800Y4211320D03*
G01X7924800Y5212080D03*
G01X7924800Y5608320D03*
G01X7924800Y5852160D03*
G01X7962900Y3169920D03*
G01X7987497Y366007D03*
G01X7990037Y8661647D03*
G01X8058617Y221227D03*
G01X8058617Y515867D03*
G01X8061157Y8516867D03*
G01X8061157Y8798807D03*
G01X8077200Y1371600D03*
G01X8077200Y2956560D03*
G01X8077200Y3901440D03*
G01X8077200Y4541520D03*
G01X8193237Y172967D03*
G01X8195777Y566173D03*
G01X8195777Y8455907D03*
G01X8198317Y8861813D03*
G01X8229600Y1584960D03*
G01X8229600Y2225040D03*
G01X8229600Y2499360D03*
G01X8229600Y2712720D03*
G01X8229600Y3169920D03*
G01X8260080Y1127760D03*
G01X8260080Y3627120D03*
G01X8260080Y5212080D03*
G01X8260080Y5608320D03*
G01X8260080Y5852160D03*
G01X8260080Y6248400D03*
G01X8260080Y7315200D03*
G01X8260080Y7772400D03*
G01X8260080Y8280400D03*
G01X8290560Y3962400D03*
G01X8290560Y4450080D03*
G01X8290560Y6522720D03*
G01X8332937Y221227D03*
G01X8335477Y513327D03*
G01X8335477Y8516867D03*
G01X8338017Y8796267D03*
G01X8393897Y8661647D03*
G01X8404057Y366007D03*
G01X8768080Y579120D03*
G01X8768080Y2103120D03*
G01X8768080Y6756400D03*
G01X8768080Y7264400D03*
G01X8768080Y7772400D03*
G01X8768080Y8280400D03*
G01X8770620Y8788400D03*
G01X8778240Y91440D03*
G01X8778240Y1584960D03*
G01X8783794Y1009552D03*
G01X9022080Y5974080D03*
G01X9022080Y8009152D03*
G01X9113520Y3962400D03*
G01X9113520Y4419600D03*
G01X9144000Y2499360D03*
G01X9144000Y2712720D03*
G01X9144000Y2926080D03*
G01X9196730Y824782D03*
G01X9196730Y8324792D03*
G01X9255150Y680002D03*
G01X9255150Y961942D03*
G01X9255150Y8180012D03*
G01X9255150Y8461952D03*
G01X9265920Y4572000D03*
G01X9265920Y5212080D03*
G01X9276080Y1595120D03*
G01X9276080Y2103120D03*
G01X9276080Y3119120D03*
G01X9276080Y3627120D03*
G01X9276080Y6248400D03*
G01X9276080Y6756400D03*
G01X9276080Y7264400D03*
G01X9276080Y7772400D03*
G01X9276080Y8788400D03*
G01X9389770Y619042D03*
G01X9389770Y8119052D03*
G01X9392310Y1024948D03*
G01X9392310Y8524958D03*
G01X9529470Y680002D03*
G01X9529470Y8180012D03*
G01X9532010Y959402D03*
G01X9532010Y8459412D03*
G01X9587890Y824782D03*
G01X9587890Y8324792D03*
G01X9784080Y91440D03*
G01X9784080Y579120D03*
G01X9784080Y1087120D03*
G01X9784080Y1595120D03*
G01X9784080Y2103120D03*
G01X9784080Y2499360D03*
G01X9784080Y2712720D03*
G01X9784080Y3119120D03*
G01X9784080Y3627120D03*
G01X9784080Y3962400D03*
G01X9784080Y5212080D03*
G01X9784080Y6248400D03*
G01X9784080Y6754465D03*
G01X9784080Y7254240D03*
G01X9784080Y7772400D03*
G01X9784080Y8280400D03*
G01X9784080Y8788400D03*
G01X9906000Y4572000D03*
G01X9959340Y4206240D03*
G01X9988927Y5455920D03*
G01X9997440Y5913120D03*
G01X10208260Y5506720D03*
G01X10271760Y5913120D03*
G01X10292080Y579120D03*
G01X10292080Y1087120D03*
G01X10292080Y1595120D03*
G01X10292080Y2103120D03*
G01X10292080Y3119120D03*
G01X10292080Y3627120D03*
G01X10292080Y4055424D03*
G01X10292080Y8280400D03*
G01X10292080Y8788400D03*
G01X10299700Y7251700D03*
G01X10302240Y91440D03*
G01X10302240Y4572000D03*
G01X10302240Y5212080D03*
G01X10302240Y6248400D03*
G01X10302240Y6756400D03*
G01X10302240Y7772400D03*
G01X10576560Y2499360D03*
G01X10576560Y2712720D03*
G01X10698481Y4434095D03*
G01X10789920Y4053840D03*
G01X10789920Y5212080D03*
G01X10800080Y579120D03*
G01X10800080Y1087120D03*
G01X10800080Y1595120D03*
G01X10800080Y2103120D03*
G01X10800080Y3119120D03*
G01X10800080Y8280400D03*
G01X10800080Y8788400D03*
G01X10810240Y7772400D03*
G01X10820400Y91440D03*
G01X10960100Y6045200D03*
G01X10962640Y6873240D03*
G01X10985500Y6197600D03*
G01X11033760Y4480560D03*
G01X11064240Y4055414D03*
G01X11101061Y4916498D03*
G01X11104087Y7246620D03*
G01X11137900Y6197600D03*
G01X11155680Y4602480D03*
G01X11176000Y2377440D03*
G01X11186160Y3291840D03*
G01X11216640Y4358640D03*
G01X11254740Y6629400D03*
G01X11254740Y6995160D03*
G01X11277600Y6197600D03*
G01X11290300Y5651500D03*
G01X11296193Y6762267D03*
G01X11296193Y6862267D03*
G01X11308080Y91440D03*
G01X11308080Y579120D03*
G01X11308080Y4572000D03*
G01X11308080Y5212080D03*
G01X11308080Y8280400D03*
G01X11308080Y8788400D03*
G01X11388610Y3688081D03*
G01X11396193Y6762267D03*
G01X11396193Y6862267D03*
G01X11430000Y6197600D03*
G01X11437620Y6629400D03*
G01X11437620Y6995160D03*
G01X11557000Y3314700D03*
G01X11582400Y6197600D03*
G01X11613510Y6034270D03*
G01X11673840Y2743200D03*
G01X11729720Y6873240D03*
G01X11729720Y7205460D03*
G01X11729720Y7294880D03*
G01X11795760Y91440D03*
G01X11816080Y579120D03*
G01X11816080Y1595120D03*
G01X11816080Y8280400D03*
G01X11816080Y8788400D03*
G01X11826240Y5212080D03*
G01X11856720Y5425440D03*
G01X11856720Y5516880D03*
G01X12031980Y2512060D03*
G01X12296750Y824782D03*
G01X12296750Y8324792D03*
G01X12313920Y152400D03*
G01X12313920Y2499360D03*
G01X12313920Y3017520D03*
G01X12313920Y3566160D03*
G01X12313920Y4084320D03*
G01X12313920Y4998720D03*
G01X12318799Y6242567D03*
G01X12319000Y6756400D03*
G01X12319000Y7264400D03*
G01X12324080Y579120D03*
G01X12324080Y1087120D03*
G01X12324080Y1595120D03*
G01X12324080Y2103120D03*
G01X12324080Y5740400D03*
G01X12324080Y7772400D03*
G01X12324080Y8788400D03*
G01X12355170Y680002D03*
G01X12355170Y961942D03*
G01X12355170Y8180012D03*
G01X12355170Y8461952D03*
G01X12446000Y3810000D03*
G01X12446000Y4328160D03*
G01X12458700Y4785360D03*
G01X12458700Y5242560D03*
G01X12489790Y619042D03*
G01X12489790Y8119052D03*
G01X12492330Y1024948D03*
G01X12492330Y8524958D03*
G01X12527280Y3017520D03*
G01X12629490Y680002D03*
G01X12629490Y8180012D03*
G01X12632030Y959402D03*
G01X12632030Y8459412D03*
G01X12687910Y824782D03*
G01X12687910Y8324792D03*
G01X12701704Y2619358D03*
G01X12701704Y2863198D03*
G01X12710160Y5303520D03*
G01X12771120Y548640D03*
G01X12832080Y5740400D03*
G01X12832080Y6248400D03*
G01X12832080Y6756400D03*
G01X12832080Y7264400D03*
G01X12832080Y7772400D03*
G01X12832080Y8280400D03*
G01X12862560Y3566160D03*
G01X12862560Y4084320D03*
G01X12862560Y4572000D03*
G01X12862560Y4998720D03*
G01X12862560Y5425440D03*
G01X12954000Y1097280D03*
G01X12954000Y1584960D03*
G01X12954000Y2103120D03*
G01X12954000Y2743200D03*
G04 Drill Drawing End*

M02*

