G04 Layer: BottomSolderMaskLayer*
G04 EasyEDA Pro v2.2.40.8, 2025-09-21 19:41:23*
G04 Gerber Generator version 0.3*
G04 Scale: 100 percent, Rotated: No, Reflected: No*
G04 Dimensions in millimeters*
G04 Leading zeros omitted, absolute positions, 4 integers and 5 decimals*
G04 Generated by one-click*
%FSLAX45Y45*%
%MOMM*%
%AMRoundRect*1,1,$1,$2,$3*1,1,$1,$4,$5*1,1,$1,0-$2,0-$3*1,1,$1,0-$4,0-$5*20,1,$1,$2,$3,$4,$5,0*20,1,$1,$4,$5,0-$2,0-$3,0*20,1,$1,0-$2,0-$3,0-$4,0-$5,0*20,1,$1,0-$4,0-$5,$2,$3,0*4,1,4,$2,$3,$4,$5,0-$2,0-$3,0-$4,0-$5,$2,$3,0*%
%ADD10C,5.102*%
%ADD11C,1.8016*%
%ADD12RoundRect,0.09579X-0.7903X0.8529X0.7903X0.8529*%
%ADD13C,1.7016*%
%ADD14RoundRect,0.09588X-0.90286X0.80286X0.90286X0.80286*%
%ADD15RoundRect,0.09618X-0.85271X0.85271X0.85271X0.85271*%
%ADD16RoundRect,0.09495X-0.70833X0.67833X0.70833X0.67833*%
%ADD17C,2.1016*%
%ADD18RoundRect,0.0933X-0.57013X0.69237X0.57013X0.69237*%
%ADD19RoundRect,0.09387X-0.57013X0.69237X0.57013X0.69237*%
%ADD20RoundRect,0.09387X-0.69237X-0.57013X-0.69237X0.57013*%
%ADD21RoundRect,0.09618X-0.85271X-0.85271X-0.85271X0.85271*%
%ADD22RoundRect,0.09669X-1.19045X-0.95245X-1.19045X0.95245*%
%ADD23C,1.7526*%
%ADD24RoundRect,0.09495X-0.67833X-0.70833X-0.67833X0.70833*%
%ADD25RoundRect,0.0895X-0.45605X-0.33105X-0.45605X0.33105*%
%ADD26RoundRect,0.09017X-0.35571X-0.50571X-0.35571X0.50571*%
%ADD27RoundRect,0.16588X-0.36866X0.64366X0.36866X0.64366*%
%ADD28RoundRect,0.08449X-0.20856X0.63356X0.20856X0.63356*%
%ADD29RoundRect,0.0973X-1.10215X1.20215X1.10215X1.20215*%
%ADD30RoundRect,0.08807X-0.28676X0.72176X0.28676X0.72176*%
%ADD31O,1.7016X1.0016*%
%ADD32RoundRect,0.09224X-0.80468X-0.45468X-0.80468X0.45468*%
%ADD33O,3.40159X3.10159*%
%ADD34C,1.9016*%
%ADD35RoundRect,0.09645X-0.90257X-0.90257X-0.90257X0.90257*%
%ADD36C,1.702*%
%ADD37RoundRect,0.09562X-0.80299X0.76499X0.80299X0.76499*%
%ADD38C,1.7032*%
%ADD39RoundRect,0.09017X-0.35571X-0.63072X-0.35571X0.63072*%
%ADD40O,1.9016X0.7016*%
%ADD41RoundRect,0.09746X-1.14706X-1.14706X-1.14706X1.14706*%
%ADD42RoundRect,0.09756X-1.75202X-1.17703X-1.75202X1.17703*%
%ADD43RoundRect,0.09422X-0.7649X0.7649X0.7649X0.7649*%
%ADD44C,1.62403*%
%ADD45RoundRect,0.09769X-1.1059X1.19015X1.1059X1.19015*%
%ADD46RoundRect,0.09769X-1.19015X-1.1059X-1.19015X1.1059*%
%ADD47RoundRect,0.08906X-0.30647X-0.54147X-0.30647X0.54147*%
%ADD48RoundRect,0.09476X-0.85263X0.85263X0.85263X0.85263*%
%ADD49C,1.80002*%
%ADD50RoundRect,0.08982X-0.40609X-0.3311X-0.40609X0.3311*%
%ADD51RoundRect,0.08722X-0.40739X-0.25739X-0.40739X0.25739*%
%ADD52RoundRect,0.0911X-0.50545X0.38046X0.50545X0.38046*%
%ADD53RoundRect,0.09549X-0.86705X-0.74556X-0.86705X0.74556*%
%ADD54RoundRect,0.09549X-0.74556X0.86705X0.74556X0.86705*%
%ADD55C,1.30002*%
%ADD56RoundRect,0.08787X-0.54307X-0.27307X-0.54307X0.27307*%
G75*


G04 Rect Start*
G36*
G01X11224260Y6583680D02*
G01X11224260Y7040880D01*
G01X11468100Y7040880D01*
G01X11468100Y6583680D01*
G01X11224260Y6583680D01*
G37*
G04 Rect End*

G04 Pad Start*
G54D10*
G01X1474937Y2372360D03*
G01X9392310Y8322005D03*
G01X9392310Y821995D03*
G01X12492330Y821995D03*
G01X12492330Y8322005D03*
G01X8197753Y8659343D03*
G01X8197753Y368783D03*
G01X1474937Y6634480D03*
G54D11*
G01X4658360Y6766560D03*
G01X4912360Y6766560D03*
G01X5166360Y6766560D03*
G01X5420360Y6766560D03*
G01X5674360Y6766560D03*
G01X5928360Y6766560D03*
G01X6182360Y6766560D03*
G54D12*
G01X6436360Y6766560D03*
G54D13*
G01X2870200Y6766560D03*
G01X3124200Y6766560D03*
G01X3378200Y6766560D03*
G01X3632200Y6766560D03*
G01X3886200Y6766560D03*
G54D14*
G01X4140200Y6766560D03*
G54D11*
G01X5044440Y1950720D03*
G01X5298440Y1950720D03*
G01X5552440Y1950720D03*
G01X5806440Y1950720D03*
G01X6060440Y1950720D03*
G01X6314440Y1950720D03*
G01X6568440Y1950720D03*
G01X6822440Y1950720D03*
G01X7076440Y1950720D03*
G54D12*
G01X7330440Y1950720D03*
G54D11*
G01X2860040Y1950720D03*
G01X3114040Y1950720D03*
G01X3368040Y1950720D03*
G01X3622040Y1950720D03*
G01X3876040Y1950720D03*
G01X4130040Y1950720D03*
G01X4384040Y1950720D03*
G54D12*
G01X4638040Y1950720D03*
G54D15*
G01X4076700Y1397000D03*
G54D11*
G01X4076700Y1143000D03*
G01X3822700Y1397000D03*
G01X3822700Y1143000D03*
G01X3568700Y1397000D03*
G01X3568700Y1143000D03*
G01X3314700Y1397000D03*
G01X3314700Y1143000D03*
G01X3060700Y1397000D03*
G01X3060700Y1143000D03*
G54D16*
G01X5254117Y6553200D03*
G01X5048123Y6553200D03*
G54D17*
G01X1473327Y5200447D03*
G01X2123313Y5200447D03*
G01X2123313Y5650433D03*
G01X1473327Y5650433D03*
G01X1473327Y4164127D03*
G01X2123313Y4164127D03*
G01X2123313Y4614113D03*
G01X1473327Y4614113D03*
G01X1473327Y3158287D03*
G01X2123313Y3158287D03*
G01X2123313Y3608273D03*
G01X1473327Y3608273D03*
G54D19*
G01X1441120Y5852160D03*
G01X1241120Y5852160D03*
G01X1441120Y4815840D03*
G01X1241120Y4815840D03*
G01X1441120Y3810000D03*
G01X1241120Y3810000D03*
G54D20*
G01X7340600Y1649400D03*
G01X7340600Y1449400D03*
G01X7086600Y1649400D03*
G01X7086600Y1449400D03*
G54D21*
G01X6126480Y8087360D03*
G54D11*
G01X6126480Y7833360D03*
G01X6126480Y7579360D03*
G54D21*
G01X6675120Y8087360D03*
G54D11*
G01X6675120Y7833360D03*
G01X6675120Y7579360D03*
G54D21*
G01X7223760Y8087360D03*
G54D11*
G01X7223760Y7833360D03*
G01X7223760Y7579360D03*
G54D22*
G01X6400800Y7917815D03*
G01X6400800Y8297545D03*
G54D23*
G01X736600Y5394960D03*
G01X482600Y5394960D03*
G54D19*
G01X485259Y5674449D03*
G01X685259Y5674449D03*
G54D23*
G01X736600Y4389120D03*
G01X482600Y4389120D03*
G54D19*
G01X479120Y4602480D03*
G01X679120Y4602480D03*
G54D23*
G01X767080Y3413760D03*
G01X513080Y3413760D03*
G54D19*
G01X523277Y3632289D03*
G01X723276Y3632289D03*
G54D15*
G01X3058160Y8346440D03*
G54D11*
G01X3058160Y8600440D03*
G01X3312160Y8346440D03*
G01X3312160Y8600440D03*
G01X3566160Y8346440D03*
G01X3566160Y8600440D03*
G01X3820160Y8346440D03*
G01X3820160Y8600440D03*
G01X4074160Y8346440D03*
G01X4074160Y8600440D03*
G54D24*
G01X4318000Y8380603D03*
G01X4318000Y8586597D03*
G54D25*
G01X502078Y2040844D03*
G01X502078Y2320853D03*
G54D26*
G01X518410Y2180849D03*
G54D27*
G01X792480Y2191507D03*
G01X887476Y2441443D03*
G01X697484Y2441443D03*
G54D19*
G01X662000Y2682240D03*
G01X862000Y2682240D03*
G54D20*
G01X457200Y2873680D03*
G01X457200Y2673680D03*
G54D25*
G01X509994Y6717995D03*
G01X509994Y6998005D03*
G54D26*
G01X526326Y6858000D03*
G54D27*
G01X822960Y7013453D03*
G01X727964Y6763517D03*
G01X917956Y6763517D03*
G54D19*
G01X1119200Y7101840D03*
G01X1319200Y7101840D03*
G54D20*
G01X548640Y6361760D03*
G01X548640Y6561760D03*
G54D28*
G01X4233634Y3617709D03*
G01X4283647Y3392691D03*
G01X4333634Y3617709D03*
G01X4383646Y3392691D03*
G01X4433634Y3617709D03*
G01X4483646Y3392691D03*
G54D29*
G01X5283645Y3505213D03*
G01X3433636Y3505213D03*
G54D28*
G01X4533633Y3617684D03*
G01X4583646Y3392691D03*
G01X4633633Y3617684D03*
G01X4683646Y3392691D03*
G01X4733633Y3617684D03*
G01X4783646Y3392691D03*
G01X4833633Y3617684D03*
G01X4883645Y3392691D03*
G01X4933658Y3617684D03*
G01X4983645Y3392691D03*
G01X5033658Y3617684D03*
G01X5083645Y3392691D03*
G01X4183672Y3392691D03*
G01X4133660Y3617709D03*
G01X4083647Y3392691D03*
G01X4033660Y3617709D03*
G01X3983647Y3392691D03*
G01X3933635Y3617709D03*
G01X3883647Y3392691D03*
G01X3833635Y3617709D03*
G01X3783648Y3392691D03*
G01X3733635Y3617709D03*
G01X3683648Y3392691D03*
G01X3633635Y3617709D03*
G01X3867874Y5659869D03*
G01X3917887Y5434851D03*
G01X3967874Y5659869D03*
G01X4017886Y5434851D03*
G01X4067874Y5659869D03*
G01X4117886Y5434851D03*
G54D29*
G01X4917885Y5547373D03*
G01X3067876Y5547373D03*
G54D28*
G01X4167873Y5659844D03*
G01X4217886Y5434851D03*
G01X4267873Y5659844D03*
G01X4317886Y5434851D03*
G01X4367873Y5659844D03*
G01X4417886Y5434851D03*
G01X4467873Y5659844D03*
G01X4517885Y5434851D03*
G01X4567898Y5659844D03*
G01X4617885Y5434851D03*
G01X4667898Y5659844D03*
G01X4717885Y5434851D03*
G01X3817912Y5434851D03*
G01X3767900Y5659869D03*
G01X3717887Y5434851D03*
G01X3667900Y5659869D03*
G01X3617887Y5434851D03*
G01X3567875Y5659869D03*
G01X3517887Y5434851D03*
G01X3467875Y5659869D03*
G01X3417888Y5434851D03*
G01X3367875Y5659869D03*
G01X3317888Y5434851D03*
G01X3267875Y5659869D03*
G54D19*
G01X10707040Y4937760D03*
G01X10507040Y4937760D03*
G01X11133760Y3688080D03*
G01X10933760Y3688080D03*
G01X11164240Y3931920D03*
G01X10964240Y3931920D03*
G54D20*
G01X10698480Y4197680D03*
G01X10698480Y4397680D03*
G54D19*
G01X11133141Y4982219D03*
G01X11333141Y4982219D03*
G54D20*
G01X11568421Y5034619D03*
G01X11568421Y5234619D03*
G54D16*
G01X10710037Y4724400D03*
G01X10504043Y4724400D03*
G54D30*
G01X11736061Y4202566D03*
G01X11609061Y4202566D03*
G01X11482061Y4202566D03*
G01X11355061Y4202566D03*
G01X11228061Y4202566D03*
G01X11101061Y4202566D03*
G01X10974061Y4202566D03*
G01X10974061Y4725552D03*
G01X11101061Y4725552D03*
G01X11228061Y4725552D03*
G01X11355061Y4725552D03*
G01X11482061Y4725552D03*
G01X11609061Y4725552D03*
G01X11736061Y4725552D03*
G54D19*
G01X2551760Y8290560D03*
G01X2751760Y8290560D03*
G01X2779700Y1371600D03*
G01X2579700Y1371600D03*
G54D31*
G01X6612179Y4172189D03*
G01X6612179Y4299189D03*
G54D32*
G01X6612179Y4426189D03*
G54D24*
G01X6370320Y4400677D03*
G01X6370320Y4194683D03*
G54D16*
G01X7913243Y7315200D03*
G01X8119237Y7315200D03*
G01X7913243Y1127760D03*
G01X8119237Y1127760D03*
G54D22*
G01X6949440Y7917815D03*
G01X6949440Y8297545D03*
G54D11*
G01X7788161Y7809027D03*
G01X7788161Y7559040D03*
G01X7788161Y7309028D03*
G54D33*
G01X8488159Y7059041D03*
G01X8488159Y8059039D03*
G54D11*
G01X7788161Y1621587D03*
G01X7788161Y1371600D03*
G01X7788161Y1121588D03*
G54D33*
G01X8488159Y871601D03*
G01X8488159Y1871599D03*
G54D34*
G01X11856720Y2880360D03*
G01X11856720Y2626360D03*
G01X11856720Y2372360D03*
G54D35*
G01X11856720Y2118360D03*
G54D20*
G01X12374880Y3161360D03*
G01X12374880Y3361360D03*
G01X12649200Y3161360D03*
G01X12649200Y3361360D03*
G54D23*
G01X588110Y331570D03*
G01X588110Y585570D03*
G54D36*
G01X1258670Y585570D03*
G01X1258670Y331570D03*
G54D24*
G01X838200Y201803D03*
G01X838200Y407797D03*
G54D19*
G01X1114830Y626210D03*
G01X914831Y626210D03*
G01X547700Y736600D03*
G01X747700Y736600D03*
G54D21*
G01X176630Y712570D03*
G54D11*
G01X176630Y458570D03*
G01X176630Y204570D03*
G54D23*
G01X612140Y8359140D03*
G01X612140Y8613140D03*
G54D36*
G01X1252220Y8613140D03*
G01X1252220Y8359140D03*
G54D24*
G01X838200Y8304403D03*
G01X838200Y8510397D03*
G54D19*
G01X1204900Y8763000D03*
G01X1004900Y8763000D03*
G01X634060Y8760460D03*
G01X834060Y8760460D03*
G54D21*
G01X177800Y8356600D03*
G54D11*
G01X177800Y8610600D03*
G01X177800Y8864600D03*
G54D16*
G01X11563477Y3931920D03*
G01X11357483Y3931920D03*
G54D13*
G01X6873240Y5344147D03*
G01X6873240Y5090147D03*
G01X6873240Y4836147D03*
G01X6111240Y4836147D03*
G01X6111240Y5090147D03*
G54D37*
G01X6111265Y5344173D03*
G54D19*
G01X5921680Y4846320D03*
G01X5721680Y4846320D03*
G54D38*
G01X6474638Y3352800D03*
G01X6814642Y3352800D03*
G54D19*
G01X11560480Y3474720D03*
G01X11360480Y3474720D03*
G54D16*
G01X10710037Y3688080D03*
G01X10504043Y3688080D03*
G54D39*
G01X11006836Y3283280D03*
G01X10816844Y3283280D03*
G01X10911840Y3483280D03*
G54D40*
G01X11623421Y7002780D03*
G01X11623421Y6875780D03*
G01X11623421Y6748780D03*
G01X11623421Y6621780D03*
G01X11068939Y7002780D03*
G01X11068939Y6875780D03*
G01X11068939Y6748780D03*
G01X11068939Y6621780D03*
G54D41*
G01X11346180Y6812280D03*
G54D42*
G01X11988800Y6444501D03*
G01X11988800Y5874499D03*
G54D24*
G01X11925300Y6767703D03*
G01X11925300Y6973697D03*
G54D19*
G01X11441100Y7251700D03*
G01X11241100Y7251700D03*
G54D16*
G01X10590403Y7048500D03*
G01X10796397Y7048500D03*
G01X10796397Y6624320D03*
G01X10590403Y6624320D03*
G54D19*
G01X10793400Y6837680D03*
G01X10593400Y6837680D03*
G01X10593400Y6413500D03*
G01X10793400Y6413500D03*
G54D20*
G01X10579100Y6196000D03*
G01X10579100Y5996000D03*
G01X10795000Y6196000D03*
G01X10795000Y5996000D03*
G54D15*
G01X3058160Y7279640D03*
G54D11*
G01X3058160Y7533640D03*
G01X3312160Y7279640D03*
G01X3312160Y7533640D03*
G01X3566160Y7279640D03*
G01X3566160Y7533640D03*
G01X3820160Y7279640D03*
G01X3820160Y7533640D03*
G01X4074160Y7279640D03*
G01X4074160Y7533640D03*
G54D24*
G01X4358640Y7273163D03*
G01X4358640Y7479157D03*
G54D19*
G01X2612720Y7284720D03*
G01X2812720Y7284720D03*
G54D24*
G01X4876800Y7364603D03*
G01X4876800Y7570597D03*
G54D43*
G01X5405120Y7863840D03*
G54D44*
G01X5151120Y7863840D03*
G01X4897120Y7863840D03*
G54D45*
G01X4055313Y787400D03*
G01X3463087Y787400D03*
G01X2965247Y7955280D03*
G01X3557473Y7955280D03*
G01X6135167Y6126480D03*
G01X6727393Y6126480D03*
G54D46*
G01X5608320Y6392113D03*
G01X5608320Y5799887D03*
G54D47*
G01X4318000Y8193405D03*
G01X4223004Y7986395D03*
G01X4412996Y7986395D03*
G54D20*
G01X4013200Y7888300D03*
G01X4013200Y8088300D03*
G54D16*
G01X11825097Y1854200D03*
G01X11619103Y1854200D03*
G54D48*
G01X11328400Y1104900D03*
G54D49*
G01X11582400Y1104900D03*
G01X11836400Y1104900D03*
G54D19*
G01X1116000Y825500D03*
G01X916000Y825500D03*
G01X1204900Y8966200D03*
G01X1004900Y8966200D03*
G54D50*
G01X12051195Y4337710D03*
G01X12231205Y4337710D03*
G54D51*
G01X12051195Y4417695D03*
G01X12231205Y4417695D03*
G01X12051195Y4497705D03*
G01X12231205Y4497705D03*
G54D50*
G01X12051195Y4577690D03*
G01X12231205Y4577690D03*
G54D52*
G01X11483759Y2628900D03*
G01X11249241Y2628900D03*
G01X11249241Y2806700D03*
G01X11483759Y2806700D03*
G54D20*
G01X11353800Y3049600D03*
G01X11353800Y3249600D03*
G01X11963400Y3163900D03*
G01X11963400Y3363900D03*
G54D53*
G01X11430000Y5708142D03*
G01X11430000Y6026658D03*
G01X11137900Y5708142D03*
G01X11137900Y6026658D03*
G54D54*
G01X11829542Y7251700D03*
G01X12148058Y7251700D03*
G54D16*
G01X6120003Y914400D03*
G01X6325997Y914400D03*
G54D24*
G01X6578600Y636397D03*
G01X6578600Y430403D03*
G54D55*
G01X5867400Y685800D03*
G54D56*
G01X6337910Y514604D03*
G01X6337910Y609600D03*
G01X6337910Y704596D03*
G01X6108090Y704596D03*
G01X6108090Y609600D03*
G01X6108090Y514604D03*
G04 Pad End*

M02*

