G04 Layer: BottomPasteMaskLayer*
G04 EasyEDA Pro v2.2.40.8, 2025-09-21 19:41:23*
G04 Gerber Generator version 0.3*
G04 Scale: 100 percent, Rotated: No, Reflected: No*
G04 Dimensions in millimeters*
G04 Leading zeros omitted, absolute positions, 4 integers and 5 decimals*
G04 Generated by one-click*
%FSLAX45Y45*%
%MOMM*%
%ADD10R,2.37599X1.9*%
%ADD11R,0.9X0.65001*%
%ADD12R,0.7X1.0*%
%ADD13R,0.7X1.25001*%
%ADD14R,0.4X1.25001*%
%ADD15R,2.2X2.4*%
%ADD16R,0.55999X1.42999*%
%ADD17O,1.8X0.6*%
%ADD18R,2.28999X2.28999*%
%ADD19R,3.5047X2.35001*%
%ADD20R,3.49999X2.35001*%
%ADD21R,2.20749X2.37599*%
%ADD22R,2.37599X2.20749*%
%ADD23R,0.6X1.07*%
%ADD24R,0.8X0.65001*%
%ADD25R,0.8X0.5*%
%ADD26R,1.0X0.75001*%
%ADD27R,1.07201X0.532*%
G75*


G04 PolygonModel Start*
G36*
G01X4983617Y6615196D02*
G01X4983617Y6487198D01*
G01X4988618Y6482197D01*
G01X5103619Y6482197D01*
G01X5108618Y6487198D01*
G01X5109121Y6528201D01*
G01X5064120Y6528201D01*
G01X5064120Y6573200D01*
G01X5108120Y6573200D01*
G01X5108618Y6615196D01*
G01X5103619Y6620198D01*
G01X4988618Y6620198D01*
G01X4983617Y6615196D01*
G37*
G36*
G01X5198618Y6615196D02*
G01X5198621Y6573200D01*
G01X5243119Y6573200D01*
G01X5243119Y6528201D01*
G01X5199121Y6528201D01*
G01X5198618Y6487198D01*
G01X5203619Y6482197D01*
G01X5318618Y6482197D01*
G01X5323619Y6487198D01*
G01X5323619Y6615196D01*
G01X5318618Y6620198D01*
G01X5203619Y6620198D01*
G01X5198618Y6615196D01*
G37*
G36*
G01X1171118Y5916160D02*
G01X1171118Y5788162D01*
G01X1176119Y5783161D01*
G01X1291120Y5783161D01*
G01X1296119Y5788162D01*
G01X1296622Y5829165D01*
G01X1251621Y5829165D01*
G01X1251621Y5874164D01*
G01X1295621Y5874164D01*
G01X1296119Y5916160D01*
G01X1291120Y5921162D01*
G01X1176119Y5921162D01*
G01X1171118Y5916160D01*
G37*
G36*
G01X1386119Y5916160D02*
G01X1386121Y5874164D01*
G01X1430619Y5874164D01*
G01X1430619Y5829165D01*
G01X1386622Y5829165D01*
G01X1386119Y5788162D01*
G01X1391120Y5783161D01*
G01X1506118Y5783161D01*
G01X1511120Y5788162D01*
G01X1511120Y5916160D01*
G01X1506118Y5921162D01*
G01X1391120Y5921162D01*
G01X1386119Y5916160D01*
G37*
G36*
G01X1171118Y4879840D02*
G01X1171118Y4751842D01*
G01X1176119Y4746841D01*
G01X1291120Y4746841D01*
G01X1296119Y4751842D01*
G01X1296622Y4792845D01*
G01X1251621Y4792845D01*
G01X1251621Y4837844D01*
G01X1295621Y4837844D01*
G01X1296119Y4879840D01*
G01X1291120Y4884842D01*
G01X1176119Y4884842D01*
G01X1171118Y4879840D01*
G37*
G36*
G01X1386119Y4879840D02*
G01X1386121Y4837844D01*
G01X1430619Y4837844D01*
G01X1430619Y4792845D01*
G01X1386622Y4792845D01*
G01X1386119Y4751842D01*
G01X1391120Y4746841D01*
G01X1506118Y4746841D01*
G01X1511120Y4751842D01*
G01X1511120Y4879840D01*
G01X1506118Y4884842D01*
G01X1391120Y4884842D01*
G01X1386119Y4879840D01*
G37*
G36*
G01X1171118Y3874000D02*
G01X1171118Y3746002D01*
G01X1176119Y3741001D01*
G01X1291120Y3741001D01*
G01X1296119Y3746002D01*
G01X1296622Y3787005D01*
G01X1251621Y3787005D01*
G01X1251621Y3832004D01*
G01X1295621Y3832004D01*
G01X1296119Y3874000D01*
G01X1291120Y3879002D01*
G01X1176119Y3879002D01*
G01X1171118Y3874000D01*
G37*
G36*
G01X1386119Y3874000D02*
G01X1386121Y3832004D01*
G01X1430619Y3832004D01*
G01X1430619Y3787005D01*
G01X1386622Y3787005D01*
G01X1386119Y3746002D01*
G01X1391120Y3741001D01*
G01X1506118Y3741001D01*
G01X1511120Y3746002D01*
G01X1511120Y3874000D01*
G01X1506118Y3879002D01*
G01X1391120Y3879002D01*
G01X1386119Y3874000D01*
G37*
G36*
G01X7276600Y1379398D02*
G01X7404598Y1379398D01*
G01X7409599Y1384399D01*
G01X7409599Y1499400D01*
G01X7404598Y1504399D01*
G01X7363595Y1504902D01*
G01X7363595Y1459901D01*
G01X7318596Y1459901D01*
G01X7318596Y1503901D01*
G01X7276600Y1504399D01*
G01X7271598Y1499400D01*
G01X7271598Y1384399D01*
G01X7276600Y1379398D01*
G37*
G36*
G01X7276600Y1594399D02*
G01X7318596Y1594401D01*
G01X7318596Y1638899D01*
G01X7363595Y1638899D01*
G01X7363595Y1594902D01*
G01X7404598Y1594399D01*
G01X7409599Y1599400D01*
G01X7409599Y1714398D01*
G01X7404598Y1719400D01*
G01X7276600Y1719400D01*
G01X7271598Y1714398D01*
G01X7271598Y1599400D01*
G01X7276600Y1594399D01*
G37*
G36*
G01X7022600Y1379398D02*
G01X7150598Y1379398D01*
G01X7155599Y1384399D01*
G01X7155599Y1499400D01*
G01X7150598Y1504399D01*
G01X7109595Y1504902D01*
G01X7109595Y1459901D01*
G01X7064596Y1459901D01*
G01X7064596Y1503901D01*
G01X7022600Y1504399D01*
G01X7017598Y1499400D01*
G01X7017598Y1384399D01*
G01X7022600Y1379398D01*
G37*
G36*
G01X7022600Y1594399D02*
G01X7064596Y1594401D01*
G01X7064596Y1638899D01*
G01X7109595Y1638899D01*
G01X7109595Y1594902D01*
G01X7150598Y1594399D01*
G01X7155599Y1599400D01*
G01X7155599Y1714398D01*
G01X7150598Y1719400D01*
G01X7022600Y1719400D01*
G01X7017598Y1714398D01*
G01X7017598Y1599400D01*
G01X7022600Y1594399D01*
G37*
G36*
G01X755261Y5610449D02*
G01X755261Y5738447D01*
G01X750260Y5743448D01*
G01X635259Y5743448D01*
G01X630260Y5738447D01*
G01X629757Y5697444D01*
G01X674759Y5697444D01*
G01X674759Y5652445D01*
G01X630758Y5652445D01*
G01X630260Y5610449D01*
G01X635259Y5605447D01*
G01X750260Y5605447D01*
G01X755261Y5610449D01*
G37*
G36*
G01X540261Y5610449D02*
G01X540258Y5652445D01*
G01X495760Y5652445D01*
G01X495760Y5697444D01*
G01X539758Y5697444D01*
G01X540261Y5738447D01*
G01X535259Y5743448D01*
G01X420261Y5743448D01*
G01X415260Y5738447D01*
G01X415260Y5610449D01*
G01X420261Y5605447D01*
G01X535259Y5605447D01*
G01X540261Y5610449D01*
G37*
G36*
G01X749122Y4538480D02*
G01X749122Y4666478D01*
G01X744121Y4671479D01*
G01X629120Y4671479D01*
G01X624121Y4666478D01*
G01X623618Y4625475D01*
G01X668619Y4625475D01*
G01X668619Y4580476D01*
G01X624619Y4580476D01*
G01X624121Y4538480D01*
G01X629120Y4533478D01*
G01X744121Y4533478D01*
G01X749122Y4538480D01*
G37*
G36*
G01X534121Y4538480D02*
G01X534119Y4580476D01*
G01X489621Y4580476D01*
G01X489621Y4625475D01*
G01X533618Y4625475D01*
G01X534121Y4666478D01*
G01X529120Y4671479D01*
G01X414122Y4671479D01*
G01X409120Y4666478D01*
G01X409120Y4538480D01*
G01X414122Y4533478D01*
G01X529120Y4533478D01*
G01X534121Y4538480D01*
G37*
G36*
G01X793279Y3568289D02*
G01X793279Y3696287D01*
G01X788278Y3701288D01*
G01X673277Y3701288D01*
G01X668278Y3696287D01*
G01X667775Y3655284D01*
G01X712776Y3655284D01*
G01X712776Y3610285D01*
G01X668776Y3610285D01*
G01X668278Y3568289D01*
G01X673277Y3563287D01*
G01X788278Y3563287D01*
G01X793279Y3568289D01*
G37*
G36*
G01X578278Y3568289D02*
G01X578275Y3610285D01*
G01X533777Y3610285D01*
G01X533777Y3655284D01*
G01X577775Y3655284D01*
G01X578278Y3696287D01*
G01X573277Y3701288D01*
G01X458278Y3701288D01*
G01X453277Y3696287D01*
G01X453277Y3568289D01*
G01X458278Y3563287D01*
G01X573277Y3563287D01*
G01X578278Y3568289D01*
G37*
G36*
G01X4379996Y8651103D02*
G01X4251998Y8651103D01*
G01X4246997Y8646102D01*
G01X4246997Y8531101D01*
G01X4251998Y8526102D01*
G01X4293001Y8525599D01*
G01X4293001Y8570600D01*
G01X4338000Y8570600D01*
G01X4338000Y8526600D01*
G01X4379996Y8526102D01*
G01X4384998Y8531101D01*
G01X4384998Y8646102D01*
G01X4379996Y8651103D01*
G37*
G36*
G01X4379996Y8436102D02*
G01X4338000Y8436099D01*
G01X4338000Y8391601D01*
G01X4293001Y8391601D01*
G01X4293001Y8435599D01*
G01X4251998Y8436102D01*
G01X4246997Y8431101D01*
G01X4246997Y8316102D01*
G01X4251998Y8311101D01*
G01X4379996Y8311101D01*
G01X4384998Y8316102D01*
G01X4384998Y8431101D01*
G01X4379996Y8436102D01*
G37*
G36*
G01X932002Y2618240D02*
G01X932002Y2746238D01*
G01X927001Y2751239D01*
G01X812000Y2751239D01*
G01X807001Y2746238D01*
G01X806498Y2705235D01*
G01X851499Y2705235D01*
G01X851499Y2660236D01*
G01X807499Y2660236D01*
G01X807001Y2618240D01*
G01X812000Y2613238D01*
G01X927001Y2613238D01*
G01X932002Y2618240D01*
G37*
G36*
G01X717001Y2618240D02*
G01X716999Y2660236D01*
G01X672501Y2660236D01*
G01X672501Y2705235D01*
G01X716498Y2705235D01*
G01X717001Y2746238D01*
G01X712000Y2751239D01*
G01X597002Y2751239D01*
G01X592000Y2746238D01*
G01X592000Y2618240D01*
G01X597002Y2613238D01*
G01X712000Y2613238D01*
G01X717001Y2618240D01*
G37*
G36*
G01X393200Y2603678D02*
G01X521198Y2603678D01*
G01X526199Y2608679D01*
G01X526199Y2723680D01*
G01X521198Y2728679D01*
G01X480195Y2729182D01*
G01X480195Y2684181D01*
G01X435196Y2684181D01*
G01X435196Y2728181D01*
G01X393200Y2728679D01*
G01X388198Y2723680D01*
G01X388198Y2608679D01*
G01X393200Y2603678D01*
G37*
G36*
G01X393200Y2818679D02*
G01X435196Y2818681D01*
G01X435196Y2863179D01*
G01X480195Y2863179D01*
G01X480195Y2819182D01*
G01X521198Y2818679D01*
G01X526199Y2823680D01*
G01X526199Y2938678D01*
G01X521198Y2943680D01*
G01X393200Y2943680D01*
G01X388198Y2938678D01*
G01X388198Y2823680D01*
G01X393200Y2818679D01*
G37*
G36*
G01X1389202Y7037840D02*
G01X1389202Y7165838D01*
G01X1384201Y7170839D01*
G01X1269200Y7170839D01*
G01X1264201Y7165838D01*
G01X1263698Y7124835D01*
G01X1308699Y7124835D01*
G01X1308699Y7079836D01*
G01X1264699Y7079836D01*
G01X1264201Y7037840D01*
G01X1269200Y7032838D01*
G01X1384201Y7032838D01*
G01X1389202Y7037840D01*
G37*
G36*
G01X1174201Y7037840D02*
G01X1174199Y7079836D01*
G01X1129701Y7079836D01*
G01X1129701Y7124835D01*
G01X1173698Y7124835D01*
G01X1174201Y7165838D01*
G01X1169200Y7170839D01*
G01X1054202Y7170839D01*
G01X1049200Y7165838D01*
G01X1049200Y7037840D01*
G01X1054202Y7032838D01*
G01X1169200Y7032838D01*
G01X1174201Y7037840D01*
G37*
G36*
G01X612640Y6631762D02*
G01X484642Y6631762D01*
G01X479641Y6626761D01*
G01X479641Y6511760D01*
G01X484642Y6506761D01*
G01X525645Y6506258D01*
G01X525645Y6551259D01*
G01X570644Y6551259D01*
G01X570644Y6507259D01*
G01X612640Y6506761D01*
G01X617642Y6511760D01*
G01X617642Y6626761D01*
G01X612640Y6631762D01*
G37*
G36*
G01X612640Y6416761D02*
G01X570644Y6416759D01*
G01X570644Y6372261D01*
G01X525645Y6372261D01*
G01X525645Y6416258D01*
G01X484642Y6416761D01*
G01X479641Y6411760D01*
G01X479641Y6296762D01*
G01X484642Y6291760D01*
G01X612640Y6291760D01*
G01X617642Y6296762D01*
G01X617642Y6411760D01*
G01X612640Y6416761D01*
G37*
G36*
G01X10437038Y5001760D02*
G01X10437038Y4873762D01*
G01X10442039Y4868761D01*
G01X10557040Y4868761D01*
G01X10562039Y4873762D01*
G01X10562542Y4914765D01*
G01X10517541Y4914765D01*
G01X10517541Y4959764D01*
G01X10561541Y4959764D01*
G01X10562039Y5001760D01*
G01X10557040Y5006762D01*
G01X10442039Y5006762D01*
G01X10437038Y5001760D01*
G37*
G36*
G01X10652039Y5001760D02*
G01X10652041Y4959764D01*
G01X10696539Y4959764D01*
G01X10696539Y4914765D01*
G01X10652542Y4914765D01*
G01X10652039Y4873762D01*
G01X10657040Y4868761D01*
G01X10772038Y4868761D01*
G01X10777040Y4873762D01*
G01X10777040Y5001760D01*
G01X10772038Y5006762D01*
G01X10657040Y5006762D01*
G01X10652039Y5001760D01*
G37*
G36*
G01X10863758Y3752080D02*
G01X10863758Y3624082D01*
G01X10868759Y3619081D01*
G01X10983760Y3619081D01*
G01X10988759Y3624082D01*
G01X10989262Y3665085D01*
G01X10944261Y3665085D01*
G01X10944261Y3710084D01*
G01X10988261Y3710084D01*
G01X10988759Y3752080D01*
G01X10983760Y3757082D01*
G01X10868759Y3757082D01*
G01X10863758Y3752080D01*
G37*
G36*
G01X11078759Y3752080D02*
G01X11078761Y3710084D01*
G01X11123259Y3710084D01*
G01X11123259Y3665085D01*
G01X11079262Y3665085D01*
G01X11078759Y3624082D01*
G01X11083760Y3619081D01*
G01X11198758Y3619081D01*
G01X11203760Y3624082D01*
G01X11203760Y3752080D01*
G01X11198758Y3757082D01*
G01X11083760Y3757082D01*
G01X11078759Y3752080D01*
G37*
G36*
G01X10894238Y3995920D02*
G01X10894238Y3867922D01*
G01X10899239Y3862921D01*
G01X11014240Y3862921D01*
G01X11019239Y3867922D01*
G01X11019742Y3908925D01*
G01X10974741Y3908925D01*
G01X10974741Y3953924D01*
G01X11018741Y3953924D01*
G01X11019239Y3995920D01*
G01X11014240Y4000922D01*
G01X10899239Y4000922D01*
G01X10894238Y3995920D01*
G37*
G36*
G01X11109239Y3995920D02*
G01X11109241Y3953924D01*
G01X11153739Y3953924D01*
G01X11153739Y3908925D01*
G01X11109742Y3908925D01*
G01X11109239Y3867922D01*
G01X11114240Y3862921D01*
G01X11229238Y3862921D01*
G01X11234240Y3867922D01*
G01X11234240Y3995920D01*
G01X11229238Y4000922D01*
G01X11114240Y4000922D01*
G01X11109239Y3995920D01*
G37*
G36*
G01X10762480Y4467682D02*
G01X10634482Y4467682D01*
G01X10629481Y4462681D01*
G01X10629481Y4347680D01*
G01X10634482Y4342681D01*
G01X10675485Y4342178D01*
G01X10675485Y4387179D01*
G01X10720484Y4387179D01*
G01X10720484Y4343179D01*
G01X10762480Y4342681D01*
G01X10767482Y4347680D01*
G01X10767482Y4462681D01*
G01X10762480Y4467682D01*
G37*
G36*
G01X10762480Y4252681D02*
G01X10720484Y4252679D01*
G01X10720484Y4208181D01*
G01X10675485Y4208181D01*
G01X10675485Y4252178D01*
G01X10634482Y4252681D01*
G01X10629481Y4247680D01*
G01X10629481Y4132682D01*
G01X10634482Y4127680D01*
G01X10762480Y4127680D01*
G01X10767482Y4132682D01*
G01X10767482Y4247680D01*
G01X10762480Y4252681D01*
G37*
G36*
G01X11403143Y4918219D02*
G01X11403143Y5046217D01*
G01X11398142Y5051218D01*
G01X11283141Y5051218D01*
G01X11278142Y5046217D01*
G01X11277639Y5005214D01*
G01X11322641Y5005214D01*
G01X11322641Y4960215D01*
G01X11278640Y4960215D01*
G01X11278142Y4918219D01*
G01X11283141Y4913217D01*
G01X11398142Y4913217D01*
G01X11403143Y4918219D01*
G37*
G36*
G01X11188142Y4918219D02*
G01X11188140Y4960215D01*
G01X11143642Y4960215D01*
G01X11143642Y5005214D01*
G01X11187640Y5005214D01*
G01X11188142Y5046217D01*
G01X11183141Y5051218D01*
G01X11068143Y5051218D01*
G01X11063141Y5046217D01*
G01X11063141Y4918219D01*
G01X11068143Y4913217D01*
G01X11183141Y4913217D01*
G01X11188142Y4918219D01*
G37*
G36*
G01X11632421Y5304621D02*
G01X11504423Y5304621D01*
G01X11499422Y5299620D01*
G01X11499422Y5184619D01*
G01X11504423Y5179620D01*
G01X11545426Y5179117D01*
G01X11545426Y5224118D01*
G01X11590425Y5224118D01*
G01X11590425Y5180118D01*
G01X11632421Y5179620D01*
G01X11637423Y5184619D01*
G01X11637423Y5299620D01*
G01X11632421Y5304621D01*
G37*
G36*
G01X11632421Y5089620D02*
G01X11590425Y5089618D01*
G01X11590425Y5045119D01*
G01X11545426Y5045119D01*
G01X11545426Y5089117D01*
G01X11504423Y5089620D01*
G01X11499422Y5084619D01*
G01X11499422Y4969620D01*
G01X11504423Y4964619D01*
G01X11632421Y4964619D01*
G01X11637423Y4969620D01*
G01X11637423Y5084619D01*
G01X11632421Y5089620D01*
G37*
G36*
G01X10439537Y4786396D02*
G01X10439537Y4658398D01*
G01X10444538Y4653397D01*
G01X10559539Y4653397D01*
G01X10564538Y4658398D01*
G01X10565041Y4699401D01*
G01X10520040Y4699401D01*
G01X10520040Y4744400D01*
G01X10564040Y4744400D01*
G01X10564538Y4786396D01*
G01X10559539Y4791398D01*
G01X10444538Y4791398D01*
G01X10439537Y4786396D01*
G37*
G36*
G01X10654538Y4786396D02*
G01X10654541Y4744400D01*
G01X10699039Y4744400D01*
G01X10699039Y4699401D01*
G01X10655041Y4699401D01*
G01X10654538Y4658398D01*
G01X10659539Y4653397D01*
G01X10774538Y4653397D01*
G01X10779539Y4658398D01*
G01X10779539Y4786396D01*
G01X10774538Y4791398D01*
G01X10659539Y4791398D01*
G01X10654538Y4786396D01*
G37*
G36*
G01X2821762Y8226560D02*
G01X2821762Y8354558D01*
G01X2816761Y8359559D01*
G01X2701760Y8359559D01*
G01X2696761Y8354558D01*
G01X2696258Y8313555D01*
G01X2741259Y8313555D01*
G01X2741259Y8268556D01*
G01X2697259Y8268556D01*
G01X2696761Y8226560D01*
G01X2701760Y8221558D01*
G01X2816761Y8221558D01*
G01X2821762Y8226560D01*
G37*
G36*
G01X2606761Y8226560D02*
G01X2606759Y8268556D01*
G01X2562261Y8268556D01*
G01X2562261Y8313555D01*
G01X2606258Y8313555D01*
G01X2606761Y8354558D01*
G01X2601760Y8359559D01*
G01X2486762Y8359559D01*
G01X2481760Y8354558D01*
G01X2481760Y8226560D01*
G01X2486762Y8221558D01*
G01X2601760Y8221558D01*
G01X2606761Y8226560D01*
G37*
G36*
G01X2509698Y1435600D02*
G01X2509698Y1307602D01*
G01X2514699Y1302601D01*
G01X2629700Y1302601D01*
G01X2634699Y1307602D01*
G01X2635202Y1348605D01*
G01X2590201Y1348605D01*
G01X2590201Y1393604D01*
G01X2634201Y1393604D01*
G01X2634699Y1435600D01*
G01X2629700Y1440602D01*
G01X2514699Y1440602D01*
G01X2509698Y1435600D01*
G37*
G36*
G01X2724699Y1435600D02*
G01X2724701Y1393604D01*
G01X2769199Y1393604D01*
G01X2769199Y1348605D01*
G01X2725202Y1348605D01*
G01X2724699Y1307602D01*
G01X2729700Y1302601D01*
G01X2844698Y1302601D01*
G01X2849700Y1307602D01*
G01X2849700Y1435600D01*
G01X2844698Y1440602D01*
G01X2729700Y1440602D01*
G01X2724699Y1435600D01*
G37*
G36*
G01X6308324Y4130177D02*
G01X6436322Y4130177D01*
G01X6441323Y4135178D01*
G01X6441323Y4250179D01*
G01X6436322Y4255178D01*
G01X6395319Y4255681D01*
G01X6395319Y4210680D01*
G01X6350320Y4210680D01*
G01X6350320Y4254680D01*
G01X6308324Y4255178D01*
G01X6303322Y4250179D01*
G01X6303322Y4135178D01*
G01X6308324Y4130177D01*
G37*
G36*
G01X6308324Y4345178D02*
G01X6350320Y4345181D01*
G01X6350320Y4389679D01*
G01X6395319Y4389679D01*
G01X6395319Y4345681D01*
G01X6436322Y4345178D01*
G01X6441323Y4350179D01*
G01X6441323Y4465178D01*
G01X6436322Y4470179D01*
G01X6308324Y4470179D01*
G01X6303322Y4465178D01*
G01X6303322Y4350179D01*
G01X6308324Y4345178D01*
G37*
G36*
G01X8183743Y7253204D02*
G01X8183743Y7381202D01*
G01X8178742Y7386203D01*
G01X8063741Y7386203D01*
G01X8058742Y7381202D01*
G01X8058239Y7340199D01*
G01X8103240Y7340199D01*
G01X8103240Y7295200D01*
G01X8059240Y7295200D01*
G01X8058742Y7253204D01*
G01X8063741Y7248202D01*
G01X8178742Y7248202D01*
G01X8183743Y7253204D01*
G37*
G36*
G01X7968742Y7253204D02*
G01X7968739Y7295200D01*
G01X7924241Y7295200D01*
G01X7924241Y7340199D01*
G01X7968239Y7340199D01*
G01X7968742Y7381202D01*
G01X7963741Y7386203D01*
G01X7848742Y7386203D01*
G01X7843741Y7381202D01*
G01X7843741Y7253204D01*
G01X7848742Y7248202D01*
G01X7963741Y7248202D01*
G01X7968742Y7253204D01*
G37*
G36*
G01X8183743Y1065764D02*
G01X8183743Y1193762D01*
G01X8178742Y1198763D01*
G01X8063741Y1198763D01*
G01X8058742Y1193762D01*
G01X8058239Y1152759D01*
G01X8103240Y1152759D01*
G01X8103240Y1107760D01*
G01X8059240Y1107760D01*
G01X8058742Y1065764D01*
G01X8063741Y1060762D01*
G01X8178742Y1060762D01*
G01X8183743Y1065764D01*
G37*
G36*
G01X7968742Y1065764D02*
G01X7968739Y1107760D01*
G01X7924241Y1107760D01*
G01X7924241Y1152759D01*
G01X7968239Y1152759D01*
G01X7968742Y1193762D01*
G01X7963741Y1198763D01*
G01X7848742Y1198763D01*
G01X7843741Y1193762D01*
G01X7843741Y1065764D01*
G01X7848742Y1060762D01*
G01X7963741Y1060762D01*
G01X7968742Y1065764D01*
G37*
G36*
G01X12438880Y3431362D02*
G01X12310882Y3431362D01*
G01X12305881Y3426361D01*
G01X12305881Y3311360D01*
G01X12310882Y3306361D01*
G01X12351885Y3305858D01*
G01X12351885Y3350859D01*
G01X12396884Y3350859D01*
G01X12396884Y3306859D01*
G01X12438880Y3306361D01*
G01X12443882Y3311360D01*
G01X12443882Y3426361D01*
G01X12438880Y3431362D01*
G37*
G36*
G01X12438880Y3216361D02*
G01X12396884Y3216359D01*
G01X12396884Y3171861D01*
G01X12351885Y3171861D01*
G01X12351885Y3215858D01*
G01X12310882Y3216361D01*
G01X12305881Y3211360D01*
G01X12305881Y3096362D01*
G01X12310882Y3091360D01*
G01X12438880Y3091360D01*
G01X12443882Y3096362D01*
G01X12443882Y3211360D01*
G01X12438880Y3216361D01*
G37*
G36*
G01X12713200Y3431362D02*
G01X12585202Y3431362D01*
G01X12580201Y3426361D01*
G01X12580201Y3311360D01*
G01X12585202Y3306361D01*
G01X12626205Y3305858D01*
G01X12626205Y3350859D01*
G01X12671204Y3350859D01*
G01X12671204Y3306859D01*
G01X12713200Y3306361D01*
G01X12718202Y3311360D01*
G01X12718202Y3426361D01*
G01X12713200Y3431362D01*
G37*
G36*
G01X12713200Y3216361D02*
G01X12671204Y3216359D01*
G01X12671204Y3171861D01*
G01X12626205Y3171861D01*
G01X12626205Y3215858D01*
G01X12585202Y3216361D01*
G01X12580201Y3211360D01*
G01X12580201Y3096362D01*
G01X12585202Y3091360D01*
G01X12713200Y3091360D01*
G01X12718202Y3096362D01*
G01X12718202Y3211360D01*
G01X12713200Y3216361D01*
G37*
G36*
G01X900196Y472303D02*
G01X772198Y472303D01*
G01X767197Y467302D01*
G01X767197Y352301D01*
G01X772198Y347302D01*
G01X813201Y346799D01*
G01X813201Y391800D01*
G01X858200Y391800D01*
G01X858200Y347800D01*
G01X900196Y347302D01*
G01X905198Y352301D01*
G01X905198Y467302D01*
G01X900196Y472303D01*
G37*
G36*
G01X900196Y257302D02*
G01X858200Y257299D01*
G01X858200Y212801D01*
G01X813201Y212801D01*
G01X813201Y256799D01*
G01X772198Y257302D01*
G01X767197Y252301D01*
G01X767197Y137302D01*
G01X772198Y132301D01*
G01X900196Y132301D01*
G01X905198Y137302D01*
G01X905198Y252301D01*
G01X900196Y257302D01*
G37*
G36*
G01X844828Y690211D02*
G01X844828Y562212D01*
G01X849829Y557211D01*
G01X964830Y557211D01*
G01X969829Y562212D01*
G01X970332Y603216D01*
G01X925331Y603216D01*
G01X925331Y648214D01*
G01X969331Y648214D01*
G01X969829Y690211D01*
G01X964830Y695212D01*
G01X849829Y695212D01*
G01X844828Y690211D01*
G37*
G36*
G01X1059829Y690211D02*
G01X1059832Y648214D01*
G01X1104330Y648214D01*
G01X1104330Y603216D01*
G01X1060332Y603216D01*
G01X1059829Y562212D01*
G01X1064830Y557211D01*
G01X1179829Y557211D01*
G01X1184830Y562212D01*
G01X1184830Y690211D01*
G01X1179829Y695212D01*
G01X1064830Y695212D01*
G01X1059829Y690211D01*
G37*
G36*
G01X817702Y672600D02*
G01X817702Y800598D01*
G01X812701Y805599D01*
G01X697700Y805599D01*
G01X692701Y800598D01*
G01X692198Y759595D01*
G01X737199Y759595D01*
G01X737199Y714596D01*
G01X693199Y714596D01*
G01X692701Y672600D01*
G01X697700Y667598D01*
G01X812701Y667598D01*
G01X817702Y672600D01*
G37*
G36*
G01X602701Y672600D02*
G01X602699Y714596D01*
G01X558201Y714596D01*
G01X558201Y759595D01*
G01X602198Y759595D01*
G01X602701Y800598D01*
G01X597700Y805599D01*
G01X482702Y805599D01*
G01X477700Y800598D01*
G01X477700Y672600D01*
G01X482702Y667598D01*
G01X597700Y667598D01*
G01X602701Y672600D01*
G37*
G36*
G01X900196Y8574903D02*
G01X772198Y8574903D01*
G01X767197Y8569902D01*
G01X767197Y8454901D01*
G01X772198Y8449902D01*
G01X813201Y8449399D01*
G01X813201Y8494400D01*
G01X858200Y8494400D01*
G01X858200Y8450400D01*
G01X900196Y8449902D01*
G01X905198Y8454901D01*
G01X905198Y8569902D01*
G01X900196Y8574903D01*
G37*
G36*
G01X900196Y8359902D02*
G01X858200Y8359899D01*
G01X858200Y8315401D01*
G01X813201Y8315401D01*
G01X813201Y8359399D01*
G01X772198Y8359902D01*
G01X767197Y8354901D01*
G01X767197Y8239902D01*
G01X772198Y8234901D01*
G01X900196Y8234901D01*
G01X905198Y8239902D01*
G01X905198Y8354901D01*
G01X900196Y8359902D01*
G37*
G36*
G01X934898Y8827000D02*
G01X934898Y8699002D01*
G01X939899Y8694001D01*
G01X1054900Y8694001D01*
G01X1059899Y8699002D01*
G01X1060402Y8740005D01*
G01X1015401Y8740005D01*
G01X1015401Y8785004D01*
G01X1059401Y8785004D01*
G01X1059899Y8827000D01*
G01X1054900Y8832002D01*
G01X939899Y8832002D01*
G01X934898Y8827000D01*
G37*
G36*
G01X1149899Y8827000D02*
G01X1149901Y8785004D01*
G01X1194399Y8785004D01*
G01X1194399Y8740005D01*
G01X1150402Y8740005D01*
G01X1149899Y8699002D01*
G01X1154900Y8694001D01*
G01X1269898Y8694001D01*
G01X1274900Y8699002D01*
G01X1274900Y8827000D01*
G01X1269898Y8832002D01*
G01X1154900Y8832002D01*
G01X1149899Y8827000D01*
G37*
G36*
G01X904062Y8696460D02*
G01X904062Y8824458D01*
G01X899061Y8829459D01*
G01X784060Y8829459D01*
G01X779061Y8824458D01*
G01X778558Y8783455D01*
G01X823559Y8783455D01*
G01X823559Y8738456D01*
G01X779559Y8738456D01*
G01X779061Y8696460D01*
G01X784060Y8691458D01*
G01X899061Y8691458D01*
G01X904062Y8696460D01*
G37*
G36*
G01X689061Y8696460D02*
G01X689059Y8738456D01*
G01X644561Y8738456D01*
G01X644561Y8783455D01*
G01X688558Y8783455D01*
G01X689061Y8824458D01*
G01X684060Y8829459D01*
G01X569062Y8829459D01*
G01X564060Y8824458D01*
G01X564060Y8696460D01*
G01X569062Y8691458D01*
G01X684060Y8691458D01*
G01X689061Y8696460D01*
G37*
G36*
G01X11292977Y3993916D02*
G01X11292977Y3865918D01*
G01X11297978Y3860917D01*
G01X11412979Y3860917D01*
G01X11417978Y3865918D01*
G01X11418481Y3906921D01*
G01X11373480Y3906921D01*
G01X11373480Y3951920D01*
G01X11417480Y3951920D01*
G01X11417978Y3993916D01*
G01X11412979Y3998918D01*
G01X11297978Y3998918D01*
G01X11292977Y3993916D01*
G37*
G36*
G01X11507978Y3993916D02*
G01X11507981Y3951920D01*
G01X11552479Y3951920D01*
G01X11552479Y3906921D01*
G01X11508481Y3906921D01*
G01X11507978Y3865918D01*
G01X11512979Y3860917D01*
G01X11627978Y3860917D01*
G01X11632979Y3865918D01*
G01X11632979Y3993916D01*
G01X11627978Y3998918D01*
G01X11512979Y3998918D01*
G01X11507978Y3993916D01*
G37*
G36*
G01X5651678Y4910320D02*
G01X5651678Y4782322D01*
G01X5656679Y4777321D01*
G01X5771680Y4777321D01*
G01X5776679Y4782322D01*
G01X5777182Y4823325D01*
G01X5732181Y4823325D01*
G01X5732181Y4868324D01*
G01X5776181Y4868324D01*
G01X5776679Y4910320D01*
G01X5771680Y4915322D01*
G01X5656679Y4915322D01*
G01X5651678Y4910320D01*
G37*
G36*
G01X5866679Y4910320D02*
G01X5866681Y4868324D01*
G01X5911179Y4868324D01*
G01X5911179Y4823325D01*
G01X5867182Y4823325D01*
G01X5866679Y4782322D01*
G01X5871680Y4777321D01*
G01X5986678Y4777321D01*
G01X5991680Y4782322D01*
G01X5991680Y4910320D01*
G01X5986678Y4915322D01*
G01X5871680Y4915322D01*
G01X5866679Y4910320D01*
G37*
G36*
G01X11290478Y3538720D02*
G01X11290478Y3410722D01*
G01X11295479Y3405721D01*
G01X11410480Y3405721D01*
G01X11415479Y3410722D01*
G01X11415982Y3451725D01*
G01X11370981Y3451725D01*
G01X11370981Y3496724D01*
G01X11414981Y3496724D01*
G01X11415479Y3538720D01*
G01X11410480Y3543722D01*
G01X11295479Y3543722D01*
G01X11290478Y3538720D01*
G37*
G36*
G01X11505479Y3538720D02*
G01X11505481Y3496724D01*
G01X11549979Y3496724D01*
G01X11549979Y3451725D01*
G01X11505982Y3451725D01*
G01X11505479Y3410722D01*
G01X11510480Y3405721D01*
G01X11625478Y3405721D01*
G01X11630480Y3410722D01*
G01X11630480Y3538720D01*
G01X11625478Y3543722D01*
G01X11510480Y3543722D01*
G01X11505479Y3538720D01*
G37*
G36*
G01X10439537Y3750076D02*
G01X10439537Y3622078D01*
G01X10444538Y3617077D01*
G01X10559539Y3617077D01*
G01X10564538Y3622078D01*
G01X10565041Y3663081D01*
G01X10520040Y3663081D01*
G01X10520040Y3708080D01*
G01X10564040Y3708080D01*
G01X10564538Y3750076D01*
G01X10559539Y3755078D01*
G01X10444538Y3755078D01*
G01X10439537Y3750076D01*
G37*
G36*
G01X10654538Y3750076D02*
G01X10654541Y3708080D01*
G01X10699039Y3708080D01*
G01X10699039Y3663081D01*
G01X10655041Y3663081D01*
G01X10654538Y3622078D01*
G01X10659539Y3617077D01*
G01X10774538Y3617077D01*
G01X10779539Y3622078D01*
G01X10779539Y3750076D01*
G01X10774538Y3755078D01*
G01X10659539Y3755078D01*
G01X10654538Y3750076D01*
G37*
G36*
G01X11987296Y7038203D02*
G01X11859298Y7038203D01*
G01X11854297Y7033202D01*
G01X11854297Y6918201D01*
G01X11859298Y6913202D01*
G01X11900301Y6912699D01*
G01X11900301Y6957700D01*
G01X11945300Y6957700D01*
G01X11945300Y6913700D01*
G01X11987296Y6913202D01*
G01X11992298Y6918201D01*
G01X11992298Y7033202D01*
G01X11987296Y7038203D01*
G37*
G36*
G01X11987296Y6823202D02*
G01X11945300Y6823199D01*
G01X11945300Y6778701D01*
G01X11900301Y6778701D01*
G01X11900301Y6822699D01*
G01X11859298Y6823202D01*
G01X11854297Y6818201D01*
G01X11854297Y6703202D01*
G01X11859298Y6698201D01*
G01X11987296Y6698201D01*
G01X11992298Y6703202D01*
G01X11992298Y6818201D01*
G01X11987296Y6823202D01*
G37*
G36*
G01X11171098Y7315700D02*
G01X11171098Y7187702D01*
G01X11176099Y7182701D01*
G01X11291100Y7182701D01*
G01X11296099Y7187702D01*
G01X11296602Y7228705D01*
G01X11251601Y7228705D01*
G01X11251601Y7273704D01*
G01X11295601Y7273704D01*
G01X11296099Y7315700D01*
G01X11291100Y7320702D01*
G01X11176099Y7320702D01*
G01X11171098Y7315700D01*
G37*
G36*
G01X11386099Y7315700D02*
G01X11386101Y7273704D01*
G01X11430599Y7273704D01*
G01X11430599Y7228705D01*
G01X11386602Y7228705D01*
G01X11386099Y7187702D01*
G01X11391100Y7182701D01*
G01X11506098Y7182701D01*
G01X11511100Y7187702D01*
G01X11511100Y7315700D01*
G01X11506098Y7320702D01*
G01X11391100Y7320702D01*
G01X11386099Y7315700D01*
G37*
G36*
G01X10860903Y6986504D02*
G01X10860903Y7114502D01*
G01X10855902Y7119503D01*
G01X10740901Y7119503D01*
G01X10735902Y7114502D01*
G01X10735399Y7073499D01*
G01X10780400Y7073499D01*
G01X10780400Y7028500D01*
G01X10736400Y7028500D01*
G01X10735902Y6986504D01*
G01X10740901Y6981502D01*
G01X10855902Y6981502D01*
G01X10860903Y6986504D01*
G37*
G36*
G01X10645902Y6986504D02*
G01X10645899Y7028500D01*
G01X10601401Y7028500D01*
G01X10601401Y7073499D01*
G01X10645399Y7073499D01*
G01X10645902Y7114502D01*
G01X10640901Y7119503D01*
G01X10525902Y7119503D01*
G01X10520901Y7114502D01*
G01X10520901Y6986504D01*
G01X10525902Y6981502D01*
G01X10640901Y6981502D01*
G01X10645902Y6986504D01*
G37*
G36*
G01X10525897Y6686316D02*
G01X10525897Y6558318D01*
G01X10530898Y6553317D01*
G01X10645899Y6553317D01*
G01X10650898Y6558318D01*
G01X10651401Y6599321D01*
G01X10606400Y6599321D01*
G01X10606400Y6644320D01*
G01X10650400Y6644320D01*
G01X10650898Y6686316D01*
G01X10645899Y6691318D01*
G01X10530898Y6691318D01*
G01X10525897Y6686316D01*
G37*
G36*
G01X10740898Y6686316D02*
G01X10740901Y6644320D01*
G01X10785399Y6644320D01*
G01X10785399Y6599321D01*
G01X10741401Y6599321D01*
G01X10740898Y6558318D01*
G01X10745899Y6553317D01*
G01X10860898Y6553317D01*
G01X10865899Y6558318D01*
G01X10865899Y6686316D01*
G01X10860898Y6691318D01*
G01X10745899Y6691318D01*
G01X10740898Y6686316D01*
G37*
G36*
G01X10523398Y6901680D02*
G01X10523398Y6773682D01*
G01X10528399Y6768681D01*
G01X10643400Y6768681D01*
G01X10648399Y6773682D01*
G01X10648902Y6814685D01*
G01X10603901Y6814685D01*
G01X10603901Y6859684D01*
G01X10647901Y6859684D01*
G01X10648399Y6901680D01*
G01X10643400Y6906682D01*
G01X10528399Y6906682D01*
G01X10523398Y6901680D01*
G37*
G36*
G01X10738399Y6901680D02*
G01X10738401Y6859684D01*
G01X10782899Y6859684D01*
G01X10782899Y6814685D01*
G01X10738902Y6814685D01*
G01X10738399Y6773682D01*
G01X10743400Y6768681D01*
G01X10858398Y6768681D01*
G01X10863400Y6773682D01*
G01X10863400Y6901680D01*
G01X10858398Y6906682D01*
G01X10743400Y6906682D01*
G01X10738399Y6901680D01*
G37*
G36*
G01X10863402Y6349500D02*
G01X10863402Y6477498D01*
G01X10858401Y6482499D01*
G01X10743400Y6482499D01*
G01X10738401Y6477498D01*
G01X10737898Y6436495D01*
G01X10782899Y6436495D01*
G01X10782899Y6391496D01*
G01X10738899Y6391496D01*
G01X10738401Y6349500D01*
G01X10743400Y6344498D01*
G01X10858401Y6344498D01*
G01X10863402Y6349500D01*
G37*
G36*
G01X10648401Y6349500D02*
G01X10648399Y6391496D01*
G01X10603901Y6391496D01*
G01X10603901Y6436495D01*
G01X10647898Y6436495D01*
G01X10648401Y6477498D01*
G01X10643400Y6482499D01*
G01X10528402Y6482499D01*
G01X10523400Y6477498D01*
G01X10523400Y6349500D01*
G01X10528402Y6344498D01*
G01X10643400Y6344498D01*
G01X10648401Y6349500D01*
G37*
G36*
G01X10515100Y5925998D02*
G01X10643098Y5925998D01*
G01X10648099Y5930999D01*
G01X10648099Y6046000D01*
G01X10643098Y6050999D01*
G01X10602095Y6051502D01*
G01X10602095Y6006501D01*
G01X10557096Y6006501D01*
G01X10557096Y6050501D01*
G01X10515100Y6050999D01*
G01X10510098Y6046000D01*
G01X10510098Y5930999D01*
G01X10515100Y5925998D01*
G37*
G36*
G01X10515100Y6140999D02*
G01X10557096Y6141001D01*
G01X10557096Y6185499D01*
G01X10602095Y6185499D01*
G01X10602095Y6141502D01*
G01X10643098Y6140999D01*
G01X10648099Y6146000D01*
G01X10648099Y6260998D01*
G01X10643098Y6266000D01*
G01X10515100Y6266000D01*
G01X10510098Y6260998D01*
G01X10510098Y6146000D01*
G01X10515100Y6140999D01*
G37*
G36*
G01X10731000Y5925998D02*
G01X10858998Y5925998D01*
G01X10863999Y5930999D01*
G01X10863999Y6046000D01*
G01X10858998Y6050999D01*
G01X10817995Y6051502D01*
G01X10817995Y6006501D01*
G01X10772996Y6006501D01*
G01X10772996Y6050501D01*
G01X10731000Y6050999D01*
G01X10725998Y6046000D01*
G01X10725998Y5930999D01*
G01X10731000Y5925998D01*
G37*
G36*
G01X10731000Y6140999D02*
G01X10772996Y6141001D01*
G01X10772996Y6185499D01*
G01X10817995Y6185499D01*
G01X10817995Y6141502D01*
G01X10858998Y6140999D01*
G01X10863999Y6146000D01*
G01X10863999Y6260998D01*
G01X10858998Y6266000D01*
G01X10731000Y6266000D01*
G01X10725998Y6260998D01*
G01X10725998Y6146000D01*
G01X10731000Y6140999D01*
G37*
G36*
G01X4420636Y7543663D02*
G01X4292638Y7543663D01*
G01X4287637Y7538662D01*
G01X4287637Y7423661D01*
G01X4292638Y7418662D01*
G01X4333641Y7418159D01*
G01X4333641Y7463160D01*
G01X4378640Y7463160D01*
G01X4378640Y7419160D01*
G01X4420636Y7418662D01*
G01X4425638Y7423661D01*
G01X4425638Y7538662D01*
G01X4420636Y7543663D01*
G37*
G36*
G01X4420636Y7328662D02*
G01X4378640Y7328659D01*
G01X4378640Y7284161D01*
G01X4333641Y7284161D01*
G01X4333641Y7328159D01*
G01X4292638Y7328662D01*
G01X4287637Y7323661D01*
G01X4287637Y7208662D01*
G01X4292638Y7203661D01*
G01X4420636Y7203661D01*
G01X4425638Y7208662D01*
G01X4425638Y7323661D01*
G01X4420636Y7328662D01*
G37*
G36*
G01X2882722Y7220720D02*
G01X2882722Y7348718D01*
G01X2877721Y7353719D01*
G01X2762720Y7353719D01*
G01X2757721Y7348718D01*
G01X2757218Y7307715D01*
G01X2802219Y7307715D01*
G01X2802219Y7262716D01*
G01X2758219Y7262716D01*
G01X2757721Y7220720D01*
G01X2762720Y7215718D01*
G01X2877721Y7215718D01*
G01X2882722Y7220720D01*
G37*
G36*
G01X2667721Y7220720D02*
G01X2667719Y7262716D01*
G01X2623221Y7262716D01*
G01X2623221Y7307715D01*
G01X2667218Y7307715D01*
G01X2667721Y7348718D01*
G01X2662720Y7353719D01*
G01X2547722Y7353719D01*
G01X2542720Y7348718D01*
G01X2542720Y7220720D01*
G01X2547722Y7215718D01*
G01X2662720Y7215718D01*
G01X2667721Y7220720D01*
G37*
G36*
G01X4938796Y7635103D02*
G01X4810798Y7635103D01*
G01X4805797Y7630102D01*
G01X4805797Y7515101D01*
G01X4810798Y7510102D01*
G01X4851801Y7509599D01*
G01X4851801Y7554600D01*
G01X4896800Y7554600D01*
G01X4896800Y7510600D01*
G01X4938796Y7510102D01*
G01X4943798Y7515101D01*
G01X4943798Y7630102D01*
G01X4938796Y7635103D01*
G37*
G36*
G01X4938796Y7420102D02*
G01X4896800Y7420099D01*
G01X4896800Y7375601D01*
G01X4851801Y7375601D01*
G01X4851801Y7419599D01*
G01X4810798Y7420102D01*
G01X4805797Y7415101D01*
G01X4805797Y7300102D01*
G01X4810798Y7295101D01*
G01X4938796Y7295101D01*
G01X4943798Y7300102D01*
G01X4943798Y7415101D01*
G01X4938796Y7420102D01*
G37*
G36*
G01X4077200Y8158302D02*
G01X3949202Y8158302D01*
G01X3944201Y8153301D01*
G01X3944201Y8038300D01*
G01X3949202Y8033301D01*
G01X3990205Y8032798D01*
G01X3990205Y8077799D01*
G01X4035204Y8077799D01*
G01X4035204Y8033799D01*
G01X4077200Y8033301D01*
G01X4082202Y8038300D01*
G01X4082202Y8153301D01*
G01X4077200Y8158302D01*
G37*
G36*
G01X4077200Y7943301D02*
G01X4035204Y7943299D01*
G01X4035204Y7898801D01*
G01X3990205Y7898801D01*
G01X3990205Y7942798D01*
G01X3949202Y7943301D01*
G01X3944201Y7938300D01*
G01X3944201Y7823302D01*
G01X3949202Y7818300D01*
G01X4077200Y7818300D01*
G01X4082202Y7823302D01*
G01X4082202Y7938300D01*
G01X4077200Y7943301D01*
G37*
G36*
G01X11554597Y1916196D02*
G01X11554597Y1788198D01*
G01X11559598Y1783197D01*
G01X11674599Y1783197D01*
G01X11679598Y1788198D01*
G01X11680101Y1829201D01*
G01X11635100Y1829201D01*
G01X11635100Y1874200D01*
G01X11679100Y1874200D01*
G01X11679598Y1916196D01*
G01X11674599Y1921198D01*
G01X11559598Y1921198D01*
G01X11554597Y1916196D01*
G37*
G36*
G01X11769598Y1916196D02*
G01X11769601Y1874200D01*
G01X11814099Y1874200D01*
G01X11814099Y1829201D01*
G01X11770101Y1829201D01*
G01X11769598Y1788198D01*
G01X11774599Y1783197D01*
G01X11889598Y1783197D01*
G01X11894599Y1788198D01*
G01X11894599Y1916196D01*
G01X11889598Y1921198D01*
G01X11774599Y1921198D01*
G01X11769598Y1916196D01*
G37*
G36*
G01X845998Y889500D02*
G01X845998Y761502D01*
G01X850999Y756501D01*
G01X966000Y756501D01*
G01X970999Y761502D01*
G01X971502Y802505D01*
G01X926501Y802505D01*
G01X926501Y847504D01*
G01X970501Y847504D01*
G01X970999Y889500D01*
G01X966000Y894502D01*
G01X850999Y894502D01*
G01X845998Y889500D01*
G37*
G36*
G01X1060999Y889500D02*
G01X1061001Y847504D01*
G01X1105499Y847504D01*
G01X1105499Y802505D01*
G01X1061502Y802505D01*
G01X1060999Y761502D01*
G01X1066000Y756501D01*
G01X1180998Y756501D01*
G01X1186000Y761502D01*
G01X1186000Y889500D01*
G01X1180998Y894502D01*
G01X1066000Y894502D01*
G01X1060999Y889500D01*
G37*
G36*
G01X934898Y9030200D02*
G01X934898Y8902202D01*
G01X939899Y8897201D01*
G01X1054900Y8897201D01*
G01X1059899Y8902202D01*
G01X1060402Y8943205D01*
G01X1015401Y8943205D01*
G01X1015401Y8988204D01*
G01X1059401Y8988204D01*
G01X1059899Y9030200D01*
G01X1054900Y9035202D01*
G01X939899Y9035202D01*
G01X934898Y9030200D01*
G37*
G36*
G01X1149899Y9030200D02*
G01X1149901Y8988204D01*
G01X1194399Y8988204D01*
G01X1194399Y8943205D01*
G01X1150402Y8943205D01*
G01X1149899Y8902202D01*
G01X1154900Y8897201D01*
G01X1269898Y8897201D01*
G01X1274900Y8902202D01*
G01X1274900Y9030200D01*
G01X1269898Y9035202D01*
G01X1154900Y9035202D01*
G01X1149899Y9030200D01*
G37*
G36*
G01X11417800Y3319602D02*
G01X11289802Y3319602D01*
G01X11284801Y3314601D01*
G01X11284801Y3199600D01*
G01X11289802Y3194601D01*
G01X11330805Y3194098D01*
G01X11330805Y3239099D01*
G01X11375804Y3239099D01*
G01X11375804Y3195099D01*
G01X11417800Y3194601D01*
G01X11422802Y3199600D01*
G01X11422802Y3314601D01*
G01X11417800Y3319602D01*
G37*
G36*
G01X11417800Y3104601D02*
G01X11375804Y3104599D01*
G01X11375804Y3060101D01*
G01X11330805Y3060101D01*
G01X11330805Y3104098D01*
G01X11289802Y3104601D01*
G01X11284801Y3099600D01*
G01X11284801Y2984602D01*
G01X11289802Y2979600D01*
G01X11417800Y2979600D01*
G01X11422802Y2984602D01*
G01X11422802Y3099600D01*
G01X11417800Y3104601D01*
G37*
G36*
G01X12027400Y3433902D02*
G01X11899402Y3433902D01*
G01X11894401Y3428901D01*
G01X11894401Y3313900D01*
G01X11899402Y3308901D01*
G01X11940405Y3308398D01*
G01X11940405Y3353399D01*
G01X11985404Y3353399D01*
G01X11985404Y3309399D01*
G01X12027400Y3308901D01*
G01X12032402Y3313900D01*
G01X12032402Y3428901D01*
G01X12027400Y3433902D01*
G37*
G36*
G01X12027400Y3218901D02*
G01X11985404Y3218899D01*
G01X11985404Y3174401D01*
G01X11940405Y3174401D01*
G01X11940405Y3218398D01*
G01X11899402Y3218901D01*
G01X11894401Y3213900D01*
G01X11894401Y3098902D01*
G01X11899402Y3093900D01*
G01X12027400Y3093900D01*
G01X12032402Y3098902D01*
G01X12032402Y3213900D01*
G01X12027400Y3218901D01*
G37*
G36*
G01X11506401Y5782399D02*
G01X11469375Y5782399D01*
G01X11459375Y5772399D01*
G01X11459375Y5741909D01*
G01X11449375Y5731909D01*
G01X11410625Y5731909D01*
G01X11400625Y5741909D01*
G01X11400625Y5772399D01*
G01X11390625Y5782399D01*
G01X11353599Y5782399D01*
G01X11343599Y5772399D01*
G01X11343599Y5643900D01*
G01X11353599Y5633900D01*
G01X11506401Y5633900D01*
G01X11516401Y5643900D01*
G01X11516401Y5772399D01*
G01X11506401Y5782399D01*
G37*
G36*
G01X11506401Y5952401D02*
G01X11469375Y5952401D01*
G01X11459375Y5962401D01*
G01X11459375Y5992891D01*
G01X11449375Y6002891D01*
G01X11410625Y6002891D01*
G01X11400625Y5992891D01*
G01X11400625Y5962401D01*
G01X11390625Y5952401D01*
G01X11353599Y5952401D01*
G01X11343599Y5962401D01*
G01X11343599Y6090900D01*
G01X11353599Y6100900D01*
G01X11506401Y6100900D01*
G01X11516401Y6090900D01*
G01X11516401Y5962401D01*
G01X11506401Y5952401D01*
G37*
G36*
G01X11214301Y5782399D02*
G01X11177275Y5782399D01*
G01X11167275Y5772399D01*
G01X11167275Y5741909D01*
G01X11157275Y5731909D01*
G01X11118525Y5731909D01*
G01X11108525Y5741909D01*
G01X11108525Y5772399D01*
G01X11098525Y5782399D01*
G01X11061499Y5782399D01*
G01X11051499Y5772399D01*
G01X11051499Y5643900D01*
G01X11061499Y5633900D01*
G01X11214301Y5633900D01*
G01X11224301Y5643900D01*
G01X11224301Y5772399D01*
G01X11214301Y5782399D01*
G37*
G36*
G01X11214301Y5952401D02*
G01X11177275Y5952401D01*
G01X11167275Y5962401D01*
G01X11167275Y5992891D01*
G01X11157275Y6002891D01*
G01X11118525Y6002891D01*
G01X11108525Y5992891D01*
G01X11108525Y5962401D01*
G01X11098525Y5952401D01*
G01X11061499Y5952401D01*
G01X11051499Y5962401D01*
G01X11051499Y6090900D01*
G01X11061499Y6100900D01*
G01X11214301Y6100900D01*
G01X11224301Y6090900D01*
G01X11224301Y5962401D01*
G01X11214301Y5952401D01*
G37*
G36*
G01X11903799Y7175299D02*
G01X11903799Y7212325D01*
G01X11893799Y7222325D01*
G01X11863309Y7222325D01*
G01X11853309Y7232325D01*
G01X11853309Y7271075D01*
G01X11863309Y7281075D01*
G01X11893799Y7281075D01*
G01X11903799Y7291075D01*
G01X11903799Y7328101D01*
G01X11893799Y7338101D01*
G01X11765300Y7338101D01*
G01X11755300Y7328101D01*
G01X11755300Y7175299D01*
G01X11765300Y7165299D01*
G01X11893799Y7165299D01*
G01X11903799Y7175299D01*
G37*
G36*
G01X12073801Y7175299D02*
G01X12073801Y7212325D01*
G01X12083801Y7222325D01*
G01X12114291Y7222325D01*
G01X12124291Y7232325D01*
G01X12124291Y7271075D01*
G01X12114291Y7281075D01*
G01X12083801Y7281075D01*
G01X12073801Y7291075D01*
G01X12073801Y7328101D01*
G01X12083801Y7338101D01*
G01X12212300Y7338101D01*
G01X12222300Y7328101D01*
G01X12222300Y7175299D01*
G01X12212300Y7165299D01*
G01X12083801Y7165299D01*
G01X12073801Y7175299D01*
G37*
G36*
G01X6390503Y852404D02*
G01X6390503Y980402D01*
G01X6385502Y985403D01*
G01X6270501Y985403D01*
G01X6265502Y980402D01*
G01X6264999Y939399D01*
G01X6310000Y939399D01*
G01X6310000Y894400D01*
G01X6266000Y894400D01*
G01X6265502Y852404D01*
G01X6270501Y847402D01*
G01X6385502Y847402D01*
G01X6390503Y852404D01*
G37*
G36*
G01X6175502Y852404D02*
G01X6175499Y894400D01*
G01X6131001Y894400D01*
G01X6131001Y939399D01*
G01X6174999Y939399D01*
G01X6175502Y980402D01*
G01X6170501Y985403D01*
G01X6055502Y985403D01*
G01X6050501Y980402D01*
G01X6050501Y852404D01*
G01X6055502Y847402D01*
G01X6170501Y847402D01*
G01X6175502Y852404D01*
G37*
G36*
G01X6516604Y365897D02*
G01X6644602Y365897D01*
G01X6649603Y370898D01*
G01X6649603Y485899D01*
G01X6644602Y490898D01*
G01X6603599Y491401D01*
G01X6603599Y446400D01*
G01X6558600Y446400D01*
G01X6558600Y490400D01*
G01X6516604Y490898D01*
G01X6511602Y485899D01*
G01X6511602Y370898D01*
G01X6516604Y365897D01*
G37*
G36*
G01X6516604Y580898D02*
G01X6558600Y580901D01*
G01X6558600Y625399D01*
G01X6603599Y625399D01*
G01X6603599Y581401D01*
G01X6644602Y580898D01*
G01X6649603Y585899D01*
G01X6649603Y700898D01*
G01X6644602Y705899D01*
G01X6516604Y705899D01*
G01X6511602Y700898D01*
G01X6511602Y585899D01*
G01X6516604Y580898D01*
G37*

G04 Pad Start*
G54D10*
G01X6400800Y7917815D03*
G01X6400800Y8297545D03*
G54D11*
G01X502078Y2040844D03*
G01X502078Y2320853D03*
G54D12*
G01X518410Y2180849D03*
G54D13*
G01X792480Y2191507D03*
G01X887476Y2441443D03*
G01X697484Y2441443D03*
G54D11*
G01X509994Y6717995D03*
G01X509994Y6998005D03*
G54D12*
G01X526326Y6858000D03*
G54D13*
G01X822960Y7013453D03*
G01X727964Y6763517D03*
G01X917956Y6763517D03*
G54D14*
G01X4233634Y3617709D03*
G01X4283647Y3392691D03*
G01X4333634Y3617709D03*
G01X4383646Y3392691D03*
G01X4433634Y3617709D03*
G01X4483646Y3392691D03*
G54D15*
G01X5283645Y3505213D03*
G01X3433636Y3505213D03*
G54D14*
G01X4533633Y3617684D03*
G01X4583646Y3392691D03*
G01X4633633Y3617684D03*
G01X4683646Y3392691D03*
G01X4733633Y3617684D03*
G01X4783646Y3392691D03*
G01X4833633Y3617684D03*
G01X4883645Y3392691D03*
G01X4933658Y3617684D03*
G01X4983645Y3392691D03*
G01X5033658Y3617684D03*
G01X5083645Y3392691D03*
G01X4183672Y3392691D03*
G01X4133660Y3617709D03*
G01X4083647Y3392691D03*
G01X4033660Y3617709D03*
G01X3983647Y3392691D03*
G01X3933635Y3617709D03*
G01X3883647Y3392691D03*
G01X3833635Y3617709D03*
G01X3783648Y3392691D03*
G01X3733635Y3617709D03*
G01X3683648Y3392691D03*
G01X3633635Y3617709D03*
G01X3867874Y5659869D03*
G01X3917887Y5434851D03*
G01X3967874Y5659869D03*
G01X4017886Y5434851D03*
G01X4067874Y5659869D03*
G01X4117886Y5434851D03*
G54D15*
G01X4917885Y5547373D03*
G01X3067876Y5547373D03*
G54D14*
G01X4167873Y5659844D03*
G01X4217886Y5434851D03*
G01X4267873Y5659844D03*
G01X4317886Y5434851D03*
G01X4367873Y5659844D03*
G01X4417886Y5434851D03*
G01X4467873Y5659844D03*
G01X4517885Y5434851D03*
G01X4567898Y5659844D03*
G01X4617885Y5434851D03*
G01X4667898Y5659844D03*
G01X4717885Y5434851D03*
G01X3817912Y5434851D03*
G01X3767900Y5659869D03*
G01X3717887Y5434851D03*
G01X3667900Y5659869D03*
G01X3617887Y5434851D03*
G01X3567875Y5659869D03*
G01X3517887Y5434851D03*
G01X3467875Y5659869D03*
G01X3417888Y5434851D03*
G01X3367875Y5659869D03*
G01X3317888Y5434851D03*
G01X3267875Y5659869D03*
G54D16*
G01X11736061Y4202566D03*
G01X11609061Y4202566D03*
G01X11482061Y4202566D03*
G01X11355061Y4202566D03*
G01X11228061Y4202566D03*
G01X11101061Y4202566D03*
G01X10974061Y4202566D03*
G01X10974061Y4725552D03*
G01X11101061Y4725552D03*
G01X11228061Y4725552D03*
G01X11355061Y4725552D03*
G01X11482061Y4725552D03*
G01X11609061Y4725552D03*
G01X11736061Y4725552D03*
G54D10*
G01X6949440Y7917815D03*
G01X6949440Y8297545D03*
G54D13*
G01X11006836Y3283280D03*
G01X10816844Y3283280D03*
G01X10911840Y3483280D03*
G54D17*
G01X11623421Y7002780D03*
G01X11623421Y6875780D03*
G01X11623421Y6748780D03*
G01X11623421Y6621780D03*
G01X11068939Y7002780D03*
G01X11068939Y6875780D03*
G01X11068939Y6748780D03*
G01X11068939Y6621780D03*
G54D18*
G01X11346180Y6812280D03*
G54D20*
G01X11988800Y6444501D03*
G01X11988800Y5874499D03*
G54D21*
G01X4055313Y787400D03*
G01X3463087Y787400D03*
G01X2965247Y7955280D03*
G01X3557473Y7955280D03*
G01X6135167Y6126480D03*
G01X6727393Y6126480D03*
G54D22*
G01X5608320Y6392113D03*
G01X5608320Y5799887D03*
G54D23*
G01X4318000Y8193405D03*
G01X4223004Y7986395D03*
G01X4412996Y7986395D03*
G54D24*
G01X12051195Y4337710D03*
G01X12231205Y4337710D03*
G54D25*
G01X12051195Y4417695D03*
G01X12231205Y4417695D03*
G01X12051195Y4497705D03*
G01X12231205Y4497705D03*
G54D24*
G01X12051195Y4577690D03*
G01X12231205Y4577690D03*
G54D26*
G01X11483759Y2628900D03*
G01X11249241Y2628900D03*
G01X11249241Y2806700D03*
G01X11483759Y2806700D03*
G54D27*
G01X6337910Y514604D03*
G01X6337910Y609600D03*
G01X6337910Y704596D03*
G01X6108090Y704596D03*
G01X6108090Y609600D03*
G01X6108090Y514604D03*
G04 Pad End*

M02*

